<?xml version="1.0" encoding="UTF-8"?>
<svg id="Layer_1" data-name="Layer 1" xmlns="http://www.w3.org/2000/svg" xmlns:xlink="http://www.w3.org/1999/xlink" viewBox="0 0 184 148">
  <defs>
    <style>
      .cls-1 {
        fill: none;
      }

      .cls-2 {
        isolation: isolate;
      }

      .cls-3 {
        clip-path: url(#clippath-1);
      }

      .cls-4 {
        clip-path: url(#clippath-2);
      }

      .cls-5 {
        fill: #fff;
      }
    </style>
    <clipPath id="clippath-1">
      <polygon class="cls-1" points="-13.55 81.75 90.41 21.34 195.04 81.75 91.09 142.16 -13.55 81.75"/>
    </clipPath>
    <clipPath id="clippath-2">
      <polygon class="cls-1" points="40.4 66.02 70.45 40.29 142.66 80.32 112.61 106.05 40.4 66.02"/>
    </clipPath>
  </defs>
  <g class="cls-2">
    <g class="cls-3">
      <g>
        <path class="cls-5" d="M168.1,69.05L101.77,30.76c-6.27-3.62-16.4-3.62-22.63,0L13.25,69.05c-6.23,3.62-6.19,9.48.08,13.1l66.33,38.3c6.27,3.62,16.39,3.62,22.62,0l65.9-38.3c6.23-3.62,6.2-9.49-.07-13.11"/>
        <path d="M11.63,95.47c-3.62-2.09-5.6-4.99-5.42-8-.02-.27-.02-.53,0-.82-.03-.27-.03-.53-.01-.82-.02-.26-.02-.53,0-.82-.01-.27-.02-.53,0-.82-.01-.27-.02-.53,0-.82-.01-.27-.02-.53,0-.82-.02-.27-.02-.53,0-.82-.02-.27-.02-.53,0-.82-.02-.27-.02-.53,0-.82-.02-.27-.02-.53,0-.82-.03-.27-.03-.53-.01-.82-.02-.26-.02-.53,0-.82-.01-.27-.02-.53,0-.82-.01-.27-.02-.53,0-.82-.21-2.98,1.74-5.89,5.33-7.97L77.38,29.74c7.19-4.18,18.93-4.18,26.16,0l66.33,38.3c3.62,2.09,5.59,5,5.42,8,.03.27.03.53,0,.82.03.27.02.53,0,.82.02.27.02.53,0,.82.02.27.02.53.01.82.01.27.02.53,0,.82.01.27.02.53,0,.82.01.27.02.53,0,.82.01.27.02.53,0,.82.02.27.02.53,0,.82.03.27.03.53,0,.82.03.27.02.53,0,.82.02.27.02.53,0,.82.02.27.02.53.01.82.01.27.02.53,0,.8v.02c.21,2.98-1.74,5.89-5.33,7.97l-65.9,38.3c-7.19,4.18-18.93,4.18-26.16,0L11.63,95.47M170.57,67.62L104.24,29.32c-7.63-4.4-20-4.4-27.58,0L10.76,67.62c-3.79,2.2-5.83,5.27-5.62,8.39-.02.28-.02.56,0,.82-.02.28-.02.56,0,.82-.02.28-.02.56,0,.82-.01.28-.02.56,0,.82-.01.28,0,.56,0,.82-.02.28,0,.56,0,.82-.02.28-.02.56,0,.82-.02.28-.02.56,0,.82-.02.28-.02.56,0,.83-.02.28-.02.56,0,.82-.02.28-.02.56,0,.82-.02.28-.02.56,0,.82-.01.28-.02.56,0,.82-.01.28,0,.56,0,.82-.19,3.14,1.9,6.2,5.72,8.41l66.33,38.3c7.62,4.4,19.99,4.4,27.57,0l65.9-38.3c3.78-2.2,5.84-5.26,5.62-8.39.02-.28,0-.55,0-.81.01-.28.02-.56,0-.82.01-.28,0-.56,0-.82.01-.28,0-.56,0-.82.01-.28,0-.56,0-.82.01-.28,0-.56,0-.82.02-.28,0-.56-.01-.82.02-.28.02-.56,0-.82.02-.28.02-.56,0-.82.02-.28.02-.56,0-.82.01-.28.02-.56,0-.82.01-.28,0-.56,0-.82.01-.28,0-.56,0-.82.01-.28,0-.56,0-.82.18-3.14-1.91-6.21-5.72-8.41"/>
      </g>
    </g>
  </g>
  <g class="cls-2">
    <g class="cls-4">
      <path d="M142.66,80.32l-9.05-5.02-24.76,13.52,9.05,5.01,24.77-13.51M122.3,69.03l-9.05-5.01-38.54,21.03,18.1,10.03,11.01-6.01-9.05-5.01,27.52-15.02M109.11,61.72l-9.05-5.02-38.53,21.03,9.05,5.01,38.54-21.03M97.75,55.42l-24.88-13.79-11,6.01,7.92,4.39-27.54,15.02,9.05,5.02,27.53-15.02,7.92,4.39,11-6.01M110.61,92.82c-1.25-.69-2.86-.99-4.81-.89-1.95.09-3.69.56-5.21,1.39-1.54.82-2.4,1.78-2.58,2.85-.19,1.08.34,1.97,1.59,2.66s2.86.99,4.81.89c1.95-.09,3.7-.56,5.23-1.38,1.52-.83,2.37-1.79,2.56-2.86.19-1.08-.34-1.97-1.59-2.66"/>
    </g>
  </g>
</svg>