<?xml version="1.0" encoding="UTF-8"?>
<svg id="Layer_1" data-name="Layer 1" xmlns="http://www.w3.org/2000/svg" xmlns:xlink="http://www.w3.org/1999/xlink" viewBox="0 0 184 148">
  <defs>
    <style>
      .cls-1 {
        fill: none;
      }

      .cls-2 {
        isolation: isolate;
      }

      .cls-3 {
        clip-path: url(#clippath-1);
      }

      .cls-4 {
        fill: #fff;
      }

      .cls-5 {
        clip-path: url(#clippath);
      }
    </style>
    <clipPath id="clippath">
      <polygon class="cls-1" points="-22.95 76.25 90.88 10.1 205.45 76.25 91.62 142.4 -22.95 76.25"/>
    </clipPath>
    <clipPath id="clippath-1">
      <polygon class="cls-1" points="43.4 57.02 73.45 31.29 145.66 71.32 115.61 97.05 43.4 57.02"/>
    </clipPath>
  </defs>
  <g class="cls-2">
    <g class="cls-5">
      <g>
        <path d="M176.41,88.17c-.17,2.67-2.01,5.3-5.5,7.33l-65.89,38.29c-7.39,4.29-19.44,4.29-26.87,0L11.81,95.5c-3.54-2.04-5.4-4.7-5.58-7.38-.17,2.95,1.69,5.95,5.59,8.2l66.33,38.3c7.43,4.29,19.48,4.29,26.87,0l65.9-38.3c3.85-2.24,5.68-5.21,5.5-8.15"/>
        <path d="M176.41,87.31c-.16,2.68-1.99,5.33-5.5,7.37l-65.9,38.3c-7.38,4.29-19.44,4.29-26.87,0L11.81,94.68c-3.55-2.05-5.42-4.72-5.59-7.41-.02.29-.02.57,0,.86.18,2.68,2.05,5.33,5.58,7.38l66.33,38.3c7.43,4.29,19.48,4.29,26.87,0l65.89-38.29c3.5-2.03,5.33-4.67,5.5-7.33.02-.29.02-.57,0-.86"/>
        <path d="M176.4,86.49c-.16,2.68-1.99,5.33-5.5,7.37l-65.9,38.3c-7.38,4.29-19.44,4.29-26.87,0L11.8,93.86c-3.54-2.04-5.4-4.69-5.58-7.37-.02.26-.01.52,0,.78.17,2.69,2.03,5.36,5.59,7.41l66.33,38.3c7.43,4.29,19.49,4.29,26.87,0l65.9-38.3c3.51-2.04,5.34-4.69,5.5-7.37.02-.27.01-.55,0-.82"/>
        <path d="M176.4,85.67c-.16,2.68-1.99,5.33-5.5,7.37l-65.9,38.3c-7.38,4.29-19.44,4.29-26.87,0L11.8,93.04c-3.54-2.04-5.4-4.69-5.58-7.37-.02.27-.01.55,0,.82.19,2.68,2.05,5.33,5.58,7.37l66.33,38.3c7.43,4.29,19.48,4.29,26.87,0l65.9-38.3c3.51-2.04,5.35-4.69,5.5-7.37.02-.27.01-.55,0-.82"/>
        <path d="M176.39,84.85c-.16,2.68-1.99,5.33-5.5,7.37l-65.9,38.3c-7.38,4.29-19.44,4.29-26.87,0L11.79,92.23c-3.54-2.04-5.4-4.69-5.58-7.37-.02.27-.01.55,0,.82.19,2.68,2.05,5.33,5.58,7.37l66.33,38.3c7.43,4.29,19.48,4.29,26.87,0l65.9-38.3c3.51-2.04,5.35-4.69,5.5-7.37.02-.27.01-.55,0-.82"/>
        <path d="M176.39,84.03c-.15,2.68-1.99,5.33-5.5,7.38l-65.9,38.3c-7.38,4.29-19.44,4.29-26.87,0L11.79,91.41c-3.52-2.03-5.38-4.67-5.59-7.33-.01.26-.01.52,0,.78.19,2.68,2.05,5.33,5.58,7.37l66.33,38.3c7.43,4.29,19.48,4.29,26.87,0l65.9-38.3c3.51-2.04,5.35-4.69,5.5-7.37.02-.27.01-.55,0-.82"/>
        <path d="M176.38,83.17c-.14,2.69-1.97,5.36-5.5,7.41l-65.9,38.3c-7.38,4.29-19.44,4.29-26.87,0L11.78,90.58c-3.53-2.04-5.4-4.69-5.58-7.37-.02.29-.01.57,0,.86.2,2.67,2.07,5.3,5.59,7.33l66.32,38.29c7.44,4.29,19.49,4.29,26.87,0l65.9-38.3c3.52-2.04,5.35-4.7,5.5-7.38.02-.29.01-.57,0-.86"/>
        <path d="M176.37,82.39c-.16,2.68-1.99,5.33-5.5,7.37l-65.9,38.3c-7.38,4.29-19.44,4.29-26.87,0L11.77,89.77c-3.54-2.04-5.4-4.69-5.58-7.37-.02.27-.01.55,0,.82.19,2.68,2.05,5.33,5.58,7.37l66.33,38.3c7.43,4.29,19.49,4.29,26.87,0l65.9-38.3c3.53-2.05,5.36-4.72,5.5-7.41.01-.26.01-.52,0-.78"/>
        <path d="M176.37,81.57c-.16,2.68-1.99,5.33-5.5,7.37l-65.9,38.3c-7.38,4.29-19.44,4.29-26.87,0L11.77,88.95c-3.54-2.04-5.4-4.69-5.58-7.37-.02.27-.01.55,0,.82.19,2.68,2.05,5.33,5.58,7.37l66.33,38.3c7.43,4.29,19.48,4.29,26.87,0l65.9-38.3c3.51-2.04,5.35-4.69,5.5-7.37.02-.27.01-.55,0-.82"/>
        <path d="M176.37,80.8c-.17,2.67-2.01,5.3-5.5,7.33l-65.89,38.29c-7.39,4.29-19.44,4.29-26.87,0L11.76,88.13c-3.54-2.04-5.4-4.7-5.58-7.38-.02.27-.01.55,0,.82.19,2.68,2.05,5.33,5.58,7.37l66.33,38.3c7.43,4.29,19.48,4.29,26.87,0l65.9-38.3c3.51-2.04,5.35-4.69,5.5-7.37.02-.26.01-.52,0-.78"/>
        <path d="M176.37,79.94c-.16,2.68-1.99,5.33-5.5,7.37l-65.9,38.3c-7.38,4.29-19.44,4.29-26.87,0L11.77,87.31c-3.55-2.05-5.42-4.72-5.59-7.41-.02.29-.02.57,0,.86.18,2.68,2.05,5.33,5.58,7.38l66.33,38.3c7.43,4.29,19.48,4.29,26.87,0l65.89-38.29c3.5-2.03,5.33-4.67,5.5-7.33.02-.29.02-.57,0-.86"/>
        <path d="M176.36,79.12c-.16,2.68-1.99,5.33-5.5,7.37l-65.9,38.3c-7.38,4.29-19.44,4.29-26.87,0L11.76,86.49c-3.54-2.04-5.4-4.69-5.58-7.37-.02.26-.01.52,0,.78.17,2.69,2.03,5.36,5.59,7.41l66.33,38.3c7.43,4.29,19.48,4.29,26.87,0l65.9-38.3c3.51-2.04,5.34-4.69,5.5-7.37.02-.27.01-.55,0-.82"/>
        <path d="M176.36,78.3c-.16,2.68-1.99,5.33-5.5,7.37l-65.9,38.3c-7.38,4.29-19.44,4.29-26.87,0L11.76,85.67c-3.54-2.04-5.4-4.69-5.58-7.37-.02.27-.01.55,0,.82.19,2.68,2.05,5.33,5.58,7.37l66.33,38.3c7.43,4.29,19.48,4.29,26.87,0l65.9-38.3c3.51-2.04,5.35-4.69,5.5-7.37.02-.27.01-.55,0-.82"/>
        <path d="M176.35,77.48c-.16,2.68-1.99,5.33-5.5,7.37l-65.9,38.3c-7.38,4.29-19.44,4.29-26.87,0L11.75,84.85c-3.54-2.04-5.4-4.69-5.58-7.37-.02.27-.01.55,0,.82.19,2.68,2.05,5.33,5.58,7.37l66.33,38.3c7.43,4.29,19.48,4.29,26.87,0l65.9-38.3c3.51-2.04,5.35-4.69,5.5-7.37.02-.27.01-.55,0-.82"/>
        <path d="M176.35,76.66c-.15,2.68-1.99,5.33-5.5,7.38l-65.9,38.3c-7.38,4.29-19.44,4.29-26.87,0L11.75,84.03c-3.52-2.03-5.38-4.67-5.59-7.33-.01.26-.01.52,0,.78.19,2.68,2.05,5.33,5.58,7.37l66.33,38.3c7.43,4.29,19.48,4.29,26.87,0l65.9-38.3c3.51-2.04,5.35-4.69,5.5-7.37.02-.27.01-.55,0-.82"/>
        <path d="M176.34,75.8c-.14,2.69-1.97,5.36-5.5,7.41l-65.9,38.3c-7.38,4.29-19.44,4.29-26.87,0L11.74,83.21c-3.53-2.04-5.4-4.69-5.58-7.37-.02.29-.01.57,0,.86.2,2.67,2.07,5.3,5.59,7.33l66.32,38.29c7.44,4.29,19.49,4.29,26.87,0l65.9-38.3c3.52-2.04,5.35-4.7,5.5-7.38.02-.29.01-.57,0-.86"/>
        <path d="M176.33,75.02c-.16,2.68-1.99,5.33-5.5,7.37l-65.9,38.3c-7.38,4.29-19.44,4.29-26.87,0L11.73,82.39c-3.54-2.04-5.4-4.69-5.58-7.37-.02.27-.01.55,0,.82.19,2.68,2.05,5.33,5.58,7.37l66.33,38.3c7.43,4.29,19.49,4.29,26.87,0l65.9-38.3c3.53-2.05,5.36-4.72,5.5-7.41.01-.26.01-.52,0-.78"/>
        <path d="M176.33,74.2c-.16,2.68-1.99,5.33-5.5,7.37l-65.9,38.3c-7.38,4.29-19.44,4.29-26.87,0L11.73,81.58c-3.54-2.04-5.4-4.69-5.58-7.37-.02.27-.01.55,0,.82.19,2.68,2.05,5.33,5.58,7.37l66.33,38.3c7.43,4.29,19.48,4.29,26.87,0l65.9-38.3c3.51-2.04,5.35-4.69,5.5-7.37.02-.27.01-.55,0-.82"/>
        <path d="M176.32,73.42c-.17,2.67-2.01,5.3-5.5,7.33l-65.89,38.29c-7.39,4.29-19.44,4.29-26.87,0L11.72,80.76c-3.54-2.04-5.4-4.7-5.58-7.38-.02.27-.01.55,0,.82.19,2.68,2.05,5.33,5.58,7.37l66.33,38.3c7.43,4.29,19.48,4.29,26.87,0l65.9-38.3c3.51-2.04,5.35-4.69,5.5-7.37.02-.26.01-.52,0-.78"/>
        <path d="M176.32,72.57c-.16,2.68-1.99,5.33-5.5,7.37l-65.9,38.3c-7.38,4.29-19.44,4.29-26.87,0L11.73,79.94c-3.55-2.05-5.42-4.72-5.59-7.41-.02.29-.02.57,0,.86.18,2.68,2.05,5.33,5.58,7.38l66.33,38.3c7.43,4.29,19.49,4.29,26.87,0l65.89-38.29c3.5-2.03,5.33-4.67,5.5-7.33.02-.29.02-.57,0-.86"/>
        <path d="M176.32,71.74c-.16,2.68-1.99,5.33-5.5,7.37l-65.9,38.3c-7.38,4.29-19.44,4.29-26.87,0L11.72,79.12c-3.54-2.04-5.4-4.69-5.58-7.37-.02.26-.01.52,0,.78.17,2.69,2.03,5.36,5.59,7.41l66.33,38.3c7.43,4.29,19.49,4.29,26.87,0l65.9-38.3c3.51-2.04,5.34-4.69,5.5-7.37.02-.27.01-.55,0-.82"/>
        <path d="M176.31,70.93c-.16,2.68-1.99,5.33-5.5,7.37l-65.9,38.3c-7.38,4.29-19.44,4.29-26.87,0L11.72,78.3c-3.54-2.04-5.4-4.69-5.58-7.37-.02.27-.01.55,0,.82.19,2.68,2.05,5.33,5.58,7.37l66.33,38.3c7.43,4.29,19.48,4.29,26.87,0l65.9-38.3c3.51-2.04,5.35-4.69,5.5-7.37.02-.27.01-.55,0-.82"/>
        <path d="M176.31,70.11c-.16,2.68-1.99,5.33-5.5,7.37l-65.9,38.3c-7.38,4.29-19.44,4.29-26.87,0L11.71,77.48c-3.54-2.04-5.4-4.69-5.58-7.37-.02.27-.01.55,0,.82.19,2.68,2.05,5.33,5.58,7.37l66.33,38.3c7.43,4.29,19.48,4.29,26.87,0l65.9-38.3c3.51-2.04,5.35-4.69,5.5-7.37.02-.27.01-.55,0-.82"/>
        <path d="M176.31,69.28c-.15,2.68-1.99,5.33-5.5,7.38l-65.9,38.3c-7.38,4.29-19.44,4.29-26.87,0L11.71,76.66c-3.52-2.03-5.38-4.67-5.59-7.33-.01.26-.01.52,0,.78.19,2.68,2.05,5.33,5.58,7.37l66.33,38.3c7.43,4.29,19.48,4.29,26.87,0l65.9-38.3c3.51-2.04,5.35-4.69,5.5-7.37.02-.27.01-.55,0-.82"/>
        <path d="M176.3,68.43c-.14,2.69-1.97,5.36-5.5,7.41l-65.9,38.3c-7.38,4.29-19.44,4.29-26.87,0L11.7,75.84c-3.53-2.04-5.4-4.69-5.58-7.37-.02.29-.01.57,0,.86.2,2.67,2.07,5.3,5.59,7.33l66.32,38.29c7.44,4.29,19.49,4.29,26.87,0l65.9-38.3c3.52-2.04,5.35-4.7,5.5-7.38.02-.29.01-.57,0-.86"/>
        <path d="M176.29,67.65c-.16,2.68-1.99,5.33-5.5,7.37l-65.9,38.3c-7.38,4.29-19.44,4.29-26.87,0L11.69,75.02c-3.54-2.04-5.4-4.69-5.58-7.37-.02.27-.01.55,0,.82.19,2.68,2.05,5.33,5.58,7.37l66.33,38.3c7.43,4.29,19.49,4.29,26.87,0l65.9-38.3c3.53-2.05,5.36-4.72,5.5-7.41.01-.26.01-.52,0-.78"/>
        <path d="M176.29,66.83c-.16,2.68-1.99,5.33-5.5,7.37l-65.9,38.3c-7.38,4.29-19.44,4.29-26.87,0L11.69,74.2c-3.54-2.04-5.4-4.69-5.58-7.37-.02.27-.01.55,0,.82.19,2.68,2.05,5.33,5.58,7.37l66.33,38.3c7.43,4.29,19.48,4.29,26.87,0l65.9-38.3c3.51-2.04,5.35-4.69,5.5-7.37.02-.27.01-.55,0-.82"/>
        <path d="M176.28,66.05c-.17,2.67-2.01,5.3-5.5,7.33l-65.89,38.29c-7.39,4.29-19.44,4.29-26.87,0L11.68,73.38c-3.54-2.04-5.4-4.7-5.58-7.38-.02.27-.01.55,0,.82.19,2.68,2.05,5.33,5.58,7.37l66.33,38.3c7.43,4.29,19.48,4.29,26.87,0l65.9-38.3c3.51-2.04,5.35-4.69,5.5-7.37.02-.26.01-.52,0-.78"/>
        <path d="M176.28,65.19c-.16,2.68-1.99,5.33-5.5,7.37l-65.9,38.3c-7.38,4.29-19.44,4.29-26.87,0L11.68,72.56c-3.55-2.05-5.42-4.72-5.59-7.41-.02.29-.02.57,0,.86.18,2.68,2.05,5.33,5.58,7.38l66.33,38.3c7.43,4.29,19.48,4.29,26.87,0l65.89-38.29c3.5-2.03,5.33-4.67,5.5-7.33.02-.29.02-.57,0-.86"/>
        <path d="M176.28,64.37c-.16,2.68-1.99,5.33-5.5,7.37l-65.9,38.3c-7.38,4.29-19.44,4.29-26.87,0L11.68,71.74c-3.54-2.04-5.4-4.69-5.58-7.37-.02.26-.01.52,0,.78.17,2.69,2.03,5.36,5.59,7.41l66.33,38.3c7.43,4.29,19.49,4.29,26.87,0l65.9-38.3c3.51-2.04,5.34-4.69,5.5-7.37.02-.27.01-.55,0-.82"/>
        <path d="M168.22,57.61L101.89,19.32c-6.07-3.5-15.9-3.5-21.92,0L14.07,57.62c-6.03,3.5-5.99,9.19.07,12.7l66.33,38.3c6.06,3.5,15.89,3.5,21.92,0l65.9-38.3c6.02-3.5,5.99-9.2-.07-12.7M13.44,70.72c-6.45-3.73-6.48-9.79-.07-13.52L79.27,18.91c6.41-3.73,16.88-3.73,23.33,0l66.33,38.3c6.45,3.73,6.49,9.79.08,13.51l-65.9,38.3c-6.41,3.73-16.88,3.73-23.34,0L13.44,70.72M170.69,56.18L104.36,17.88c-7.43-4.29-19.48-4.29-26.87,0L11.59,56.18c-3.87,2.25-5.7,5.24-5.5,8.19.19,2.68,2.05,5.33,5.58,7.37l66.33,38.3c7.43,4.29,19.48,4.29,26.87,0l65.9-38.3c3.51-2.04,5.35-4.69,5.5-7.37.17-2.95-1.69-5.94-5.59-8.19"/>
        <path class="cls-4" d="M14.15,70.31c-6.07-3.5-6.1-9.19-.07-12.7L79.97,19.32c6.02-3.5,15.85-3.5,21.92,0l66.33,38.3c6.06,3.5,6.09,9.2.07,12.7l-65.9,38.3c-6.03,3.5-15.86,3.5-21.92,0L14.15,70.31M168.93,57.21L102.6,18.91c-6.45-3.73-16.92-3.73-23.33,0L13.37,57.21c-6.41,3.73-6.39,9.79.07,13.52l66.33,38.3c6.45,3.73,16.92,3.72,23.34,0l65.9-38.3c6.41-3.73,6.38-9.79-.08-13.51"/>
      </g>
    </g>
  </g>
  <g class="cls-2">
    <g class="cls-3">
      <path class="cls-4" d="M145.66,71.32l-9.05-5.02-24.76,13.52,9.05,5.01,24.77-13.51M125.3,60.03l-9.05-5.01-38.54,21.03,18.1,10.03,11.01-6.01-9.05-5.01,27.52-15.02M112.11,52.72l-9.05-5.02-38.54,21.03,9.05,5.02,38.54-21.03M100.75,46.42l-24.88-13.79-11,6.01,7.92,4.39-27.54,15.02,9.05,5.02,27.53-15.02,7.92,4.39,11-6.01M113.61,83.82c-1.26-.7-2.86-.99-4.81-.89-1.95.09-3.69.56-5.21,1.39-1.54.82-2.4,1.78-2.58,2.85-.19,1.08.34,1.97,1.59,2.66s2.86.99,4.81.89c1.95-.09,3.7-.56,5.23-1.38,1.52-.83,2.38-1.79,2.56-2.86.19-1.08-.34-1.97-1.59-2.66"/>
    </g>
  </g>
</svg>