<?xml version="1.0" encoding="UTF-8"?>
<svg id="Layer_1" data-name="Layer 1" xmlns="http://www.w3.org/2000/svg" xmlns:xlink="http://www.w3.org/1999/xlink" viewBox="0 0 234 205">
  <defs>
    <style>
      .cls-1 {
        fill: none;
      }

      .cls-2 {
        isolation: isolate;
      }

      .cls-3 {
        clip-path: url(#clippath-1);
      }

      .cls-4 {
        fill: #fff;
      }

      .cls-5 {
        clip-path: url(#clippath);
      }
    </style>
    <clipPath id="clippath">
      <polygon class="cls-1" points="53.52 59 160.65 -3.25 268.48 59 161.35 121.26 53.52 59"/>
    </clipPath>
    <clipPath id="clippath-1">
      <polygon class="cls-1" points="-7.4 109.06 64.76 67.13 219.75 156.61 147.59 198.54 -7.4 109.06"/>
    </clipPath>
  </defs>
  <g class="cls-2">
    <g class="cls-5">
      <g>
        <path d="M185.86,15.79c-13.91-8.03-36.39-8.03-50.2,0s-13.75,21.05.16,29.08,36.38,8.03,50.2,0c13.82-8.03,13.74-21.05-.16-29.08"/>
        <path d="M132.97,104.05c-7.74-4.47-11.93-10.43-11.78-16.79,0-.27,0-.54,0-.82,0-.27,0-.54,0-.82-.01-.27-.02-.54,0-.82,0-.27-.02-.54,0-.82,0-.27-.02-.54,0-.82-.01-.27-.02-.54-.01-.82,0-.27,0-.54,0-.82,0-.27,0-.54,0-.82,0-.27,0-.54,0-.82,0-.27,0-.54,0-.82,0-.27,0-.54,0-.82-.01-.27-.02-.54,0-.82,0-.27-.02-.54,0-.82,0-.27-.02-.54,0-.82-.01-.27-.02-.54-.01-.82,0-.27,0-.54,0-.82,0-.27,0-.54,0-.82,0-.27,0-.54,0-.82,0-.27,0-.54,0-.82,0-.27,0-.54,0-.82-.01-.27-.02-.54,0-.82,0-.27-.02-.54,0-.82,0-.27-.02-.54,0-.82-.01-.27-.02-.54-.01-.82,0-.27,0-.54,0-.82,0-.27,0-.54,0-.82,0-.27,0-.54,0-.82,0-.27,0-.54,0-.82,0-.27,0-.54,0-.82-.01-.27-.02-.54,0-.82,0-.27-.02-.54,0-.82,0-.27-.02-.54,0-.82-.01-.27-.02-.54-.01-.82,0-.27,0-.54,0-.82,0-.27,0-.54,0-.82,0-.27,0-.54,0-.82,0-.27,0-.54,0-.82,0-.27,0-.54,0-.82-.01-.27-.02-.54,0-.82,0-.27-.02-.54,0-.82,0-.27-.02-.54,0-.82-.01-.27-.02-.54-.01-.82,0-.27,0-.54,0-.82,0-.27,0-.54,0-.82,0-.27,0-.54,0-.82,0-.27,0-.54,0-.82,0-.27,0-.54,0-.82-.01-.27-.02-.54,0-.82,0-.27-.02-.54,0-.82,0-.27-.02-.54,0-.82-.01-.27-.02-.54-.01-.82,0-.27,0-.54,0-.82,0-.27,0-.54,0-.82,0-.27,0-.54,0-.82,0-.27,0-.54,0-.82,0-.27,0-.54,0-.82-.01-.27-.02-.54,0-.82,0-.27-.02-.54,0-.82,0-.27-.02-.54,0-.82-.01-.27-.02-.54-.01-.82,0-.27,0-.54,0-.82,0-.27,0-.54,0-.82,0-.27,0-.54,0-.82,0-.27,0-.54,0-.82,0-.27,0-.54,0-.82-.01-.27-.02-.54,0-.82,0-.27-.02-.54,0-.82,0-.27-.02-.54,0-.82-.01-.27-.02-.54-.01-.82-.22-6.35,3.89-12.31,11.59-16.79,15.54-9.03,40.92-9.03,56.57,0,7.74,4.47,11.92,10.43,11.77,16.8.01.27.02.54,0,.82,0,.27.02.54,0,.82,0,.27.02.54,0,.82,0,.27.02.54,0,.82,0,.27,0,.54,0,.82,0,.27,0,.54,0,.82.01.27,0,.54.01.82,0,.27,0,.54,0,.82,0,.27,0,.54,0,.82.01.27.02.54,0,.82,0,.27.02.54,0,.82,0,.27.02.54,0,.82,0,.27.02.54,0,.82,0,.27,0,.54,0,.82,0,.27,0,.54,0,.82.01.27,0,.54.01.82,0,.27,0,.54,0,.82,0,.27,0,.54,0,.82.01.27.02.54,0,.82,0,.27.02.54,0,.82,0,.27.02.54,0,.82,0,.27.02.54,0,.82,0,.27,0,.54,0,.82,0,.27,0,.54,0,.82.01.27,0,.54.01.82,0,.27,0,.54,0,.82,0,.27,0,.54,0,.82.01.27.02.54,0,.82,0,.27.02.54,0,.82,0,.27.02.54,0,.82,0,.27.02.54,0,.82,0,.27,0,.54,0,.82,0,.27,0,.54,0,.82.01.27,0,.54.01.82,0,.27,0,.54,0,.82,0,.27,0,.54,0,.82.01.27.02.54,0,.82,0,.27.02.54,0,.82,0,.27.02.54,0,.82,0,.27.02.54,0,.82,0,.27,0,.54,0,.82,0,.27,0,.54,0,.82.01.27,0,.54.01.82,0,.27,0,.54,0,.82,0,.27,0,.54,0,.82.01.27.02.54,0,.82,0,.27.02.54,0,.82,0,.27.02.54,0,.82,0,.27.02.54,0,.82,0,.27,0,.54,0,.82,0,.27,0,.54,0,.82.01.27,0,.54.01.82,0,.27,0,.54,0,.82,0,.27,0,.54,0,.82.01.27.02.54,0,.82,0,.27.02.54,0,.82,0,.27.02.54,0,.82,0,.27.02.54,0,.82,0,.27,0,.54,0,.82,0,.27,0,.54,0,.82.01.27,0,.54.01.82,0,.27,0,.54,0,.82,0,.27,0,.54,0,.82.01.27.02.54,0,.82,0,.27.02.54,0,.82,0,.27.02.54,0,.82,0,.27.02.54,0,.82,0,.27,0,.54,0,.82,0,.27,0,.54,0,.81h0c.23,6.36-3.89,12.33-11.58,16.8-15.55,9.03-40.92,9.03-56.57,0M189.74,13.54c-16.04-9.26-42.05-9.26-57.98,0-7.89,4.59-12.11,10.7-11.88,17.2,0,.28,0,.55,0,.82,0,.28,0,.55,0,.82,0,.28,0,.55,0,.82,0,.28,0,.56,0,.82,0,.28,0,.56.01.82-.01.27,0,.55,0,.82-.01.27,0,.55,0,.82,0,.28,0,.55,0,.82-.01.28,0,.55,0,.82,0,.28,0,.55,0,.82,0,.28,0,.55,0,.82,0,.28,0,.55,0,.82,0,.28,0,.56,0,.82,0,.28,0,.56.01.82-.01.27,0,.55,0,.82-.01.27,0,.55,0,.82,0,.28,0,.55,0,.82-.01.28,0,.55,0,.82,0,.28,0,.55,0,.82,0,.28,0,.55,0,.82,0,.28,0,.55,0,.82,0,.28,0,.56,0,.82,0,.28,0,.56.01.82-.01.27,0,.55,0,.82-.01.27,0,.55,0,.82,0,.28,0,.55,0,.82-.01.28,0,.55,0,.82,0,.28,0,.55,0,.82,0,.28,0,.55,0,.82,0,.28,0,.55,0,.82,0,.28,0,.56,0,.82,0,.28,0,.56.01.82-.01.27,0,.55,0,.82-.01.27,0,.55,0,.82,0,.28,0,.55,0,.82-.01.28,0,.55,0,.82,0,.28,0,.55,0,.82,0,.28,0,.55,0,.82,0,.28,0,.55,0,.82,0,.28,0,.56,0,.82,0,.28,0,.56.01.82-.01.27,0,.55,0,.82-.01.27,0,.55,0,.82,0,.28,0,.55,0,.82-.01.28,0,.55,0,.82,0,.28,0,.55,0,.82,0,.28,0,.55,0,.82,0,.28,0,.55,0,.82,0,.28,0,.56,0,.82,0,.28,0,.56.01.82-.01.27,0,.55,0,.82-.01.27,0,.55,0,.82,0,.28,0,.55,0,.82-.01.28,0,.55,0,.82,0,.28,0,.55,0,.82,0,.28,0,.55,0,.82,0,.28,0,.55,0,.82,0,.28,0,.56,0,.82,0,.28,0,.56.01.82-.01.27,0,.55,0,.82-.01.27,0,.55,0,.82,0,.28,0,.55,0,.82-.01.28,0,.55,0,.82,0,.28,0,.55,0,.82,0,.28,0,.55,0,.82,0,.28,0,.55,0,.82,0,.28,0,.56,0,.82,0,.28,0,.56.01.82-.01.27,0,.55,0,.82-.16,6.51,4.12,12.63,12.06,17.21,16.04,9.26,42.05,9.26,57.99,0,7.88-4.58,12.1-10.69,11.87-17.2.01-.27,0-.55,0-.81.01-.28,0-.56,0-.82,0-.28,0-.55,0-.82,0-.28,0-.55-.01-.82.01-.27,0-.55,0-.82.01-.27,0-.55,0-.82,0-.28,0-.55,0-.82,0-.28,0-.55,0-.82,0-.28,0-.55,0-.82,0-.28,0-.55,0-.82.01-.28,0-.56,0-.82,0-.28,0-.55,0-.82,0-.28,0-.55-.01-.82.01-.27,0-.55,0-.82.01-.27,0-.55,0-.82,0-.28,0-.55,0-.82,0-.28,0-.55,0-.82,0-.28,0-.55,0-.82,0-.28,0-.55,0-.82.01-.28,0-.56,0-.82,0-.28,0-.55,0-.82,0-.28,0-.55-.01-.82.01-.27,0-.55,0-.82.01-.27,0-.55,0-.82,0-.28,0-.55,0-.82,0-.28,0-.55,0-.82,0-.28,0-.55,0-.82,0-.28,0-.55,0-.82.01-.28,0-.56,0-.82,0-.28,0-.55,0-.82,0-.28,0-.55-.01-.82.01-.27,0-.55,0-.82.01-.27,0-.55,0-.82,0-.28,0-.55,0-.82,0-.28,0-.55,0-.82,0-.28,0-.55,0-.82,0-.28,0-.55,0-.82.01-.28,0-.56,0-.82,0-.28,0-.55,0-.82,0-.28,0-.55-.01-.82.01-.27,0-.55,0-.82.01-.27,0-.55,0-.82,0-.28,0-.55,0-.82,0-.28,0-.55,0-.82,0-.28,0-.55,0-.82,0-.28,0-.55,0-.82.01-.28,0-.56,0-.82,0-.28,0-.55,0-.82,0-.28,0-.55-.01-.82.01-.27,0-.55,0-.82.01-.27,0-.55,0-.82,0-.28,0-.55,0-.82,0-.28,0-.55,0-.82,0-.28,0-.55,0-.82,0-.28,0-.55,0-.82.01-.28,0-.56,0-.82,0-.28,0-.55,0-.82,0-.28,0-.55-.01-.82.01-.27,0-.55,0-.82.01-.27,0-.55,0-.82,0-.28,0-.55,0-.82,0-.28,0-.55,0-.82,0-.28,0-.55,0-.82,0-.28,0-.55,0-.82.01-.28,0-.56,0-.82,0-.28,0-.55,0-.82,0-.28,0-.55-.01-.82.01-.27,0-.55,0-.82.01-.27,0-.55,0-.82.16-6.51-4.13-12.62-12.07-17.2"/>
      </g>
    </g>
  </g>
  <g class="cls-2">
    <g class="cls-3">
      <g>
        <path d="M85.34,158.11l-1.39.46c-1.56.52-3.54.37-4.83-.37l-6.57-3.79c-.36-.21-.65-.46-.85-.73-.47-.11-.89-.28-1.26-.49l-7.39-4.26c-3.22-1.86-4.98-4.01-5.18-6.3-.19,2.6,1.58,5.04,5.18,7.12l7.39,4.26c.37.21.8.38,1.26.49.2.27.49.52.86.73l6.56,3.79c1.28.74,3.26.89,4.83.37l1.39-.46s.02-.1.04-.14c-.07-.22-.08-.45-.04-.67M117.03,176.24l-1.57.53c-1.56.52-3.54.37-4.83-.37l-16.41-9.48-.16-.1-.17-.09-7.38-4.26c-.59-.34-.97-.78-1.12-1.24-.23.74.18,1.51,1.12,2.05l7.38,4.26.17.09.16.1,16.41,9.48c1.28.74,3.26.89,4.83.37l1.57-.53c-.07-.23-.09-.47-.03-.71,0-.04.02-.07.03-.11M35.38,128.33c-4.17.19-9.1-.63-14.32-3.65l-11.49-6.64c-.58-.34-.97-.77-1.11-1.22-.01.03-.02.07-.03.1-.16.72.26,1.43,1.14,1.94l11.49,6.64c5.23,3.02,10.15,3.85,14.32,3.65,0-.17,0-.35.02-.52-.01-.1-.02-.2-.02-.29M133.06,183.73l-3.49,1.17c-1.56.52-3.54.37-4.83-.37l-6.57-3.79c-.58-.34-.97-.77-1.11-1.22-.01.03-.02.07-.03.1-.16.72.26,1.43,1.15,1.94l6.56,3.79c1.28.74,3.26.89,4.83.37l3.49-1.17c-.02-.21-.01-.42.02-.64-.01-.06-.02-.12-.03-.18M57.85,139.59c-7.82.52-13.51-1.48-17.29-3.66-3.2-1.85-4.92-3.75-5.14-5.68-.24,2.21,1.49,4.39,5.15,6.5s9.48,4.18,17.29,3.66c0-.08,0-.16.01-.24-.02-.19-.02-.39-.02-.58M174.43,181.65c-.21.67-.9,1.26-1.93,1.6l-18.62,6.24c-.95.32-2.05.38-3.05.23-.58.65-1.55,1.31-3.15,1.85-1.94.64-4.07.88-6.37.72-2.36-.16-4.34-.7-5.9-1.6-1.34-.78-2.13-1.71-2.3-2.7-.21,1.29.59,2.53,2.3,3.51,1.56.9,3.54,1.43,5.9,1.6,2.3.16,4.43-.08,6.37-.72,1.6-.54,2.56-1.2,3.15-1.85,1.01.16,2.1.09,3.05-.23l18.62-6.24c1.08-.36,1.8-.99,1.96-1.71.05-.24.04-.48-.03-.71M182.26,151.88c-.04.15-.11.29-.21.44-.59.86-1.98,1.43-3.58,1.47l-22.27.42,1.37.79,20.9-.4c1.59-.03,2.99-.61,3.58-1.47.27-.41.34-.84.21-1.26"/>
        <path d="M85.34,157.29l-1.39.46c-1.56.52-3.54.37-4.83-.37l-6.57-3.79c-.36-.21-.65-.46-.85-.73-.47-.11-.89-.28-1.26-.49l-7.39-4.26c-3.22-1.86-4.98-4.01-5.18-6.3-.02.27-.02.55,0,.82.2,2.29,1.95,4.44,5.18,6.3l7.39,4.26c.37.21.8.38,1.26.49.2.27.49.52.85.73l6.57,3.79c1.28.74,3.26.89,4.83.37l1.39-.46s.02-.09.03-.14c-.07-.22-.08-.45-.04-.68M117.03,175.42l-1.56.52c-1.57.53-3.55.38-4.84-.37l-16.41-9.47-.16-.1-.17-.09-7.39-4.26c-.59-.34-.97-.77-1.11-1.23-.08.27-.08.55,0,.82.14.46.53.89,1.12,1.24l7.38,4.26.17.09.16.1,16.41,9.48c1.28.74,3.26.89,4.83.37l1.57-.53s0,0,0,0c-.07-.23-.09-.47-.03-.71,0-.04.02-.07.03-.11M35.37,127.51c-4.17.19-9.09-.63-14.32-3.65l-11.49-6.64c-.58-.34-.97-.77-1.11-1.22-.01.03-.02.07-.03.1-.05.24-.04.48.03.72.14.46.53.89,1.11,1.22l11.49,6.64c5.23,3.02,10.15,3.84,14.32,3.65,0-.17,0-.34.02-.51-.01-.1-.02-.2-.02-.3M133.05,182.92l-3.5,1.17c-1.56.52-3.54.37-4.83-.37l-6.57-3.79c-.58-.34-.97-.77-1.11-1.22-.01.03-.02.07-.03.1-.05.24-.04.48.03.72.14.46.53.89,1.11,1.22l6.57,3.79c1.28.74,3.26.89,4.83.37l3.49-1.17c-.02-.21-.01-.42.02-.64-.01-.06-.02-.12-.03-.18M57.84,138.77c-7.82.52-13.51-1.48-17.29-3.66-3.2-1.85-4.92-3.75-5.14-5.68-.03.27-.03.54,0,.81.22,1.93,1.94,3.83,5.14,5.68,3.78,2.18,9.47,4.18,17.29,3.66,0-.08,0-.17.01-.25-.02-.19-.02-.38-.02-.56M174.42,180.83c-.21.67-.9,1.26-1.93,1.6l-18.63,6.24c-.95.32-2.04.39-3.05.23-.58.65-1.55,1.31-3.15,1.85-1.94.64-4.07.88-6.37.72-2.36-.16-4.34-.7-5.9-1.6-1.33-.77-2.12-1.69-2.29-2.68-.04.27-.04.54,0,.8.17.99.95,1.92,2.3,2.7,1.56.9,3.54,1.43,5.9,1.6,2.3.15,4.43-.08,6.37-.72,1.6-.54,2.57-1.21,3.15-1.85,1.01.15,2.1.09,3.05-.23l18.62-6.24c1.03-.34,1.72-.93,1.93-1.6.01-.04.02-.07.03-.11.05-.24.04-.48-.03-.71M182.26,151.07c-.04.15-.11.29-.21.44-.59.86-1.99,1.43-3.59,1.46l-22.68.44-.62.21,1.04.6,22.27-.42c1.6-.03,2.99-.61,3.58-1.47.1-.14.17-.29.21-.44.08-.27.08-.55,0-.82"/>
        <path d="M85.33,156.47l-1.39.47c-1.56.52-3.54.37-4.83-.37l-6.57-3.79c-.36-.21-.65-.46-.85-.73-.47-.11-.89-.28-1.26-.49l-7.39-4.26c-3.21-1.86-4.97-4-5.18-6.29-.02.27-.02.54,0,.8.2,2.29,1.95,4.44,5.18,6.3l7.39,4.26c.37.21.8.38,1.26.49.2.27.49.52.85.73l6.57,3.79c1.28.74,3.26.89,4.83.37l1.39-.46s.02-.09.04-.14c-.07-.22-.08-.45-.04-.68M117.02,174.6l-1.56.52c-1.57.53-3.55.38-4.84-.37l-16.41-9.47-.16-.1-.17-.09-7.39-4.26c-.59-.34-.97-.77-1.11-1.23-.08.27-.08.55,0,.81.14.46.52.89,1.11,1.23l7.39,4.26.17.09.16.1,16.41,9.47c1.29.74,3.27.9,4.84.37l1.56-.52s0,0,0,0c-.07-.23-.09-.47-.03-.71,0-.04.02-.07.03-.11M35.37,126.69c-4.17.19-9.09-.63-14.33-3.66l-11.49-6.63c-.58-.34-.97-.76-1.11-1.22,0,.03-.02.07-.02.1-.05.24-.04.48.03.72.14.46.53.89,1.11,1.22l11.49,6.64c5.23,3.02,10.15,3.84,14.32,3.65,0-.17,0-.35.02-.52-.01-.1-.02-.2-.02-.3M133.05,182.09l-3.49,1.17c-1.57.53-3.55.38-4.84-.37l-6.56-3.79c-.58-.34-.97-.77-1.11-1.22-.01.03-.02.07-.03.1-.05.24-.04.48.03.72.14.46.53.89,1.11,1.22l6.57,3.79c1.28.74,3.26.89,4.83.37l3.5-1.17c-.02-.21-.01-.42.02-.64-.01-.06-.02-.12-.03-.18M57.84,137.95c-7.82.52-13.51-1.48-17.3-3.66-3.2-1.85-4.92-3.75-5.14-5.67-.02.17-.02.35-.02.52,0,.1.01.19.02.29.22,1.93,1.94,3.83,5.14,5.68,3.78,2.18,9.47,4.18,17.29,3.66,0-.08,0-.16.01-.24-.02-.19-.02-.38-.02-.57M174.42,180.01c-.2.67-.9,1.26-1.92,1.6l-18.64,6.24c-.94.32-2.04.39-3.05.23-.58.65-1.55,1.31-3.15,1.85-1.94.64-4.07.87-6.37.72-2.36-.16-4.34-.7-5.9-1.6-1.33-.77-2.12-1.7-2.29-2.68-.04.28-.04.56,0,.83.18.98.96,1.91,2.29,2.68,1.56.9,3.54,1.43,5.9,1.6,2.3.15,4.43-.08,6.37-.72,1.6-.54,2.57-1.21,3.15-1.85,1.01.15,2.1.09,3.05-.23l18.63-6.24c1.03-.34,1.72-.93,1.93-1.6.01-.04.02-.07.03-.11.05-.24.04-.48-.03-.72M182.26,150.25c-.05.15-.11.29-.21.44-.59.86-1.99,1.43-3.59,1.46l-22.68.44-1.51.51.9.52.62-.21,22.68-.44c1.6-.03,3-.6,3.59-1.46.1-.14.17-.29.21-.44.08-.27.08-.55,0-.82"/>
        <path d="M85.33,155.65l-1.39.47c-1.56.52-3.54.37-4.83-.37l-6.56-3.79c-.36-.21-.66-.46-.86-.73-.46-.11-.89-.28-1.26-.49l-7.39-4.26c-3.22-1.86-4.98-4.01-5.18-6.3,0,.08-.01.16-.01.24,0,.2,0,.39.02.59.2,2.29,1.96,4.43,5.18,6.29l7.39,4.26c.37.21.8.38,1.26.49.2.27.49.52.85.73l6.57,3.79c1.28.74,3.26.89,4.83.37l1.39-.47s.02-.1.04-.14c-.07-.22-.08-.45-.04-.68M117.02,173.78l-1.56.52c-1.57.53-3.56.37-4.84-.37l-16.41-9.48-.15-.1-.17-.09-7.39-4.26c-.59-.34-.97-.77-1.11-1.23-.01.05-.03.1-.04.14-.04.23-.03.45.04.67.14.46.52.89,1.11,1.23l7.39,4.26.17.09.16.1,16.41,9.47c1.29.74,3.27.9,4.84.37l1.56-.52s0,0,0,0c-.07-.23-.09-.47-.04-.71,0-.04.02-.07.03-.11M35.36,125.87c-4.17.19-9.09-.63-14.33-3.65l-11.49-6.63c-.58-.34-.97-.77-1.12-1.23-.01.03-.02.07-.03.1-.05.24-.04.49.04.72.15.46.53.88,1.11,1.22l11.49,6.63c5.23,3.02,10.16,3.85,14.33,3.66,0-.17,0-.35.02-.52-.01-.1-.02-.2-.02-.3M133.05,181.28l-3.49,1.17c-1.57.53-3.55.38-4.84-.37l-6.56-3.79c-.58-.34-.97-.76-1.11-1.22,0,.03-.02.07-.03.1-.05.24-.04.48.03.72.14.46.53.89,1.11,1.22l6.56,3.79c1.29.74,3.27.9,4.84.37l3.49-1.17c-.02-.21-.01-.43.02-.64-.01-.06-.02-.12-.02-.18M57.84,137.13c-7.82.52-13.52-1.47-17.3-3.66-3.19-1.84-4.91-3.74-5.14-5.66-.02.17-.02.34-.02.51,0,.1.01.2.02.29.22,1.92,1.94,3.82,5.14,5.67,3.78,2.19,9.48,4.18,17.3,3.66,0-.09,0-.18.01-.27-.01-.18-.02-.37-.01-.55M174.41,179.19c-.2.67-.91,1.26-1.92,1.6l-18.64,6.24c-.94.32-2.04.39-3.05.23-.58.65-1.55,1.31-3.15,1.85-1.94.64-4.07.87-6.37.72-2.36-.16-4.34-.7-5.9-1.6-1.33-.77-2.12-1.7-2.29-2.68-.05.28-.04.55,0,.82.18.98.96,1.91,2.29,2.68,1.56.9,3.55,1.44,5.9,1.6,2.3.15,4.44-.08,6.37-.72,1.6-.54,2.57-1.21,3.15-1.85,1.01.15,2.11.08,3.05-.23l18.64-6.24c1.02-.34,1.72-.93,1.92-1.6.01-.03.02-.07.03-.1.05-.24.04-.48-.03-.72M182.25,149.43c-.05.15-.12.3-.21.44-.58.86-1.99,1.43-3.58,1.46l-22.68.44-2.41.81.9.52,1.51-.51,22.68-.44c1.6-.03,3-.6,3.59-1.46.1-.14.17-.29.21-.44.08-.27.08-.55,0-.82"/>
        <path d="M85.32,154.83l-1.38.46c-1.58.52-3.56.37-4.84-.37l-6.56-3.79c-.37-.21-.66-.46-.86-.73-.45-.11-.89-.28-1.26-.49l-7.38-4.26c-3.23-1.87-4.98-4.02-5.18-6.31,0,.09-.01.17-.01.25,0,.19,0,.39.02.58.2,2.29,1.96,4.44,5.18,6.3l7.39,4.26c.37.21.8.38,1.26.49.2.27.49.52.86.73l6.56,3.79c1.29.74,3.27.9,4.83.37l1.39-.47s.02-.09.03-.14c-.07-.22-.09-.45-.05-.68M117.02,172.96l-1.57.53c-1.57.53-3.55.38-4.83-.36l-16.41-9.48-.15-.1-.17-.09-7.39-4.26c-.59-.34-.97-.77-1.11-1.22-.01.05-.03.09-.03.14-.04.23-.03.45.04.67.14.46.52.89,1.11,1.23l7.39,4.26.17.09.15.1,16.41,9.48c1.28.74,3.27.9,4.84.37l1.56-.52s0,0,0,0c-.07-.23-.08-.47-.03-.71,0-.03.02-.07.03-.1,0,0,0,0,0,0M35.36,125.05c-4.18.2-9.1-.63-14.33-3.65l-11.49-6.63c-.59-.34-.97-.77-1.12-1.23-.01.04-.02.07-.03.11-.05.24-.04.48.03.71.15.46.53.89,1.12,1.23l11.49,6.63c5.24,3.02,10.16,3.84,14.33,3.65,0-.18,0-.36.02-.53-.01-.1-.02-.19-.02-.29M133.05,180.46l-3.49,1.17c-1.58.52-3.56.37-4.84-.37l-6.56-3.79c-.59-.34-.97-.77-1.12-1.23,0,0,0,0,0,0-.01.03-.02.07-.03.11-.05.24-.04.48.03.71,0,0,0,0,0,0,.15.46.53.89,1.11,1.22l6.56,3.79c1.29.74,3.27.9,4.84.37l3.49-1.17c-.02-.21-.01-.43.02-.65,0-.06-.02-.11-.02-.17M57.83,136.31c-7.82.53-13.52-1.47-17.3-3.66-3.2-1.84-4.92-3.75-5.14-5.67-.02.17-.02.35-.02.52,0,.1.01.2.02.3.23,1.92,1.95,3.82,5.14,5.66,3.79,2.19,9.48,4.18,17.3,3.66,0-.08,0-.16.01-.24-.02-.19-.02-.39-.02-.58M174.41,178.37c-.2.67-.91,1.26-1.92,1.6l-18.64,6.24c-.94.32-2.04.39-3.04.23-.58.65-1.55,1.32-3.15,1.85-1.94.63-4.07.87-6.38.72-2.35-.16-4.34-.7-5.9-1.6-1.34-.77-2.12-1.7-2.29-2.68-.04.27-.04.55,0,.82.17.99.96,1.92,2.29,2.68,1.56.9,3.55,1.44,5.9,1.6,2.3.15,4.44-.08,6.37-.72,1.6-.54,2.57-1.21,3.15-1.85,1.01.15,2.11.08,3.05-.23l18.64-6.24c1.02-.34,1.72-.93,1.92-1.6.01-.03.02-.07.03-.1.05-.24.04-.48-.03-.71M182.25,148.6c-.05.15-.12.3-.22.45-.57.86-1.98,1.43-3.57,1.46l-22.68.44-3.3,1.11.9.52,2.41-.81,22.68-.44c1.59-.03,3-.6,3.58-1.46.1-.14.17-.29.21-.44.08-.28.08-.56,0-.83"/>
        <path d="M85.31,154.01l-1.39.46c-1.57.53-3.55.38-4.83-.36l-6.56-3.79c-.37-.21-.65-.46-.86-.73-.45-.11-.89-.28-1.26-.49l-7.38-4.26c-3.23-1.86-4.98-4.02-5.18-6.3,0,.08-.01.16-.01.24,0,.19,0,.38.02.56.19,2.29,1.95,4.45,5.18,6.31l7.38,4.26c.38.22.81.38,1.26.49.2.27.49.52.86.73l6.56,3.79c1.28.74,3.26.89,4.84.37l1.38-.46c0-.05.02-.1.04-.16-.07-.22-.08-.44-.04-.67M117.01,172.14l-1.57.53c-1.56.52-3.55.38-4.83-.36l-16.41-9.48-.15-.1-.17-.09-7.39-4.26c-.59-.34-.97-.77-1.11-1.22-.01.05-.03.09-.04.14-.04.23-.03.46.04.68.14.45.52.88,1.11,1.22l7.39,4.26.17.09.15.1,16.41,9.48c1.28.74,3.26.89,4.83.36l1.57-.53c-.07-.23-.08-.47-.03-.71,0-.03.02-.07.03-.1,0,0,0,0,0,0M35.36,124.23c-4.18.2-9.1-.63-14.33-3.65l-11.49-6.63c-.59-.34-.97-.77-1.12-1.23-.01.04-.02.07-.03.11-.05.24-.04.48.03.71.15.46.53.9,1.12,1.23l11.49,6.63c5.24,3.02,10.16,3.84,14.33,3.65,0-.17,0-.34.02-.51-.01-.1-.02-.21-.02-.31M133.04,179.63l-3.5,1.17c-1.57.53-3.55.38-4.83-.36l-6.56-3.79c-.59-.34-.97-.77-1.12-1.23,0,0,0,0,0,0-.01.04-.02.07-.03.11-.05.24-.04.48.03.71.15.46.53.9,1.12,1.23l6.56,3.79c1.28.74,3.26.89,4.84.37l3.49-1.17c-.02-.21-.01-.42.02-.63-.01-.06-.02-.13-.03-.19M57.83,135.49c-7.82.53-13.52-1.47-17.3-3.66-3.2-1.84-4.92-3.75-5.14-5.67-.02.17-.02.35-.02.52,0,.1.01.2.02.3.22,1.92,1.94,3.82,5.14,5.67,3.78,2.18,9.48,4.18,17.3,3.66,0-.07,0-.15.01-.22-.02-.2-.03-.4-.02-.6M174.4,177.55c-.2.67-.91,1.26-1.92,1.6l-18.64,6.24c-.94.32-2.04.39-3.04.23-.58.65-1.55,1.31-3.15,1.85-1.94.63-4.07.87-6.37.72-2.36-.15-4.34-.69-5.9-1.59-1.34-.77-2.12-1.7-2.29-2.68-.03.21-.04.43-.02.64,0,.06.01.12.03.18.17.98.96,1.91,2.29,2.68,1.56.9,3.55,1.44,5.9,1.6,2.3.15,4.44-.08,6.38-.72,1.6-.54,2.57-1.21,3.15-1.85,1,.16,2.1.09,3.04-.23l18.64-6.24c1.02-.34,1.72-.93,1.92-1.6.01-.03.02-.07.03-.1.05-.24.04-.48-.03-.71M182.24,147.78c-.05.15-.12.3-.22.45-.57.86-1.98,1.43-3.57,1.46l-22.68.44-4.2,1.4.9.52,3.3-1.11,22.68-.44c1.59-.03,3-.6,3.57-1.46.1-.15.17-.3.22-.45.08-.27.08-.55,0-.82"/>
        <path d="M85.31,153.19l-1.39.46c-1.56.52-3.54.37-4.83-.37l-6.56-3.79c-.37-.21-.66-.46-.86-.73-.47-.11-.89-.28-1.26-.49l-7.39-4.26c-3.23-1.87-4.99-4.02-5.17-6.32,0,.09-.01.18-.01.27,0,.19,0,.38.02.57.2,2.29,1.95,4.44,5.18,6.3l7.38,4.26c.37.21.81.38,1.26.49.21.27.49.52.86.73l6.56,3.79c1.28.74,3.26.89,4.83.36l1.39-.46s.02-.1.04-.15c-.07-.22-.08-.45-.04-.67M117.01,171.32l-1.57.53c-1.56.52-3.54.37-4.83-.37l-16.41-9.48-.17-.1-.16-.09-7.39-4.26c-.59-.34-.97-.77-1.12-1.23-.01.05-.03.1-.04.14-.05.23-.03.46.04.68.14.45.52.88,1.11,1.22l7.39,4.26.17.09.15.1,16.41,9.48c1.28.74,3.27.89,4.83.36l1.57-.53c-.07-.23-.08-.47-.03-.71,0-.03.02-.07.03-.1,0,0,0,0,0,0M35.35,123.41c-4.17.2-9.09-.63-14.32-3.65l-11.49-6.63c-.59-.34-.98-.77-1.12-1.23-.01.04-.02.07-.03.11-.05.24-.04.48.03.71.14.46.53.89,1.12,1.23l11.49,6.63c5.24,3.02,10.16,3.84,14.33,3.65,0-.16,0-.33.02-.49-.01-.11-.02-.22-.03-.32M133.03,178.82l-3.5,1.17c-1.56.52-3.54.37-4.83-.37l-6.56-3.79c-.59-.34-.97-.77-1.12-1.23,0,0,0,0,0,0-.01.04-.02.07-.03.11-.05.24-.04.48.03.71.15.46.53.9,1.12,1.23l6.56,3.79c1.28.74,3.26.89,4.83.36l3.5-1.17c-.02-.21-.01-.42.02-.63-.01-.06-.02-.12-.03-.18M57.82,134.68c-7.82.52-13.51-1.48-17.29-3.66-3.2-1.85-4.93-3.75-5.14-5.68-.02.18-.03.36-.02.53,0,.1.01.2.02.3.22,1.92,1.94,3.82,5.14,5.67,3.78,2.18,9.48,4.18,17.3,3.66,0-.08,0-.16.01-.25-.02-.19-.02-.38-.02-.57M174.4,176.74c-.21.67-.92,1.25-1.93,1.59l-18.63,6.25c-.95.31-2.04.39-3.04.23-.59.65-1.55,1.31-3.15,1.85-1.94.63-4.07.87-6.37.72-2.36-.15-4.34-.7-5.9-1.6-1.34-.77-2.12-1.7-2.3-2.68-.04.21-.04.43-.02.64,0,.06.01.12.03.18.17.98.96,1.91,2.29,2.68,1.56.9,3.55,1.44,5.9,1.59,2.3.16,4.43-.08,6.37-.72,1.6-.55,2.57-1.21,3.15-1.85,1,.16,2.1.09,3.04-.23l18.64-6.24c1.02-.34,1.72-.93,1.92-1.6.01-.03.02-.07.03-.1.05-.24.04-.48-.03-.71M130.53,139.04l-.38.13.36.21s.01-.08.02-.13c0-.04.02-.07.03-.11-.01-.03-.02-.07-.03-.1M182.24,146.96c-.05.15-.12.3-.22.45-.57.86-1.98,1.43-3.57,1.46l-22.68.43-5.1,1.71.9.52,4.2-1.4,22.68-.44c1.59-.03,3-.6,3.57-1.46.1-.15.17-.3.22-.45.08-.27.08-.55,0-.82"/>
        <path d="M85.31,152.37l-1.39.46c-1.56.52-3.54.37-4.83-.37l-6.56-3.79c-.37-.21-.66-.46-.86-.73-.47-.11-.89-.28-1.26-.49l-7.39-4.26c-3.22-1.86-4.97-4.01-5.17-6.29,0,.08-.01.16-.01.24,0,.18,0,.37.01.55.19,2.3,1.94,4.46,5.17,6.32l7.39,4.26c.37.21.8.38,1.26.49.2.27.49.52.86.73l6.56,3.79c1.28.74,3.26.89,4.83.37l1.39-.46c0-.05.02-.1.04-.15-.07-.22-.08-.44-.04-.67M117,170.5l-1.57.53c-1.56.52-3.54.37-4.83-.37l-16.41-9.48-.17-.1-.16-.09-7.39-4.26c-.59-.34-.97-.77-1.12-1.22-.01.05-.03.09-.03.14-.04.23-.03.45.04.68.14.46.52.88,1.12,1.23l7.39,4.26.16.09.17.1,16.41,9.48c1.28.74,3.26.89,4.83.37l1.57-.53c-.07-.23-.08-.47-.03-.71,0-.03.02-.07.03-.1,0,0,0,0,0,0M35.35,122.59c-4.18.2-9.1-.63-14.32-3.65l-11.49-6.64c-.59-.34-.97-.77-1.12-1.23-.01.04-.02.07-.03.11-.05.24-.04.48.03.71.15.46.53.89,1.12,1.23l11.49,6.63c5.23,3.02,10.15,3.85,14.32,3.65,0-.18,0-.35.02-.53-.01-.1-.02-.19-.02-.29M133.03,178l-3.5,1.17c-1.56.52-3.54.37-4.83-.37l-6.56-3.79c-.59-.34-.98-.77-1.12-1.24,0,0,0,0,0,0-.01.04-.02.07-.03.11-.05.24-.04.47.04.71.15.46.53.89,1.12,1.23l6.56,3.79c1.28.74,3.26.89,4.83.37l3.5-1.17c-.02-.21-.01-.42.02-.64-.01-.06-.02-.12-.03-.18M57.82,133.86c-7.82.52-13.51-1.48-17.29-3.66-3.19-1.84-4.92-3.74-5.14-5.66-.02.17-.02.34-.02.51,0,.1,0,.19.02.29.21,1.93,1.94,3.83,5.14,5.68,3.78,2.18,9.47,4.18,17.29,3.66,0-.08,0-.16.01-.25-.02-.19-.02-.38-.02-.57M174.4,175.92c-.21.67-.92,1.25-1.93,1.59l-18.62,6.24c-.95.32-2.05.39-3.05.23-.59.65-1.55,1.31-3.16,1.85-1.94.64-4.07.88-6.37.72-2.36-.16-4.34-.7-5.9-1.6-1.34-.77-2.12-1.7-2.3-2.68-.04.21-.04.43-.02.64,0,.06.01.12.03.18.17.98.96,1.91,2.3,2.68,1.56.9,3.54,1.44,5.9,1.6,2.3.16,4.43-.08,6.37-.72,1.6-.55,2.56-1.21,3.15-1.85,1,.16,2.09.08,3.04-.23l18.63-6.25c1.01-.34,1.72-.92,1.93-1.59.01-.04.02-.08.03-.12.05-.24.04-.47-.04-.71M130.53,138.22l-1.28.43.9.52.38-.13c-.05-.2-.05-.4,0-.61,0-.04.02-.07.03-.11-.01-.03-.02-.07-.03-.1M182.23,146.15c-.05.15-.12.29-.21.44-.59.86-1.99,1.44-3.58,1.47l-22.68.43-5.99,2.01.9.52,5.1-1.71,22.68-.43c1.59-.03,3-.6,3.57-1.46.1-.15.17-.3.22-.45.08-.27.08-.54,0-.81"/>
        <path d="M85.3,151.55l-1.39.46c-1.56.52-3.54.37-4.83-.37l-6.56-3.79c-.37-.21-.66-.46-.86-.73-.47-.11-.89-.28-1.26-.49l-7.39-4.26c-3.21-1.85-4.96-3.99-5.17-6.28,0,.07,0,.15-.01.22,0,.19,0,.39.02.58.2,2.29,1.95,4.44,5.17,6.29l7.39,4.26c.37.21.8.38,1.26.49.2.27.49.52.86.73l6.56,3.79c1.28.74,3.26.89,4.83.37l1.39-.46s.02-.1.04-.14c-.07-.22-.08-.45-.04-.67M117,169.68l-1.57.53c-1.56.52-3.54.37-4.83-.37l-16.41-9.48-.16-.1-.17-.09-7.38-4.26c-.6-.34-.98-.78-1.12-1.24-.02.05-.03.1-.04.16-.04.23-.03.46.05.68.15.45.53.88,1.12,1.22l7.39,4.26.16.09.17.1,16.41,9.48c1.28.74,3.26.89,4.83.37l1.57-.53c-.07-.23-.08-.47-.03-.71,0-.03.02-.07.03-.1,0,0,0,0,0,0M35.34,121.77c-4.18.2-9.1-.63-14.32-3.65l-11.49-6.64c-.59-.34-.97-.77-1.11-1.23-.01.04-.02.08-.03.11-.05.24-.04.48.03.71.15.46.53.89,1.12,1.23l11.49,6.64c5.23,3.02,10.15,3.85,14.32,3.65,0-.18,0-.35.02-.53-.01-.1-.02-.19-.02-.29M133.02,177.18l-3.49,1.17c-1.56.52-3.54.37-4.83-.37l-6.56-3.79c-.59-.34-.97-.77-1.12-1.23-.01.03-.02.07-.03.1-.05.24-.04.48.03.71.14.46.53.89,1.12,1.24l6.56,3.79c1.28.74,3.26.89,4.83.37l3.5-1.17c-.02-.21-.01-.42.02-.63-.01-.06-.02-.12-.03-.18M57.81,133.04c-7.82.52-13.51-1.48-17.29-3.66-3.18-1.84-4.91-3.73-5.14-5.65-.02.16-.02.33-.02.49,0,.1.01.21.02.31.22,1.92,1.95,3.82,5.14,5.66,3.78,2.18,9.47,4.18,17.29,3.66,0-.08,0-.16.01-.23-.02-.19-.02-.39-.02-.59M174.39,175.09c-.2.67-.9,1.25-1.93,1.6l-18.62,6.24c-.95.32-2.05.39-3.05.23-.58.65-1.55,1.31-3.15,1.85-1.94.64-4.07.88-6.37.72-2.36-.16-4.34-.7-5.9-1.6-1.34-.77-2.12-1.7-2.3-2.69-.04.22-.04.43-.02.64,0,.06.01.12.03.18.17.98.96,1.91,2.3,2.68,1.56.9,3.53,1.44,5.9,1.6,2.3.16,4.43-.08,6.37-.72,1.61-.54,2.57-1.21,3.16-1.85,1,.16,2.09.08,3.05-.23l18.62-6.24c1.02-.34,1.72-.92,1.93-1.59.01-.04.02-.07.03-.11.05-.24.04-.48-.04-.71M106.61,125.62c-.34-.17-.68-.34-1.01-.52.09.09.17.18.24.27.27.06.53.15.77.25M109.98,126.98c-1.01-.33-2.01-.72-2.98-1.17.03.02.06.03.09.05l2.9,1.68s.01-.08.02-.13c0-.04.02-.07.03-.11-.03-.11-.05-.21-.06-.32M130.52,137.4l-2.17.73.08.05.16.1.17.09.49.28,1.28-.43c-.05-.2-.05-.4,0-.61,0-.04.02-.07.03-.11-.01-.03-.02-.07-.03-.1M182.23,145.33c-.04.15-.11.3-.21.44-.59.86-1.99,1.44-3.58,1.47l-22.68.43-6.89,2.31.9.52,5.99-2.01,22.68-.43c1.59-.03,2.99-.61,3.58-1.47.1-.14.17-.29.21-.44.08-.27.08-.55,0-.82"/>
        <path d="M85.3,150.73l-1.39.46c-1.56.52-3.54.37-4.83-.37l-6.57-3.79c-.36-.21-.65-.46-.85-.73-.47-.11-.89-.28-1.26-.49l-7.39-4.26c-3.22-1.86-4.98-4.01-5.18-6.3,0,.08-.01.17-.01.25,0,.2,0,.4.02.6.21,2.28,1.96,4.42,5.17,6.28l7.39,4.26c.37.21.8.38,1.26.49.2.27.49.52.86.73l6.56,3.79c1.28.74,3.26.89,4.83.37l1.39-.46s.02-.1.04-.14c-.07-.22-.08-.45-.04-.67M116.99,168.87l-1.57.53c-1.56.52-3.54.37-4.83-.37l-16.41-9.48-.16-.1-.17-.09-7.38-4.26c-.59-.34-.97-.78-1.12-1.24-.02.05-.03.1-.04.15-.04.22-.03.45.04.67.14.46.53.89,1.12,1.24l7.38,4.26.17.09.16.1,16.41,9.48c1.28.74,3.26.89,4.83.37l1.57-.53c-.07-.23-.09-.47-.03-.71,0-.04.02-.07.03-.11M35.34,120.95c-4.17.19-9.1-.63-14.32-3.65l-11.49-6.64c-.58-.34-.97-.77-1.11-1.22-.01.03-.02.07-.03.1-.05.24-.04.48.03.71.14.46.53.89,1.11,1.23l11.49,6.64c5.23,3.02,10.15,3.85,14.32,3.65,0-.17,0-.35.02-.52-.01-.1-.02-.2-.02-.29M133.02,176.36l-3.49,1.17c-1.56.52-3.54.37-4.83-.37l-6.57-3.79c-.58-.34-.97-.77-1.11-1.22-.01.03-.02.07-.03.1-.05.24-.04.48.03.71,0,0,0,0,0,0,.15.46.53.89,1.12,1.23l6.56,3.79c1.28.74,3.26.89,4.83.37l3.49-1.17c-.02-.21-.01-.42.02-.64-.01-.06-.02-.12-.03-.18M57.8,132.22c-7.82.52-13.51-1.48-17.29-3.66-3.2-1.85-4.92-3.75-5.14-5.68-.02.18-.03.35-.02.53,0,.11.01.22.03.32.24,1.92,1.96,3.81,5.14,5.65,3.78,2.18,9.48,4.18,17.29,3.66,0-.08,0-.16.01-.24-.02-.19-.02-.39-.02-.58M174.38,174.27c-.21.67-.9,1.26-1.93,1.6l-18.62,6.24c-.95.32-2.05.38-3.05.23-.58.65-1.55,1.31-3.15,1.85-1.94.64-4.07.88-6.37.72-2.36-.16-4.34-.7-5.9-1.6-1.34-.78-2.13-1.71-2.3-2.7-.04.22-.04.43-.02.65,0,.06.01.12.02.18.17.99.96,1.92,2.3,2.69,1.56.9,3.54,1.43,5.9,1.6,2.3.16,4.43-.08,6.37-.72,1.6-.54,2.56-1.2,3.15-1.85,1.01.16,2.1.09,3.05-.23l18.62-6.24c1.02-.34,1.73-.92,1.93-1.6.01-.04.02-.07.03-.11.05-.24.04-.48-.03-.71M109.97,126.16c-1.71-.55-3.35-1.28-4.93-2.19l-2.75-1.59-.77.26,3.45,1.99c.24.14.44.29.62.46.33.18.67.36,1.01.52.14.06.27.12.4.19.97.45,1.96.84,2.98,1.17,0-.13,0-.26.03-.39,0-.04.02-.07.03-.11-.03-.1-.06-.21-.06-.32M130.59,136.55l-3.14,1.05.9.52,2.17-.73c-.05-.2-.05-.4,0-.61.02-.08.04-.16.08-.24M182.22,144.51c-.04.15-.11.29-.21.44-.59.86-1.98,1.43-3.58,1.47l-22.68.43-7.78,2.61.9.52,6.89-2.31,22.68-.43c1.59-.03,2.99-.61,3.58-1.47.1-.14.17-.29.21-.44.08-.27.08-.55,0-.82"/>
        <path d="M85.29,149.91l-1.39.46c-1.56.52-3.54.37-4.83-.37l-6.57-3.79c-.36-.21-.65-.46-.85-.73-.47-.11-.89-.28-1.26-.49l-7.39-4.26c-3.22-1.86-4.98-4.01-5.18-6.3,0,.08-.01.17-.01.25,0,.19,0,.38.02.57.2,2.29,1.95,4.44,5.18,6.3l7.39,4.26c.37.21.8.38,1.26.49.2.27.49.52.85.73l6.57,3.79c1.28.74,3.26.89,4.83.37l1.39-.46s.02-.09.03-.14c-.07-.22-.08-.45-.04-.68M116.99,168.05l-1.56.52c-1.57.53-3.55.38-4.84-.37l-16.41-9.47-.16-.1-.17-.09-7.39-4.26c-.59-.34-.97-.77-1.11-1.23-.02.05-.03.1-.04.15-.04.22-.03.45.04.67.14.46.53.89,1.12,1.24l7.38,4.26.17.09.16.1,16.41,9.48c1.28.74,3.26.89,4.83.37l1.57-.53s0,0,0,0c-.07-.23-.09-.47-.03-.71,0-.04.02-.07.03-.11M35.33,120.14c-4.17.19-9.09-.63-14.32-3.65l-11.49-6.64c-.58-.34-.97-.77-1.11-1.22-.01.03-.02.07-.03.1-.05.24-.04.48.03.72.14.46.53.89,1.11,1.22l11.49,6.64c5.23,3.02,10.15,3.84,14.32,3.65,0-.17,0-.34.02-.51-.01-.1-.02-.2-.02-.3M133.01,175.54l-3.5,1.17c-1.56.52-3.54.37-4.83-.37l-6.57-3.79c-.58-.34-.97-.77-1.11-1.22-.01.03-.02.07-.03.1-.05.24-.04.48.03.71,0,0,0,0,0,0,.14.46.53.89,1.11,1.22l6.57,3.79c1.28.74,3.26.89,4.83.37l3.49-1.17c-.02-.21-.01-.42.02-.64-.01-.06-.02-.12-.03-.18M57.8,131.4c-7.82.52-13.51-1.48-17.29-3.66-3.2-1.85-4.92-3.75-5.14-5.68-.02.18-.02.35-.02.53,0,.1.01.19.02.29.22,1.93,1.94,3.83,5.14,5.68,3.78,2.18,9.47,4.18,17.29,3.66,0-.08,0-.17.01-.25-.02-.19-.02-.38-.02-.56M174.38,173.46c-.21.67-.9,1.26-1.93,1.6l-18.63,6.24c-.95.32-2.04.39-3.05.23-.58.65-1.55,1.31-3.15,1.85-1.94.64-4.07.88-6.37.72-2.36-.16-4.34-.7-5.9-1.6-1.33-.77-2.12-1.69-2.29-2.68-.03.21-.04.42-.02.63,0,.06.01.11.02.17.17.99.95,1.92,2.3,2.7,1.56.9,3.54,1.43,5.9,1.6,2.3.15,4.43-.08,6.37-.72,1.6-.54,2.57-1.21,3.15-1.85,1.01.15,2.1.09,3.05-.23l18.62-6.24c1.03-.34,1.72-.93,1.93-1.6.01-.04.02-.07.03-.11.05-.24.04-.48-.03-.71M109.97,125.34c-1.71-.55-3.35-1.28-4.93-2.19l-2.75-1.59-1.67.56.9.52.77-.26,2.75,1.59c1.58.91,3.22,1.64,4.93,2.19-.01-.13,0-.26.02-.39,0-.04.02-.08.03-.12-.03-.1-.05-.2-.06-.31M132.07,135.24l-5.52,1.85.9.52,3.14-1.05c.22-.53.74-.99,1.48-1.32M182.22,143.69c-.04.15-.11.29-.21.44-.59.86-1.99,1.43-3.59,1.46l-22.68.44-8.68,2.9.9.52,7.78-2.61,22.68-.43c1.6-.03,2.99-.61,3.58-1.47.1-.14.17-.29.21-.44.08-.27.08-.55,0-.82"/>
        <path d="M85.29,149.09l-1.39.47c-1.56.52-3.54.37-4.83-.37l-6.57-3.79c-.36-.21-.65-.46-.85-.73-.47-.11-.89-.28-1.26-.49l-7.39-4.26c-3.21-1.86-4.97-4-5.18-6.29,0,.08,0,.16-.01.23,0,.19,0,.38.02.57.2,2.29,1.95,4.44,5.18,6.3l7.39,4.26c.37.21.8.38,1.26.49.2.27.49.52.85.73l6.57,3.79c1.28.74,3.26.89,4.83.37l1.39-.46s.02-.09.04-.14c-.07-.22-.08-.45-.04-.68M116.98,167.23l-1.56.52c-1.57.53-3.55.38-4.84-.37l-16.41-9.47-.16-.1-.17-.09-7.39-4.26c-.59-.34-.97-.77-1.11-1.23-.01.05-.03.1-.04.14-.04.22-.03.45.04.67.14.46.52.89,1.11,1.23l7.39,4.26.17.09.16.1,16.41,9.47c1.29.74,3.27.9,4.84.37l1.56-.52s0,0,0,0c-.07-.23-.09-.47-.03-.71,0-.04.02-.07.03-.11M35.33,119.32c-4.17.19-9.09-.63-14.33-3.66l-11.49-6.63c-.58-.34-.97-.76-1.11-1.22,0,.03-.02.07-.02.1-.05.24-.04.48.03.72.14.46.53.89,1.11,1.22l11.49,6.64c5.23,3.02,10.15,3.84,14.32,3.65,0-.17,0-.35.02-.52-.01-.1-.02-.2-.02-.3M133.01,174.72l-3.49,1.17c-1.57.53-3.55.38-4.84-.37l-6.56-3.79c-.58-.34-.97-.77-1.11-1.22-.01.03-.02.07-.03.1-.05.24-.04.48.03.71,0,0,0,0,0,0,.14.46.53.89,1.11,1.22l6.57,3.79c1.28.74,3.26.89,4.83.37l3.5-1.17c-.02-.21-.01-.42.02-.64-.01-.06-.02-.12-.03-.18M57.8,130.58c-7.82.52-13.51-1.48-17.3-3.66-3.2-1.85-4.92-3.75-5.14-5.67-.02.17-.02.35-.02.52,0,.1.01.19.02.29.22,1.93,1.94,3.83,5.14,5.68,3.78,2.18,9.47,4.18,17.29,3.66,0-.08,0-.16.01-.24-.02-.19-.02-.38-.02-.57M174.38,172.63c-.2.67-.9,1.26-1.92,1.6l-18.64,6.24c-.94.32-2.04.39-3.05.23-.58.65-1.55,1.31-3.15,1.85-1.94.64-4.07.87-6.37.72-2.36-.16-4.34-.7-5.9-1.6-1.33-.77-2.12-1.7-2.29-2.68-.03.21-.04.42-.02.63,0,.06.02.13.03.19.18.98.96,1.91,2.29,2.68,1.56.9,3.54,1.43,5.9,1.6,2.3.15,4.43-.08,6.37-.72,1.6-.54,2.57-1.21,3.15-1.85,1.01.15,2.1.09,3.05-.23l18.63-6.24c1.03-.34,1.72-.93,1.93-1.6.01-.04.02-.07.03-.11.05-.24.04-.48-.03-.72M110.14,124.57c-1.77-.55-3.47-1.3-5.1-2.24l-2.75-1.59-2.56.86.9.52,1.67-.56,2.75,1.59c1.58.91,3.23,1.64,4.93,2.19,0-.13,0-.26.03-.4.03-.13.07-.25.13-.37M141.51,132.06l-.88-.51-14.98,5.02.9.52,5.52-1.85c.13-.06.26-.11.4-.15l9.03-3.03M182.21,142.88c-.05.15-.11.29-.21.44-.59.86-1.99,1.43-3.59,1.46l-22.68.44-9.73,3.26c.35.11.67.24.95.41l.1.06,8.68-2.9,22.68-.44c1.6-.03,3-.6,3.59-1.46.1-.14.17-.29.21-.44.08-.27.08-.55,0-.82"/>
        <path d="M85.29,148.28l-1.39.47c-1.56.52-3.54.37-4.83-.37l-6.56-3.79c-.36-.21-.66-.46-.86-.73-.46-.11-.89-.28-1.26-.49l-7.39-4.26c-3.22-1.86-4.98-4.01-5.18-6.3,0,.08-.01.16-.01.24,0,.2,0,.39.02.59.2,2.29,1.96,4.43,5.18,6.29l7.39,4.26c.37.21.8.38,1.26.49.2.27.49.52.85.73l6.57,3.79c1.28.74,3.26.89,4.83.37l1.39-.47s.02-.1.04-.14c-.07-.22-.08-.45-.04-.68M116.98,166.41l-1.56.52c-1.57.53-3.56.37-4.84-.37l-16.41-9.48-.15-.1-.17-.09-7.39-4.26c-.59-.34-.97-.77-1.11-1.23-.01.05-.03.1-.04.14-.04.23-.03.45.04.67.14.46.52.89,1.11,1.23l7.39,4.26.17.09.16.1,16.41,9.47c1.29.74,3.27.9,4.84.37l1.56-.52s0,0,0,0c-.07-.23-.09-.47-.04-.71,0-.04.02-.07.03-.11M35.32,118.5c-4.17.19-9.09-.63-14.33-3.65l-11.49-6.63c-.58-.34-.97-.77-1.12-1.23-.01.03-.02.07-.03.1-.05.24-.04.49.04.72.15.46.53.88,1.11,1.22l11.49,6.63c5.23,3.02,10.16,3.85,14.33,3.66,0-.17,0-.35.02-.52-.01-.1-.02-.2-.02-.3M133.01,173.9l-3.49,1.17c-1.57.53-3.55.38-4.84-.37l-6.56-3.79c-.58-.34-.97-.76-1.11-1.22,0,.03-.02.07-.03.1-.05.24-.04.48.03.71,0,0,0,0,0,0,.14.46.53.89,1.11,1.22l6.56,3.79c1.29.74,3.27.9,4.84.37l3.49-1.17c-.02-.21-.01-.43.02-.64-.01-.06-.02-.12-.02-.18M57.8,129.76c-7.82.52-13.52-1.47-17.3-3.66-3.19-1.84-4.91-3.74-5.14-5.66-.02.17-.02.34-.02.51,0,.1.01.2.02.29.22,1.92,1.94,3.82,5.14,5.67,3.78,2.19,9.48,4.18,17.3,3.66,0-.09,0-.18.01-.27-.01-.18-.02-.37-.01-.55M174.37,171.81c-.2.67-.91,1.26-1.92,1.6l-18.64,6.24c-.94.32-2.04.39-3.05.23-.58.65-1.55,1.31-3.15,1.85-1.94.64-4.07.87-6.37.72-2.36-.16-4.34-.7-5.9-1.6-1.33-.77-2.12-1.7-2.29-2.68-.04.21-.04.43-.02.64,0,.06.01.12.03.18.18.98.96,1.91,2.29,2.68,1.56.9,3.55,1.44,5.9,1.6,2.3.15,4.44-.08,6.37-.72,1.6-.54,2.57-1.21,3.15-1.85,1.01.15,2.11.08,3.05-.23l18.64-6.24c1.02-.34,1.72-.93,1.92-1.6.01-.03.02-.07.03-.1.05-.24.04-.48-.03-.72M110.68,123.92c-1.96-.57-3.85-1.37-5.65-2.41l-2.75-1.59-3.45,1.16.9.52,2.56-.86,2.75,1.59c1.63.94,3.33,1.69,5.1,2.24.12-.23.31-.45.54-.65M142.4,131.76l-1.77-1.02-15.88,5.32.9.52,14.98-5.02.88.51.89-.3M182.21,142.05c-.05.15-.12.3-.21.44-.58.86-1.99,1.43-3.58,1.46l-22.68.44-10.47,3.5c.27.17.49.35.65.54.03,0,.06.02.09.03l9.73-3.26,22.68-.44c1.6-.03,3-.6,3.59-1.46.1-.14.17-.29.21-.44.08-.27.08-.55,0-.82"/>
        <path d="M85.28,147.46l-1.38.46c-1.58.52-3.56.37-4.84-.37l-6.56-3.79c-.37-.21-.66-.46-.86-.73-.45-.11-.89-.28-1.26-.49l-7.38-4.26c-3.23-1.87-4.98-4.02-5.18-6.31,0,.09-.01.17-.01.25,0,.19,0,.39.02.58.2,2.29,1.96,4.44,5.18,6.3l7.39,4.26c.37.21.8.38,1.26.49.2.27.49.52.86.73l6.56,3.79c1.29.74,3.27.9,4.83.37l1.39-.47s.02-.09.03-.14c-.07-.22-.09-.45-.05-.68M116.98,165.59l-1.57.53c-1.57.53-3.55.38-4.83-.36l-16.41-9.48-.15-.1-.17-.09-7.39-4.26c-.59-.34-.97-.77-1.11-1.22-.01.05-.03.09-.03.14-.04.23-.03.45.04.67.14.46.52.89,1.11,1.23l7.39,4.26.17.09.15.1,16.41,9.48c1.28.74,3.27.9,4.84.37l1.56-.52s0,0,0,0c-.07-.23-.08-.47-.03-.71,0-.03.02-.07.03-.1,0,0,0,0,0,0M35.32,117.67c-4.18.2-9.1-.63-14.33-3.65l-11.49-6.63c-.59-.34-.97-.77-1.12-1.23-.01.04-.02.07-.03.11-.05.24-.04.48.03.71.15.46.53.89,1.12,1.23l11.49,6.63c5.24,3.02,10.16,3.84,14.33,3.65,0-.18,0-.36.02-.53-.01-.1-.02-.19-.02-.29M133,173.08l-3.49,1.17c-1.58.52-3.56.37-4.84-.37l-6.56-3.79c-.59-.34-.97-.77-1.12-1.23,0,0,0,0,0,0-.01.03-.02.07-.03.11-.05.24-.04.48.03.71,0,0,0,0,0,0,.15.46.53.89,1.11,1.22l6.56,3.79c1.29.74,3.27.9,4.84.37l3.49-1.17c-.02-.21-.01-.43.02-.65,0-.06-.02-.11-.02-.17M57.79,128.94c-7.82.53-13.52-1.47-17.3-3.66-3.2-1.84-4.92-3.75-5.14-5.67-.02.17-.02.35-.02.52,0,.1.01.2.02.3.23,1.92,1.95,3.82,5.14,5.66,3.79,2.19,9.48,4.18,17.3,3.66,0-.08,0-.16.01-.24-.02-.19-.02-.39-.02-.58M174.37,171c-.2.67-.91,1.26-1.92,1.6l-18.64,6.24c-.94.32-2.04.39-3.04.23-.58.65-1.55,1.32-3.15,1.85-1.94.63-4.07.87-6.38.72-2.35-.16-4.34-.7-5.9-1.6-1.34-.77-2.12-1.7-2.29-2.68-.03.21-.04.43-.02.63,0,.06.01.12.03.18.17.99.96,1.92,2.29,2.68,1.56.9,3.55,1.44,5.9,1.6,2.3.15,4.44-.08,6.37-.72,1.6-.54,2.57-1.21,3.15-1.85,1.01.15,2.11.08,3.05-.23l18.64-6.24c1.02-.34,1.72-.93,1.92-1.6.01-.03.02-.07.03-.1.05-.24.04-.48-.03-.71M37.99,88.96s-.02.07-.03.11c-.04.17-.04.33-.02.5l.31-.1c-.12-.16-.21-.33-.26-.5M74.53,108.58l-1.33.08c-.07,0-.14,0-.21,0,0,.13,0,.26-.03.39,0,.01,0,.03-.01.04l.58-.2c.31-.11.64-.18.98-.24,0-.03,0-.06.02-.09M111.64,123.36c-2.31-.57-4.52-1.46-6.61-2.66l-2.75-1.59-4.35,1.46.9.52,3.45-1.16,2.75,1.59c1.8,1.04,3.69,1.84,5.65,2.41.26-.22.58-.41.96-.56M143.3,131.45l-2.67-1.54-16.78,5.62.9.52,15.88-5.32,1.77,1.02.9-.3M182.21,141.22c-.05.15-.12.3-.22.45-.57.86-1.98,1.43-3.57,1.46l-22.68.44-11.36,3.8.8.46s.06.04.1.06l10.47-3.5,22.68-.44c1.59-.03,3-.6,3.58-1.46.1-.14.17-.29.21-.44.08-.28.08-.56,0-.83"/>
        <path d="M85.27,146.64l-1.39.46c-1.57.53-3.55.38-4.83-.36l-6.56-3.79c-.37-.21-.65-.46-.86-.73-.45-.11-.89-.28-1.26-.49l-7.38-4.26c-3.23-1.86-4.98-4.02-5.18-6.3,0,.08-.01.16-.01.24,0,.19,0,.38.02.56.19,2.29,1.95,4.45,5.18,6.31l7.38,4.26c.38.22.81.38,1.26.49.2.27.49.52.86.73l6.56,3.79c1.28.74,3.26.89,4.84.37l1.38-.46c0-.05.02-.1.04-.16-.07-.22-.08-.44-.04-.67M116.97,164.77l-1.57.53c-1.56.52-3.55.38-4.83-.36l-16.41-9.48-.15-.1-.17-.09-7.39-4.26c-.59-.34-.97-.77-1.11-1.22-.01.05-.03.09-.04.14-.04.23-.03.46.04.68.14.45.52.88,1.11,1.22l7.39,4.26.17.09.15.1,16.41,9.48c1.28.74,3.26.89,4.83.36l1.57-.53c-.07-.23-.08-.47-.03-.71,0-.03.02-.07.03-.1,0,0,0,0,0,0M35.32,116.86c-4.18.2-9.1-.63-14.33-3.65l-11.49-6.63c-.59-.34-.97-.77-1.12-1.23-.01.04-.02.07-.03.11-.05.24-.04.48.03.71.15.46.53.9,1.12,1.23l11.49,6.63c5.24,3.02,10.16,3.84,14.33,3.65,0-.17,0-.34.02-.51-.01-.1-.02-.21-.02-.31M133,172.26l-3.5,1.17c-1.57.53-3.55.38-4.83-.36l-6.56-3.79c-.59-.34-.97-.77-1.12-1.23,0,0,0,0,0,0-.01.04-.02.07-.03.11-.05.24-.04.48.03.71.15.46.53.9,1.12,1.23l6.56,3.79c1.28.74,3.26.89,4.84.37l3.49-1.17c-.02-.21-.01-.42.02-.63-.01-.06-.02-.13-.03-.19M57.78,128.12c-7.82.53-13.52-1.47-17.3-3.66-3.2-1.84-4.92-3.75-5.14-5.67-.02.17-.02.35-.02.52,0,.1.01.2.02.3.22,1.92,1.94,3.82,5.14,5.67,3.78,2.18,9.48,4.18,17.3,3.66,0-.07,0-.15.01-.22-.02-.2-.03-.4-.02-.6M85,131.27l-1.31-.76c-.61-.35-1.41-.58-2.44-.69l2.96,1.71.79-.26M174.36,170.18c-.2.67-.91,1.26-1.92,1.6l-18.64,6.24c-.94.32-2.04.39-3.04.23-.58.65-1.55,1.31-3.15,1.85-1.94.63-4.07.87-6.37.72-2.36-.15-4.34-.69-5.9-1.59-1.34-.77-2.12-1.7-2.29-2.68-.03.21-.04.43-.02.64,0,.06.01.12.03.18.17.98.96,1.91,2.29,2.68,1.56.9,3.55,1.44,5.9,1.6,2.3.15,4.44-.08,6.38-.72,1.6-.54,2.57-1.21,3.15-1.85,1,.16,2.1.09,3.04-.23l18.64-6.24c1.02-.34,1.72-.93,1.92-1.6.01-.03.02-.07.03-.1.05-.24.04-.48-.03-.71M86.7,116.85l-.58-.33s-.01.08-.02.13c0,.04-.02.08-.03.11,0,0,0,0,0,0,.21.03.42.06.63.09M115.04,133.22l-.2-.12s-.01.08-.02.12h.22M37.99,88.15s-.02.07-.03.1c-.05.24-.04.48.03.71.05.17.14.34.26.5l.65-.22c-.47-.32-.79-.7-.91-1.1M74.53,107.76l-1.32.08c-.07,0-.15,0-.22.01,0,.13,0,.26-.03.39,0,.04-.02.07-.03.11.03.11.05.21.06.32.07,0,.14,0,.21,0l1.33-.08s0-.02,0-.03c0-.03.02-.07.03-.1-.07-.23-.09-.46-.04-.69M113.1,122.86c-2.84-.53-5.55-1.52-8.08-2.98l-2.75-1.59-5.26,1.76c.19.1.38.21.57.32l.34.2,4.35-1.46,2.75,1.59c2.09,1.21,4.3,2.1,6.61,2.66.1-.04.21-.08.32-.12l1.15-.38M144.19,131.15s0,0-.01,0l-3.56-2.06-17.67,5.92.9.52,16.78-5.62,2.67,1.54.89-.3M99.94,92.92c-.04.13-.1.25-.17.37l.24-.02c0-.12-.03-.24-.06-.36M182.2,140.41c-.05.15-.12.3-.22.45-.57.86-1.98,1.43-3.57,1.46l-22.68.44-12.26,4.1.91.52,11.36-3.8,22.68-.44c1.59-.03,3-.6,3.57-1.46.1-.15.17-.3.22-.45.08-.27.08-.55,0-.82"/>
        <path d="M85.27,145.82l-1.39.46c-1.56.52-3.54.37-4.83-.37l-6.56-3.79c-.37-.21-.66-.46-.86-.73-.47-.11-.89-.28-1.26-.49l-7.39-4.26c-3.23-1.87-4.99-4.02-5.17-6.32,0,.09-.01.18-.01.27,0,.19,0,.38.02.57.2,2.29,1.95,4.44,5.18,6.3l7.38,4.26c.37.21.81.38,1.26.49.21.27.49.52.86.73l6.56,3.79c1.28.74,3.26.89,4.83.36l1.39-.46s.02-.1.04-.15c-.07-.22-.08-.45-.04-.67M116.97,163.95l-1.57.53c-1.56.52-3.54.37-4.83-.37l-16.41-9.48-.17-.1-.16-.09-7.39-4.26c-.59-.34-.97-.77-1.12-1.23-.01.05-.03.1-.04.14-.05.23-.03.46.04.68.14.45.52.88,1.11,1.22l7.39,4.26.17.09.15.1,16.41,9.48c1.28.74,3.27.89,4.83.36l1.57-.53c-.07-.23-.08-.47-.03-.71,0-.03.02-.07.03-.1,0,0,0,0,0,0M35.31,116.04c-4.17.2-9.09-.63-14.32-3.65l-11.49-6.63c-.59-.34-.98-.77-1.12-1.23-.01.04-.02.07-.03.11-.05.24-.04.48.03.71.14.46.53.89,1.12,1.23l11.49,6.63c5.24,3.02,10.16,3.84,14.33,3.65,0-.16,0-.33.02-.49-.01-.11-.02-.22-.03-.32M133.06,171.42l-3.56,1.19c-1.56.52-3.54.37-4.83-.37l-6.56-3.79c-.59-.34-.97-.77-1.12-1.23,0,0,0,0,0,0-.01.04-.02.07-.03.11-.05.24-.04.48.03.71.15.46.53.9,1.12,1.23l6.56,3.79c1.28.74,3.26.89,4.83.36l3.5-1.17c-.03-.28,0-.56.06-.84M57.78,127.3c-7.82.52-13.51-1.48-17.29-3.66-3.2-1.85-4.93-3.75-5.14-5.68-.02.18-.03.36-.02.53,0,.1.01.2.02.3.22,1.92,1.94,3.82,5.14,5.67,3.78,2.18,9.48,4.18,17.3,3.66,0-.08,0-.16.01-.25-.02-.19-.02-.38-.02-.57M85.9,130.97l-2.21-1.28c-.7-.41-1.66-.65-2.93-.74-.36-.02-.71-.03-1.05-.02l1.54.89c1.03.11,1.83.34,2.44.69l1.31.76.89-.3M174.36,169.37c-.21.67-.92,1.25-1.93,1.59l-18.63,6.25c-.95.31-2.04.39-3.04.23-.59.65-1.55,1.31-3.15,1.85-1.94.63-4.07.87-6.37.72-2.36-.15-4.34-.7-5.9-1.6-1.34-.77-2.12-1.7-2.3-2.68-.04.21-.04.43-.02.64,0,.06.01.12.03.18.17.98.96,1.91,2.29,2.68,1.56.9,3.55,1.44,5.9,1.59,2.3.16,4.43-.08,6.37-.72,1.6-.55,2.57-1.21,3.15-1.85,1,.16,2.1.09,3.04-.23l18.64-6.24c1.02-.34,1.72-.93,1.92-1.6.01-.03.02-.07.03-.1.05-.24.04-.48-.03-.71M60.96,101.17l-.69-.4c.05.19.09.37.11.56h.03c.18-.07.36-.12.55-.16M88.71,117.2l-2.6-1.5s-.01.09-.02.13c0,.04-.02.07-.03.11.06.19.08.39.06.58l.58.33c.69.1,1.36.22,2.01.35M116.47,133.22l-1.64-.95s-.01.08-.02.13c0,.04-.02.07-.03.11.06.19.08.39.06.59l.2.12h1.43M74.57,108.45s-.02.07-.03.1c0,0,0,.02,0,.03,0,.03-.01.06-.02.09.04,0,.09-.01.13-.02-.03-.07-.06-.13-.08-.2M37.98,87.33s-.02.07-.03.1c-.05.24-.04.48.03.71.13.4.44.78.91,1.1l.37-.12c.18-.06.36-.11.55-.15l-.72-.41c-.59-.34-.97-.77-1.12-1.23M74.52,106.94l-1.32.08c-.07,0-.14,0-.22,0,0,.13,0,.26-.03.39,0,.04-.02.07-.03.11.03.11.05.21.06.32.07,0,.15,0,.22-.01l1.32-.08s0-.02,0-.03c0-.04.02-.07.03-.11-.07-.22-.08-.46-.04-.69M68.81,103.47c-.11.03-.22.06-.33.09l.29.17c0-.08.03-.16.05-.23,0,0,0-.01,0-.02M114.79,122.29c-3.46-.41-6.74-1.49-9.77-3.24l-2.75-1.59-5.63,1.89c-.21.07-.43.13-.65.18.35.17.69.34,1.02.52l5.26-1.76,2.75,1.59c2.53,1.46,5.24,2.45,8.08,2.98l1.69-.56M145.16,130.75c-.35-.11-.68-.25-.98-.42l-3.56-2.06-18.05,6.05c-.18.06-.36.11-.55.15l.93.54,17.67-5.92,3.56,2.06s0,0,.01,0l.89-.3.08-.11M99.94,92.1c-.09.28-.26.56-.54.82l-.48.44.84-.06c.08-.12.13-.25.17-.37.08-.27.08-.55,0-.82M182.2,139.59c-.05.15-.12.3-.22.45-.57.86-1.98,1.43-3.57,1.46l-22.68.43-12.65,4.24c-.18.06-.36.11-.54.15l.93.54,12.26-4.1,22.68-.44c1.59-.03,3-.6,3.57-1.46.1-.15.17-.3.22-.45.08-.27.08-.55,0-.82"/>
        <path d="M85.27,145l-1.39.46c-1.56.52-3.54.37-4.83-.37l-6.56-3.79c-.37-.21-.66-.46-.86-.73-.47-.11-.89-.28-1.26-.49l-7.39-4.26c-3.22-1.86-4.97-4.01-5.17-6.29,0,.08-.01.16-.01.24,0,.18,0,.37.01.55.19,2.3,1.94,4.46,5.17,6.32l7.39,4.26c.37.21.8.38,1.26.49.2.27.49.52.86.73l6.56,3.79c1.28.74,3.26.89,4.83.37l1.39-.46c0-.05.02-.1.04-.15-.07-.22-.08-.44-.04-.67M116.97,163.13l-1.57.53c-1.56.52-3.54.37-4.83-.37l-16.41-9.48-.17-.1-.16-.09-7.39-4.26c-.59-.34-.97-.77-1.12-1.22-.01.05-.03.09-.03.14-.04.23-.03.45.04.68.14.46.52.88,1.12,1.23l7.39,4.26.16.09.17.1,16.41,9.48c1.28.74,3.26.89,4.83.37l1.57-.53c-.07-.23-.08-.47-.03-.71,0-.04.02-.07.03-.11M35.31,115.22c-4.18.2-9.1-.63-14.32-3.65l-11.49-6.64c-.59-.34-.97-.77-1.12-1.23-.01.04-.02.07-.03.11-.05.24-.04.48.03.71.15.46.53.89,1.12,1.23l11.49,6.63c5.23,3.02,10.15,3.85,14.32,3.65,0-.18,0-.35.02-.53-.01-.1-.02-.19-.02-.29M133.5,170.45l-4.01,1.34c-1.56.52-3.54.37-4.83-.37l-6.56-3.79c-.59-.34-.98-.77-1.12-1.24,0,0,0,0,0,0-.01.04-.02.07-.03.11-.05.24-.04.47.04.71.15.46.53.89,1.12,1.23l6.56,3.79c1.28.74,3.26.89,4.83.37l3.56-1.19s0-.02,0-.03c.08-.28.21-.6.43-.94M57.77,126.48c-7.82.52-13.51-1.48-17.29-3.66-3.19-1.84-4.92-3.74-5.14-5.66-.02.17-.02.34-.02.51,0,.1,0,.19.02.29.21,1.93,1.94,3.83,5.14,5.68,3.78,2.18,9.47,4.18,17.29,3.66,0-.08,0-.16.01-.25-.02-.19-.02-.38-.02-.57M86.79,130.68l-3.11-1.79c-.7-.41-1.66-.65-2.93-.74-.84-.06-1.6-.03-2.28.08l1.24.71c.33,0,.68,0,1.05.02,1.27.09,2.23.33,2.93.74l2.21,1.28.89-.3M132.31,156.79c-.15-.04-.3-.09-.44-.15l-6.21,2.09c.01.15,0,.3-.03.45,0,.04-.02.08-.03.12l6.9-2.31c-.07-.06-.13-.13-.19-.19M174.36,168.55c-.21.67-.92,1.25-1.93,1.59l-18.62,6.24c-.95.32-2.05.39-3.05.23-.59.65-1.55,1.31-3.16,1.85-1.94.64-4.07.88-6.37.72-2.36-.16-4.34-.7-5.9-1.6-1.34-.77-2.12-1.7-2.3-2.68-.04.21-.04.43-.02.64,0,.06.01.12.03.18.17.98.96,1.91,2.3,2.68,1.56.9,3.54,1.44,5.9,1.6,2.3.16,4.43-.08,6.37-.72,1.6-.55,2.56-1.21,3.15-1.85,1,.16,2.09.08,3.04-.23l18.63-6.25c1.01-.34,1.72-.92,1.93-1.59.01-.04.02-.08.03-.12.05-.24.04-.47-.04-.71M62.11,101.02l-2.34-1.35c.23.37.4.74.51,1.11l.69.4c.37-.08.76-.14,1.15-.15M91.07,117.74l-4.97-2.87s-.01.08-.02.13c0,.04-.02.07-.03.11.06.19.08.39.06.59l2.6,1.5c.81.16,1.6.34,2.36.55M117.91,133.23c-.06-.03-.12-.06-.18-.1l-2.9-1.67s-.01.08-.02.13c0,.04-.02.07-.03.11.06.19.08.39.05.58l1.64.95h1.44M74.56,107.63s-.02.07-.03.11c0,0,0,.02,0,.03-.05.23-.03.47.04.69.02.07.05.14.08.2.21-.03.43-.05.64-.05-.37-.29-.62-.62-.73-.97M37.98,86.5s-.02.07-.03.11c-.05.24-.04.48.03.72.15.46.53.89,1.12,1.23l.72.41c.37-.08.76-.14,1.15-.15l-1.88-1.08c-.59-.34-.97-.77-1.11-1.23M74.52,106.12l-1.33.08c-.18.01-.35.01-.53.01.19.26.3.53.32.82.07,0,.14,0,.22,0l1.32-.08s0-.02,0-.03c0-.04.02-.07.03-.11-.07-.22-.08-.45-.04-.69M68.8,102.65c-.47.14-.98.22-1.48.24l1.15.67c.11-.03.22-.05.33-.09-.08-.27-.08-.54,0-.8,0,0,0-.01,0-.02M116.75,121.63c-4.19-.19-8.14-1.32-11.74-3.4l-2.75-1.59-5.63,1.89c-.69.23-1.46.33-2.22.31.54.21,1.07.44,1.57.69.22-.05.44-.1.65-.18l5.63-1.89,2.75,1.59c3.02,1.75,6.31,2.83,9.77,3.24l1.96-.66M145.65,130.05c-.54-.11-1.05-.29-1.48-.54l-3.56-2.06-18.05,6.05c-.54.18-1.12.28-1.71.31.07.03.13.07.19.1l.97.56c.19-.04.37-.09.55-.15l18.05-6.05,3.56,2.06c.3.17.63.31.98.42l.49-.69M182.19,138.78c-.05.15-.12.29-.21.44-.59.86-1.99,1.44-3.58,1.47l-22.68.43-12.64,4.23c-.53.18-1.11.28-1.7.31l1.16.67c.18-.04.37-.09.54-.15l12.65-4.24,22.68-.43c1.59-.03,3-.6,3.57-1.46.1-.15.17-.3.22-.45.08-.27.08-.54,0-.81M99.93,91.28c-.09.28-.26.56-.53.81l-1.43,1.34.95-.07.48-.44c.27-.26.45-.53.54-.82.08-.27.08-.55,0-.82"/>
        <path d="M85.75,144.02l-1.88.63c-1.56.52-3.54.37-4.83-.37l-6.56-3.79c-.37-.21-.66-.46-.86-.73-.47-.11-.89-.28-1.26-.49l-7.39-4.26c-3.21-1.85-4.96-3.99-5.17-6.28,0,.07,0,.15-.01.22,0,.19,0,.39.02.58.2,2.29,1.95,4.44,5.17,6.29l7.39,4.26c.37.21.8.38,1.26.49.2.27.49.52.86.73l6.56,3.79c1.28.74,3.26.89,4.83.37l1.39-.46c.03-.17.1-.34.2-.5l.29-.48M35.3,114.4c-4.18.2-9.1-.63-14.32-3.65l-11.49-6.64c-.59-.34-.97-.77-1.11-1.23-.01.04-.02.08-.03.11-.05.24-.04.48.03.71.15.46.53.89,1.12,1.23l11.49,6.64c5.23,3.02,10.15,3.85,14.32,3.65,0-.18,0-.35.02-.53-.01-.1-.02-.19-.02-.29M117.93,161.99l-2.54.85c-1.56.52-3.54.37-4.83-.37l-16.41-9.48-.16-.1-.17-.09-7.38-4.26c-.6-.34-.98-.78-1.12-1.24-.02.05-.03.1-.04.16-.04.23-.03.46.05.68.15.45.53.88,1.12,1.22l7.39,4.26.16.09.17.1,16.41,9.48c1.28.74,3.26.89,4.83.37l1.57-.53c.13-.43.47-.83.96-1.14M57.86,125.66c-7.86.54-13.59-1.46-17.38-3.65-3.18-1.84-4.91-3.73-5.14-5.65-.02.16-.02.33-.02.49,0,.1.01.21.02.31.22,1.92,1.95,3.82,5.14,5.66,3.78,2.18,9.47,4.18,17.29,3.66,0-.27.04-.55.09-.82M134.88,169.17l-5.39,1.81c-1.56.52-3.54.37-4.83-.37l-6.56-3.79c-.59-.34-.97-.77-1.12-1.23-.01.03-.02.07-.03.1-.05.24-.04.48.03.71.14.46.53.89,1.12,1.24l6.56,3.79c1.28.74,3.26.89,4.83.37l4.01-1.34c.29-.42.72-.86,1.38-1.28M141.89,166.82l-2.33.78c.58-.08,1.19-.14,1.81-.15.12-.22.29-.43.52-.62M106.38,143.88h-.7s-.19.3-.19.3l.9-.3M87.68,130.38l-4.01-2.31c-.71-.41-1.66-.65-2.93-.74-1.27-.09-2.34.02-3.28.32l1,.58c.68-.11,1.44-.14,2.28-.08,1.27.09,2.23.33,2.93.74l3.11,1.79.89-.3M132.3,155.97c-.15-.04-.3-.09-.44-.15l-6.21,2.09c.01.15,0,.3-.03.45-.1.47-.46.91-1,1.26l.98-.33s.02-.08.03-.12c.03-.15.04-.3.03-.45l6.21-2.09c.14.06.29.11.44.15.06.07.12.13.19.19l.8-.27-.24-.14c-.31-.18-.56-.38-.75-.6M86.07,116.76s0,0,0,0c0,0,0,0,0,0,0,0,0,0,0,0M174.35,167.72c-.2.67-.9,1.25-1.93,1.6l-18.62,6.24c-.95.32-2.05.39-3.05.23-.58.65-1.55,1.31-3.15,1.85-1.94.64-4.07.88-6.37.72-2.36-.16-4.34-.7-5.9-1.6-1.34-.77-2.12-1.7-2.3-2.69-.04.22-.04.43-.02.64,0,.06.01.12.03.18.17.98.96,1.91,2.3,2.68,1.56.9,3.53,1.44,5.9,1.6,2.3.16,4.43-.08,6.37-.72,1.61-.54,2.57-1.21,3.16-1.85,1,.16,2.09.08,3.05-.23l18.62-6.24c1.02-.34,1.72-.92,1.93-1.59.01-.04.02-.07.03-.11.05-.24.04-.48-.04-.71M63.73,101.14l-5.44-3.14c.63.55,1.12,1.11,1.47,1.67l2.34,1.35c.55-.02,1.1.02,1.63.12M84.17,112.44c-.15-.02-.29-.04-.43-.07l.56.32c-.05-.08-.09-.16-.13-.25M68.81,103.49c-.02.08-.04.16-.05.23l.22.12c-.07-.12-.13-.24-.17-.36M37.97,85.69s-.02.07-.03.11c-.05.24-.04.48.03.71.14.46.52.89,1.11,1.23l1.88,1.08c.55-.02,1.1.02,1.63.12l-3.51-2.02c-.59-.34-.97-.77-1.11-1.23M110.04,127.3s-.02.07-.03.11c0,.04-.02.08-.02.13l.22.12c-.07-.12-.13-.24-.16-.36M130.56,139.14s-.02.07-.03.11c0,.04-.02.08-.02.13l.22.12c-.07-.12-.13-.24-.17-.36M74.56,106.8s-.02.07-.03.11c0,0,0,.02,0,.03-.05.23-.03.46.04.69.11.35.36.68.73.97.53-.02,1.07.02,1.57.13l-1.19-.69c-.59-.34-.97-.77-1.11-1.23M74.52,105.3l-1.33.08c-.61.04-1.21,0-1.76-.12l.37.21c.37.21.66.46.86.73.18,0,.35,0,.53-.01l1.33-.08s0-.02,0-.02c0-.04.02-.08.03-.11-.07-.22-.08-.45-.04-.68M68.8,101.84c-.98.28-2.11.32-3.11.11l1.63.94c.51-.02,1.01-.1,1.48-.24-.08-.26-.08-.54,0-.8,0,0,0-.01,0-.02M119.2,120.82c-5.1.21-9.9-.92-14.18-3.4l-2.75-1.59-5.63,1.89c-1.56.52-3.55.38-4.84-.37l-5.91-3.41c.18.3.26.62.22.94l4.97,2.87c1.18.32,2.3.68,3.35,1.1.76.02,1.53-.08,2.22-.31l5.63-1.89,2.75,1.59c3.59,2.07,7.55,3.21,11.74,3.4l2.44-.82M146.17,129.32c-.74-.09-1.44-.3-2-.63l-3.57-2.06-18.05,6.05c-1.57.53-3.55.38-4.84-.37l-3.11-1.79c.18.3.26.62.22.94l2.9,1.67c.06.03.12.07.18.1h.34c.96,0,1.89.21,2.61.57.59-.03,1.17-.13,1.71-.31l18.05-6.05,3.56,2.06c.43.25.94.43,1.48.54l.52-.73M166.64,128.98c-.04.12-.09.25-.17.37h.23c0-.13-.03-.25-.06-.37M99.93,90.46c-.09.28-.26.56-.53.81l-2.38,2.23.96-.07,1.43-1.34c.27-.25.45-.53.53-.81.08-.27.08-.55,0-.82M182.19,137.95c-.04.15-.11.3-.21.44-.59.86-1.99,1.44-3.58,1.47l-22.68.43-12.64,4.23c-1.03.35-2.25.4-3.32.18l1.63.94c.58-.03,1.16-.13,1.7-.31l12.64-4.23,22.68-.43c1.59-.03,2.99-.61,3.58-1.47.1-.14.17-.29.21-.44.08-.27.08-.55,0-.82"/>
        <path d="M35.36,113.58c-4.18.2-9.13-.61-14.39-3.65l-11.49-6.64c-.58-.34-.97-.77-1.11-1.22-.01.03-.02.07-.03.1-.05.24-.04.48.03.71.14.46.53.89,1.11,1.23l11.49,6.64c5.23,3.02,10.15,3.85,14.32,3.65-.01-.27.01-.55.06-.82M86.37,142.99l-2.5.83c-1.56.52-3.54.37-4.83-.37l-6.57-3.79c-.36-.21-.65-.46-.85-.73-.47-.11-.89-.28-1.26-.49l-7.39-4.26c-3.22-1.86-4.98-4.01-5.18-6.3,0,.08-.01.17-.01.25,0,.2,0,.4.02.6.21,2.28,1.96,4.42,5.17,6.28l7.39,4.26c.37.21.8.38,1.26.49.2.27.49.52.86.73l6.56,3.79c1.28.74,3.26.89,4.83.37l1.88-.63.62-1.03M58.08,124.82c-7.98.6-13.78-1.42-17.61-3.63-3.2-1.85-4.92-3.75-5.14-5.68-.02.18-.03.35-.02.53,0,.11.01.22.03.32.24,1.92,1.96,3.81,5.14,5.65,3.79,2.19,9.52,4.19,17.38,3.65.02-.13.05-.27.09-.41.04-.15.08-.29.13-.43M108.86,143.05l-3.19.02-.88,1.35.69-.23.19-.3h.7s2.48-.84,2.48-.84M88.58,130.08l-4.9-2.83c-.71-.41-1.66-.65-2.93-.74-1.31-.09-2.41.02-3.36.35-.35.12-.58.22-.73.31.06.04.14.09.23.14l.59.34c.93-.3,2-.41,3.28-.32,1.27.08,2.22.33,2.93.74l4.01,2.31.89-.3M148.14,164.46l-.61-.35-18.05,6.05c-1.56.52-3.54.37-4.83-.37l-6.57-3.79c-.58-.34-.97-.77-1.11-1.22-.01.03-.02.07-.03.1-.05.24-.04.48.03.71,0,0,0,0,0,0,.15.46.53.89,1.12,1.23l6.56,3.79c1.28.74,3.26.89,4.83.37l5.39-1.81c.55-.35,1.25-.68,2.14-.97.8-.27,1.66-.47,2.55-.6l2.33-.78c.33-.28.77-.52,1.3-.7l4.94-1.66M132.3,155.15c-.15-.04-.3-.09-.44-.15l-6.21,2.09c.01.15,0,.3-.03.45-.16.71-.88,1.35-1.95,1.7l-8.28,2.78c-1.56.52-3.54.37-4.83-.37l-16.41-9.48-.16-.1-.17-.09-7.38-4.26c-.59-.34-.97-.78-1.12-1.24-.02.05-.03.1-.04.15-.04.22-.03.45.04.67.14.46.53.89,1.12,1.24l7.38,4.26.17.09.16.1,16.41,9.48c1.28.74,3.26.89,4.83.37l2.54-.85c.27-.18.6-.33.96-.45l5.73-1.92c.54-.35.9-.79,1-1.26.03-.15.04-.31.03-.45l6.21-2.09c.14.06.29.11.44.15.19.22.44.42.75.6l.24.14.89-.3-1.14-.66c-.31-.18-.56-.38-.75-.6M86.06,115.93c-.08.27-.25.53-.49.76.16.02.33.04.49.06,0,0,0,0,0,0,.01-.04.02-.08.03-.11,0-.04.02-.08.02-.13.02-.2,0-.39-.06-.58M174.34,166.9c-.21.67-.9,1.26-1.93,1.6l-18.62,6.24c-.95.32-2.05.38-3.05.23-.58.65-1.55,1.31-3.15,1.85-1.94.64-4.07.88-6.37.72-2.36-.16-4.34-.7-5.9-1.6-1.34-.78-2.13-1.71-2.3-2.7-.04.22-.04.43-.02.65,0,.06.01.12.02.18.17.99.96,1.92,2.3,2.69,1.56.9,3.54,1.43,5.9,1.6,2.3.16,4.43-.08,6.37-.72,1.6-.54,2.56-1.2,3.15-1.85,1.01.16,2.1.09,3.05-.23l18.62-6.24c1.02-.34,1.73-.92,1.93-1.6.01-.04.02-.07.03-.11.05-.24.04-.48-.03-.71M72.93,108.35c-.12.38-.39.73-.78,1.02l.81-.27s0-.03.01-.04c.03-.13.04-.26.03-.39,0-.11-.03-.22-.06-.32M114.78,132.51c-.08.25-.22.49-.42.7h.46s.01-.07.02-.11c.02-.2,0-.4-.06-.59M74.51,104.48l-1.33.08c-1.22.07-2.41-.18-3.26-.67-.2-.11-.37-.24-.53-.37-.3-.26-.5-.56-.59-.86-.08.27-.08.54,0,.8,0,0,0,.01,0,.02.04.12.09.24.17.36l2.45,1.42c.55.11,1.15.16,1.76.12l1.33-.08s0-.02,0-.02c0-.04.02-.08.03-.11-.07-.22-.08-.45-.04-.68M68.8,101.01c-1.53.45-3.39.28-4.62-.43l-6.57-3.79c-.36-.21-.65-.46-.85-.73-.47-.11-.89-.28-1.26-.49l-16.41-9.48c-.59-.34-.97-.77-1.12-1.23-.01.04-.02.07-.03.11-.05.24-.04.48.03.71.14.46.52.89,1.11,1.23l3.51,2.02c.55.11,1.07.3,1.51.55l11.49,6.64c1.08.62,1.98,1.25,2.7,1.88l5.44,3.14c.55.11,1.07.3,1.51.55l.45.26c1,.2,2.13.17,3.11-.11-.08-.27-.08-.55,0-.82M122.7,119.64c-6.4,1.01-12.43-.01-17.69-3.05l-2.75-1.59-5.62,1.89c-1.56.52-3.55.37-4.83-.37l-6.56-3.79c-.54-.31-.91-.7-1.08-1.11-.71-.1-1.38-.31-1.93-.62l-6.57-3.79c-.59-.34-.97-.77-1.12-1.23-.01.04-.02.08-.03.11,0,0,0,.02,0,.02-.05.23-.03.46.04.69.14.46.52.89,1.11,1.23l1.19.69c.56.11,1.07.3,1.51.55l5.36,3.1c.14.03.29.05.43.07.03.08.08.17.13.25l.64.37c.43.25.75.55.95.87l5.91,3.41c1.29.74,3.28.89,4.84.37l5.63-1.89,2.75,1.59c4.29,2.47,9.09,3.61,14.18,3.4l3.5-1.17M146.72,128.55c-.94-.04-1.86-.27-2.56-.67l-3.57-2.06-18.05,6.05c-1.56.52-3.54.37-4.83-.37l-6.56-3.79c-.59-.34-.97-.77-1.12-1.23-.01.04-.02.07-.03.11-.03.13-.04.26-.03.39,0,.11.03.21.06.32.04.12.09.24.16.36l3.45,1.99c.43.25.75.55.95.87l3.11,1.79c1.29.74,3.27.9,4.84.37l18.05-6.05,3.57,2.06c.56.33,1.26.54,2,.63l.55-.77M182.18,137.14c-.04.15-.11.29-.21.44-.59.86-1.98,1.43-3.58,1.47l-22.68.43-12.64,4.23c-1.56.52-3.54.37-4.83-.37l-6.57-3.79c-.59-.34-.97-.77-1.12-1.23-.01.04-.02.07-.03.11-.04.2-.04.41,0,.61,0,.03.02.07.03.1.04.12.09.24.17.36l9.02,5.21c1.07.22,2.29.16,3.32-.18l12.64-4.23,22.68-.43c1.59-.03,2.99-.61,3.58-1.47.1-.14.17-.29.21-.44.08-.27.08-.55,0-.82M166.64,128.16c-.05.17-.13.33-.25.5l-.51.7h.6c.07-.13.13-.25.17-.38.08-.27.08-.55,0-.82M99.92,89.64c-.09.28-.26.56-.53.81l-3.34,3.12.97-.07,2.38-2.23c.27-.25.45-.53.53-.81.08-.27.08-.55,0-.82"/>
        <path d="M35.61,112.75c-4.24.25-9.28-.54-14.64-3.63l-11.49-6.64c-.58-.34-.97-.77-1.11-1.22-.01.03-.02.07-.03.1-.05.24-.04.48.03.72.14.46.53.89,1.11,1.22l11.49,6.64c5.26,3.03,10.21,3.85,14.39,3.65,0-.04.02-.09.03-.13.05-.24.13-.47.23-.7M86.98,141.96l-3.12,1.04c-1.56.52-3.54.37-4.83-.37l-6.57-3.79c-.36-.21-.65-.46-.85-.73-.47-.11-.89-.28-1.26-.49l-7.39-4.26c-3.22-1.86-4.98-4.01-5.18-6.3,0,.08-.01.17-.01.25,0,.19,0,.38.02.57.2,2.29,1.95,4.44,5.18,6.3l7.39,4.26c.37.21.8.38,1.26.49.2.27.49.52.85.73l6.57,3.79c1.28.74,3.26.89,4.83.37l2.5-.83.62-1.03M58.45,123.98c-8.17.69-14.09-1.36-17.98-3.61-3.2-1.85-4.92-3.75-5.14-5.68-.02.18-.02.35-.02.53,0,.1.01.19.02.29.22,1.93,1.94,3.83,5.14,5.68,3.83,2.21,9.63,4.23,17.61,3.63.1-.29.22-.57.36-.85M89.48,129.77l-5.8-3.35c-.71-.41-1.67-.65-2.94-.73-1.31-.09-2.41.02-3.35.34-.93.31-1,.53-1.02.65-.03.1-.06.24.29.49.15-.09.38-.19.73-.31.95-.32,2.05-.43,3.36-.35,1.27.08,2.22.33,2.93.74l4.9,2.83.9-.3M149.04,164.16l-1.51-.87-18.06,6.05c-1.56.52-3.54.37-4.83-.37l-6.57-3.79c-.58-.34-.97-.77-1.11-1.22-.01.03-.02.07-.03.1-.05.24-.04.48.03.71,0,0,0,0,0,0,.14.46.53.89,1.11,1.22l6.57,3.79c1.28.74,3.26.89,4.83.37l18.05-6.05.61.35.9-.3M132.29,154.33c-.15-.04-.29-.09-.43-.15l-6.22,2.08c.02.15.01.3-.02.46-.16.71-.88,1.35-1.95,1.7l-8.28,2.78c-1.57.53-3.55.38-4.84-.37l-16.41-9.47-.16-.1-.17-.09-7.39-4.26c-.59-.34-.97-.77-1.11-1.23-.02.05-.03.1-.04.15-.04.22-.03.45.04.67.14.46.53.89,1.12,1.24l7.38,4.26.17.09.16.1,16.41,9.48c1.28.74,3.26.89,4.83.37l8.28-2.78c1.07-.36,1.8-.99,1.95-1.7.04-.15.04-.31.03-.45l6.21-2.09c.14.06.29.11.44.15.19.22.44.42.75.6l1.14.66.9-.3-2.04-1.18c-.31-.18-.57-.38-.76-.6M111.35,142.21l-5.68.03-1.56,2.4.69-.23.88-1.35,3.19-.02,2.48-.83M114.78,131.7c-.19.62-.8,1.16-1.69,1.51h1.27c.2-.21.35-.45.42-.69.01-.03.02-.07.03-.11,0-.04.02-.08.02-.13.02-.2,0-.39-.05-.58M174.34,166.08c-.21.67-.9,1.26-1.93,1.6l-18.63,6.24c-.95.32-2.04.39-3.05.23-.58.65-1.55,1.31-3.15,1.85-1.94.64-4.07.88-6.37.72-2.36-.16-4.34-.7-5.9-1.6-1.33-.77-2.12-1.69-2.29-2.68-.03.21-.04.42-.02.63,0,.06.01.11.02.17.17.99.95,1.92,2.3,2.7,1.56.9,3.54,1.43,5.9,1.6,2.3.15,4.43-.08,6.37-.72,1.6-.54,2.57-1.21,3.15-1.85,1.01.15,2.1.09,3.05-.23l18.62-6.24c1.03-.34,1.72-.93,1.93-1.6.01-.04.02-.07.03-.11.05-.24.04-.48-.03-.71M72.92,107.53c-.21.67-.91,1.25-1.92,1.6l-14.49,4.86c-.62.21-1.07.38-1.4.53,1.07.1,2.66-.33,3.95-.76l13.08-4.39c.4-.29.67-.65.78-1.02.01-.04.02-.07.03-.11.03-.13.04-.26.03-.39,0-.11-.03-.21-.06-.32M86.05,115.11c-.18.59-.74,1.12-1.57,1.47.37.04.73.08,1.09.12.24-.23.4-.49.49-.76.01-.04.02-.07.03-.11,0-.04.02-.09.02-.13.02-.2,0-.4-.06-.59M74.98,103.63l-1.81.11c-1.22.08-2.41-.18-3.26-.67-.19-.11-.37-.24-.52-.37-.3-.26-.5-.55-.59-.85-.08.26-.08.54,0,.8,0,0,0,.01,0,.02.09.3.29.59.59.86.16.14.33.26.53.37.84.49,2.03.74,3.26.67l1.33-.08s0-.02,0-.02c.06-.29.23-.58.47-.83M69.61,99.93l-.61.21c-1.56.52-3.54.37-4.83-.37l-6.57-3.79c-.36-.21-.65-.46-.85-.73-.47-.11-.89-.28-1.26-.49l-16.41-9.48c-.59-.34-.97-.77-1.12-1.23-.01.04-.02.07-.03.11-.05.24-.04.48.03.71.15.46.53.89,1.12,1.23l16.41,9.48c.37.21.8.38,1.26.49.2.27.49.52.85.73l6.57,3.79c1.23.71,3.09.88,4.62.43.08-.25.23-.5.46-.73l.35-.36M128.15,117.82l-.36-.21c-8.29,2.63-16.16,2-22.8-1.83l-2.75-1.59-5.63,1.89c-1.56.52-3.54.37-4.83-.37l-6.56-3.79c-.54-.31-.91-.7-1.08-1.11-.71-.1-1.38-.31-1.93-.62l-6.56-3.79c-.59-.34-.97-.77-1.12-1.23-.01.04-.02.08-.03.11,0,0,0,.02,0,.02-.05.23-.03.46.04.68.14.46.53.89,1.12,1.23l6.57,3.79c.54.31,1.21.52,1.93.62.16.42.54.8,1.08,1.11l6.56,3.79c1.28.74,3.27.9,4.83.37l5.62-1.89,2.75,1.59c5.26,3.04,11.29,4.06,17.69,3.05l5.46-1.83M147.31,127.73c-1.14.05-2.3-.18-3.15-.67l-3.57-2.06-18.05,6.05c-1.57.52-3.55.37-4.83-.37l-6.56-3.79c-.59-.34-.98-.77-1.12-1.24-.01.04-.02.08-.03.12-.03.13-.04.26-.02.39,0,.11.03.21.06.32.15.46.53.89,1.12,1.23l6.56,3.79c1.29.74,3.27.9,4.83.37l18.05-6.05,3.57,2.06c.7.41,1.62.64,2.56.67l.58-.82M99.92,88.83c-.09.28-.26.56-.53.81l-4.3,4.01.96-.07,3.34-3.12c.27-.25.45-.53.53-.81.08-.27.08-.55,0-.82M182.18,136.32c-.04.15-.11.29-.21.44-.59.86-1.99,1.43-3.59,1.46l-22.68.44-12.64,4.23c-1.56.52-3.54.37-4.83-.37l-6.57-3.79c-.59-.34-.97-.77-1.12-1.23-.01.04-.02.07-.03.11-.04.2-.04.41,0,.61,0,.03.02.07.03.1.15.46.53.89,1.12,1.23l6.57,3.79c1.28.74,3.26.89,4.83.37l12.64-4.23,22.68-.43c1.6-.03,2.99-.61,3.58-1.47.1-.14.17-.29.21-.44.08-.27.08-.55,0-.82M166.63,127.35c-.05.17-.13.33-.25.5l-1.11,1.53h.61s.51-.71.51-.71c.12-.16.2-.33.25-.5.08-.27.08-.55,0-.82"/>
        <path d="M34.14,104l-4.92-2.84-4.15,1.38,4.92,2.84c1.1.63,2.33.72,3.72.26,1.38-.46,1.52-1.01.43-1.64M44.49,100.54l-4.93-2.85-4.15,1.38,4.93,2.85c1.09.63,2.33.72,3.71.25s1.53-1.01.44-1.64M138.14,173.5c-.91-.53-1.28-1.11-1.11-1.75.16-.64.82-1.15,1.98-1.53,1.14-.38,2.43-.53,3.88-.43,1.45.1,2.62.41,3.54.93s1.28,1.11,1.1,1.75c-.16.64-.81,1.15-1.96,1.54-1.16.38-2.45.52-3.9.42-1.45-.1-2.62-.41-3.53-.93M76.65,127.16c-.35-.25-.32-.38-.29-.49.02-.12.09-.34,1.02-.65.95-.32,2.04-.43,3.35-.34,1.27.08,2.23.32,2.94.73l5.8,3.35-.9.3-.89.3-.89.3-.89.3-.89.3-.79.26-2.96-1.71-1.54-.89-1.24-.71-1-.58-.59-.34c-.09-.05-.17-.1-.23-.14M104.1,144.64l1.56-2.4,5.68-.03-2.48.83-2.48.83-.9.3-.69.23-.69.23M12.29,100.84l28.98-9.71,11.49,6.64c5.47,3.16,4.76,5.89-2.15,8.2-2.25.75-4.65.94-7.23.55.17,1.19-.87,2.16-3.12,2.92-5.52,1.85-11.02,1.2-16.49-1.96l-11.49-6.64M82.11,114.7l-14.48,4.86c-9.67,3.24-17.78,2.96-24.35-.83s-5.02-7.31,4.65-10.54l14.48-4.86,6.56,3.79-14.48,4.86c-4.15,1.38-5.13,2.71-2.94,3.97s5.35,1.2,9.5-.18l14.48-4.86,6.56,3.79M102.16,126.28l-8.28,2.78-7.39-4.26c-1.36-.79-3.12-1.25-5.3-1.4-2.18-.15-4.12.07-5.83.64-1.72.57-2.7,1.33-2.96,2.3-.25.97.31,1.84,1.66,2.62l7.39,4.26-8.28,2.78-7.39-4.26c-3.17-1.83-4.46-3.87-3.88-6.11.59-2.24,2.89-4.04,6.89-5.37,4-1.35,8.53-1.84,13.6-1.5,5.08.35,9.2,1.44,12.37,3.27l7.39,4.26M125.61,139.81l-22.73.13v.02s-6.25,9.56-6.25,9.56l-7.39-4.26,5.05-8.42-12.43,4.16-6.57-3.79,28.98-9.71,6.57,3.79-12.42,4.16,19.81.1,7.39,4.26M142.35,149.48l-8.28,2.78-9.85-5.68-2.07.69,8.2,4.74-8.28,2.78-8.21-4.74-2.07.69,9.85,5.68-8.28,2.78-16.41-9.47,28.98-9.71,16.41,9.47M162.19,160.94l-8.28,2.78-5.74-3.31-20.71,6.94-6.57-3.79,20.71-6.94-5.74-3.31,8.28-2.78,18.05,10.42M170.4,165.68l-18.63,6.24-6.56-3.79,18.62-6.24,6.57,3.79M173.22,164.04l-6.57-3.79c-.28-.16-.6-.29-.94-.4-.19-.2-.42-.38-.7-.55l-7.43-4.29-1.37-.79-1.04-.6-.9-.52-.9-.52-.9-.52-.9-.52-.9-.52-.9-.52-.9-.52-.9-.52-.9-.52-.1-.06c-.29-.17-.61-.3-.95-.41-.03,0-.06-.02-.09-.03-.17-.19-.38-.38-.65-.54-.03-.02-.06-.04-.1-.06l-.8-.46-.91-.52-.93-.54-1.16-.67-1.63-.94-9.02-5.21-.22-.12-.36-.21-.9-.52-.49-.28-.17-.09-.16-.1-.08-.05-.9-.52-.9-.52-.9-.52-.9-.52-.9-.52-.9-.52-.93-.54-.97-.56c-.06-.04-.13-.07-.19-.1-.72-.36-1.64-.57-2.61-.57h-.34s-1.44-.01-1.44-.01h-1.43s-.22,0-.22,0h-.46s-1.27,0-1.27,0c.89-.35,1.5-.89,1.69-1.51.01-.04.02-.07.03-.11,0-.04.02-.08.02-.13.04-.32-.03-.64-.22-.94-.2-.32-.52-.62-.95-.87l-3.45-1.99-.22-.12-2.9-1.68s-.06-.03-.09-.05c-.13-.07-.26-.13-.4-.19-.24-.1-.5-.19-.77-.25-.07-.09-.15-.19-.24-.27-.17-.17-.38-.32-.62-.46l-3.45-1.99-.9-.52-.9-.52-.9-.52-.9-.52-.34-.2c-.19-.11-.38-.21-.57-.32-.33-.18-.67-.35-1.02-.52-.51-.24-1.03-.47-1.57-.69-1.05-.42-2.17-.79-3.35-1.1-.76-.2-1.55-.39-2.36-.55-.65-.13-1.33-.25-2.01-.35-.21-.03-.42-.06-.63-.09,0,0,0,0,0,0-.16-.02-.33-.04-.49-.06-.36-.04-.73-.08-1.09-.12.83-.35,1.4-.88,1.57-1.47.01-.04.02-.07.03-.11,0-.04.02-.08.02-.13.04-.32-.03-.64-.22-.94-.2-.32-.52-.62-.95-.87l-.64-.37-.56-.32-5.36-3.1c-.44-.25-.96-.44-1.51-.55-.5-.1-1.04-.14-1.57-.13-.22,0-.43.03-.64.05-.04,0-.09.01-.13.02-.34.05-.67.13-.98.24l-.58.2-.81.27-13.08,4.39c-1.28.43-2.88.85-3.95.76.33-.15.77-.32,1.4-.53l14.49-4.86c1.01-.34,1.72-.93,1.92-1.6.01-.04.02-.07.03-.11.03-.13.04-.26.03-.39-.02-.28-.13-.56-.32-.82-.2-.27-.49-.52-.86-.73l-.37-.21-2.45-1.42-.22-.12-.29-.17-1.15-.67-1.63-.94-.45-.26c-.44-.25-.95-.44-1.51-.55-.52-.11-1.07-.15-1.63-.12-.39.02-.78.07-1.15.15-.19.04-.37.09-.55.15h-.03c-.02-.18-.06-.36-.11-.55-.11-.37-.28-.74-.51-1.11-.35-.56-.84-1.11-1.47-1.67-.72-.63-1.62-1.26-2.7-1.88l-11.49-6.64c-.44-.25-.95-.44-1.51-.55-.52-.11-1.07-.15-1.63-.12-.39.02-.78.07-1.15.15-.19.04-.37.09-.55.15l-.37.12-.65.22-.31.1-27.66,9.27c-1.07.36-1.8.99-1.95,1.7-.05.24-.04.48.03.72.14.46.53.89,1.11,1.22l11.49,6.64c5.36,3.1,10.41,3.89,14.64,3.63-.09.23-.18.46-.23.7,0,.04-.02.09-.03.13-.05.27-.07.55-.06.82,0,.1.01.19.02.29.22,1.93,1.94,3.83,5.14,5.68,3.89,2.24,9.81,4.29,17.98,3.61-.14.28-.26.56-.36.85-.05.14-.09.29-.13.43-.04.14-.07.27-.09.41-.05.28-.08.55-.09.82,0,.19,0,.38.02.57.2,2.29,1.95,4.44,5.18,6.3l7.39,4.26c.37.21.8.38,1.26.49.2.27.49.52.85.73l6.57,3.79c1.28.74,3.26.89,4.83.37l3.12-1.04-.62,1.03-.62,1.03-.29.48c-.1.16-.16.33-.2.5-.04.22-.03.45.04.67.14.46.52.89,1.11,1.23l7.39,4.26.17.09.16.1,16.41,9.47c1.29.74,3.27.9,4.84.37l8.28-2.78c1.07-.36,1.8-.99,1.95-1.7.04-.15.04-.31.02-.46l6.22-2.08c.15.06.29.11.43.15.19.22.45.42.76.6l2.04,1.18-.9.3-.89.3-.8.27-6.9,2.31-.98.33-5.73,1.92c-.36.12-.68.27-.96.45-.5.32-.83.71-.96,1.14-.01.04-.02.07-.03.11-.05.24-.04.48.03.71,0,0,0,0,0,0,.14.46.53.89,1.11,1.22l6.57,3.79c1.28.74,3.26.89,4.83.37l18.06-6.05,1.51.87-.9.3-4.94,1.66c-.53.17-.97.41-1.3.7-.22.19-.4.4-.52.62-.62.02-1.22.07-1.81.15-.9.13-1.75.33-2.55.6-.89.29-1.59.63-2.14.97-.66.42-1.09.86-1.38,1.28-.23.33-.36.65-.43.94,0,.01,0,.02,0,.03-.07.28-.09.56-.06.84,0,.06.02.13.03.19.18.98.96,1.91,2.29,2.68,1.56.9,3.54,1.43,5.9,1.6,2.3.15,4.43-.08,6.37-.72,1.6-.54,2.57-1.21,3.15-1.85,1.01.15,2.1.09,3.05-.23l18.63-6.24c1.03-.34,1.72-.93,1.93-1.6.01-.04.02-.07.03-.11.16-.72-.26-1.43-1.14-1.94M120.25,109.98l-4.92-2.84-4.15,1.38,4.92,2.84c1.1.63,2.33.72,3.72.26,1.38-.46,1.53-1.01.43-1.64M41.9,83.64l28.98-9.71,16.41,9.48-8.28,2.78-9.85-5.69-2.07.69,8.2,4.74-8.28,2.78-8.2-4.74-2.08.69,9.85,5.69-8.28,2.78-16.41-9.48M87.24,96.59l20.22-1.54,6.56,3.79-28.98,9.71-6.56-3.79,13.45-4.51-19.2,1.19,7.71-7.83-13.45,4.51-6.57-3.79,28.98-9.71,6.57,3.79-8.74,8.18M88.05,110.28l28.98-9.71,11.49,6.63c5.47,3.16,4.76,5.89-2.14,8.21-6.9,2.31-13.09,1.89-18.56-1.27l-4.92-2.84-8.28,2.78-6.56-3.79M128.93,114.99l8.28-2.78,18.06,10.42-8.28,2.78-5.75-3.32-20.71,6.94-6.56-3.79,20.71-6.94-5.75-3.32M159.17,131.77l11.62-.17,7.45,4.3-22.26.42-1.43.03-13.5,4.52-6.57-3.79,13.68-4.59.43-.49,6.67-9.37,7.43,4.29-3.52,4.84M181.06,134.27l-7.45-4.3c-.78-.45-1.84-.69-2.93-.68l-3.97.06h-.23s-.6.01-.6.01h-.61s1.11-1.52,1.11-1.52c.12-.16.2-.33.25-.5.22-.74-.18-1.51-1.13-2.05l-25.49-14.72c-1.08-.62-2.66-.83-4.06-.57-.52-1.49-2.07-2.97-4.62-4.45l-11.49-6.63c-.55-.32-1.22-.53-1.93-.62-.17-.42-.54-.8-1.08-1.12l-6.56-3.79c-.88-.51-2.12-.75-3.34-.66l-6.94.53-.24.02-.84.06-.95.07-.96.07-.97.07-.96.07,4.3-4.01c.27-.25.45-.53.53-.81.22-.73-.17-1.5-1.12-2.05l-6.57-3.79c-.37-.21-.8-.38-1.26-.49-.2-.27-.49-.52-.86-.73l-16.41-9.48c-1.28-.74-3.26-.89-4.83-.37l-28.98,9.71c-1.07.36-1.8.99-1.96,1.71-.05.24-.04.48.03.71.15.46.53.89,1.12,1.23l16.41,9.48c.37.21.8.38,1.26.49.2.27.49.52.85.73l6.57,3.79c1.28.74,3.26.89,4.83.37l.61-.21-.35.36c-.22.23-.38.48-.46.73-.09.27-.09.55,0,.82,0,0,0,.01,0,.02.09.3.29.59.59.85.15.13.33.26.52.37.85.49,2.04.74,3.26.67l1.81-.11c-.24.25-.4.53-.47.83,0,0,0,.02,0,.02-.05.23-.03.46.04.68.14.46.53.89,1.12,1.23l6.56,3.79c.55.32,1.22.53,1.93.62.17.41.54.8,1.08,1.11l6.56,3.79c1.28.74,3.26.89,4.83.37l5.63-1.89,2.75,1.59c6.64,3.83,14.51,4.46,22.8,1.83l.36.21-5.46,1.83-3.5,1.17-2.44.82-1.96.66-1.69.56-1.15.38c-.11.04-.22.08-.32.12-.38.15-.7.35-.96.56-.24.2-.42.42-.54.65-.06.12-.11.24-.13.37-.03.13-.04.27-.03.4,0,.1.03.21.06.31.14.46.53.9,1.12,1.24l6.56,3.79c1.28.74,3.26.89,4.83.37l18.05-6.05,3.57,2.06c.85.49,2.01.72,3.15.67l-.58.82-.55.77-.52.73-.49.69-.08.11-.89.3-.89.3-.9.3-.89.3-9.03,3.03c-.14.05-.28.1-.4.15-.74.32-1.26.79-1.48,1.32-.03.08-.06.16-.08.24-.04.2-.04.41,0,.61,0,.03.02.07.03.1.15.46.53.89,1.12,1.23l6.57,3.79c1.28.74,3.26.89,4.83.37l12.64-4.23,22.68-.44c1.6-.03,3-.6,3.59-1.46.1-.14.17-.29.21-.44.22-.74-.18-1.51-1.12-2.05"/>
        <path class="cls-4" d="M146.42,170.72c-.91-.53-2.09-.84-3.54-.93-1.45-.1-2.74.04-3.88.43-1.16.38-1.82.89-1.98,1.53-.17.64.2,1.22,1.11,1.75s2.09.83,3.53.93c1.45.1,2.74-.04,3.9-.42,1.14-.38,1.8-.9,1.96-1.54.17-.64-.2-1.22-1.1-1.75M25.07,102.54l4.15-1.38,4.92,2.84c1.09.63.95,1.18-.43,1.64-1.39.46-2.62.38-3.72-.26l-4.92-2.84M35.42,99.07l4.15-1.38,4.93,2.85c1.09.63.94,1.18-.44,1.64s-2.62.38-3.71-.25l-4.93-2.85M52.77,97.76l-11.49-6.64-28.98,9.71,11.49,6.64c5.47,3.16,10.97,3.81,16.49,1.96,2.25-.75,3.29-1.72,3.12-2.92,2.57.38,4.98.2,7.23-.55,6.9-2.31,7.61-5.05,2.15-8.2M82.11,114.7l-6.56-3.79-14.48,4.86c-4.15,1.38-7.32,1.44-9.5.18s-1.21-2.59,2.94-3.97l14.48-4.86-6.56-3.79-14.48,4.86c-9.67,3.24-11.22,6.75-4.65,10.54s14.68,4.07,24.35.83l14.48-4.86M102.16,126.28l-7.39-4.26c-3.17-1.83-7.29-2.92-12.37-3.27-5.07-.35-9.6.15-13.6,1.5-4.01,1.34-6.3,3.13-6.89,5.37-.59,2.24.71,4.28,3.88,6.11l7.39,4.26,8.28-2.78-7.39-4.26c-1.35-.78-1.91-1.66-1.66-2.62.26-.96,1.24-1.73,2.96-2.3,1.71-.57,3.65-.79,5.83-.64,2.18.15,3.94.61,5.3,1.4l7.39,4.26,8.28-2.78M125.61,139.81l-7.39-4.26-19.81-.1,12.42-4.16-6.57-3.79-28.98,9.71,6.57,3.79,12.43-4.16-5.05,8.42,7.39,4.26,6.25-9.56v-.02s22.74-.13,22.74-.13M142.35,149.48l-16.41-9.47-28.98,9.71,16.41,9.47,8.28-2.78-9.85-5.68,2.07-.69,8.21,4.74,8.28-2.78-8.2-4.74,2.07-.69,9.85,5.68,8.28-2.78M162.19,160.94l-18.05-10.42-8.28,2.78,5.74,3.31-20.71,6.94,6.57,3.79,20.71-6.94,5.74,3.31,8.28-2.78M170.4,165.68l-6.57-3.79-18.62,6.24,6.56,3.79,18.63-6.24M87.3,83.4l-16.41-9.48-28.98,9.71,16.41,9.48,8.28-2.78-9.85-5.69,2.08-.69,8.2,4.74,8.28-2.78-8.2-4.74,2.07-.69,9.85,5.69,8.28-2.78M114.03,98.83l-6.56-3.79-20.22,1.54,8.74-8.18-6.57-3.79-28.98,9.71,6.57,3.79,13.45-4.51-7.71,7.83,19.2-1.19-13.45,4.51,6.56,3.79,28.98-9.71M111.17,108.52l4.15-1.38,4.92,2.84c1.1.63.95,1.18-.43,1.64-1.38.46-2.62.38-3.72-.26l-4.92-2.84M128.52,107.2l-11.49-6.63-28.98,9.71,6.56,3.79,8.28-2.78,4.92,2.84c5.47,3.16,11.66,3.58,18.56,1.27,6.9-2.31,7.61-5.05,2.14-8.21M155.26,122.64l-18.06-10.42-8.28,2.78,5.75,3.32-20.71,6.94,6.56,3.79,20.71-6.94,5.75,3.32,8.28-2.78M178.24,135.91l-7.45-4.3-11.62.17,3.52-4.84-7.43-4.29-6.67,9.37-.43.49-13.68,4.59,6.57,3.79,13.5-4.52,1.43-.03,22.26-.42"/>
      </g>
    </g>
  </g>
</svg>