<?xml version="1.0" encoding="UTF-8"?>
<svg id="Layer_1" data-name="Layer 1" xmlns="http://www.w3.org/2000/svg" xmlns:xlink="http://www.w3.org/1999/xlink" viewBox="0 0 234 166">
  <defs>
    <style>
      .cls-1 {
        fill: none;
      }

      .cls-2 {
        isolation: isolate;
      }

      .cls-3 {
        fill: #fff;
      }

      .cls-4 {
        clip-path: url(#clippath);
      }
    </style>
    <clipPath id="clippath">
      <polygon class="cls-1" points="11.6 62.06 83.76 20.12 238.75 109.6 166.58 151.54 11.6 62.06"/>
    </clipPath>
  </defs>
  <g class="cls-2">
    <g class="cls-4">
      <g>
        <path d="M104.34,111.1l-1.39.46c-1.56.52-3.54.37-4.83-.37l-6.56-3.79c-.37-.21-.66-.46-.86-.73-.47-.11-.89-.28-1.26-.49l-7.39-4.26c-3.21-1.85-4.96-3.99-5.17-6.28-.18,2.59,1.59,5.02,5.18,7.09l7.39,4.26c.37.21.8.38,1.26.49.2.27.49.52.86.73l6.56,3.79c1.28.74,3.26.89,4.83.37l1.39-.46s.02-.1.04-.14c-.07-.22-.08-.45-.04-.68M136.03,129.24l-1.57.53c-1.57.53-3.55.38-4.83-.36l-16.41-9.48-.16-.1-.17-.09-7.38-4.26c-.59-.34-.97-.77-1.12-1.23-.23.74.18,1.51,1.12,2.05l7.39,4.26.17.09.16.1,16.41,9.48c1.28.74,3.26.89,4.83.36l1.57-.52c-.07-.23-.08-.47-.03-.71,0-.04.02-.07.03-.11,0,0,0,0,0,0M54.38,81.33c-4.17.19-9.1-.63-14.32-3.65l-11.49-6.64c-.58-.34-.97-.77-1.11-1.22-.01.03-.02.07-.03.1-.16.72.26,1.43,1.14,1.94l11.49,6.64c5.23,3.02,10.15,3.84,14.32,3.65,0-.17,0-.35.02-.53-.01-.1-.02-.2-.02-.29M152.05,136.73l-3.49,1.17c-1.57.53-3.55.38-4.83-.36l-6.56-3.79c-.59-.34-.97-.77-1.12-1.23-.01.03-.02.07-.03.1-.16.72.26,1.43,1.15,1.94l6.56,3.79c1.28.74,3.26.89,4.83.37l3.5-1.17c-.02-.21-.01-.42.02-.64-.01-.06-.02-.12-.03-.18M76.84,92.59c-7.82.52-13.51-1.48-17.29-3.66-3.19-1.84-4.91-3.74-5.14-5.65-.22,2.19,1.5,4.37,5.15,6.47s9.47,4.18,17.29,3.66c0-.08,0-.16.01-.24-.02-.19-.02-.39-.02-.58M193.43,134.64c-.19.67-.9,1.26-1.92,1.6l-18.63,6.25c-.95.31-2.04.39-3.05.23-.58.65-1.55,1.31-3.15,1.85-1.94.64-4.07.88-6.37.72-2.36-.16-4.34-.7-5.9-1.6-1.34-.77-2.12-1.7-2.29-2.68-.21,1.28.6,2.52,2.3,3.5,1.56.9,3.54,1.43,5.9,1.6,2.3.15,4.43-.08,6.37-.72,1.6-.54,2.57-1.21,3.15-1.85,1.01.15,2.09.08,3.05-.23l18.62-6.24c1.08-.36,1.8-.99,1.96-1.7.05-.24.04-.49-.04-.72M201.26,104.88c-.05.15-.11.3-.21.44-.59.86-1.98,1.43-3.58,1.47l-22.27.42,1.37.79,20.9-.4c1.6-.03,2.99-.61,3.58-1.47.28-.41.34-.84.21-1.26"/>
        <path d="M104.33,110.29l-1.39.47c-1.56.52-3.54.37-4.83-.37l-6.57-3.79c-.36-.21-.65-.46-.85-.73-.47-.11-.89-.28-1.26-.49l-7.39-4.26c-3.22-1.86-4.98-4.01-5.18-6.3-.02.28-.02.57,0,.85.21,2.28,1.96,4.42,5.17,6.28l7.39,4.26c.37.21.8.38,1.26.49.2.27.49.52.86.73l6.56,3.79c1.28.74,3.26.89,4.83.37l1.39-.46s.02-.1.04-.15c-.07-.22-.08-.45-.04-.67M136.02,128.42l-1.56.52c-1.57.53-3.55.38-4.83-.36l-16.41-9.48-.16-.1-.17-.09-7.38-4.26c-.59-.34-.97-.77-1.12-1.23-.08.27-.08.55,0,.82.14.46.52.89,1.12,1.23l7.38,4.26.17.09.16.1,16.41,9.48c1.28.74,3.26.89,4.83.36l1.57-.53c-.07-.23-.09-.47-.04-.71,0-.04.02-.07.03-.11M54.37,80.51c-4.17.19-9.09-.63-14.32-3.65l-11.49-6.64c-.58-.34-.97-.76-1.11-1.22-.01.03-.02.07-.03.1-.05.24-.04.48.03.72.14.46.53.89,1.11,1.22l11.49,6.64c5.23,3.02,10.15,3.84,14.32,3.65,0-.17,0-.35.02-.52-.01-.1-.02-.2-.02-.29M152.05,135.91l-3.49,1.17c-1.57.53-3.55.38-4.83-.36l-6.57-3.79c-.58-.34-.97-.76-1.11-1.22-.01.03-.02.07-.03.1-.05.24-.04.48.03.71.15.46.53.89,1.12,1.23l6.56,3.79c1.28.74,3.26.89,4.83.36l3.49-1.17c-.02-.21-.01-.43.02-.64-.01-.06-.02-.12-.02-.17M76.84,91.77c-7.82.52-13.52-1.47-17.3-3.66-3.2-1.85-4.92-3.75-5.14-5.68-.03.28-.03.56,0,.84.23,1.92,1.95,3.81,5.14,5.65,3.78,2.18,9.47,4.18,17.29,3.66,0-.09,0-.18.01-.27-.01-.18-.02-.37-.01-.55M193.42,133.82c-.2.67-.9,1.26-1.92,1.6l-18.63,6.25c-.95.31-2.05.38-3.05.23-.58.65-1.55,1.31-3.15,1.85-1.94.64-4.07.88-6.37.72-2.36-.16-4.34-.7-5.9-1.6-1.34-.77-2.12-1.7-2.29-2.68-.04.28-.04.55,0,.82.17.98.96,1.91,2.29,2.68,1.56.9,3.54,1.43,5.9,1.6,2.3.15,4.44-.08,6.37-.72,1.6-.54,2.57-1.21,3.15-1.85,1.01.16,2.11.08,3.05-.23l18.63-6.25c1.02-.34,1.73-.93,1.92-1.6,0-.03.02-.07.03-.1.05-.24.04-.48-.03-.72M201.26,104.06c-.05.15-.12.3-.21.44-.58.86-1.98,1.43-3.57,1.46l-22.69.44-.62.21,1.04.6,22.27-.42c1.6-.03,2.99-.61,3.58-1.47.1-.14.17-.29.21-.44.08-.27.08-.55,0-.82"/>
        <path d="M104.33,109.47l-1.38.46c-1.57.53-3.55.38-4.83-.36l-6.57-3.79c-.36-.21-.65-.46-.85-.73-.46-.12-.89-.28-1.26-.49l-7.39-4.26c-3.23-1.86-4.98-4.02-5.18-6.32-.02.28-.02.56,0,.83.2,2.29,1.95,4.44,5.18,6.3l7.39,4.26c.37.21.8.38,1.26.49.2.27.49.52.85.73l6.57,3.79c1.28.74,3.26.89,4.83.37l1.39-.47s.02-.1.04-.14c-.07-.22-.09-.45-.04-.67M136.02,127.6l-1.57.52c-1.57.53-3.55.38-4.84-.37l-16.41-9.47-.16-.1-.17-.09-7.39-4.26c-.59-.34-.97-.77-1.11-1.23-.08.27-.08.55,0,.82.14.46.52.89,1.12,1.23l7.38,4.26.17.09.16.1,16.41,9.48c1.28.74,3.26.89,4.83.36l1.56-.52s0,0,0,0c-.07-.23-.08-.47-.03-.71,0-.04.02-.07.03-.1M54.37,79.69c-4.17.2-9.1-.63-14.33-3.65l-11.49-6.64c-.59-.34-.97-.77-1.11-1.23-.01.04-.02.07-.03.11-.05.24-.04.48.03.72.15.46.53.89,1.11,1.22l11.49,6.64c5.23,3.02,10.15,3.84,14.32,3.65,0-.18,0-.36.02-.53-.01-.1-.02-.19-.02-.29M152.05,135.09l-3.49,1.17c-1.57.53-3.55.38-4.83-.36l-6.57-3.79c-.59-.34-.97-.77-1.11-1.23-.01.04-.02.07-.03.11-.05.24-.04.48.03.72.15.46.53.89,1.11,1.22l6.57,3.79c1.28.74,3.26.89,4.83.36l3.49-1.17c-.02-.21-.01-.43.02-.65,0-.06-.02-.11-.02-.17M76.84,90.95c-7.82.52-13.52-1.47-17.3-3.66-3.2-1.85-4.92-3.75-5.14-5.68-.02.18-.02.35-.02.53,0,.1.01.2.02.29.22,1.93,1.94,3.83,5.14,5.68,3.78,2.18,9.48,4.18,17.3,3.66,0-.08,0-.16.01-.24-.02-.19-.02-.38-.02-.58M193.41,133c-.2.67-.9,1.26-1.92,1.6l-18.64,6.24c-.94.32-2.04.39-3.04.23-.58.65-1.55,1.32-3.15,1.85-1.94.64-4.07.88-6.37.72-2.36-.16-4.34-.7-5.9-1.6-1.33-.77-2.12-1.69-2.29-2.68-.04.27-.04.54,0,.81.17.98.96,1.91,2.29,2.68,1.56.9,3.54,1.43,5.9,1.6,2.3.15,4.44-.08,6.37-.72,1.6-.54,2.57-1.21,3.15-1.85,1.01.15,2.11.08,3.05-.23l18.63-6.25c1.02-.34,1.72-.93,1.92-1.6.01-.03.02-.07.03-.1.05-.24.04-.48-.03-.72M201.26,103.24c-.05.15-.12.3-.21.44-.58.86-1.99,1.43-3.58,1.46l-22.68.44-1.51.51.9.52.62-.21,22.69-.44c1.59-.03,2.99-.61,3.57-1.46.1-.14.17-.29.21-.44.08-.27.08-.55,0-.82"/>
        <path d="M104.33,108.64l-1.39.47c-1.57.53-3.55.38-4.83-.36l-6.57-3.79c-.36-.21-.65-.46-.85-.73-.46-.12-.89-.28-1.26-.49l-7.39-4.26c-3.22-1.86-4.97-4.01-5.17-6.3,0,.08,0,.16-.01.24,0,.19,0,.37.02.56.19,2.3,1.95,4.46,5.18,6.32l7.39,4.26c.37.21.8.38,1.26.49.2.27.49.52.85.73l6.57,3.79c1.28.74,3.26.89,4.83.36l1.38-.46s.02-.1.04-.15c-.07-.22-.08-.45-.04-.67M136.02,126.78l-1.57.52c-1.56.52-3.55.38-4.84-.37l-16.41-9.47-.16-.1-.17-.09-7.39-4.26c-.59-.34-.97-.77-1.11-1.23-.01.05-.03.1-.04.14-.04.23-.03.45.04.68.14.46.52.89,1.11,1.23l7.39,4.26.17.09.16.1,16.41,9.47c1.29.74,3.27.9,4.84.37l1.57-.52s0,0,0,0c-.07-.23-.09-.47-.03-.71,0-.04.02-.07.03-.1M54.37,78.87c-4.17.2-9.1-.63-14.33-3.65l-11.49-6.63c-.58-.34-.96-.77-1.11-1.22-.01.03-.02.07-.03.1-.05.24-.04.48.03.71.14.46.52.89,1.11,1.23l11.49,6.64c5.23,3.02,10.15,3.84,14.33,3.65,0-.17,0-.34.02-.51-.01-.1-.02-.2-.02-.3M152.05,134.27l-3.49,1.17c-1.57.53-3.55.38-4.84-.37l-6.56-3.79c-.59-.34-.97-.77-1.11-1.23-.01.04-.02.07-.03.11-.05.24-.04.48.03.71.14.46.52.89,1.11,1.23l6.57,3.79c1.28.74,3.26.89,4.83.36l3.49-1.17c-.02-.21-.01-.42.02-.64-.01-.06-.02-.12-.03-.18M76.83,90.13c-7.82.52-13.52-1.47-17.3-3.66-3.2-1.85-4.92-3.75-5.14-5.67-.02.17-.02.35-.02.52,0,.1.01.2.02.29.22,1.93,1.94,3.83,5.14,5.68,3.78,2.18,9.48,4.18,17.3,3.66,0-.08,0-.16.01-.24-.02-.19-.02-.38-.02-.58M193.41,132.19c-.2.67-.9,1.26-1.92,1.6l-18.64,6.24c-.94.32-2.04.39-3.04.23-.58.65-1.55,1.31-3.15,1.85-1.94.64-4.07.87-6.37.72-2.36-.16-4.35-.7-5.91-1.6-1.33-.77-2.12-1.7-2.29-2.68-.04.28-.04.56,0,.83.18.98.96,1.91,2.29,2.68,1.56.9,3.54,1.43,5.9,1.6,2.3.15,4.44-.08,6.37-.72,1.6-.54,2.57-1.21,3.15-1.85,1,.16,2.1.09,3.04-.23l18.64-6.24c1.02-.34,1.72-.93,1.92-1.6.01-.03.02-.07.03-.1.05-.24.04-.48-.03-.72M201.25,102.42c-.05.15-.12.3-.21.44-.58.86-1.99,1.43-3.58,1.46l-22.68.44-2.41.81.9.52,1.51-.51,22.68-.44c1.59-.03,3-.6,3.58-1.46.1-.15.17-.29.21-.44.08-.27.08-.55,0-.82"/>
        <path d="M104.32,107.83l-1.39.47c-1.56.52-3.54.37-4.83-.37l-6.56-3.79c-.36-.21-.66-.46-.86-.73-.46-.11-.89-.28-1.26-.49l-7.39-4.26c-3.24-1.87-4.99-4.03-5.18-6.32,0,.09-.01.18-.01.27,0,.2,0,.39.02.58.2,2.29,1.96,4.44,5.17,6.3l7.39,4.26c.37.21.8.38,1.26.49.21.27.49.52.85.73l6.57,3.79c1.28.74,3.26.89,4.83.36l1.39-.47s.02-.1.04-.14c-.07-.22-.08-.45-.04-.67M136.01,125.96l-1.56.52c-1.56.52-3.55.37-4.83-.37l-16.41-9.48-.16-.09-.17-.1-7.39-4.26c-.59-.34-.97-.77-1.12-1.23-.02.05-.03.1-.04.15-.04.23-.03.45.04.68.14.46.52.89,1.11,1.23l7.39,4.26.17.09.16.1,16.41,9.47c1.29.74,3.28.89,4.84.37l1.57-.52s0,0,0,0c-.07-.23-.09-.47-.03-.71,0-.03.02-.07.03-.1,0,0,0,0,0,0M54.36,78.05c-4.18.2-9.09-.63-14.33-3.65l-11.49-6.63c-.59-.34-.97-.77-1.12-1.23-.01.04-.02.08-.03.11-.05.24-.04.48.04.72.15.46.53.89,1.11,1.22l11.49,6.63c5.23,3.02,10.16,3.85,14.33,3.65,0-.17,0-.34.02-.51-.01-.1-.02-.21-.02-.31M152.04,133.45l-3.49,1.17c-1.56.52-3.54.37-4.83-.37l-6.56-3.79c-.59-.34-.97-.77-1.12-1.23-.01.04-.02.07-.03.11-.05.24-.04.48.03.71,0,0,0,0,0,0,.14.46.52.89,1.11,1.23l6.56,3.79c1.29.74,3.27.9,4.84.37l3.49-1.17c-.02-.21-.01-.42.02-.63-.01-.06-.02-.12-.03-.18M76.83,89.31c-7.82.52-13.51-1.48-17.3-3.66-3.2-1.85-4.93-3.75-5.14-5.68-.02.18-.03.36-.02.53,0,.1.01.2.02.29.22,1.92,1.94,3.82,5.14,5.67,3.79,2.19,9.48,4.18,17.3,3.66,0-.08,0-.16.01-.24-.02-.19-.02-.38-.02-.58M193.41,131.37c-.21.67-.92,1.25-1.93,1.59l-18.64,6.24c-.94.32-2.04.39-3.04.23-.58.65-1.55,1.31-3.15,1.85-1.94.64-4.07.87-6.37.72-2.36-.16-4.34-.7-5.9-1.6-1.33-.77-2.12-1.7-2.3-2.68-.05.28-.04.55,0,.82.18.98.96,1.91,2.29,2.68,1.56.9,3.55,1.44,5.91,1.6,2.29.15,4.43-.08,6.37-.72,1.61-.54,2.57-1.21,3.15-1.85,1,.16,2.1.09,3.04-.23l18.64-6.24c1.02-.34,1.72-.93,1.92-1.6.01-.03.02-.07.03-.1.05-.24.04-.48-.03-.71M201.25,101.6c-.05.15-.12.3-.21.44-.58.86-1.99,1.43-3.58,1.46l-22.68.44-3.31,1.11.9.52,2.41-.81,22.68-.44c1.59-.03,3-.6,3.58-1.46.1-.15.17-.29.21-.44.08-.27.08-.55,0-.82"/>
        <path d="M104.31,107.01l-1.38.46c-1.57.52-3.55.37-4.83-.37l-6.56-3.79c-.37-.21-.66-.46-.86-.73-.46-.11-.89-.28-1.26-.49l-7.38-4.26c-3.22-1.86-4.98-4.01-5.18-6.3,0,.08-.01.16-.01.24,0,.18,0,.37.01.55.19,2.3,1.95,4.46,5.18,6.32l7.39,4.26c.37.21.8.38,1.26.49.2.27.49.52.86.73l6.56,3.79c1.29.74,3.27.9,4.83.37l1.39-.47s.02-.09.04-.14c-.07-.22-.09-.45-.04-.68M136.01,125.14l-1.57.53c-1.56.52-3.54.37-4.83-.37l-16.41-9.48-.16-.09-.17-.1-7.39-4.26c-.59-.34-.97-.77-1.12-1.23-.01.05-.03.1-.04.14-.04.22-.03.45.04.67.14.46.53.89,1.12,1.23l7.39,4.26.17.1.16.09,16.41,9.48c1.28.74,3.27.9,4.83.37l1.56-.52c-.07-.23-.09-.47-.03-.71,0-.03.02-.07.03-.1,0,0,0,0,0,0M54.36,77.23c-4.18.2-9.09-.63-14.33-3.65l-11.49-6.63c-.59-.34-.97-.77-1.12-1.23-.01.04-.02.07-.03.11-.05.24-.04.47.04.71.15.46.53.89,1.12,1.23l11.49,6.63c5.24,3.02,10.15,3.85,14.33,3.65,0-.17,0-.35.02-.52-.01-.1-.02-.2-.02-.3M152.04,132.64l-3.49,1.17c-1.57.52-3.55.37-4.83-.37l-6.56-3.79c-.59-.34-.98-.77-1.12-1.24,0,0,0,0,0,0-.01.04-.02.07-.03.11-.05.24-.04.48.04.71,0,0,0,0,0,0,.15.46.53.89,1.12,1.23l6.56,3.79c1.29.74,3.27.9,4.83.37l3.49-1.17c-.02-.21-.01-.42.02-.63-.01-.06-.02-.12-.03-.18M76.83,88.49c-7.82.53-13.52-1.48-17.3-3.66-3.19-1.84-4.92-3.74-5.14-5.66-.02.17-.02.34-.02.51,0,.1.01.19.02.29.22,1.93,1.94,3.83,5.14,5.68,3.79,2.19,9.48,4.19,17.3,3.66,0-.08,0-.16.01-.24-.02-.19-.02-.39-.02-.58M193.4,130.55c-.21.67-.92,1.25-1.93,1.6l-18.63,6.24c-.95.32-2.05.39-3.05.23-.58.65-1.55,1.31-3.15,1.85-1.94.63-4.07.87-6.37.72-2.36-.15-4.34-.7-5.9-1.6-1.34-.77-2.12-1.7-2.3-2.68-.03.21-.04.43-.02.64,0,.06.01.12.03.18.18.99.96,1.91,2.3,2.68,1.56.9,3.54,1.44,5.9,1.6,2.29.15,4.43-.08,6.37-.72,1.61-.54,2.57-1.21,3.15-1.85,1,.16,2.1.09,3.04-.23l18.64-6.24c1.01-.34,1.72-.92,1.93-1.59.01-.04.02-.08.03-.11.05-.24.04-.48-.03-.71M201.24,100.78c-.05.15-.12.3-.21.44-.58.86-1.99,1.44-3.58,1.47l-22.68.44-4.21,1.41.9.52,3.31-1.11,22.68-.44c1.59-.03,3-.6,3.58-1.46.1-.15.17-.29.21-.44.08-.27.08-.55,0-.82"/>
        <path d="M104.31,106.19l-1.39.46c-1.56.52-3.54.37-4.83-.37l-6.56-3.79c-.37-.21-.66-.46-.86-.73-.46-.11-.89-.28-1.26-.49l-7.38-4.26c-3.22-1.86-4.98-4.01-5.18-6.3,0,.08-.01.16-.01.24,0,.19,0,.39.02.58.2,2.29,1.96,4.44,5.18,6.3l7.38,4.26c.38.22.8.38,1.26.49.2.27.49.52.86.73l6.56,3.79c1.28.74,3.26.89,4.83.37l1.38-.46s.02-.1.04-.15c-.07-.22-.08-.45-.04-.67M136,124.32l-1.57.53c-1.56.52-3.54.37-4.83-.37l-16.41-9.48-.15-.1-.17-.09-7.39-4.26c-.59-.34-.97-.77-1.12-1.23-.02.05-.03.1-.04.15-.04.23-.03.45.04.67.14.46.53.88,1.12,1.23l7.39,4.26.17.1.16.09,16.41,9.48c1.28.74,3.26.89,4.83.37l1.57-.53c-.07-.23-.08-.47-.03-.71,0-.03.02-.07.03-.1,0,0,0,0,0,0M54.35,76.41c-4.18.2-9.09-.63-14.33-3.65l-11.49-6.63c-.59-.34-.98-.77-1.12-1.24-.01.04-.02.08-.03.11-.05.24-.04.47.04.71.15.46.53.89,1.12,1.23l11.49,6.63c5.24,3.02,10.15,3.85,14.33,3.65,0-.17,0-.34.02-.52-.01-.1-.02-.2-.02-.3M152.03,131.81l-3.5,1.17c-1.56.52-3.54.37-4.83-.37l-6.56-3.79c-.59-.34-.97-.77-1.12-1.23,0,0,0,0,0,0-.01.03-.02.07-.03.1-.05.24-.04.48.03.71.14.46.53.9,1.12,1.24l6.56,3.79c1.28.74,3.26.89,4.83.37l3.49-1.17c-.02-.21-.01-.42.02-.63-.01-.06-.02-.13-.03-.19M76.82,87.67c-7.81.52-13.51-1.48-17.29-3.66-3.19-1.84-4.92-3.74-5.14-5.66-.02.17-.02.34-.02.51,0,.1.01.2.02.3.22,1.92,1.95,3.82,5.14,5.66,3.78,2.18,9.48,4.19,17.3,3.66,0-.07,0-.15.01-.22-.02-.2-.03-.4-.02-.6M193.4,129.73c-.21.67-.91,1.25-1.93,1.6l-18.63,6.24c-.95.32-2.05.39-3.05.23-.58.65-1.55,1.31-3.15,1.85-1.95.64-4.08.88-6.38.72-2.35-.16-4.34-.7-5.9-1.6-1.34-.77-2.12-1.7-2.3-2.69-.04.22-.04.43-.02.64,0,.06.01.12.03.18.17.98.96,1.91,2.3,2.68,1.56.9,3.54,1.44,5.9,1.6,2.3.16,4.43-.08,6.37-.72,1.61-.54,2.57-1.21,3.15-1.85,1,.16,2.1.09,3.05-.23l18.63-6.24c1.01-.34,1.72-.93,1.93-1.6.01-.04.02-.07.03-.11.05-.24.04-.48-.03-.71M149.53,92.04l-.38.13.36.21s.01-.08.02-.13c0-.04.02-.07.03-.11-.01-.03-.02-.07-.03-.1M201.24,99.96c-.05.15-.12.3-.21.44-.58.86-1.99,1.44-3.58,1.47l-22.68.44-5.1,1.71.9.52,4.21-1.41,22.68-.44c1.59-.03,3-.6,3.58-1.47.1-.14.17-.29.21-.44.08-.27.08-.55,0-.82"/>
        <path d="M104.31,105.37l-1.39.46c-1.56.52-3.54.37-4.83-.37l-6.56-3.79c-.37-.21-.66-.46-.86-.73-.47-.11-.89-.28-1.26-.49l-7.39-4.26c-3.22-1.86-4.97-4.01-5.17-6.29,0,.08-.01.16-.01.24,0,.19,0,.39.02.58.2,2.29,1.96,4.44,5.18,6.3l7.38,4.26c.37.21.8.38,1.26.49.2.27.49.52.86.73l6.56,3.79c1.28.74,3.26.89,4.83.37l1.39-.46s.02-.1.04-.14c-.07-.22-.08-.45-.04-.67M136,123.5l-1.57.53c-1.56.52-3.54.37-4.83-.37l-16.41-9.48-.16-.1-.17-.09-7.39-4.26c-.59-.34-.97-.77-1.11-1.23-.01.05-.03.1-.04.14-.04.23-.03.45.04.67.14.46.52.89,1.12,1.23l7.39,4.26.17.09.15.1,16.41,9.48c1.28.74,3.26.89,4.83.37l1.57-.53c-.07-.23-.08-.47-.03-.71,0-.04.02-.07.03-.11,0,0,0,0,0,0M54.34,75.59c-4.17.19-9.09-.63-14.32-3.65l-11.49-6.63c-.59-.34-.97-.77-1.12-1.23-.01.03-.02.07-.03.1-.05.24-.04.48.03.71.14.46.53.89,1.12,1.24l11.49,6.63c5.24,3.02,10.15,3.85,14.33,3.65,0-.17,0-.33.02-.5-.01-.11-.02-.21-.03-.32M152.02,131l-3.5,1.17c-1.56.52-3.54.37-4.83-.37l-6.56-3.79c-.59-.34-.97-.77-1.12-1.23,0,0,0,0,0,0-.01.03-.02.07-.03.1-.05.24-.04.48.03.71.15.46.53.89,1.12,1.23l6.56,3.79c1.28.74,3.26.89,4.83.37l3.5-1.17c-.02-.21-.01-.42.02-.63-.01-.06-.02-.12-.03-.18M76.81,86.85c-7.82.52-13.51-1.48-17.29-3.66-3.2-1.85-4.92-3.75-5.14-5.67-.02.17-.03.35-.02.52,0,.1.01.21.02.31.22,1.92,1.95,3.82,5.14,5.66,3.78,2.18,9.48,4.18,17.29,3.66,0-.08,0-.16.01-.25-.02-.19-.02-.38-.02-.57M193.4,128.91c-.21.67-.91,1.25-1.93,1.59l-18.62,6.24c-.95.32-2.04.39-3.05.23-.58.64-1.55,1.31-3.15,1.85-1.95.64-4.07.87-6.38.72-2.35-.16-4.34-.7-5.9-1.6-1.34-.78-2.13-1.71-2.3-2.7-.04.22-.04.43-.02.65,0,.06.01.12.02.17.17.99.96,1.92,2.3,2.69,1.56.9,3.55,1.44,5.9,1.6,2.3.16,4.43-.08,6.38-.72,1.59-.54,2.56-1.2,3.15-1.85,1,.16,2.1.09,3.05-.23l18.63-6.24c1.02-.35,1.72-.93,1.93-1.6.01-.04.02-.07.03-.11.05-.24.04-.48-.03-.71M149.53,91.22l-1.28.43.9.52.38-.13c-.05-.2-.05-.4,0-.61,0-.04.02-.08.03-.11,0-.03-.02-.06-.03-.1M201.23,99.14c-.05.15-.12.3-.21.44-.58.86-1.98,1.43-3.58,1.47l-22.68.43-5.99,2.01.9.52,5.1-1.71,22.68-.44c1.59-.03,3-.6,3.58-1.47.1-.14.17-.29.21-.44.08-.27.08-.55,0-.82"/>
        <path d="M104.3,104.55l-1.39.46c-1.56.52-3.54.37-4.83-.37l-6.56-3.79c-.37-.21-.66-.46-.86-.73-.47-.11-.89-.28-1.26-.49l-7.39-4.26c-3.22-1.86-4.97-4.01-5.17-6.29,0,.08-.01.16-.01.24,0,.19,0,.39.02.58.2,2.29,1.95,4.44,5.17,6.29l7.39,4.26c.37.21.8.38,1.26.49.2.27.49.52.86.73l6.56,3.79c1.28.74,3.26.89,4.83.37l1.39-.46s.02-.1.04-.14c-.07-.22-.08-.45-.04-.68M136,122.68l-1.57.52c-1.57.53-3.55.38-4.83-.36l-16.41-9.48-.16-.1-.17-.09-7.39-4.26c-.59-.34-.97-.77-1.12-1.23-.01.05-.03.09-.04.14-.04.23-.03.45.04.67.14.46.52.89,1.11,1.23l7.39,4.26.17.09.16.1,16.41,9.48c1.28.74,3.26.89,4.83.37l1.57-.53c-.07-.23-.08-.47-.03-.71,0-.04.02-.07.03-.11,0,0,0,0,0,0M54.34,74.77c-4.17.19-9.1-.63-14.32-3.65l-11.49-6.64c-.58-.34-.97-.77-1.11-1.22-.01.03-.02.07-.03.1-.05.24-.04.48.03.71.15.46.53.89,1.12,1.23l11.49,6.63c5.23,3.02,10.15,3.84,14.32,3.65,0-.17,0-.35.02-.53-.01-.1-.02-.2-.02-.29M152.02,130.18l-3.5,1.17c-1.56.52-3.54.37-4.83-.37l-6.56-3.79c-.59-.34-.97-.77-1.12-1.23-.01.03-.02.07-.03.1-.05.24-.04.48.03.71.15.46.53.89,1.12,1.23l6.56,3.79c1.28.74,3.26.89,4.83.37l3.5-1.17c-.02-.21-.01-.43.02-.64-.01-.06-.02-.12-.03-.18M76.81,86.03c-7.82.52-13.52-1.47-17.29-3.66-3.2-1.84-4.92-3.75-5.14-5.67-.02.17-.02.34-.02.52,0,.1.01.2.02.3.22,1.92,1.94,3.83,5.14,5.67,3.78,2.18,9.47,4.18,17.29,3.66,0-.09,0-.17.01-.26-.02-.19-.02-.37-.02-.56M193.39,128.1c-.21.67-.91,1.25-1.93,1.59l-18.62,6.24c-.95.32-2.04.39-3.05.23-.58.64-1.55,1.31-3.15,1.85-1.94.64-4.07.88-6.37.72-2.36-.16-4.34-.7-5.9-1.6-1.34-.77-2.12-1.7-2.29-2.68-.03.21-.04.43-.02.64,0,.06.01.11.02.17.17.99.95,1.92,2.3,2.7,1.56.9,3.55,1.44,5.9,1.6,2.3.15,4.43-.08,6.38-.72,1.59-.54,2.56-1.21,3.15-1.85,1.01.15,2.09.08,3.05-.23l18.62-6.24c1.02-.34,1.73-.92,1.93-1.59.01-.04.02-.07.03-.11.05-.24.04-.48-.03-.71M125.61,78.62c-.34-.17-.68-.34-1.02-.53.09.09.17.18.24.27.27.07.53.15.78.25M128.98,79.98c-1.02-.33-2.01-.72-2.99-1.17.03.02.07.04.1.06l2.9,1.67s.01-.08.02-.13c0-.04.02-.08.03-.11-.03-.1-.05-.21-.06-.31M149.52,90.4l-2.18.73.08.05.16.1.17.09.49.28,1.28-.43c-.05-.2-.05-.41,0-.61,0-.03.02-.07.03-.1-.01-.03-.02-.07-.03-.1M201.23,98.33c-.05.15-.12.29-.21.44-.59.86-1.98,1.43-3.58,1.47l-22.68.43-6.89,2.31.9.52,5.99-2.01,22.68-.43c1.6-.03,3-.6,3.58-1.47.1-.14.17-.29.21-.44.08-.27.08-.55,0-.81"/>
        <path d="M104.3,103.73l-1.39.46c-1.56.52-3.54.37-4.83-.37l-6.56-3.79c-.37-.21-.66-.46-.86-.73-.47-.11-.89-.28-1.26-.49l-7.39-4.26c-3.21-1.85-4.96-3.99-5.17-6.28,0,.07,0,.15-.01.22,0,.19,0,.39.02.58.2,2.29,1.95,4.44,5.17,6.29l7.39,4.26c.37.21.8.38,1.26.49.2.27.49.52.86.73l6.56,3.79c1.28.74,3.26.89,4.83.37l1.39-.46s.02-.1.04-.14c-.07-.22-.08-.45-.04-.68M135.99,121.86l-1.57.53c-1.57.53-3.55.38-4.83-.36l-16.41-9.48-.16-.1-.17-.09-7.38-4.26c-.59-.34-.97-.77-1.12-1.23-.02.05-.03.1-.04.15-.04.23-.03.45.04.68.15.46.53.89,1.12,1.23l7.39,4.26.17.09.16.1,16.41,9.48c1.28.74,3.26.89,4.83.36l1.57-.52c-.07-.23-.08-.47-.03-.71,0-.04.02-.07.03-.11,0,0,0,0,0,0M54.34,73.95c-4.17.19-9.1-.63-14.32-3.65l-11.49-6.64c-.58-.34-.97-.77-1.11-1.22-.01.03-.02.07-.03.1-.05.24-.04.48.03.72.14.46.53.89,1.11,1.22l11.49,6.64c5.23,3.02,10.15,3.84,14.32,3.65,0-.17,0-.35.02-.53-.01-.1-.02-.2-.02-.29M152.01,129.36l-3.49,1.17c-1.57.53-3.55.38-4.83-.36l-6.56-3.79c-.59-.34-.97-.77-1.12-1.23-.01.03-.02.07-.03.1-.05.24-.04.48.03.71,0,0,0,0,0,0,.15.46.53.89,1.12,1.23l6.56,3.79c1.28.74,3.26.89,4.83.37l3.5-1.17c-.02-.21-.01-.42.02-.64-.01-.06-.02-.12-.03-.18M76.8,85.22c-7.82.52-13.51-1.48-17.29-3.66-3.19-1.84-4.91-3.74-5.14-5.65-.02.17-.02.33-.02.5,0,.1.01.2.02.3.22,1.92,1.94,3.82,5.14,5.67,3.78,2.18,9.47,4.18,17.29,3.66,0-.08,0-.16.01-.24-.02-.19-.02-.39-.02-.58M193.38,127.27c-.19.67-.9,1.26-1.92,1.6l-18.63,6.25c-.95.31-2.04.39-3.05.23-.58.65-1.55,1.31-3.15,1.85-1.94.64-4.07.88-6.37.72-2.36-.16-4.34-.7-5.9-1.6-1.34-.77-2.12-1.7-2.29-2.68-.03.21-.04.42-.02.63,0,.06.01.12.03.18.17.98.96,1.91,2.29,2.68,1.56.9,3.54,1.43,5.9,1.6,2.3.15,4.43-.08,6.37-.72,1.6-.54,2.57-1.21,3.15-1.85,1.01.15,2.09.08,3.05-.23l18.62-6.24c1.02-.34,1.73-.92,1.93-1.59.01-.04.02-.07.03-.11.05-.24.04-.49-.04-.72M128.98,79.16c-1.71-.55-3.35-1.28-4.93-2.19l-2.75-1.59-.77.26,3.45,1.99c.24.14.44.29.62.46.34.18.68.36,1.02.53.13.06.26.12.39.19.97.46,1.97.85,2.99,1.17,0-.13,0-.26.03-.4,0-.03.02-.07.03-.1-.03-.1-.05-.21-.06-.32M149.59,89.55l-3.15,1.05.9.52,2.18-.73c-.05-.2-.05-.41,0-.61.02-.08.04-.16.07-.23M201.22,97.51c-.05.15-.11.3-.21.44-.59.86-1.98,1.43-3.58,1.47l-22.68.43-7.78,2.61.9.52,6.89-2.31,22.68-.43c1.6-.03,2.99-.61,3.58-1.47.1-.14.17-.29.21-.44.08-.27.08-.55,0-.82"/>
        <path d="M104.29,102.91l-1.39.47c-1.56.52-3.54.37-4.83-.37l-6.57-3.79c-.36-.21-.65-.46-.85-.73-.47-.11-.89-.28-1.26-.49l-7.39-4.26c-3.22-1.86-4.98-4.01-5.18-6.3,0,.08-.01.17-.01.25,0,.2,0,.4.02.6.21,2.28,1.96,4.42,5.17,6.28l7.39,4.26c.37.21.8.38,1.26.49.2.27.49.52.86.73l6.56,3.79c1.28.74,3.26.89,4.83.37l1.39-.46s.02-.1.04-.15c-.07-.22-.08-.45-.04-.67M135.98,121.05l-1.56.52c-1.57.53-3.55.38-4.83-.36l-16.41-9.48-.16-.1-.17-.09-7.38-4.26c-.59-.34-.97-.77-1.12-1.23-.01.05-.03.1-.04.14-.04.23-.03.45.04.67.14.46.52.89,1.12,1.23l7.38,4.26.17.09.16.1,16.41,9.48c1.28.74,3.26.89,4.83.36l1.57-.53c-.07-.23-.09-.47-.04-.71,0-.04.02-.07.03-.11M54.33,73.13c-4.17.19-9.09-.63-14.32-3.65l-11.49-6.64c-.58-.34-.97-.76-1.11-1.22-.01.03-.02.07-.03.1-.05.24-.04.48.03.72.14.46.53.89,1.11,1.22l11.49,6.64c5.23,3.02,10.15,3.84,14.32,3.65,0-.17,0-.35.02-.52-.01-.1-.02-.2-.02-.29M152.01,128.54l-3.49,1.17c-1.57.53-3.55.38-4.83-.36l-6.57-3.79c-.58-.34-.97-.76-1.11-1.22-.01.03-.02.07-.03.1-.05.24-.04.48.03.71,0,0,0,0,0,0,.15.46.53.89,1.12,1.23l6.56,3.79c1.28.74,3.26.89,4.83.36l3.49-1.17c-.02-.21-.01-.43.02-.64-.01-.06-.02-.12-.02-.17M76.8,84.4c-7.82.52-13.52-1.47-17.3-3.66-3.2-1.85-4.92-3.75-5.14-5.68-.02.18-.02.35-.02.53,0,.11.01.21.03.32.23,1.92,1.95,3.81,5.14,5.65,3.78,2.18,9.47,4.18,17.29,3.66,0-.09,0-.18.01-.27-.01-.18-.02-.37-.01-.55M193.38,126.45c-.2.67-.9,1.26-1.92,1.6l-18.63,6.25c-.95.31-2.05.38-3.05.23-.58.65-1.55,1.31-3.15,1.85-1.94.64-4.07.88-6.37.72-2.36-.16-4.34-.7-5.9-1.6-1.34-.77-2.12-1.7-2.29-2.68-.03.21-.04.42-.02.63,0,.06.01.12.03.18.17.98.96,1.91,2.29,2.68,1.56.9,3.54,1.43,5.9,1.6,2.3.15,4.44-.08,6.37-.72,1.6-.54,2.57-1.21,3.15-1.85,1.01.16,2.11.08,3.05-.23l18.63-6.25c1.02-.34,1.73-.93,1.92-1.6,0-.03.02-.07.03-.1.05-.24.04-.48-.03-.72M128.97,78.34c-1.71-.55-3.36-1.28-4.93-2.19l-2.75-1.59-1.66.56.9.52.77-.26,2.75,1.59c1.58.91,3.22,1.64,4.93,2.19,0-.13,0-.26.03-.4,0-.03.02-.07.03-.1-.03-.11-.06-.21-.06-.32M151.06,88.24l-5.52,1.85.9.52,3.15-1.05c.21-.52.73-.99,1.47-1.31M201.22,96.69c-.05.15-.12.3-.21.44-.58.86-1.98,1.43-3.57,1.46l-22.69.44-8.68,2.9.9.52,7.78-2.61,22.68-.43c1.6-.03,2.99-.61,3.58-1.47.1-.14.17-.29.21-.44.08-.27.08-.55,0-.82"/>
        <path d="M104.29,102.09l-1.38.46c-1.57.53-3.55.38-4.83-.36l-6.57-3.79c-.36-.21-.65-.46-.85-.73-.46-.12-.89-.28-1.26-.49l-7.39-4.26c-3.23-1.86-4.98-4.02-5.18-6.32,0,.09-.01.17-.01.26,0,.19,0,.38.02.57.2,2.29,1.95,4.44,5.18,6.3l7.39,4.26c.37.21.8.38,1.26.49.2.27.49.52.85.73l6.57,3.79c1.28.74,3.26.89,4.83.37l1.39-.47s.02-.1.04-.14c-.07-.22-.09-.45-.04-.67M135.98,120.23l-1.57.52c-1.57.53-3.55.38-4.84-.37l-16.41-9.47-.16-.1-.17-.09-7.39-4.26c-.59-.34-.97-.77-1.11-1.23-.01.05-.03.1-.04.14-.04.23-.03.45.04.67.14.46.52.89,1.12,1.23l7.38,4.26.17.09.16.1,16.41,9.48c1.28.74,3.26.89,4.83.36l1.56-.52s0,0,0,0c-.07-.23-.08-.47-.03-.71,0-.04.02-.07.03-.1M54.33,72.31c-4.17.2-9.1-.63-14.33-3.65l-11.49-6.64c-.59-.34-.97-.77-1.11-1.23-.01.04-.02.07-.03.11-.05.24-.04.48.03.72.15.46.53.89,1.11,1.22l11.49,6.64c5.23,3.02,10.15,3.84,14.32,3.65,0-.18,0-.36.02-.53-.01-.1-.02-.19-.02-.29M152.01,127.72l-3.49,1.17c-1.57.53-3.55.38-4.83-.36l-6.57-3.79c-.59-.34-.97-.77-1.11-1.23-.01.04-.02.07-.03.11-.05.24-.04.48.03.71,0,0,0,0,0,0,.15.46.53.89,1.11,1.22l6.57,3.79c1.28.74,3.26.89,4.83.36l3.49-1.17c-.02-.21-.01-.43.02-.65,0-.06-.02-.11-.02-.17M76.8,83.58c-7.82.52-13.52-1.47-17.3-3.66-3.2-1.85-4.92-3.75-5.14-5.68-.02.18-.02.35-.02.53,0,.1.01.2.02.29.22,1.93,1.94,3.83,5.14,5.68,3.78,2.18,9.48,4.18,17.3,3.66,0-.08,0-.16.01-.24-.02-.19-.02-.38-.02-.58M193.37,125.63c-.2.67-.9,1.26-1.92,1.6l-18.64,6.24c-.94.32-2.04.39-3.04.23-.58.65-1.55,1.32-3.15,1.85-1.94.64-4.07.88-6.37.72-2.36-.16-4.34-.7-5.9-1.6-1.33-.77-2.12-1.69-2.29-2.68-.03.21-.04.42-.02.63,0,.06.01.12.03.18.17.98.96,1.91,2.29,2.68,1.56.9,3.54,1.43,5.9,1.6,2.3.15,4.44-.08,6.37-.72,1.6-.54,2.57-1.21,3.15-1.85,1.01.15,2.11.08,3.05-.23l18.63-6.25c1.02-.34,1.72-.93,1.92-1.6.01-.03.02-.07.03-.1.05-.24.04-.48-.03-.72M129.13,77.57c-1.77-.55-3.47-1.3-5.1-2.24l-2.75-1.59-2.56.86.9.52,1.66-.56,2.75,1.59c1.58.91,3.23,1.64,4.93,2.19-.01-.13,0-.26.03-.4.03-.13.07-.25.13-.37M160.51,85.05l-.88-.51-14.98,5.02.9.52,5.52-1.85c.13-.06.26-.11.4-.15l9.04-3.03M201.21,95.87c-.05.15-.12.3-.21.44-.58.86-1.99,1.43-3.58,1.46l-22.68.44-9.73,3.26c.34.1.67.24.96.41l.1.06,8.68-2.9,22.69-.44c1.59-.03,2.99-.61,3.57-1.46.1-.14.17-.29.21-.44.08-.27.08-.55,0-.82"/>
        <path d="M104.29,101.27l-1.39.47c-1.57.53-3.55.38-4.83-.36l-6.57-3.79c-.36-.21-.65-.46-.85-.73-.46-.12-.89-.28-1.26-.49l-7.39-4.26c-3.22-1.86-4.97-4.01-5.17-6.3,0,.08,0,.16-.01.24,0,.19,0,.37.02.56.19,2.3,1.95,4.46,5.18,6.32l7.39,4.26c.37.21.8.38,1.26.49.2.27.49.52.85.73l6.57,3.79c1.28.74,3.26.89,4.83.36l1.38-.46s.02-.1.04-.15c-.07-.22-.08-.45-.04-.67M135.98,119.41l-1.57.52c-1.56.52-3.55.38-4.84-.37l-16.41-9.47-.16-.1-.17-.09-7.39-4.26c-.59-.34-.97-.77-1.11-1.23-.01.05-.03.1-.04.14-.04.23-.03.45.04.68.14.46.52.89,1.11,1.23l7.39,4.26.17.09.16.1,16.41,9.47c1.29.74,3.27.9,4.84.37l1.57-.52s0,0,0,0c-.07-.23-.09-.47-.03-.71,0-.04.02-.07.03-.1M54.32,71.49c-4.17.2-9.1-.63-14.33-3.65l-11.49-6.63c-.58-.34-.96-.77-1.11-1.22-.01.03-.02.07-.03.1-.05.24-.04.48.03.71.14.46.52.89,1.11,1.23l11.49,6.64c5.23,3.02,10.15,3.84,14.33,3.65,0-.17,0-.34.02-.51-.01-.1-.02-.2-.02-.3M152.01,126.9l-3.49,1.17c-1.57.53-3.55.38-4.84-.37l-6.56-3.79c-.59-.34-.97-.77-1.11-1.23-.01.04-.02.07-.03.11-.05.24-.04.48.03.71,0,0,0,0,0,0,.14.46.52.89,1.11,1.23l6.57,3.79c1.28.74,3.26.89,4.83.36l3.49-1.17c-.02-.21-.01-.42.02-.64-.01-.06-.02-.12-.03-.18M76.79,82.76c-7.82.52-13.52-1.47-17.3-3.66-3.2-1.85-4.92-3.75-5.14-5.67-.02.17-.02.35-.02.52,0,.1.01.2.02.29.22,1.93,1.94,3.83,5.14,5.68,3.78,2.18,9.48,4.18,17.3,3.66,0-.08,0-.16.01-.24-.02-.19-.02-.38-.02-.58M193.37,124.81c-.2.67-.9,1.26-1.92,1.6l-18.64,6.24c-.94.32-2.04.39-3.04.23-.58.65-1.55,1.31-3.15,1.85-1.94.64-4.07.87-6.37.72-2.36-.16-4.35-.7-5.91-1.6-1.33-.77-2.12-1.7-2.29-2.68-.03.21-.04.42-.02.63,0,.06.02.13.03.19.18.98.96,1.91,2.29,2.68,1.56.9,3.54,1.43,5.9,1.6,2.3.15,4.44-.08,6.37-.72,1.6-.54,2.57-1.21,3.15-1.85,1,.16,2.1.09,3.04-.23l18.64-6.24c1.02-.34,1.72-.93,1.92-1.6.01-.03.02-.07.03-.1.05-.24.04-.48-.03-.72M129.68,76.92c-1.96-.57-3.85-1.37-5.65-2.41l-2.75-1.59-3.46,1.16.9.52,2.56-.86,2.75,1.59c1.63.94,3.33,1.69,5.1,2.24.12-.23.31-.45.54-.65M161.4,84.75l-1.78-1.03-15.89,5.32.91.52,14.98-5.02.88.51.89-.3M201.21,95.05c-.05.15-.12.3-.21.44-.58.86-1.99,1.43-3.58,1.46l-22.68.44-10.47,3.5c.27.16.49.35.66.55.03,0,.06.02.08.02l9.73-3.26,22.68-.44c1.59-.03,3-.6,3.58-1.46.1-.15.17-.29.21-.44.08-.27.08-.55,0-.82"/>
        <path d="M104.28,100.45l-1.39.47c-1.56.52-3.54.37-4.83-.37l-6.56-3.79c-.36-.21-.66-.46-.86-.73-.46-.11-.89-.28-1.26-.49l-7.39-4.26c-3.24-1.87-4.99-4.03-5.18-6.32,0,.09-.01.18-.01.27,0,.2,0,.39.02.58.2,2.29,1.96,4.44,5.17,6.3l7.39,4.26c.37.21.8.38,1.26.49.21.27.49.52.85.73l6.57,3.79c1.28.74,3.26.89,4.83.36l1.39-.47s.02-.1.04-.14c-.07-.22-.08-.45-.04-.67M135.97,118.59l-1.56.52c-1.56.52-3.55.37-4.83-.37l-16.41-9.48-.16-.09-.17-.1-7.39-4.26c-.59-.34-.97-.77-1.12-1.23-.02.05-.03.1-.04.15-.04.23-.03.45.04.68.14.46.52.89,1.11,1.23l7.39,4.26.17.09.16.1,16.41,9.47c1.29.74,3.28.89,4.84.37l1.57-.52s0,0,0,0c-.07-.23-.09-.47-.03-.71,0-.03.02-.07.03-.1,0,0,0,0,0,0M54.32,70.67c-4.18.2-9.09-.63-14.33-3.65l-11.49-6.63c-.59-.34-.97-.77-1.12-1.23-.01.04-.02.08-.03.11-.05.24-.04.48.04.72.15.46.53.89,1.11,1.22l11.49,6.63c5.23,3.02,10.16,3.85,14.33,3.65,0-.17,0-.34.02-.51-.01-.1-.02-.21-.02-.31M152,126.08l-3.49,1.17c-1.56.52-3.54.37-4.83-.37l-6.56-3.79c-.59-.34-.97-.77-1.12-1.23-.01.04-.02.07-.03.11-.05.24-.04.48.03.71,0,0,0,0,0,0,.14.46.52.89,1.11,1.23l6.56,3.79c1.29.74,3.27.9,4.84.37l3.49-1.17c-.02-.21-.01-.42.02-.63-.01-.06-.02-.12-.03-.18M76.79,81.94c-7.82.52-13.51-1.48-17.3-3.66-3.2-1.85-4.93-3.75-5.14-5.68-.02.18-.03.36-.02.53,0,.1.01.2.02.29.22,1.92,1.94,3.82,5.14,5.67,3.79,2.19,9.48,4.18,17.3,3.66,0-.08,0-.16.01-.24-.02-.19-.02-.38-.02-.58M193.37,124c-.21.67-.92,1.25-1.93,1.59l-18.64,6.24c-.94.32-2.04.39-3.04.23-.58.65-1.55,1.31-3.15,1.85-1.94.64-4.07.87-6.37.72-2.36-.16-4.34-.7-5.9-1.6-1.33-.77-2.12-1.7-2.3-2.68-.04.22-.04.43-.02.64,0,.06.01.12.03.18.18.98.96,1.91,2.29,2.68,1.56.9,3.55,1.44,5.91,1.6,2.29.15,4.43-.08,6.37-.72,1.61-.54,2.57-1.21,3.15-1.85,1,.16,2.1.09,3.04-.23l18.64-6.24c1.02-.34,1.72-.93,1.92-1.6.01-.03.02-.07.03-.1.05-.24.04-.48-.03-.71M56.99,41.96s-.02.07-.03.1c-.04.17-.04.33-.02.5l.31-.1c-.12-.16-.21-.33-.26-.5M93.53,61.58l-1.32.08c-.07,0-.14,0-.22.01,0,.13,0,.26-.03.39,0,.01,0,.03-.01.04l.58-.2c.31-.11.64-.18.98-.23,0-.03,0-.06.01-.09M130.64,76.36c-2.31-.57-4.52-1.46-6.61-2.67l-2.75-1.59-4.36,1.46.9.52,3.46-1.16,2.75,1.59c1.8,1.04,3.69,1.84,5.65,2.41.26-.22.59-.41.96-.56M162.3,84.45l-2.67-1.54-16.78,5.62.9.52,15.89-5.32,1.78,1.03.89-.3M201.2,94.23c-.05.15-.12.3-.21.44-.58.86-1.99,1.43-3.58,1.46l-22.68.44-11.37,3.81.81.47s.06.04.09.05l10.47-3.5,22.68-.44c1.59-.03,3-.6,3.58-1.46.1-.15.17-.29.21-.44.08-.27.08-.55,0-.82"/>
        <path d="M104.27,99.64l-1.38.46c-1.57.52-3.55.37-4.83-.37l-6.56-3.79c-.37-.21-.66-.46-.86-.73-.46-.11-.89-.28-1.26-.49l-7.38-4.26c-3.22-1.86-4.98-4.01-5.18-6.3,0,.08-.01.16-.01.24,0,.18,0,.37.01.55.19,2.3,1.95,4.46,5.18,6.32l7.39,4.26c.37.21.8.38,1.26.49.2.27.49.52.86.73l6.56,3.79c1.29.74,3.27.9,4.83.37l1.39-.47s.02-.09.04-.14c-.07-.22-.09-.45-.04-.68M135.97,117.77l-1.57.53c-1.56.52-3.54.37-4.83-.37l-16.41-9.48-.16-.09-.17-.1-7.39-4.26c-.59-.34-.97-.77-1.12-1.23-.01.05-.03.1-.04.14-.04.22-.03.45.04.67.14.46.53.89,1.12,1.23l7.39,4.26.17.1.16.09,16.41,9.48c1.28.74,3.27.9,4.83.37l1.56-.52c-.07-.23-.09-.47-.03-.71,0-.03.02-.07.03-.1,0,0,0,0,0,0M54.32,69.85c-4.18.2-9.09-.63-14.33-3.65l-11.49-6.63c-.59-.34-.97-.77-1.12-1.23-.01.04-.02.07-.03.11-.05.24-.04.47.04.71.15.46.53.89,1.12,1.23l11.49,6.63c5.24,3.02,10.15,3.85,14.33,3.65,0-.17,0-.35.02-.52-.01-.1-.02-.2-.02-.3M152,125.26l-3.49,1.17c-1.57.52-3.55.37-4.83-.37l-6.56-3.79c-.59-.34-.98-.77-1.12-1.24,0,0,0,0,0,0-.01.04-.02.07-.03.11-.05.24-.04.48.04.71,0,0,0,0,0,0,.15.46.53.89,1.12,1.23l6.56,3.79c1.29.74,3.27.9,4.83.37l3.49-1.17c-.02-.21-.01-.42.02-.63-.01-.06-.02-.12-.03-.18M76.78,81.12c-7.82.53-13.52-1.48-17.3-3.66-3.19-1.84-4.92-3.74-5.14-5.66-.02.17-.02.34-.02.51,0,.1.01.19.02.29.22,1.93,1.94,3.83,5.14,5.68,3.79,2.19,9.48,4.19,17.3,3.66,0-.08,0-.16.01-.24-.02-.19-.02-.39-.02-.58M104,84.27l-1.3-.75c-.62-.36-1.42-.59-2.46-.7l2.97,1.72.79-.26M193.36,123.18c-.21.67-.92,1.25-1.93,1.6l-18.63,6.24c-.95.32-2.05.39-3.05.23-.58.65-1.55,1.31-3.15,1.85-1.94.63-4.07.87-6.37.72-2.36-.15-4.34-.7-5.9-1.6-1.34-.77-2.12-1.7-2.3-2.68-.03.21-.04.43-.02.64,0,.06.01.12.03.18.18.99.96,1.91,2.3,2.68,1.56.9,3.54,1.44,5.9,1.6,2.29.15,4.43-.08,6.37-.72,1.61-.54,2.57-1.21,3.15-1.85,1,.16,2.1.09,3.04-.23l18.64-6.24c1.01-.34,1.72-.92,1.93-1.59.01-.04.02-.08.03-.11.05-.24.04-.48-.03-.71M105.68,69.84l-.57-.33s-.01.08-.02.13c0,.04-.02.07-.03.11,0,0,0,0,0,0,.21.03.41.06.62.09M134.04,86.21l-.2-.11s-.01.08-.02.11h.22M56.98,41.14s-.02.07-.03.11c-.05.24-.04.48.03.71.05.17.14.34.26.5l.65-.22c-.47-.32-.78-.7-.91-1.11M93.53,60.76l-1.33.08c-.07,0-.14,0-.22.01,0,.13,0,.26-.03.39,0,.03-.02.07-.03.1.03.11.05.21.06.32.07,0,.14,0,.22-.01l1.32-.08s0-.02,0-.03c0-.04.02-.07.03-.11-.07-.22-.09-.46-.04-.69M132.11,75.85c-2.84-.53-5.55-1.52-8.08-2.98l-2.75-1.59-5.26,1.76c.19.1.38.21.57.32l.34.2,4.36-1.46,2.75,1.59c2.09,1.21,4.3,2.1,6.61,2.67.1-.04.2-.08.31-.12l1.15-.39M163.19,84.15s0,0,0,0l-3.57-2.06-17.67,5.92.9.52,16.78-5.62,2.67,1.54.89-.3M118.94,45.92c-.04.13-.1.25-.17.38l.24-.02c0-.12-.03-.24-.06-.36M201.2,93.41c-.05.15-.12.3-.21.44-.58.86-1.99,1.44-3.58,1.47l-22.68.44-12.26,4.11.9.52,11.37-3.81,22.68-.44c1.59-.03,3-.6,3.58-1.46.1-.15.17-.29.21-.44.08-.27.08-.55,0-.82"/>
        <path d="M104.27,98.81l-1.39.46c-1.56.52-3.54.37-4.83-.37l-6.56-3.79c-.37-.21-.66-.46-.86-.73-.46-.11-.89-.28-1.26-.49l-7.38-4.26c-3.22-1.86-4.98-4.01-5.18-6.3,0,.08-.01.16-.01.24,0,.19,0,.39.02.58.2,2.29,1.96,4.44,5.18,6.3l7.38,4.26c.38.22.8.38,1.26.49.2.27.49.52.86.73l6.56,3.79c1.28.74,3.26.89,4.83.37l1.38-.46s.02-.1.04-.15c-.07-.22-.08-.45-.04-.67M135.96,116.95l-1.57.53c-1.56.52-3.54.37-4.83-.37l-16.41-9.48-.15-.1-.17-.09-7.39-4.26c-.59-.34-.97-.77-1.12-1.23-.02.05-.03.1-.04.15-.04.23-.03.45.04.67.14.46.53.88,1.12,1.23l7.39,4.26.17.1.16.09,16.41,9.48c1.28.74,3.26.89,4.83.37l1.57-.53c-.07-.23-.08-.47-.03-.71,0-.03.02-.07.03-.1,0,0,0,0,0,0M54.31,69.04c-4.18.2-9.09-.63-14.33-3.65l-11.49-6.63c-.59-.34-.98-.77-1.12-1.24-.01.04-.02.08-.03.11-.05.24-.04.47.04.71.15.46.53.89,1.12,1.23l11.49,6.63c5.24,3.02,10.15,3.85,14.33,3.65,0-.17,0-.34.02-.52-.01-.1-.02-.2-.02-.3M152.06,124.42l-3.57,1.2c-1.56.52-3.54.37-4.83-.37l-6.56-3.79c-.59-.34-.97-.77-1.12-1.23,0,0,0,0,0,0-.01.03-.02.07-.03.1-.05.24-.04.48.03.71.14.46.53.9,1.12,1.24l6.56,3.79c1.28.74,3.26.89,4.83.37l3.49-1.17c-.03-.28,0-.56.06-.85M76.78,80.3c-7.81.52-13.51-1.48-17.29-3.66-3.19-1.84-4.92-3.74-5.14-5.66-.02.17-.02.34-.02.51,0,.1.01.2.02.3.22,1.92,1.95,3.82,5.14,5.66,3.78,2.18,9.48,4.19,17.3,3.66,0-.07,0-.15.01-.22-.02-.2-.03-.4-.02-.6M104.89,83.97l-2.21-1.28c-.7-.41-1.66-.65-2.93-.74-.37-.02-.71-.03-1.05-.02l1.53.89c1.04.11,1.84.34,2.46.7l1.3.75.89-.3M193.36,122.36c-.21.67-.91,1.25-1.93,1.6l-18.63,6.24c-.95.32-2.05.39-3.05.23-.58.65-1.55,1.31-3.15,1.85-1.95.64-4.08.88-6.38.72-2.35-.16-4.34-.7-5.9-1.6-1.34-.77-2.12-1.7-2.3-2.69-.04.22-.04.43-.02.64,0,.06.01.12.03.18.17.98.96,1.91,2.3,2.68,1.56.9,3.54,1.44,5.9,1.6,2.3.16,4.43-.08,6.37-.72,1.61-.54,2.57-1.21,3.15-1.85,1,.16,2.1.09,3.05-.23l18.63-6.24c1.01-.34,1.72-.93,1.93-1.6.01-.04.02-.07.03-.11.05-.24.04-.48-.03-.71M79.95,54.17l-.69-.4c.05.19.09.37.11.56h.03c.18-.07.36-.12.55-.16M107.69,70.19l-2.58-1.49s-.01.08-.02.13c0,.03-.02.07-.03.1.06.19.08.39.05.59l.57.33c.69.1,1.36.22,2.01.35M135.46,86.22l-1.63-.94s-.01.08-.02.13c0,.03-.02.07-.03.1.06.19.08.39.06.59l.2.11h1.43M56.98,40.32s-.02.07-.03.11c-.05.24-.04.48.03.71.13.41.44.79.91,1.11l.38-.13c.18-.06.36-.11.54-.15l-.72-.41c-.59-.34-.97-.77-1.12-1.23M93.56,61.44s-.02.07-.03.11c0,0,0,.02,0,.03,0,.03-.01.06-.01.09.04,0,.09-.01.13-.02-.03-.07-.06-.14-.08-.21M93.52,59.94l-1.33.08c-.07,0-.14,0-.22.01,0,.13,0,.26-.03.39,0,.03-.02.07-.03.1.03.11.05.21.06.32.07,0,.14,0,.22-.01l1.33-.08s0-.02,0-.02c0-.04.02-.07.03-.11-.07-.22-.09-.45-.04-.69M87.81,56.48c-.11.03-.22.06-.33.08l.29.17c0-.08.03-.15.05-.23,0,0,0-.01,0-.02M133.79,75.29c-3.46-.41-6.74-1.49-9.77-3.24l-2.75-1.59-5.63,1.89c-.21.07-.43.13-.65.18.35.17.69.34,1.03.52l5.26-1.76,2.75,1.59c2.53,1.46,5.24,2.46,8.08,2.98l1.68-.56M164.16,83.75c-.35-.11-.68-.25-.98-.42l-3.56-2.06-18.05,6.05c-.18.06-.36.11-.55.15l.93.54,17.67-5.92,3.57,2.06s0,0,0,0l.89-.3.08-.11M118.93,45.1c-.09.28-.26.56-.53.81l-.48.45.84-.06c.08-.12.13-.25.17-.38.08-.27.08-.55,0-.82M201.2,92.59c-.05.15-.12.3-.21.44-.58.86-1.99,1.44-3.58,1.47l-22.68.44-12.65,4.23c-.18.06-.36.11-.55.15l.94.54,12.26-4.11,22.68-.44c1.59-.03,3-.6,3.58-1.47.1-.14.17-.29.21-.44.08-.27.08-.55,0-.82"/>
        <path d="M104.26,98l-1.39.46c-1.56.52-3.54.37-4.83-.37l-6.56-3.79c-.37-.21-.66-.46-.86-.73-.47-.11-.89-.28-1.26-.49l-7.39-4.26c-3.22-1.86-4.97-4.01-5.17-6.29,0,.08-.01.16-.01.24,0,.19,0,.39.02.58.2,2.29,1.96,4.44,5.18,6.3l7.38,4.26c.37.21.8.38,1.26.49.2.27.49.52.86.73l6.56,3.79c1.28.74,3.26.89,4.83.37l1.39-.46s.02-.1.04-.14c-.07-.22-.08-.45-.04-.67M135.96,116.13l-1.57.53c-1.56.52-3.54.37-4.83-.37l-16.41-9.48-.16-.1-.17-.09-7.39-4.26c-.59-.34-.97-.77-1.11-1.23-.01.05-.03.1-.04.14-.04.23-.03.45.04.67.14.46.52.89,1.12,1.23l7.39,4.26.17.09.15.1,16.41,9.48c1.28.74,3.26.89,4.83.37l1.57-.53c-.07-.23-.08-.47-.03-.71,0-.04.02-.07.03-.11M54.3,68.22c-4.17.19-9.09-.63-14.32-3.65l-11.49-6.63c-.59-.34-.97-.77-1.12-1.23-.01.03-.02.07-.03.1-.05.24-.04.48.03.71.14.46.53.89,1.12,1.24l11.49,6.63c5.24,3.02,10.15,3.85,14.33,3.65,0-.17,0-.33.02-.5-.01-.11-.02-.21-.03-.32M152.5,123.45l-4.01,1.34c-1.56.52-3.54.37-4.83-.37l-6.56-3.79c-.59-.34-.97-.77-1.12-1.23,0,0,0,0,0,0-.01.03-.02.07-.03.1-.05.24-.04.48.03.71.15.46.53.89,1.12,1.23l6.56,3.79c1.28.74,3.26.89,4.83.37l3.57-1.2s0-.02,0-.02c.07-.29.21-.61.43-.94M76.77,79.48c-7.82.52-13.51-1.48-17.29-3.66-3.2-1.85-4.92-3.75-5.14-5.67-.02.17-.03.35-.02.52,0,.1.01.21.02.31.22,1.92,1.95,3.82,5.14,5.66,3.78,2.18,9.48,4.18,17.29,3.66,0-.08,0-.16.01-.25-.02-.19-.02-.38-.02-.57M105.79,83.67l-3.11-1.79c-.7-.41-1.66-.65-2.93-.74-.84-.05-1.59-.03-2.28.08l1.23.71c.33,0,.68,0,1.05.02,1.27.09,2.23.33,2.93.74l2.21,1.28.89-.3M151.3,109.78c-.15-.04-.3-.09-.44-.15l-6.21,2.09c.02.15.01.3-.03.45,0,.04-.02.08-.03.11l6.9-2.31c-.07-.06-.13-.13-.19-.19M193.35,121.54c-.21.67-.91,1.25-1.93,1.59l-18.62,6.24c-.95.32-2.04.39-3.05.23-.58.64-1.55,1.31-3.15,1.85-1.95.64-4.07.87-6.38.72-2.35-.16-4.34-.7-5.9-1.6-1.34-.78-2.13-1.71-2.3-2.7-.04.22-.04.43-.02.65,0,.06.01.12.02.17.17.99.96,1.92,2.3,2.69,1.56.9,3.55,1.44,5.9,1.6,2.3.16,4.43-.08,6.38-.72,1.59-.54,2.56-1.2,3.15-1.85,1,.16,2.1.09,3.05-.23l18.63-6.24c1.02-.35,1.72-.93,1.93-1.6.01-.04.02-.07.03-.11.05-.24.04-.48-.03-.71M81.11,54.02l-2.36-1.36c.24.37.41.75.51,1.12l.69.4c.38-.09.77-.14,1.16-.15M110.08,70.74l-4.97-2.87s-.01.09-.02.13c0,.04-.02.07-.03.1.06.19.08.39.05.59l2.58,1.49c.82.16,1.62.35,2.38.55M136.91,86.23c-.06-.03-.12-.06-.18-.1l-2.91-1.68s-.01.09-.02.13c0,.03-.02.07-.03.1.06.19.08.39.06.59l1.63.94h1.45M93.56,60.62s-.02.07-.03.11c0,0,0,.02,0,.02-.05.23-.03.46.04.69.02.07.05.14.08.21.22-.03.43-.05.65-.05-.38-.29-.63-.62-.74-.97M56.98,39.5s-.02.07-.03.11c-.05.24-.04.48.03.71.14.46.53.89,1.12,1.23l.72.41c.38-.09.77-.14,1.16-.15l-1.87-1.08c-.59-.34-.98-.77-1.12-1.23M93.52,59.12l-1.33.08c-.18.01-.35.01-.53.01.19.26.3.53.32.82.07,0,.14,0,.22-.01l1.33-.08s0-.02,0-.02c0-.04.02-.07.03-.11-.07-.22-.09-.45-.04-.69M87.8,55.65c-.47.14-.98.22-1.49.24l1.16.67c.11-.03.22-.05.33-.08-.08-.27-.08-.54,0-.81,0,0,0,0,0-.01M135.76,74.63c-4.19-.19-8.15-1.32-11.74-3.4l-2.75-1.59-5.63,1.89c-.69.23-1.47.33-2.23.31.54.22,1.07.45,1.58.69.22-.05.44-.1.65-.18l5.63-1.89,2.75,1.59c3.02,1.75,6.31,2.83,9.77,3.24l1.97-.66M164.65,83.05c-.54-.11-1.05-.29-1.48-.54l-3.56-2.06-18.05,6.05c-.54.18-1.12.28-1.71.3.07.03.14.07.2.11l.97.56c.19-.04.37-.09.55-.15l18.05-6.05,3.56,2.06c.3.17.63.31.98.42l.49-.69M118.93,44.28c-.09.28-.26.56-.53.81l-1.43,1.34.96-.07.48-.45c.27-.25.45-.53.53-.81.08-.27.08-.55,0-.82M201.19,91.77c-.05.15-.12.3-.21.44-.58.86-1.98,1.43-3.58,1.47l-22.68.43-12.64,4.23c-.53.18-1.12.28-1.7.3l1.16.67c.19-.04.37-.09.55-.15l12.65-4.23,22.68-.44c1.59-.03,3-.6,3.58-1.47.1-.14.17-.29.21-.44.08-.27.08-.55,0-.82"/>
        <path d="M104.75,97.01l-1.88.63c-1.56.52-3.54.37-4.83-.37l-6.56-3.79c-.37-.21-.66-.46-.86-.73-.47-.11-.89-.28-1.26-.49l-7.39-4.26c-3.22-1.86-4.97-4.01-5.17-6.29,0,.08-.01.16-.01.24,0,.19,0,.39.02.58.2,2.29,1.95,4.44,5.17,6.29l7.39,4.26c.37.21.8.38,1.26.49.2.27.49.52.86.73l6.56,3.79c1.28.74,3.26.89,4.83.37l1.39-.46c.03-.17.1-.34.2-.5l.29-.48M54.3,67.4c-4.17.19-9.1-.63-14.32-3.65l-11.49-6.64c-.58-.34-.97-.77-1.11-1.22-.01.03-.02.07-.03.1-.05.24-.04.48.03.71.15.46.53.89,1.12,1.23l11.49,6.63c5.23,3.02,10.15,3.84,14.32,3.65,0-.17,0-.35.02-.53-.01-.1-.02-.2-.02-.29M136.93,114.98l-2.54.85c-1.57.53-3.55.38-4.83-.36l-16.41-9.48-.16-.1-.17-.09-7.39-4.26c-.59-.34-.97-.77-1.12-1.23-.01.05-.03.09-.04.14-.04.23-.03.45.04.67.14.46.52.89,1.11,1.23l7.39,4.26.17.09.16.1,16.41,9.48c1.28.74,3.26.89,4.83.37l1.57-.53c.13-.43.47-.83.97-1.15M76.86,78.66c-7.87.54-13.59-1.46-17.38-3.65-3.2-1.84-4.92-3.75-5.14-5.67-.02.17-.02.34-.02.52,0,.1.01.2.02.3.22,1.92,1.94,3.83,5.14,5.67,3.78,2.18,9.47,4.18,17.29,3.66,0-.27.04-.55.09-.82M153.88,122.17l-5.39,1.81c-1.56.52-3.54.37-4.83-.37l-6.56-3.79c-.59-.34-.97-.77-1.12-1.23-.01.03-.02.07-.03.1-.05.24-.04.48.03.71.15.46.53.89,1.12,1.23l6.56,3.79c1.28.74,3.26.89,4.83.37l4.01-1.34c.28-.42.72-.86,1.38-1.28M160.89,119.82l-2.34.78c.59-.08,1.2-.14,1.82-.16.12-.22.29-.44.52-.63M125.37,96.88h-.7s-.19.3-.19.3l.9-.3M106.69,83.37l-4.01-2.31c-.7-.41-1.66-.65-2.94-.73-1.27-.08-2.35.02-3.28.32l1.01.58c.68-.11,1.44-.14,2.28-.08,1.27.09,2.23.33,2.93.74l3.11,1.79.9-.3M151.3,108.97c-.15-.04-.29-.1-.44-.15l-6.21,2.09c.02.15,0,.3-.03.45-.1.47-.46.91-1,1.26l.97-.33s.02-.08.03-.11c.04-.15.05-.3.03-.45l6.21-2.09c.14.06.29.11.44.15.06.07.12.13.19.19l.81-.27-.25-.14c-.31-.18-.57-.38-.75-.6M193.35,120.72c-.21.67-.91,1.25-1.93,1.59l-18.62,6.24c-.95.32-2.04.39-3.05.23-.58.64-1.55,1.31-3.15,1.85-1.94.64-4.07.88-6.37.72-2.36-.16-4.34-.7-5.9-1.6-1.34-.77-2.12-1.7-2.29-2.68-.03.21-.04.43-.02.64,0,.06.01.11.02.17.17.99.95,1.92,2.3,2.7,1.56.9,3.55,1.44,5.9,1.6,2.3.15,4.43-.08,6.38-.72,1.59-.54,2.56-1.21,3.15-1.85,1.01.15,2.09.08,3.05-.23l18.62-6.24c1.02-.34,1.73-.92,1.93-1.59.01-.04.02-.07.03-.11.05-.24.04-.48-.03-.71M105.06,69.75s0,0,0,0c0,0,0,0,0,0,0,0,0,0,0,0M82.75,54.15l-5.48-3.17c.64.56,1.14,1.12,1.49,1.68l2.36,1.36c.55-.02,1.11.02,1.63.13M103.17,65.44c-.15-.02-.29-.04-.43-.07l.56.33c-.05-.08-.1-.17-.13-.25M87.81,56.5c-.02.08-.04.15-.05.23l.21.12c-.07-.12-.13-.23-.16-.35M93.56,59.8s-.02.07-.03.11c0,0,0,.02,0,.02-.05.23-.03.46.04.69.11.35.36.68.74.97.54-.02,1.07.03,1.58.13l-1.21-.7c-.59-.34-.97-.77-1.12-1.23M56.97,38.68s-.02.07-.03.11c-.05.24-.04.48.03.71.15.46.53.89,1.12,1.23l1.87,1.08c.55-.02,1.11.02,1.63.13l-3.52-2.03c-.59-.34-.97-.77-1.12-1.23M149.55,92.13s-.02.07-.03.11c0,.04-.02.08-.02.13l.22.13c-.07-.12-.13-.24-.17-.37M129.04,80.29s-.02.08-.03.11c0,.04-.02.08-.02.13l.22.13c-.07-.12-.13-.24-.17-.37M93.52,58.3l-1.33.08c-.61.04-1.21,0-1.76-.12l.38.22c.37.21.66.46.86.73.18,0,.35,0,.53-.01l1.33-.08s0-.02,0-.02c0-.04.02-.08.03-.12-.07-.22-.08-.45-.03-.68M87.8,54.83c-.99.29-2.12.32-3.12.11l1.64.95c.51-.02,1.02-.1,1.49-.24-.08-.27-.08-.54,0-.8,0,0,0-.01,0-.02M138.19,73.82c-5.1.21-9.9-.93-14.18-3.4l-2.75-1.59-5.63,1.89c-1.56.52-3.54.37-4.83-.37l-5.93-3.42c.19.3.27.62.23.95l4.97,2.87c1.17.32,2.29.68,3.34,1.1.76.03,1.53-.07,2.23-.31l5.63-1.89,2.75,1.59c3.59,2.07,7.55,3.21,11.74,3.4l2.43-.82M165.17,82.32c-.74-.09-1.44-.3-2-.63l-3.56-2.06-18.05,6.05c-1.56.52-3.54.37-4.83-.37l-3.13-1.8c.19.3.26.62.22.94l2.91,1.68c.06.03.12.07.18.1h.33c.95,0,1.87.21,2.6.57.59-.02,1.18-.12,1.71-.3l18.05-6.05,3.56,2.06c.43.25.94.43,1.48.54l.52-.73M201.18,90.96c-.05.15-.12.29-.21.44-.59.86-1.98,1.43-3.58,1.47l-22.68.43-12.64,4.23c-1.04.35-2.26.4-3.34.18l1.64.95c.59-.02,1.17-.12,1.7-.3l12.64-4.23,22.68-.43c1.6-.03,3-.6,3.58-1.47.1-.14.17-.29.21-.44.08-.27.08-.55,0-.81M185.64,81.98c-.04.12-.09.25-.17.37h.23c0-.13-.03-.25-.06-.37M118.92,43.46c-.09.28-.26.56-.53.81l-2.38,2.23.96-.07,1.43-1.34c.27-.25.45-.53.53-.81.08-.27.08-.55,0-.82"/>
        <path d="M54.36,66.58c-4.18.2-9.13-.61-14.39-3.65l-11.49-6.64c-.58-.34-.97-.77-1.11-1.22-.01.03-.02.07-.03.1-.05.24-.04.48.03.72.14.46.53.89,1.11,1.22l11.49,6.64c5.23,3.02,10.15,3.84,14.32,3.65-.01-.27.01-.55.06-.82M105.36,95.99l-2.5.84c-1.56.52-3.54.37-4.83-.37l-6.56-3.79c-.37-.21-.66-.46-.86-.73-.47-.11-.89-.28-1.26-.49l-7.39-4.26c-3.21-1.85-4.96-3.99-5.17-6.28,0,.07,0,.15-.01.22,0,.19,0,.39.02.58.2,2.29,1.95,4.44,5.17,6.29l7.39,4.26c.37.21.8.38,1.26.49.2.27.49.52.86.73l6.56,3.79c1.28.74,3.26.89,4.83.37l1.88-.63.62-1.03M77.08,77.82c-7.98.6-13.78-1.42-17.61-3.63-3.19-1.84-4.91-3.74-5.14-5.65-.02.17-.02.33-.02.5,0,.1.01.2.02.3.22,1.92,1.94,3.82,5.14,5.67,3.79,2.19,9.52,4.19,17.38,3.65.02-.13.05-.27.09-.4.04-.15.08-.29.13-.43M127.86,96.05l-3.19.02-.88,1.35.69-.23.19-.3h.7s2.48-.84,2.48-.84M107.58,83.07l-4.91-2.83c-.71-.41-1.67-.65-2.94-.73-1.31-.09-2.41.02-3.35.34-.36.12-.59.22-.73.31.06.04.14.09.23.14l.58.34c.93-.3,2.01-.4,3.28-.32,1.27.09,2.24.33,2.94.73l4.01,2.31.89-.3M167.14,117.46l-.61-.35-18.05,6.05c-1.57.53-3.55.38-4.83-.36l-6.56-3.79c-.59-.34-.97-.77-1.12-1.23-.01.03-.02.07-.03.1-.05.24-.04.48.03.71,0,0,0,0,0,0,.15.46.53.89,1.12,1.23l6.56,3.79c1.28.74,3.26.89,4.83.37l5.39-1.81c.55-.35,1.24-.68,2.14-.97.8-.27,1.65-.47,2.54-.59l2.34-.78c.33-.28.77-.52,1.3-.7l4.95-1.66M151.29,108.15c-.15-.04-.29-.1-.44-.15l-6.21,2.09c.01.15,0,.3-.03.45-.16.71-.88,1.35-1.95,1.7l-8.28,2.78c-1.57.53-3.55.38-4.83-.36l-16.41-9.48-.16-.1-.17-.09-7.38-4.26c-.59-.34-.97-.77-1.12-1.23-.02.05-.03.1-.04.15-.04.23-.03.45.04.68.15.46.53.89,1.12,1.23l7.39,4.26.17.09.16.1,16.41,9.48c1.28.74,3.26.89,4.83.36l2.54-.85c.27-.18.6-.33.96-.45l5.73-1.92c.54-.35.9-.79,1-1.26.04-.15.05-.3.03-.45l6.21-2.09c.15.06.29.11.44.15.19.22.45.42.75.6l.25.14.89-.3-1.14-.66c-.31-.18-.56-.38-.75-.6M105.06,68.93c-.08.27-.25.53-.49.77.16.02.33.04.49.06,0,0,0,0,0,0,.01-.04.02-.07.03-.11,0-.04.02-.08.02-.13.03-.2,0-.4-.05-.59M133.78,85.51c-.08.25-.22.48-.42.7h.46s.01-.07.02-.11c.03-.2,0-.4-.06-.59M91.93,61.34c-.11.38-.39.73-.79,1.03l.81-.27s0-.03.01-.04c.03-.13.04-.26.03-.39,0-.11-.03-.22-.06-.32M193.34,119.89c-.19.67-.9,1.26-1.92,1.6l-18.63,6.25c-.95.31-2.04.39-3.05.23-.58.65-1.55,1.31-3.15,1.85-1.94.64-4.07.88-6.37.72-2.36-.16-4.34-.7-5.9-1.6-1.34-.77-2.12-1.7-2.29-2.68-.03.21-.04.42-.02.63,0,.06.01.12.03.18.17.98.96,1.91,2.29,2.68,1.56.9,3.54,1.43,5.9,1.6,2.3.15,4.43-.08,6.37-.72,1.6-.54,2.57-1.21,3.15-1.85,1.01.15,2.09.08,3.05-.23l18.62-6.24c1.02-.34,1.73-.92,1.93-1.59.01-.04.02-.07.03-.11.05-.24.04-.49-.04-.72M93.51,57.48l-1.33.08c-1.22.07-2.41-.18-3.26-.67-.2-.11-.37-.24-.53-.37-.3-.27-.49-.56-.59-.86-.08.27-.08.54,0,.81,0,0,0,.01,0,.02.04.12.09.24.16.35l2.45,1.41c.55.11,1.15.16,1.76.12l1.33-.08s0-.02,0-.03c0-.04.02-.07.03-.11-.07-.22-.08-.45-.04-.68M87.81,54.01c-1.53.45-3.4.28-4.63-.43l-6.56-3.79c-.37-.21-.66-.46-.86-.73-.47-.11-.89-.28-1.26-.49l-16.41-9.48c-.59-.34-.97-.77-1.11-1.23-.01.04-.02.08-.03.11-.05.24-.04.48.03.71.15.46.53.89,1.12,1.23l3.52,2.03c.55.11,1.06.29,1.49.54l11.49,6.64c1.07.62,1.96,1.24,2.67,1.86l5.48,3.17c.55.11,1.06.29,1.49.54l.44.25c1.01.21,2.14.18,3.12-.11-.08-.27-.08-.55,0-.82M141.69,72.64c-6.4,1.01-12.43-.01-17.69-3.04l-2.75-1.59-5.63,1.89c-1.56.52-3.54.37-4.83-.37l-6.56-3.79c-.54-.31-.9-.7-1.08-1.11-.71-.1-1.38-.31-1.93-.62l-6.57-3.79c-.59-.34-.97-.77-1.12-1.23-.01.04-.02.08-.03.12,0,0,0,.02,0,.02-.05.23-.03.46.04.69.15.46.53.89,1.12,1.23l1.21.7c.55.11,1.06.3,1.49.54l5.36,3.1c.14.03.29.05.43.07.04.09.08.17.13.25l.64.37c.43.25.75.54.94.86l5.93,3.42c1.29.74,3.27.9,4.83.37l5.63-1.89,2.75,1.59c4.28,2.47,9.08,3.61,14.18,3.4l3.5-1.17M165.72,81.55c-.94-.04-1.86-.27-2.56-.67l-3.57-2.06-18.05,6.05c-1.56.52-3.54.37-4.83-.37l-6.56-3.79c-.58-.34-.97-.77-1.11-1.22-.01.03-.02.07-.03.1-.03.13-.04.27-.03.4,0,.1.03.21.06.31.04.13.1.25.17.37l3.44,1.99c.43.25.75.54.94.86l3.13,1.8c1.28.74,3.26.89,4.83.37l18.05-6.05,3.56,2.06c.57.33,1.27.54,2,.63l.55-.77M185.64,81.17c-.05.16-.13.33-.25.48l-.51.7h.6c.07-.13.13-.25.17-.38.08-.27.08-.54,0-.81M118.92,42.65c-.09.28-.26.56-.53.81l-3.34,3.12.96-.07,2.38-2.23c.27-.25.45-.53.53-.81.08-.27.08-.55,0-.82M201.18,90.14c-.05.15-.11.3-.21.44-.59.86-1.98,1.43-3.58,1.47l-22.68.43-12.64,4.23c-1.56.52-3.54.37-4.83-.37l-6.56-3.79c-.59-.34-.98-.77-1.12-1.24-.01.04-.02.08-.03.11-.04.2-.04.41,0,.61,0,.03.02.07.03.1.04.12.1.25.17.37l9,5.2c1.08.22,2.3.17,3.34-.18l12.64-4.23,22.68-.43c1.6-.03,2.99-.61,3.58-1.47.1-.14.17-.29.21-.44.08-.27.08-.55,0-.82"/>
        <path d="M54.61,65.75c-4.24.25-9.28-.54-14.64-3.63l-11.49-6.64c-.58-.34-.97-.76-1.11-1.22-.01.03-.02.07-.03.1-.05.24-.04.48.03.72.14.46.53.89,1.11,1.22l11.49,6.64c5.26,3.03,10.21,3.85,14.39,3.65,0-.04.02-.09.03-.13.06-.24.13-.47.23-.7M105.98,94.96l-3.12,1.04c-1.56.52-3.54.37-4.83-.37l-6.57-3.79c-.36-.21-.65-.46-.85-.73-.47-.11-.89-.28-1.26-.49l-7.39-4.26c-3.22-1.86-4.98-4.01-5.18-6.3,0,.08-.01.17-.01.25,0,.2,0,.4.02.6.21,2.28,1.96,4.42,5.17,6.28l7.39,4.26c.37.21.8.38,1.26.49.2.27.49.52.86.73l6.56,3.79c1.28.74,3.26.89,4.83.37l2.5-.84.62-1.03M77.44,76.97c-8.17.69-14.09-1.36-17.98-3.61-3.2-1.85-4.92-3.75-5.14-5.68-.02.18-.02.35-.02.53,0,.11.01.21.03.32.23,1.92,1.95,3.81,5.14,5.65,3.83,2.21,9.63,4.23,17.61,3.63.1-.29.22-.57.36-.85M108.48,82.77l-5.8-3.35c-.71-.41-1.67-.65-2.94-.73-1.31-.09-2.41.02-3.35.34-.93.31-1,.53-1.02.65-.03.1-.06.24.29.49.15-.09.38-.2.73-.31.95-.32,2.05-.43,3.35-.34,1.27.08,2.23.32,2.94.73l4.91,2.83.89-.3M168.04,117.16l-1.51-.87-18.05,6.05c-1.57.53-3.55.38-4.83-.36l-6.57-3.79c-.58-.34-.97-.76-1.11-1.22-.01.03-.02.07-.03.1-.05.24-.04.48.03.71,0,0,0,0,0,0,.15.46.53.89,1.12,1.23l6.56,3.79c1.28.74,3.26.89,4.83.36l18.05-6.05.61.35.89-.3M151.3,107.33c-.15-.04-.3-.09-.45-.15l-6.21,2.09c.01.15,0,.3-.02.45-.16.72-.88,1.35-1.96,1.71l-8.28,2.78c-1.57.53-3.55.38-4.83-.36l-16.41-9.48-.16-.1-.17-.09-7.38-4.26c-.59-.34-.97-.77-1.12-1.23-.01.05-.03.1-.04.14-.04.23-.03.45.04.67.14.46.52.89,1.12,1.23l7.38,4.26.17.09.16.1,16.41,9.48c1.28.74,3.26.89,4.83.36l8.28-2.78c1.07-.36,1.8-.99,1.95-1.7.04-.15.04-.31.03-.45l6.21-2.09c.15.06.29.11.44.15.19.21.45.42.75.6l1.14.66.89-.3-2.04-1.18c-.31-.18-.56-.38-.75-.6M130.34,95.21l-5.68.03-1.56,2.4.69-.23.88-1.35,3.19-.02,2.48-.83M105.05,68.11c-.18.59-.75,1.11-1.57,1.46.37.04.73.08,1.09.12.24-.23.4-.49.49-.77.01-.03.02-.07.03-.1,0-.04.02-.08.02-.13.03-.2,0-.4-.05-.59M91.92,60.53c-.2.67-.9,1.26-1.92,1.6l-14.49,4.86c-.62.2-1.07.38-1.4.53,1.07.1,2.66-.33,3.95-.76l13.08-4.39c.4-.3.67-.65.79-1.03.01-.03.02-.07.03-.1.03-.13.04-.26.03-.39,0-.11-.03-.22-.06-.32M193.34,119.08c-.2.67-.9,1.26-1.92,1.6l-18.63,6.25c-.95.31-2.05.38-3.05.23-.58.65-1.55,1.31-3.15,1.85-1.94.64-4.07.88-6.37.72-2.36-.16-4.34-.7-5.9-1.6-1.34-.77-2.12-1.7-2.29-2.68-.03.21-.04.42-.02.63,0,.06.01.12.03.18.17.98.96,1.91,2.29,2.68,1.56.9,3.54,1.43,5.9,1.6,2.3.15,4.44-.08,6.37-.72,1.6-.54,2.57-1.21,3.15-1.85,1.01.16,2.11.08,3.05-.23l18.63-6.25c1.02-.34,1.73-.93,1.92-1.6,0-.03.02-.07.03-.1.05-.24.04-.48-.03-.72M133.77,84.69c-.18.62-.8,1.17-1.69,1.52h1.27c.2-.21.35-.45.42-.69.01-.03.02-.07.03-.1,0-.04.02-.08.02-.13.02-.2,0-.4-.06-.59M93.98,56.63l-1.8.11c-1.22.07-2.41-.18-3.26-.67-.2-.11-.37-.24-.53-.37-.3-.27-.49-.56-.59-.86-.08.27-.08.54,0,.8,0,0,0,0,0,.01.09.3.29.59.59.86.16.14.33.26.53.37.84.49,2.03.74,3.26.67l1.33-.08s0-.02,0-.03c.06-.29.22-.57.46-.82M88.62,52.92l-.62.21c-1.56.52-3.54.37-4.83-.37l-6.57-3.79c-.36-.21-.65-.46-.85-.73-.47-.11-.89-.28-1.26-.49l-16.41-9.48c-.58-.34-.97-.77-1.11-1.22-.01.03-.02.07-.03.1-.05.24-.04.48.03.71.14.46.53.89,1.11,1.23l16.41,9.48c.37.21.8.38,1.26.49.2.27.49.52.86.73l6.56,3.79c1.23.71,3.1.88,4.63.43.08-.25.23-.49.46-.72l.36-.36M147.15,70.81l-.36-.21c-8.29,2.63-16.16,2-22.8-1.83l-2.75-1.59-5.62,1.89c-1.56.52-3.55.37-4.83-.37l-6.56-3.79c-.54-.31-.91-.7-1.08-1.11-.71-.1-1.38-.31-1.93-.62l-6.57-3.79c-.59-.34-.97-.77-1.11-1.23-.01.04-.02.07-.03.11,0,0,0,.02,0,.03-.05.23-.03.46.03.68.14.46.53.89,1.12,1.23l6.57,3.79c.54.31,1.21.52,1.93.62.17.42.54.8,1.08,1.11l6.56,3.79c1.29.74,3.27.9,4.83.37l5.63-1.89,2.75,1.59c5.26,3.03,11.29,4.06,17.69,3.04l5.46-1.83M166.31,80.73c-1.13.05-2.3-.18-3.15-.67l-3.57-2.06-18.05,6.05c-1.56.52-3.54.37-4.83-.37l-6.56-3.79c-.58-.34-.97-.76-1.11-1.22,0,.03-.02.07-.03.1-.03.13-.04.26-.03.4,0,.11.03.21.06.32.14.46.53.89,1.11,1.22l6.56,3.79c1.29.74,3.27.9,4.83.37l18.05-6.05,3.57,2.06c.7.41,1.62.63,2.56.67l.58-.82M201.18,89.32c-.05.15-.12.3-.21.44-.58.86-1.98,1.43-3.57,1.46l-22.69.44-12.64,4.23c-1.56.52-3.54.37-4.83-.37l-6.57-3.79c-.58-.34-.97-.77-1.11-1.22-.01.03-.02.07-.03.1-.05.21-.04.41,0,.61,0,.03.02.06.03.1.14.46.53.89,1.12,1.24l6.56,3.79c1.28.74,3.26.89,4.83.37l12.64-4.23,22.68-.43c1.6-.03,2.99-.61,3.58-1.47.1-.14.17-.29.21-.44.08-.27.08-.55,0-.82M185.64,80.34c-.05.17-.13.33-.25.5l-1.12,1.53h.61s.51-.71.51-.71c.11-.16.2-.32.25-.48.09-.28.08-.56,0-.83M118.92,41.82c-.09.28-.26.56-.54.82l-4.3,4.01.97-.07,3.34-3.12c.27-.25.45-.53.53-.81.08-.27.08-.55,0-.83"/>
        <path d="M53.14,57l-4.92-2.84-4.15,1.38,4.92,2.84c1.1.63,2.34.72,3.72.26,1.38-.46,1.53-1.01.43-1.64M63.49,53.54l-4.93-2.85-4.14,1.39,4.92,2.84c1.09.63,2.33.72,3.71.25,1.39-.46,1.53-1.01.44-1.64M157.14,126.49c-.91-.53-1.29-1.11-1.12-1.75.16-.64.82-1.15,1.98-1.53,1.14-.38,2.43-.53,3.89-.43,1.45.1,2.62.41,3.53.94s1.28,1.11,1.12,1.75c-.17.64-.83,1.15-1.96,1.54-1.16.38-2.46.52-3.91.42-1.45-.1-2.62-.41-3.52-.93M95.65,80.16c-.35-.25-.32-.38-.29-.49.02-.12.09-.34,1.02-.65.95-.32,2.05-.43,3.35-.34,1.27.08,2.23.32,2.94.73l5.8,3.35-.89.3-.89.3-.9.3-.89.3-.89.3-.79.26-2.97-1.72-1.53-.89-1.23-.71-1.01-.58-.58-.34c-.09-.05-.16-.1-.23-.14M123.09,97.64l1.56-2.4,5.68-.03-2.48.83-2.48.83-.9.3-.69.23-.69.23M31.3,53.84l28.98-9.71,11.49,6.64c5.47,3.16,4.75,5.89-2.15,8.21-2.25.75-4.66.93-7.23.55.17,1.2-.88,2.17-3.13,2.92-5.52,1.85-11.01,1.2-16.48-1.96l-11.49-6.64M101.12,67.7l-14.49,4.86c-9.67,3.24-17.78,2.96-24.34-.83-6.57-3.79-5.02-7.3,4.65-10.54l14.48-4.87,6.57,3.79-14.49,4.86c-4.15,1.38-5.13,2.71-2.94,3.97s5.35,1.2,9.5-.18l14.49-4.86,6.56,3.79M121.16,79.27l-8.28,2.78-7.39-4.26c-1.36-.79-3.12-1.25-5.3-1.4-2.18-.15-4.12.06-5.83.64-1.72.57-2.7,1.33-2.95,2.3-.26.96.3,1.84,1.66,2.62l7.39,4.26-8.28,2.78-7.39-4.26c-3.17-1.83-4.47-3.87-3.88-6.11.59-2.24,2.88-4.03,6.89-5.37,4-1.35,8.53-1.84,13.6-1.5,5.07.35,9.2,1.44,12.37,3.27l7.39,4.26M144.61,92.81l-22.74.14v.02s-6.25,9.56-6.25,9.56l-7.38-4.26,5.04-8.42-12.42,4.16-6.57-3.79,28.99-9.71,6.56,3.79-12.43,4.16,19.82.1,7.38,4.26M161.36,102.48l-8.29,2.78-9.85-5.68-2.07.69,8.2,4.74-8.28,2.78-8.2-4.74-2.08.69,9.85,5.69-8.28,2.78-16.41-9.48,28.98-9.71,16.41,9.48M181.19,113.93l-8.28,2.78-5.74-3.31-20.7,6.93-6.57-3.79,20.7-6.93-5.74-3.31,8.28-2.78,18.05,10.42M189.4,118.67l-18.64,6.24-6.56-3.79,18.63-6.25,6.57,3.79M192.22,117.04l-6.57-3.79c-.28-.16-.6-.29-.94-.4-.18-.2-.42-.38-.7-.55l-7.43-4.29-1.37-.79-1.04-.6-.9-.52-.9-.52-.9-.52-.9-.52-.9-.52-.9-.52-.9-.52-.9-.52-.9-.52-.1-.06c-.29-.17-.61-.3-.96-.41-.03,0-.06-.02-.08-.02-.17-.2-.39-.38-.66-.55-.03-.02-.06-.04-.09-.05l-.81-.47-.9-.52-.94-.54-1.16-.67-1.64-.95-9-5.2-.22-.13-.36-.21-.9-.52-.49-.28-.17-.09-.16-.1-.08-.05-.9-.52-.9-.52-.9-.52-.91-.52-.9-.52-.9-.52-.93-.54-.97-.56c-.07-.04-.13-.07-.2-.11-.72-.36-1.64-.57-2.6-.57h-.33s-1.45,0-1.45,0h-1.43s-.22,0-.22,0h-.46s-1.27,0-1.27,0c.89-.35,1.51-.9,1.69-1.52,0-.03.02-.07.03-.1.01-.04.02-.09.02-.13.04-.32-.04-.65-.22-.94-.2-.32-.52-.61-.94-.86l-3.44-1.99-.22-.13-2.9-1.67s-.07-.04-.1-.06c-.12-.07-.25-.13-.39-.19-.24-.1-.5-.19-.78-.25-.07-.09-.15-.19-.24-.27-.17-.17-.38-.32-.62-.46l-3.45-1.99-.9-.52-.9-.52-.9-.52-.9-.52-.34-.2c-.19-.11-.38-.21-.57-.32-.33-.18-.68-.35-1.03-.52-.51-.24-1.03-.47-1.58-.69-1.05-.42-2.16-.78-3.34-1.1-.77-.21-1.56-.39-2.38-.55-.65-.13-1.33-.25-2.01-.35-.2-.03-.41-.06-.62-.09,0,0,0,0,0,0-.16-.02-.32-.04-.49-.06-.36-.04-.72-.08-1.09-.12.83-.35,1.39-.87,1.57-1.46.01-.03.02-.07.03-.1,0-.04.02-.09.02-.13.04-.33-.04-.65-.23-.95-.2-.32-.52-.61-.94-.86l-.64-.37-.56-.33-5.36-3.1c-.43-.25-.94-.43-1.49-.54-.51-.1-1.04-.15-1.58-.13-.22,0-.44.03-.65.05-.04,0-.09.01-.13.02-.34.05-.67.13-.98.23l-.58.2-.81.27-13.08,4.39c-1.28.43-2.88.85-3.95.76.33-.15.78-.33,1.4-.53l14.49-4.86c1.02-.34,1.72-.93,1.92-1.6.01-.03.02-.07.03-.1.03-.13.04-.26.03-.39-.02-.28-.13-.56-.32-.82-.2-.27-.49-.52-.86-.73l-.38-.22-2.45-1.41-.21-.12-.29-.17-1.16-.67-1.64-.95-.44-.25c-.43-.25-.94-.43-1.49-.54-.52-.11-1.08-.15-1.63-.13-.39.02-.78.07-1.16.15-.19.04-.37.09-.55.15h-.03c-.02-.18-.06-.36-.11-.55-.11-.37-.28-.75-.51-1.12-.35-.56-.85-1.12-1.49-1.68-.71-.62-1.6-1.24-2.67-1.86l-11.49-6.64c-.43-.25-.94-.43-1.49-.54-.52-.11-1.08-.15-1.63-.13-.39.02-.78.07-1.16.15-.18.04-.37.09-.54.15l-.38.13-.65.22-.31.1-27.65,9.27c-1.08.36-1.8.99-1.96,1.71-.05.24-.04.48.03.72.15.46.53.89,1.11,1.22l11.49,6.64c5.36,3.1,10.41,3.89,14.64,3.63-.09.23-.17.46-.23.7,0,.04-.02.09-.03.13-.05.27-.07.55-.06.82,0,.1.01.2.02.29.22,1.93,1.94,3.83,5.14,5.68,3.89,2.24,9.81,4.29,17.98,3.61-.14.28-.26.56-.36.85-.05.14-.09.29-.13.43-.04.13-.06.27-.09.4-.05.28-.08.55-.09.82,0,.19,0,.38.02.57.2,2.29,1.95,4.44,5.18,6.3l7.39,4.26c.37.21.8.38,1.26.49.2.27.49.52.85.73l6.57,3.79c1.28.74,3.26.89,4.83.37l3.12-1.04-.62,1.03-.62,1.03-.29.48c-.1.16-.16.33-.2.5-.04.23-.03.45.04.67.14.46.52.89,1.12,1.23l7.38,4.26.17.09.16.1,16.41,9.48c1.28.74,3.26.89,4.83.36l8.28-2.78c1.08-.36,1.8-.99,1.96-1.71.03-.15.04-.3.02-.45l6.21-2.09c.15.06.29.1.45.15.19.22.44.42.75.6l2.04,1.18-.89.3-.89.3-.81.27-6.9,2.31-.97.33-5.73,1.92c-.36.12-.69.27-.96.45-.5.32-.83.71-.97,1.15-.01.04-.02.07-.03.11-.05.24-.04.48.03.71,0,0,0,0,0,0,.15.46.53.89,1.11,1.22l6.57,3.79c1.28.74,3.26.89,4.83.36l18.05-6.05,1.51.87-.89.3-4.95,1.66c-.53.17-.97.41-1.3.7-.22.19-.4.4-.52.63-.62.02-1.23.07-1.82.16-.89.13-1.74.33-2.54.59-.89.29-1.59.62-2.14.97-.66.42-1.09.86-1.38,1.28-.23.33-.36.66-.43.94,0,0,0,.02,0,.02-.07.28-.09.57-.06.85,0,.06.01.12.03.18.17.98.96,1.91,2.29,2.68,1.56.9,3.54,1.43,5.9,1.6,2.3.15,4.44-.08,6.37-.72,1.6-.54,2.57-1.21,3.15-1.85,1.01.15,2.11.08,3.05-.23l18.63-6.25c1.02-.34,1.72-.93,1.92-1.6.01-.03.02-.07.03-.1.16-.72-.26-1.43-1.14-1.94M139.24,62.98l-4.92-2.84-4.15,1.38,4.93,2.85c1.09.63,2.33.72,3.71.25s1.53-1.01.43-1.64M60.89,36.64l28.98-9.71,16.41,9.48-8.28,2.78-9.85-5.69-2.07.69,8.2,4.74-8.28,2.78-8.2-4.74-2.07.69,9.85,5.68-8.28,2.78-16.41-9.48M106.24,49.59l20.22-1.54,6.57,3.79-28.98,9.71-6.57-3.79,13.46-4.51-19.2,1.19,7.71-7.83-13.45,4.51-6.57-3.79,28.99-9.71,6.56,3.79-8.74,8.18M107.05,63.28l28.98-9.71,11.49,6.63c5.47,3.16,4.76,5.89-2.14,8.21-6.9,2.31-13.09,1.89-18.56-1.27l-4.92-2.84-8.28,2.78-6.56-3.79M147.92,67.99l8.28-2.78,18.06,10.42-8.28,2.78-5.75-3.32-20.71,6.94-6.56-3.79,20.71-6.94-5.75-3.32M178.16,84.77l11.62-.17,7.45,4.3-22.26.43-1.43.03-13.5,4.52-6.57-3.79,13.69-4.59.42-.49,6.67-9.37,7.44,4.29-3.53,4.84M200.06,87.27l-7.45-4.3c-.78-.45-1.84-.69-2.94-.67l-3.97.06h-.23s-.6.01-.6.01h-.61s1.12-1.52,1.12-1.52c.12-.16.2-.33.25-.5.22-.74-.18-1.5-1.12-2.05l-25.49-14.72c-1.08-.62-2.66-.83-4.07-.56-.52-1.49-2.06-2.97-4.61-4.45l-11.49-6.63c-.54-.31-1.22-.52-1.93-.62-.17-.42-.53-.81-1.07-1.12l-6.57-3.79c-.88-.51-2.12-.75-3.35-.66l-6.93.53-.24.02-.84.06-.96.07-.96.07-.96.07-.97.07,4.3-4.01c.27-.26.45-.53.54-.82.22-.73-.17-1.5-1.12-2.05l-6.56-3.79c-.38-.22-.81-.38-1.26-.49-.2-.27-.49-.52-.86-.73l-16.41-9.48c-1.28-.74-3.26-.89-4.83-.36l-28.98,9.71c-1.07.36-1.8.99-1.95,1.7-.05.24-.04.48.03.72.14.46.53.89,1.11,1.22l16.41,9.48c.37.21.8.38,1.26.49.2.27.49.52.85.73l6.57,3.79c1.28.74,3.26.89,4.83.37l.62-.21-.36.36c-.23.23-.38.47-.46.72-.09.27-.09.55,0,.82,0,0,0,.01,0,.02.09.3.29.59.59.86.16.14.33.26.53.37.84.49,2.03.74,3.26.67l1.8-.11c-.24.25-.4.53-.46.82,0,0,0,.02,0,.03-.05.23-.03.46.04.68.14.46.53.89,1.11,1.23l6.57,3.79c.54.31,1.21.52,1.93.62.17.41.54.8,1.08,1.11l6.56,3.79c1.28.74,3.27.9,4.83.37l5.62-1.89,2.75,1.59c6.64,3.83,14.51,4.46,22.8,1.83l.36.21-5.46,1.83-3.5,1.17-2.43.82-1.97.66-1.68.56-1.15.39c-.11.04-.21.07-.31.12-.38.15-.7.35-.96.56-.24.2-.42.42-.54.65-.06.12-.11.24-.13.37-.03.13-.04.27-.03.4,0,.11.03.22.06.32.15.46.53.89,1.11,1.22l6.56,3.79c1.29.74,3.27.9,4.83.37l18.05-6.05,3.57,2.06c.85.49,2.02.72,3.15.67l-.58.82-.55.77-.52.73-.49.69-.08.11-.89.3-.89.3-.89.3-.89.3-9.04,3.03c-.14.05-.28.1-.4.15-.74.32-1.26.79-1.47,1.31-.03.08-.06.16-.07.23-.05.21-.04.41,0,.61,0,.03.02.07.03.1.14.46.53.89,1.11,1.22l6.57,3.79c1.28.74,3.26.89,4.83.37l12.64-4.23,22.69-.44c1.59-.03,2.99-.61,3.57-1.46.1-.14.17-.29.21-.44.23-.74-.18-1.51-1.12-2.05"/>
        <path class="cls-3" d="M165.41,123.71c-.91-.53-2.09-.84-3.53-.94-1.45-.1-2.74.05-3.89.43-1.16.38-1.82.89-1.98,1.53-.17.64.2,1.22,1.12,1.75s2.08.83,3.52.93c1.45.1,2.74-.04,3.91-.42,1.14-.39,1.79-.9,1.96-1.54.16-.64-.21-1.22-1.12-1.75M44.07,55.54l4.15-1.38,4.92,2.84c1.1.63.95,1.18-.43,1.64-1.38.46-2.62.38-3.72-.26l-4.92-2.84M54.42,52.08l4.14-1.39,4.93,2.85c1.09.63.95,1.18-.44,1.64-1.38.46-2.62.38-3.71-.25l-4.92-2.84M71.77,50.76l-11.49-6.64-28.98,9.71,11.49,6.64c5.47,3.16,10.96,3.82,16.48,1.96,2.25-.75,3.29-1.72,3.13-2.92,2.57.39,4.97.2,7.23-.55,6.9-2.31,7.62-5.05,2.15-8.21M101.12,67.7l-6.56-3.79-14.49,4.86c-4.15,1.38-7.32,1.44-9.5.18s-1.21-2.59,2.94-3.97l14.49-4.86-6.57-3.79-14.48,4.87c-9.67,3.23-11.22,6.74-4.65,10.54,6.56,3.79,14.67,4.07,24.34.83l14.49-4.86M121.16,79.27l-7.39-4.26c-3.17-1.83-7.3-2.92-12.37-3.27-5.07-.34-9.61.15-13.6,1.5-4.01,1.34-6.3,3.13-6.89,5.37-.59,2.24.71,4.28,3.88,6.11l7.39,4.26,8.28-2.78-7.39-4.26c-1.35-.78-1.91-1.66-1.66-2.62.25-.97,1.24-1.73,2.95-2.3,1.72-.58,3.65-.79,5.83-.64,2.18.15,3.94.61,5.3,1.4l7.39,4.26,8.28-2.78M144.61,92.81l-7.38-4.26-19.82-.1,12.43-4.16-6.56-3.79-28.99,9.71,6.57,3.79,12.42-4.16-5.04,8.42,7.38,4.26,6.24-9.56v-.02s22.74-.14,22.74-.14M161.36,102.48l-16.41-9.48-28.98,9.71,16.41,9.48,8.28-2.78-9.85-5.69,2.08-.69,8.2,4.74,8.28-2.78-8.2-4.74,2.07-.69,9.85,5.68,8.29-2.78M181.19,113.93l-18.05-10.42-8.28,2.78,5.74,3.31-20.7,6.93,6.57,3.79,20.7-6.93,5.74,3.31,8.28-2.78M189.4,118.67l-6.57-3.79-18.63,6.25,6.56,3.79,18.64-6.24M106.29,36.4l-16.41-9.48-28.98,9.71,16.41,9.48,8.28-2.78-9.85-5.68,2.07-.69,8.2,4.74,8.28-2.78-8.2-4.74,2.07-.69,9.85,5.69,8.28-2.78M133.03,51.84l-6.57-3.79-20.22,1.54,8.74-8.18-6.56-3.79-28.99,9.71,6.57,3.79,13.45-4.51-7.71,7.83,19.2-1.19-13.46,4.51,6.57,3.79,28.98-9.71M130.17,61.52l4.15-1.38,4.92,2.84c1.1.63.95,1.18-.43,1.64s-2.62.38-3.71-.25l-4.93-2.85M147.52,60.2l-11.49-6.63-28.98,9.71,6.56,3.79,8.28-2.78,4.92,2.84c5.47,3.16,11.66,3.59,18.56,1.27,6.9-2.31,7.61-5.05,2.14-8.21M174.26,75.64l-18.06-10.42-8.28,2.78,5.75,3.32-20.71,6.94,6.56,3.79,20.71-6.94,5.75,3.32,8.28-2.78M197.24,88.91l-7.45-4.3-11.62.17,3.53-4.84-7.44-4.29-6.67,9.37-.42.49-13.69,4.59,6.57,3.79,13.5-4.52,1.43-.03,22.26-.43"/>
      </g>
    </g>
  </g>
</svg>