<?xml version="1.0" encoding="UTF-8"?>
<svg id="Layer_1" data-name="Layer 1" xmlns="http://www.w3.org/2000/svg" viewBox="0 0 512 512">
  <defs>
    <style>
      .cls-1 {
        fill: #27cecd;
      }

      .cls-2 {
        fill: #4c71e6;
      }

      .cls-3 {
        fill: #15fcc0;
      }

      .cls-4 {
        fill: #5e43f2;
      }

      .cls-5 {
        fill: #ff1563;
      }

      .cls-6 {
        fill: #7015ff;
      }

      .cls-7 {
        fill: #39a0d9;
      }
    </style>
  </defs>
  <circle class="cls-5" cx="245.81" cy="255.81" r="235.31"/>
  <g>
    <g>
      <path class="cls-6" d="M80.09,208.19l6.71-31.29h143.17l-6.71,31.29h-52.88l-30.82,145.44h-37.17l30.82-145.44h-53.12Z"/>
      <path class="cls-6" d="M211.15,353.63l37.53-176.74h36.69l-37.53,176.74h-36.69Z"/>
      <path class="cls-6" d="M356.71,176.89l-30.81,144.96h87.53l-6.71,31.78h-124.46l37.53-176.74h36.93Z"/>
    </g>
    <g>
      <polygon class="cls-4" points="97.52 188.48 104.24 157.19 247.4 157.19 240.69 188.48 187.81 188.48 157 333.92 119.83 333.92 150.64 188.48 97.52 188.48"/>
      <polygon class="cls-4" points="228.58 333.92 266.11 157.19 302.8 157.19 265.27 333.92 228.58 333.92"/>
      <polygon class="cls-4" points="374.14 157.19 343.33 302.15 430.86 302.15 424.14 333.92 299.68 333.92 337.21 157.19 374.14 157.19"/>
    </g>
    <g>
      <polygon class="cls-2" points="114.96 168.78 121.67 137.48 264.84 137.48 258.12 168.78 205.24 168.78 174.43 314.22 137.26 314.22 168.07 168.78 114.96 168.78"/>
      <polygon class="cls-2" points="246.01 314.22 283.54 137.48 320.23 137.48 282.7 314.22 246.01 314.22"/>
      <polygon class="cls-2" points="391.57 137.48 360.76 282.44 448.29 282.44 441.57 314.22 317.11 314.22 354.65 137.48 391.57 137.48"/>
    </g>
    <g>
      <polygon class="cls-7" points="132.39 149.07 139.1 117.77 282.27 117.77 275.56 149.07 222.68 149.07 191.86 294.51 154.69 294.51 185.51 149.07 132.39 149.07"/>
      <polygon class="cls-7" points="263.45 294.51 300.97 117.77 337.67 117.77 300.14 294.51 263.45 294.51"/>
      <polygon class="cls-7" points="409.01 117.77 378.19 262.74 465.72 262.74 459.01 294.51 334.55 294.51 372.08 117.77 409.01 117.77"/>
    </g>
    <g>
      <polygon class="cls-1" points="149.82 129.36 156.54 98.07 299.7 98.07 292.99 129.36 240.11 129.36 209.3 274.81 172.13 274.81 202.94 129.36 149.82 129.36"/>
      <polygon class="cls-1" points="280.88 274.81 318.41 98.07 355.1 98.07 317.57 274.81 280.88 274.81"/>
      <polygon class="cls-1" points="426.44 98.07 395.63 243.03 483.16 243.03 476.44 274.81 351.98 274.81 389.51 98.07 426.44 98.07"/>
    </g>
    <g>
      <path class="cls-3" d="M167.26,109.66l6.71-31.29h143.17l-6.71,31.29h-52.88l-30.82,145.44h-37.17l30.82-145.44h-53.12Z"/>
      <path class="cls-3" d="M298.31,255.1l37.53-176.74h36.69l-37.53,176.74h-36.69Z"/>
      <path class="cls-3" d="M443.87,78.36l-30.81,144.96h87.53l-6.71,31.78h-124.46l37.53-176.74h36.93Z"/>
    </g>
  </g>
</svg>