<?xml version="1.0" encoding="UTF-8"?>
<svg id="Layer_1" data-name="Layer 1" xmlns="http://www.w3.org/2000/svg" viewBox="0 0 300 148">
  <defs>
    <style>
      .cls-1 {
        fill: #fff;
      }
    </style>
  </defs>
  <g>
    <path d="M271.99,122.03c-2.54,0-4.72-1.06-6.14-2.98-.54-.73-1.07-1.74-1.31-3.01-.16.13-.32.26-.49.39-4.71,3.72-9.83,5.6-15.2,5.6h-12.73c-.52,0-1.02-.1-1.49-.29-.46.19-.97.29-1.49.29h-23.14c-.76,0-1.49-.21-2.12-.61-.62.39-1.35.61-2.12.61h-9.25c-1.58,0-3.01-.93-3.65-2.37l-2.63-5.89-1.42,5.3c-.47,1.75-2.05,2.96-3.86,2.96h-9.25c-.07,0-.15,0-.22,0-.07,0-.15,0-.22,0h-11.57c-1.27,0-2.47-.61-3.23-1.64l-1.85-2.52-.32,1.19c-.47,1.75-2.05,2.97-3.86,2.97h-9.25c-.06,0-.12,0-.17,0-.06,0-.12,0-.17,0h-9.25c-2.07,0-3.8-1.58-3.98-3.64l-.09-.99h-7.01l-1.72,2.75c-.73,1.17-2.01,1.88-3.39,1.88h-32.71c-.38,0-.75-.05-1.11-.16-.35.1-.73.16-1.11.16h-18.51c-1.24,0-2.42-.58-3.17-1.56-.76-.99-1.01-2.27-.69-3.47l8.68-32.39c.47-1.75,2.05-2.96,3.86-2.96h9.25c1.24,0,2.42.58,3.17,1.57.76.99,1.01,2.27.69,3.47l-4.85,18.1h3.2l5.4-20.17c.47-1.75,2.05-2.96,3.86-2.96h23.14c1.24,0,2.42.58,3.17,1.56.76.99,1.01,2.27.69,3.47l-1.99,7.45,6.63-10.61c.73-1.17,2.01-1.88,3.39-1.88h11.57c2.07,0,3.8,1.58,3.98,3.64l.97,10.88,3.1-11.56c.47-1.75,2.05-2.96,3.86-2.96h16.2c4.58,0,8.04,1.19,10.3,3.55l.16-.58c.47-1.75,2.05-2.96,3.86-2.96h9.25c1.58,0,3.01.93,3.65,2.37l2.64,5.9,1.42-5.3c.47-1.75,2.05-2.97,3.86-2.97h9.25c.76,0,1.49.21,2.12.61.62-.39,1.35-.61,2.12-.61h23.14c.52,0,1.02.1,1.49.29.46-.19.97-.29,1.49-.29h12.72c5.72,0,10.35,2.21,13.41,6.38.08.11.16.22.23.33l1-3.74c.47-1.75,2.05-2.96,3.86-2.96h9.25c1.24,0,2.42.58,3.17,1.56.76.99,1.01,2.27.69,3.47l-5.58,20.82c-.28,1.06-.97,1.92-1.87,2.43.38,1.2.5,2.7.03,4.5-.6,2.15-1.81,3.95-3.63,5.39-1.86,1.47-3.92,2.22-6.11,2.22ZM253.2,104.31c.36-.18.73-.42,1.1-.71,1.04-.82,1.69-1.75,1.99-2.82.26-.99.02-1.32-.1-1.48-.12-.17-.29-.4-1.13-.4h-.4l-1.45,5.42ZM116.29,100.61l1.27-2.04c-.25.11-.52.19-.79.24l-.48,1.79ZM35.86,122.03c-1.24,0-2.42-.58-3.17-1.56-.76-.99-1.01-2.27-.69-3.47l8.68-32.39c.47-1.75,2.05-2.96,3.86-2.96h9.25c1.24,0,2.42.58,3.17,1.56.76.99,1.01,2.27.69,3.47l-8.68,32.39c-.47,1.75-2.05,2.96-3.86,2.96h-9.25ZM161.88,80.03c-1.24,0-2.42-.58-3.17-1.56-.09-.11-.17-.23-.24-.35-.13.22-.29.42-.46.61-.76.83-1.83,1.3-2.95,1.3h-9.25c-2.07,0-3.8-1.58-3.98-3.64l-.09-.99h-7.01l-1.72,2.75c-.73,1.17-2.01,1.88-3.39,1.88h-9.25c-1.45,0-2.79-.79-3.5-2.06-.02-.03-.03-.06-.05-.09-3.09,1.43-6.32,2.15-9.64,2.15h-12.73c-1.24,0-2.42-.58-3.17-1.56-.68-.89-.96-2.02-.77-3.11-4.37,3.1-9.06,4.67-13.96,4.67-5.72,0-10.35-2.21-13.41-6.38-1.75-2.39-2.75-5.05-3-7.96l-3.05,11.38c-.47,1.75-2.05,2.96-3.86,2.96h-9.25c-1.24,0-2.42-.58-3.17-1.57-.76-.99-1.01-2.27-.69-3.47l4.85-18.1h-2.88c-1.24,0-2.42-.58-3.17-1.56s-1.01-2.27-.69-3.47l2.48-9.25c.47-1.75,2.05-2.97,3.86-2.97h25.45c1.24,0,2.42.58,3.17,1.56.34.44.57.93.71,1.46,3.61-2.01,7.41-3.02,11.35-3.02,5.59,0,10.15,2.11,13.2,6.11l.84-3.14c.47-1.75,2.05-2.96,3.86-2.96h12.72c5.72,0,10.35,2.21,13.41,6.38,1.03,1.41,1.81,2.92,2.32,4.52l5.64-9.02c.73-1.17,2.01-1.88,3.39-1.88h11.57c1.44,0,2.71.76,3.41,1.91.03-.05.06-.09.09-.14.74-1.11,1.99-1.78,3.32-1.78h10.48c1.63,0,3.1.99,3.71,2.5l1.07,2.66,3.72-3.92c.76-.79,1.8-1.24,2.9-1.24h10.5c1.59,0,3.04.95,3.67,2.41.63,1.46.34,3.16-.75,4.33l-15.51,16.57-3.79,14.12c-.47,1.75-2.05,2.96-3.86,2.96h-9.25ZM158.74,72.3l3.05-11.4-5.19-12.57,2.14,23.97ZM82.73,56.89c-1,0-1.97.38-2.97,1.18-1.03.81-1.67,1.73-1.96,2.79-.28,1.03-.06,1.34.07,1.51.12.17.29.4,1.13.4,1,0,1.97-.38,2.97-1.17,1.04-.82,1.69-1.75,1.99-2.82.26-.99.02-1.32-.1-1.48-.12-.17-.29-.4-1.13-.4ZM111.51,62.31c.36-.18.73-.42,1.1-.71,1.04-.82,1.69-1.75,1.99-2.82.26-.99.02-1.32-.1-1.48-.12-.17-.29-.4-1.13-.4h-.4l-1.45,5.42Z"/>
    <path d="M270.99,121.03c-2.54,0-4.72-1.06-6.14-2.98-.54-.73-1.07-1.74-1.31-3.01-.16.13-.32.26-.49.39-4.71,3.72-9.83,5.6-15.2,5.6h-12.73c-.52,0-1.02-.1-1.49-.29-.46.19-.97.29-1.49.29h-23.14c-.76,0-1.49-.21-2.12-.61-.62.39-1.35.61-2.12.61h-9.25c-1.58,0-3.01-.93-3.65-2.37l-2.63-5.89-1.42,5.3c-.47,1.75-2.05,2.96-3.86,2.96h-9.25c-.07,0-.15,0-.22,0-.07,0-.15,0-.22,0h-11.57c-1.27,0-2.47-.61-3.23-1.64l-1.85-2.52-.32,1.19c-.47,1.75-2.05,2.97-3.86,2.97h-9.25c-.06,0-.12,0-.17,0-.06,0-.12,0-.17,0h-9.25c-2.07,0-3.8-1.58-3.98-3.64l-.09-.99h-7.01l-1.72,2.75c-.73,1.17-2.01,1.88-3.39,1.88h-32.71c-.38,0-.75-.05-1.11-.16-.35.1-.73.16-1.11.16h-18.51c-1.24,0-2.42-.58-3.17-1.56-.76-.99-1.01-2.27-.69-3.47l8.68-32.39c.47-1.75,2.05-2.96,3.86-2.96h9.25c1.24,0,2.42.58,3.17,1.57.76.99,1.01,2.27.69,3.47l-4.85,18.1h3.2l5.4-20.17c.47-1.75,2.05-2.96,3.86-2.96h23.14c1.24,0,2.42.58,3.17,1.56.76.99,1.01,2.27.69,3.47l-1.99,7.45,6.63-10.61c.73-1.17,2.01-1.88,3.39-1.88h11.57c2.07,0,3.8,1.58,3.98,3.64l.97,10.88,3.1-11.56c.47-1.75,2.05-2.96,3.86-2.96h16.2c4.58,0,8.04,1.19,10.3,3.55l.16-.58c.47-1.75,2.05-2.96,3.86-2.96h9.25c1.58,0,3.01.93,3.65,2.37l2.64,5.9,1.42-5.3c.47-1.75,2.05-2.97,3.86-2.97h9.25c.76,0,1.49.21,2.12.61.62-.39,1.35-.61,2.12-.61h23.14c.52,0,1.02.1,1.49.29.46-.19.97-.29,1.49-.29h12.72c5.72,0,10.35,2.21,13.41,6.38.08.11.16.22.23.33l1-3.74c.47-1.75,2.05-2.96,3.86-2.96h9.25c1.24,0,2.42.58,3.17,1.56.76.99,1.01,2.27.69,3.47l-5.58,20.82c-.28,1.06-.97,1.92-1.87,2.43.38,1.2.5,2.7.03,4.5-.6,2.15-1.81,3.95-3.63,5.39-1.86,1.47-3.92,2.22-6.11,2.22ZM252.2,103.31c.36-.18.73-.42,1.1-.71,1.04-.82,1.69-1.75,1.99-2.82.26-.99.02-1.32-.1-1.48-.12-.17-.29-.4-1.13-.4h-.4l-1.45,5.42ZM115.29,99.61l1.27-2.04c-.25.11-.52.19-.79.24l-.48,1.79ZM34.86,121.03c-1.24,0-2.42-.58-3.17-1.56-.76-.99-1.01-2.27-.69-3.47l8.68-32.39c.47-1.75,2.05-2.96,3.86-2.96h9.25c1.24,0,2.42.58,3.17,1.56.76.99,1.01,2.27.69,3.47l-8.68,32.39c-.47,1.75-2.05,2.96-3.86,2.96h-9.25ZM160.88,79.03c-1.24,0-2.42-.58-3.17-1.56-.09-.11-.17-.23-.24-.35-.13.22-.29.42-.46.61-.76.83-1.83,1.3-2.95,1.3h-9.25c-2.07,0-3.8-1.58-3.98-3.64l-.09-.99h-7.01l-1.72,2.75c-.73,1.17-2.01,1.88-3.39,1.88h-9.25c-1.45,0-2.79-.79-3.5-2.06-.02-.03-.03-.06-.05-.09-3.09,1.43-6.32,2.15-9.64,2.15h-12.73c-1.24,0-2.42-.58-3.17-1.56-.68-.89-.96-2.02-.77-3.11-4.37,3.1-9.06,4.67-13.96,4.67-5.72,0-10.35-2.21-13.41-6.38-1.75-2.39-2.75-5.05-3-7.96l-3.05,11.38c-.47,1.75-2.05,2.96-3.86,2.96h-9.25c-1.24,0-2.42-.58-3.17-1.57-.76-.99-1.01-2.27-.69-3.47l4.85-18.1h-2.88c-1.24,0-2.42-.58-3.17-1.56s-1.01-2.27-.69-3.47l2.48-9.25c.47-1.75,2.05-2.97,3.86-2.97h25.45c1.24,0,2.42.58,3.17,1.56.34.44.57.93.71,1.46,3.61-2.01,7.41-3.02,11.35-3.02,5.59,0,10.15,2.11,13.2,6.11l.84-3.14c.47-1.75,2.05-2.96,3.86-2.96h12.72c5.72,0,10.35,2.21,13.41,6.38,1.03,1.41,1.81,2.92,2.32,4.52l5.64-9.02c.73-1.17,2.01-1.88,3.39-1.88h11.57c1.44,0,2.71.76,3.41,1.91.03-.05.06-.09.09-.14.74-1.11,1.99-1.78,3.32-1.78h10.48c1.63,0,3.1.99,3.71,2.5l1.07,2.66,3.72-3.92c.76-.79,1.8-1.24,2.9-1.24h10.5c1.59,0,3.04.95,3.67,2.41.63,1.46.34,3.16-.75,4.33l-15.51,16.57-3.79,14.12c-.47,1.75-2.05,2.96-3.86,2.96h-9.25ZM157.74,71.3l3.05-11.4-5.19-12.57,2.14,23.97ZM81.73,55.89c-1,0-1.97.38-2.97,1.18-1.03.81-1.67,1.73-1.96,2.79-.28,1.03-.06,1.34.07,1.51.12.17.29.4,1.13.4,1,0,1.97-.38,2.97-1.17,1.04-.82,1.69-1.75,1.99-2.82.26-.99.02-1.32-.1-1.48-.12-.17-.29-.4-1.13-.4ZM110.51,61.31c.36-.18.73-.42,1.1-.71,1.04-.82,1.69-1.75,1.99-2.82.26-.99.02-1.32-.1-1.48-.12-.17-.29-.4-1.13-.4h-.4l-1.45,5.42Z"/>
    <path d="M269.99,120.03c-2.54,0-4.72-1.06-6.14-2.98-.54-.73-1.07-1.74-1.31-3.01-.16.13-.32.26-.49.39-4.71,3.72-9.83,5.6-15.2,5.6h-12.73c-.52,0-1.02-.1-1.49-.29-.46.19-.97.29-1.49.29h-23.14c-.76,0-1.49-.21-2.12-.61-.62.39-1.35.61-2.12.61h-9.25c-1.58,0-3.01-.93-3.65-2.37l-2.63-5.89-1.42,5.3c-.47,1.75-2.05,2.96-3.86,2.96h-9.25c-.07,0-.15,0-.22,0-.07,0-.15,0-.22,0h-11.57c-1.27,0-2.47-.61-3.23-1.64l-1.85-2.52-.32,1.19c-.47,1.75-2.05,2.97-3.86,2.97h-9.25c-.06,0-.12,0-.17,0-.06,0-.12,0-.17,0h-9.25c-2.07,0-3.8-1.58-3.98-3.64l-.09-.99h-7.01l-1.72,2.75c-.73,1.17-2.01,1.88-3.39,1.88h-32.71c-.38,0-.75-.05-1.11-.16-.35.1-.73.16-1.11.16h-18.51c-1.24,0-2.42-.58-3.17-1.56-.76-.99-1.01-2.27-.69-3.47l8.68-32.39c.47-1.75,2.05-2.96,3.86-2.96h9.25c1.24,0,2.42.58,3.17,1.57.76.99,1.01,2.27.69,3.47l-4.85,18.1h3.2l5.4-20.17c.47-1.75,2.05-2.96,3.86-2.96h23.14c1.24,0,2.42.58,3.17,1.56.76.99,1.01,2.27.69,3.47l-1.99,7.45,6.63-10.61c.73-1.17,2.01-1.88,3.39-1.88h11.57c2.07,0,3.8,1.58,3.98,3.64l.97,10.88,3.1-11.56c.47-1.75,2.05-2.96,3.86-2.96h16.2c4.58,0,8.04,1.19,10.3,3.55l.16-.58c.47-1.75,2.05-2.96,3.86-2.96h9.25c1.58,0,3.01.93,3.65,2.37l2.64,5.9,1.42-5.3c.47-1.75,2.05-2.97,3.86-2.97h9.25c.76,0,1.49.21,2.12.61.62-.39,1.35-.61,2.12-.61h23.14c.52,0,1.02.1,1.49.29.46-.19.97-.29,1.49-.29h12.72c5.72,0,10.35,2.21,13.41,6.38.08.11.16.22.23.33l1-3.74c.47-1.75,2.05-2.96,3.86-2.96h9.25c1.24,0,2.42.58,3.17,1.56.76.99,1.01,2.27.69,3.47l-5.58,20.82c-.28,1.06-.97,1.92-1.87,2.43.38,1.2.5,2.7.03,4.5-.6,2.15-1.81,3.95-3.63,5.39-1.86,1.47-3.92,2.22-6.11,2.22ZM251.2,102.31c.36-.18.73-.42,1.1-.71,1.04-.82,1.69-1.75,1.99-2.82.26-.99.02-1.32-.1-1.48-.12-.17-.29-.4-1.13-.4h-.4l-1.45,5.42ZM114.29,98.61l1.27-2.04c-.25.11-.52.19-.79.24l-.48,1.79ZM33.86,120.03c-1.24,0-2.42-.58-3.17-1.56-.76-.99-1.01-2.27-.69-3.47l8.68-32.39c.47-1.75,2.05-2.96,3.86-2.96h9.25c1.24,0,2.42.58,3.17,1.56.76.99,1.01,2.27.69,3.47l-8.68,32.39c-.47,1.75-2.05,2.96-3.86,2.96h-9.25ZM159.88,78.03c-1.24,0-2.42-.58-3.17-1.56-.09-.11-.17-.23-.24-.35-.13.22-.29.42-.46.61-.76.83-1.83,1.3-2.95,1.3h-9.25c-2.07,0-3.8-1.58-3.98-3.64l-.09-.99h-7.01l-1.72,2.75c-.73,1.17-2.01,1.88-3.39,1.88h-9.25c-1.45,0-2.79-.79-3.5-2.06-.02-.03-.03-.06-.05-.09-3.09,1.43-6.32,2.15-9.64,2.15h-12.73c-1.24,0-2.42-.58-3.17-1.56-.68-.89-.96-2.02-.77-3.11-4.37,3.1-9.06,4.67-13.96,4.67-5.72,0-10.35-2.21-13.41-6.38-1.75-2.39-2.75-5.05-3-7.96l-3.05,11.38c-.47,1.75-2.05,2.96-3.86,2.96h-9.25c-1.24,0-2.42-.58-3.17-1.57-.76-.99-1.01-2.27-.69-3.47l4.85-18.1h-2.88c-1.24,0-2.42-.58-3.17-1.56s-1.01-2.27-.69-3.47l2.48-9.25c.47-1.75,2.05-2.97,3.86-2.97h25.45c1.24,0,2.42.58,3.17,1.56.34.44.57.93.71,1.46,3.61-2.01,7.41-3.02,11.35-3.02,5.59,0,10.15,2.11,13.2,6.11l.84-3.14c.47-1.75,2.05-2.96,3.86-2.96h12.72c5.72,0,10.35,2.21,13.41,6.38,1.03,1.41,1.81,2.92,2.32,4.52l5.64-9.02c.73-1.17,2.01-1.88,3.39-1.88h11.57c1.44,0,2.71.76,3.41,1.91.03-.05.06-.09.09-.14.74-1.11,1.99-1.78,3.32-1.78h10.48c1.63,0,3.1.99,3.71,2.5l1.07,2.66,3.72-3.92c.76-.79,1.8-1.24,2.9-1.24h10.5c1.59,0,3.04.95,3.67,2.41.63,1.46.34,3.16-.75,4.33l-15.51,16.57-3.79,14.12c-.47,1.75-2.05,2.96-3.86,2.96h-9.25ZM156.74,70.3l3.05-11.4-5.19-12.57,2.14,23.97ZM80.73,54.89c-1,0-1.97.38-2.97,1.18-1.03.81-1.67,1.73-1.96,2.79-.28,1.03-.06,1.34.07,1.51.12.17.29.4,1.13.4,1,0,1.97-.38,2.97-1.17,1.04-.82,1.69-1.75,1.99-2.82.26-.99.02-1.32-.1-1.48-.12-.17-.29-.4-1.13-.4ZM109.51,60.31c.36-.18.73-.42,1.1-.71,1.04-.82,1.69-1.75,1.99-2.82.26-.99.02-1.32-.1-1.48-.12-.17-.29-.4-1.13-.4h-.4l-1.45,5.42Z"/>
    <path d="M268.99,119.03c-2.54,0-4.72-1.06-6.14-2.98-.54-.73-1.07-1.74-1.31-3.01-.16.13-.32.26-.49.39-4.71,3.72-9.83,5.6-15.2,5.6h-12.73c-.52,0-1.02-.1-1.49-.29-.46.19-.97.29-1.49.29h-23.14c-.76,0-1.49-.21-2.12-.61-.62.39-1.35.61-2.12.61h-9.25c-1.58,0-3.01-.93-3.65-2.37l-2.63-5.89-1.42,5.3c-.47,1.75-2.05,2.96-3.86,2.96h-9.25c-.07,0-.15,0-.22,0-.07,0-.15,0-.22,0h-11.57c-1.27,0-2.47-.61-3.23-1.64l-1.85-2.52-.32,1.19c-.47,1.75-2.05,2.97-3.86,2.97h-9.25c-.06,0-.12,0-.17,0-.06,0-.12,0-.17,0h-9.25c-2.07,0-3.8-1.58-3.98-3.64l-.09-.99h-7.01l-1.72,2.75c-.73,1.17-2.01,1.88-3.39,1.88h-32.71c-.38,0-.75-.05-1.11-.16-.35.1-.73.16-1.11.16h-18.51c-1.24,0-2.42-.58-3.17-1.56-.76-.99-1.01-2.27-.69-3.47l8.68-32.39c.47-1.75,2.05-2.96,3.86-2.96h9.25c1.24,0,2.42.58,3.17,1.57.76.99,1.01,2.27.69,3.47l-4.85,18.1h3.2l5.4-20.17c.47-1.75,2.05-2.96,3.86-2.96h23.14c1.24,0,2.42.58,3.17,1.56.76.99,1.01,2.27.69,3.47l-1.99,7.45,6.63-10.61c.73-1.17,2.01-1.88,3.39-1.88h11.57c2.07,0,3.8,1.58,3.98,3.64l.97,10.88,3.1-11.56c.47-1.75,2.05-2.96,3.86-2.96h16.2c4.58,0,8.04,1.19,10.3,3.55l.16-.58c.47-1.75,2.05-2.96,3.86-2.96h9.25c1.58,0,3.01.93,3.65,2.37l2.64,5.9,1.42-5.3c.47-1.75,2.05-2.97,3.86-2.97h9.25c.76,0,1.49.21,2.12.61.62-.39,1.35-.61,2.12-.61h23.14c.52,0,1.02.1,1.49.29.46-.19.97-.29,1.49-.29h12.72c5.72,0,10.35,2.21,13.41,6.38.08.11.16.22.23.33l1-3.74c.47-1.75,2.05-2.96,3.86-2.96h9.25c1.24,0,2.42.58,3.17,1.56.76.99,1.01,2.27.69,3.47l-5.58,20.82c-.28,1.06-.97,1.92-1.87,2.43.38,1.2.5,2.7.03,4.5-.6,2.15-1.81,3.95-3.63,5.39-1.86,1.47-3.92,2.22-6.11,2.22ZM250.2,101.31c.36-.18.73-.42,1.1-.71,1.04-.82,1.69-1.75,1.99-2.82.26-.99.02-1.32-.1-1.48-.12-.17-.29-.4-1.13-.4h-.4l-1.45,5.42ZM113.29,97.61l1.27-2.04c-.25.11-.52.19-.79.24l-.48,1.79ZM32.86,119.03c-1.24,0-2.42-.58-3.17-1.56-.76-.99-1.01-2.27-.69-3.47l8.68-32.39c.47-1.75,2.05-2.96,3.86-2.96h9.25c1.24,0,2.42.58,3.17,1.56.76.99,1.01,2.27.69,3.47l-8.68,32.39c-.47,1.75-2.05,2.96-3.86,2.96h-9.25ZM158.88,77.03c-1.24,0-2.42-.58-3.17-1.56-.09-.11-.17-.23-.24-.35-.13.22-.29.42-.46.61-.76.83-1.83,1.3-2.95,1.3h-9.25c-2.07,0-3.8-1.58-3.98-3.64l-.09-.99h-7.01l-1.72,2.75c-.73,1.17-2.01,1.88-3.39,1.88h-9.25c-1.45,0-2.79-.79-3.5-2.06-.02-.03-.03-.06-.05-.09-3.09,1.43-6.32,2.15-9.64,2.15h-12.73c-1.24,0-2.42-.58-3.17-1.56-.68-.89-.96-2.02-.77-3.11-4.37,3.1-9.06,4.67-13.96,4.67-5.72,0-10.35-2.21-13.41-6.38-1.75-2.39-2.75-5.05-3-7.96l-3.05,11.38c-.47,1.75-2.05,2.96-3.86,2.96h-9.25c-1.24,0-2.42-.58-3.17-1.57-.76-.99-1.01-2.27-.69-3.47l4.85-18.1h-2.88c-1.24,0-2.42-.58-3.17-1.56s-1.01-2.27-.69-3.47l2.48-9.25c.47-1.75,2.05-2.97,3.86-2.97h25.45c1.24,0,2.42.58,3.17,1.56.34.44.57.93.71,1.46,3.61-2.01,7.41-3.02,11.35-3.02,5.59,0,10.15,2.11,13.2,6.11l.84-3.14c.47-1.75,2.05-2.96,3.86-2.96h12.72c5.72,0,10.35,2.21,13.41,6.38,1.03,1.41,1.81,2.92,2.32,4.52l5.64-9.02c.73-1.17,2.01-1.88,3.39-1.88h11.57c1.44,0,2.71.76,3.41,1.91.03-.05.06-.09.09-.14.74-1.11,1.99-1.78,3.32-1.78h10.48c1.63,0,3.1.99,3.71,2.5l1.07,2.66,3.72-3.92c.76-.79,1.8-1.24,2.9-1.24h10.5c1.59,0,3.04.95,3.67,2.41.63,1.46.34,3.16-.75,4.33l-15.51,16.57-3.79,14.12c-.47,1.75-2.05,2.96-3.86,2.96h-9.25ZM155.74,69.3l3.05-11.4-5.19-12.57,2.14,23.97ZM79.73,53.89c-1,0-1.97.38-2.97,1.18-1.03.81-1.67,1.73-1.96,2.79-.28,1.03-.06,1.34.07,1.51.12.17.29.4,1.13.4,1,0,1.97-.38,2.97-1.17,1.04-.82,1.69-1.75,1.99-2.82.26-.99.02-1.32-.1-1.48-.12-.17-.29-.4-1.13-.4ZM108.51,59.31c.36-.18.73-.42,1.1-.71,1.04-.82,1.69-1.75,1.99-2.82.26-.99.02-1.32-.1-1.48-.12-.17-.29-.4-1.13-.4h-.4l-1.45,5.42Z"/>
    <path d="M267.99,118.03c-2.54,0-4.72-1.06-6.14-2.98-.54-.73-1.07-1.74-1.31-3.01-.16.13-.32.26-.49.39-4.71,3.72-9.83,5.6-15.2,5.6h-12.73c-.52,0-1.02-.1-1.49-.29-.46.19-.97.29-1.49.29h-23.14c-.76,0-1.49-.21-2.12-.61-.62.39-1.35.61-2.12.61h-9.25c-1.58,0-3.01-.93-3.65-2.37l-2.63-5.89-1.42,5.3c-.47,1.75-2.05,2.96-3.86,2.96h-9.25c-.07,0-.15,0-.22,0-.07,0-.15,0-.22,0h-11.57c-1.27,0-2.47-.61-3.23-1.64l-1.85-2.52-.32,1.19c-.47,1.75-2.05,2.97-3.86,2.97h-9.25c-.06,0-.12,0-.17,0-.06,0-.12,0-.17,0h-9.25c-2.07,0-3.8-1.58-3.98-3.64l-.09-.99h-7.01l-1.72,2.75c-.73,1.17-2.01,1.88-3.39,1.88h-32.71c-.38,0-.75-.05-1.11-.16-.35.1-.73.16-1.11.16h-18.51c-1.24,0-2.42-.58-3.17-1.56-.76-.99-1.01-2.27-.69-3.47l8.68-32.39c.47-1.75,2.05-2.96,3.86-2.96h9.25c1.24,0,2.42.58,3.17,1.57.76.99,1.01,2.27.69,3.47l-4.85,18.1h3.2l5.4-20.17c.47-1.75,2.05-2.96,3.86-2.96h23.14c1.24,0,2.42.58,3.17,1.56.76.99,1.01,2.27.69,3.47l-1.99,7.45,6.63-10.61c.73-1.17,2.01-1.88,3.39-1.88h11.57c2.07,0,3.8,1.58,3.98,3.64l.97,10.88,3.1-11.56c.47-1.75,2.05-2.96,3.86-2.96h16.2c4.58,0,8.04,1.19,10.3,3.55l.16-.58c.47-1.75,2.05-2.96,3.86-2.96h9.25c1.58,0,3.01.93,3.65,2.37l2.64,5.9,1.42-5.3c.47-1.75,2.05-2.97,3.86-2.97h9.25c.76,0,1.49.21,2.12.61.62-.39,1.35-.61,2.12-.61h23.14c.52,0,1.02.1,1.49.29.46-.19.97-.29,1.49-.29h12.72c5.72,0,10.35,2.21,13.41,6.38.08.11.16.22.23.33l1-3.74c.47-1.75,2.05-2.96,3.86-2.96h9.25c1.24,0,2.42.58,3.17,1.56.76.99,1.01,2.27.69,3.47l-5.58,20.82c-.28,1.06-.97,1.92-1.87,2.43.38,1.2.5,2.7.03,4.5-.6,2.15-1.81,3.95-3.63,5.39-1.86,1.47-3.92,2.22-6.11,2.22ZM249.2,100.31c.36-.18.73-.42,1.1-.71,1.04-.82,1.69-1.75,1.99-2.82.26-.99.02-1.32-.1-1.48-.12-.17-.29-.4-1.13-.4h-.4l-1.45,5.42ZM112.29,96.61l1.27-2.04c-.25.11-.52.19-.79.24l-.48,1.79ZM31.86,118.03c-1.24,0-2.42-.58-3.17-1.56-.76-.99-1.01-2.27-.69-3.47l8.68-32.39c.47-1.75,2.05-2.96,3.86-2.96h9.25c1.24,0,2.42.58,3.17,1.56.76.99,1.01,2.27.69,3.47l-8.68,32.39c-.47,1.75-2.05,2.96-3.86,2.96h-9.25ZM157.88,76.03c-1.24,0-2.42-.58-3.17-1.56-.09-.11-.17-.23-.24-.35-.13.22-.29.42-.46.61-.76.83-1.83,1.3-2.95,1.3h-9.25c-2.07,0-3.8-1.58-3.98-3.64l-.09-.99h-7.01l-1.72,2.75c-.73,1.17-2.01,1.88-3.39,1.88h-9.25c-1.45,0-2.79-.79-3.5-2.06-.02-.03-.03-.06-.05-.09-3.09,1.43-6.32,2.15-9.64,2.15h-12.73c-1.24,0-2.42-.58-3.17-1.56-.68-.89-.96-2.02-.77-3.11-4.37,3.1-9.06,4.67-13.96,4.67-5.72,0-10.35-2.21-13.41-6.38-1.75-2.39-2.75-5.05-3-7.96l-3.05,11.38c-.47,1.75-2.05,2.96-3.86,2.96h-9.25c-1.24,0-2.42-.58-3.17-1.57-.76-.99-1.01-2.27-.69-3.47l4.85-18.1h-2.88c-1.24,0-2.42-.58-3.17-1.56s-1.01-2.27-.69-3.47l2.48-9.25c.47-1.75,2.05-2.97,3.86-2.97h25.45c1.24,0,2.42.58,3.17,1.56.34.44.57.93.71,1.46,3.61-2.01,7.41-3.02,11.35-3.02,5.59,0,10.15,2.11,13.2,6.11l.84-3.14c.47-1.75,2.05-2.96,3.86-2.96h12.72c5.72,0,10.35,2.21,13.41,6.38,1.03,1.41,1.81,2.92,2.32,4.52l5.64-9.02c.73-1.17,2.01-1.88,3.39-1.88h11.57c1.44,0,2.71.76,3.41,1.91.03-.05.06-.09.09-.14.74-1.11,1.99-1.78,3.32-1.78h10.48c1.63,0,3.1.99,3.71,2.5l1.07,2.66,3.72-3.92c.76-.79,1.8-1.24,2.9-1.24h10.5c1.59,0,3.04.95,3.67,2.41.63,1.46.34,3.16-.75,4.33l-15.51,16.57-3.79,14.12c-.47,1.75-2.05,2.96-3.86,2.96h-9.25ZM154.74,68.3l3.05-11.4-5.19-12.57,2.14,23.97ZM78.73,52.89c-1,0-1.97.38-2.97,1.18-1.03.81-1.67,1.73-1.96,2.79-.28,1.03-.06,1.34.07,1.51.12.17.29.4,1.13.4,1,0,1.97-.38,2.97-1.17,1.04-.82,1.69-1.75,1.99-2.82.26-.99.02-1.32-.1-1.48-.12-.17-.29-.4-1.13-.4ZM107.51,58.31c.36-.18.73-.42,1.1-.71,1.04-.82,1.69-1.75,1.99-2.82.26-.99.02-1.32-.1-1.48-.12-.17-.29-.4-1.13-.4h-.4l-1.45,5.42Z"/>
    <path d="M266.99,117.03c-2.54,0-4.72-1.06-6.14-2.98-.54-.73-1.07-1.74-1.31-3.01-.16.13-.32.26-.49.39-4.71,3.72-9.83,5.6-15.2,5.6h-12.73c-.52,0-1.02-.1-1.49-.29-.46.19-.97.29-1.49.29h-23.14c-.76,0-1.49-.21-2.12-.61-.62.39-1.35.61-2.12.61h-9.25c-1.58,0-3.01-.93-3.65-2.37l-2.63-5.89-1.42,5.3c-.47,1.75-2.05,2.96-3.86,2.96h-9.25c-.07,0-.15,0-.22,0-.07,0-.15,0-.22,0h-11.57c-1.27,0-2.47-.61-3.23-1.64l-1.85-2.52-.32,1.19c-.47,1.75-2.05,2.97-3.86,2.97h-9.25c-.06,0-.12,0-.17,0-.06,0-.12,0-.17,0h-9.25c-2.07,0-3.8-1.58-3.98-3.64l-.09-.99h-7.01l-1.72,2.75c-.73,1.17-2.01,1.88-3.39,1.88h-32.71c-.38,0-.75-.05-1.11-.16-.35.1-.73.16-1.11.16h-18.51c-1.24,0-2.42-.58-3.17-1.56-.76-.99-1.01-2.27-.69-3.47l8.68-32.39c.47-1.75,2.05-2.96,3.86-2.96h9.25c1.24,0,2.42.58,3.17,1.57.76.99,1.01,2.27.69,3.47l-4.85,18.1h3.2l5.4-20.17c.47-1.75,2.05-2.96,3.86-2.96h23.14c1.24,0,2.42.58,3.17,1.56.76.99,1.01,2.27.69,3.47l-1.99,7.45,6.63-10.61c.73-1.17,2.01-1.88,3.39-1.88h11.57c2.07,0,3.8,1.58,3.98,3.64l.97,10.88,3.1-11.56c.47-1.75,2.05-2.96,3.86-2.96h16.2c4.58,0,8.04,1.19,10.3,3.55l.16-.58c.47-1.75,2.05-2.96,3.86-2.96h9.25c1.58,0,3.01.93,3.65,2.37l2.64,5.9,1.42-5.3c.47-1.75,2.05-2.97,3.86-2.97h9.25c.76,0,1.49.21,2.12.61.62-.39,1.35-.61,2.12-.61h23.14c.52,0,1.02.1,1.49.29.46-.19.97-.29,1.49-.29h12.72c5.72,0,10.35,2.21,13.41,6.38.08.11.16.22.23.33l1-3.74c.47-1.75,2.05-2.96,3.86-2.96h9.25c1.24,0,2.42.58,3.17,1.56.76.99,1.01,2.27.69,3.47l-5.58,20.82c-.28,1.06-.97,1.92-1.87,2.43.38,1.2.5,2.7.03,4.5-.6,2.15-1.81,3.95-3.63,5.39-1.86,1.47-3.92,2.22-6.11,2.22ZM248.2,99.31c.36-.18.73-.42,1.1-.71,1.04-.82,1.69-1.75,1.99-2.82.26-.99.02-1.32-.1-1.48-.12-.17-.29-.4-1.13-.4h-.4l-1.45,5.42ZM111.29,95.61l1.27-2.04c-.25.11-.52.19-.79.24l-.48,1.79ZM30.86,117.03c-1.24,0-2.42-.58-3.17-1.56-.76-.99-1.01-2.27-.69-3.47l8.68-32.39c.47-1.75,2.05-2.96,3.86-2.96h9.25c1.24,0,2.42.58,3.17,1.56.76.99,1.01,2.27.69,3.47l-8.68,32.39c-.47,1.75-2.05,2.96-3.86,2.96h-9.25ZM156.88,75.03c-1.24,0-2.42-.58-3.17-1.56-.09-.11-.17-.23-.24-.35-.13.22-.29.42-.46.61-.76.83-1.83,1.3-2.95,1.3h-9.25c-2.07,0-3.8-1.58-3.98-3.64l-.09-.99h-7.01l-1.72,2.75c-.73,1.17-2.01,1.88-3.39,1.88h-9.25c-1.45,0-2.79-.79-3.5-2.06-.02-.03-.03-.06-.05-.09-3.09,1.43-6.32,2.15-9.64,2.15h-12.73c-1.24,0-2.42-.58-3.17-1.56-.68-.89-.96-2.02-.77-3.11-4.37,3.1-9.06,4.67-13.96,4.67-5.72,0-10.35-2.21-13.41-6.38-1.75-2.39-2.75-5.05-3-7.96l-3.05,11.38c-.47,1.75-2.05,2.96-3.86,2.96h-9.25c-1.24,0-2.42-.58-3.17-1.57-.76-.99-1.01-2.27-.69-3.47l4.85-18.1h-2.88c-1.24,0-2.42-.58-3.17-1.56s-1.01-2.27-.69-3.47l2.48-9.25c.47-1.75,2.05-2.97,3.86-2.97h25.45c1.24,0,2.42.58,3.17,1.56.34.44.57.93.71,1.46,3.61-2.01,7.41-3.02,11.35-3.02,5.59,0,10.15,2.11,13.2,6.11l.84-3.14c.47-1.75,2.05-2.96,3.86-2.96h12.72c5.72,0,10.35,2.21,13.41,6.38,1.03,1.41,1.81,2.92,2.32,4.52l5.64-9.02c.73-1.17,2.01-1.88,3.39-1.88h11.57c1.44,0,2.71.76,3.41,1.91.03-.05.06-.09.09-.14.74-1.11,1.99-1.78,3.32-1.78h10.48c1.63,0,3.1.99,3.71,2.5l1.07,2.66,3.72-3.92c.76-.79,1.8-1.24,2.9-1.24h10.5c1.59,0,3.04.95,3.67,2.41.63,1.46.34,3.16-.75,4.33l-15.51,16.57-3.79,14.12c-.47,1.75-2.05,2.96-3.86,2.96h-9.25ZM153.74,67.3l3.05-11.4-5.19-12.57,2.14,23.97ZM77.73,51.89c-1,0-1.97.38-2.97,1.18-1.03.81-1.67,1.73-1.96,2.79-.28,1.03-.06,1.34.07,1.51.12.17.29.4,1.13.4,1,0,1.97-.38,2.97-1.17,1.04-.82,1.69-1.75,1.99-2.82.26-.99.02-1.32-.1-1.48-.12-.17-.29-.4-1.13-.4ZM106.51,57.31c.36-.18.73-.42,1.1-.71,1.04-.82,1.69-1.75,1.99-2.82.26-.99.02-1.32-.1-1.48-.12-.17-.29-.4-1.13-.4h-.4l-1.45,5.42Z"/>
    <path d="M265.99,116.03c-2.54,0-4.72-1.06-6.14-2.98-.54-.73-1.07-1.74-1.31-3.01-.16.13-.32.26-.49.39-4.71,3.72-9.83,5.6-15.2,5.6h-12.73c-.52,0-1.02-.1-1.49-.29-.46.19-.97.29-1.49.29h-23.14c-.76,0-1.49-.21-2.12-.61-.62.39-1.35.61-2.12.61h-9.25c-1.58,0-3.01-.93-3.65-2.37l-2.63-5.89-1.42,5.3c-.47,1.75-2.05,2.96-3.86,2.96h-9.25c-.07,0-.15,0-.22,0-.07,0-.15,0-.22,0h-11.57c-1.27,0-2.47-.61-3.23-1.64l-1.85-2.52-.32,1.19c-.47,1.75-2.05,2.97-3.86,2.97h-9.25c-.06,0-.12,0-.17,0-.06,0-.12,0-.17,0h-9.25c-2.07,0-3.8-1.58-3.98-3.64l-.09-.99h-7.01l-1.72,2.75c-.73,1.17-2.01,1.88-3.39,1.88h-32.71c-.38,0-.75-.05-1.11-.16-.35.1-.73.16-1.11.16h-18.51c-1.24,0-2.42-.58-3.17-1.56-.76-.99-1.01-2.27-.69-3.47l8.68-32.39c.47-1.75,2.05-2.96,3.86-2.96h9.25c1.24,0,2.42.58,3.17,1.57.76.99,1.01,2.27.69,3.47l-4.85,18.1h3.2l5.4-20.17c.47-1.75,2.05-2.96,3.86-2.96h23.14c1.24,0,2.42.58,3.17,1.56.76.99,1.01,2.27.69,3.47l-1.99,7.45,6.63-10.61c.73-1.17,2.01-1.88,3.39-1.88h11.57c2.07,0,3.8,1.58,3.98,3.64l.97,10.88,3.1-11.56c.47-1.75,2.05-2.96,3.86-2.96h16.2c4.58,0,8.04,1.19,10.3,3.55l.16-.58c.47-1.75,2.05-2.96,3.86-2.96h9.25c1.58,0,3.01.93,3.65,2.37l2.64,5.9,1.42-5.3c.47-1.75,2.05-2.97,3.86-2.97h9.25c.76,0,1.49.21,2.12.61.62-.39,1.35-.61,2.12-.61h23.14c.52,0,1.02.1,1.49.29.46-.19.97-.29,1.49-.29h12.72c5.72,0,10.35,2.21,13.41,6.38.08.11.16.22.23.33l1-3.74c.47-1.75,2.05-2.96,3.86-2.96h9.25c1.24,0,2.42.58,3.17,1.56.76.99,1.01,2.27.69,3.47l-5.58,20.82c-.28,1.06-.97,1.92-1.87,2.43.38,1.2.5,2.7.03,4.5-.6,2.15-1.81,3.95-3.63,5.39-1.86,1.47-3.92,2.22-6.11,2.22ZM247.2,98.31c.36-.18.73-.42,1.1-.71,1.04-.82,1.69-1.75,1.99-2.82.26-.99.02-1.32-.1-1.48-.12-.17-.29-.4-1.13-.4h-.4l-1.45,5.42ZM110.29,94.61l1.27-2.04c-.25.11-.52.19-.79.24l-.48,1.79ZM29.86,116.03c-1.24,0-2.42-.58-3.17-1.56-.76-.99-1.01-2.27-.69-3.47l8.68-32.39c.47-1.75,2.05-2.96,3.86-2.96h9.25c1.24,0,2.42.58,3.17,1.56.76.99,1.01,2.27.69,3.47l-8.68,32.39c-.47,1.75-2.05,2.96-3.86,2.96h-9.25ZM155.88,74.03c-1.24,0-2.42-.58-3.17-1.56-.09-.11-.17-.23-.24-.35-.13.22-.29.42-.46.61-.76.83-1.83,1.3-2.95,1.3h-9.25c-2.07,0-3.8-1.58-3.98-3.64l-.09-.99h-7.01l-1.72,2.75c-.73,1.17-2.01,1.88-3.39,1.88h-9.25c-1.45,0-2.79-.79-3.5-2.06-.02-.03-.03-.06-.05-.09-3.09,1.43-6.32,2.15-9.64,2.15h-12.73c-1.24,0-2.42-.58-3.17-1.56-.68-.89-.96-2.02-.77-3.11-4.37,3.1-9.06,4.67-13.96,4.67-5.72,0-10.35-2.21-13.41-6.38-1.75-2.39-2.75-5.05-3-7.96l-3.05,11.38c-.47,1.75-2.05,2.96-3.86,2.96h-9.25c-1.24,0-2.42-.58-3.17-1.57-.76-.99-1.01-2.27-.69-3.47l4.85-18.1h-2.88c-1.24,0-2.42-.58-3.17-1.56s-1.01-2.27-.69-3.47l2.48-9.25c.47-1.75,2.05-2.97,3.86-2.97h25.45c1.24,0,2.42.58,3.17,1.56.34.44.57.93.71,1.46,3.61-2.01,7.41-3.02,11.35-3.02,5.59,0,10.15,2.11,13.2,6.11l.84-3.14c.47-1.75,2.05-2.96,3.86-2.96h12.72c5.72,0,10.35,2.21,13.41,6.38,1.03,1.41,1.81,2.92,2.32,4.52l5.64-9.02c.73-1.17,2.01-1.88,3.39-1.88h11.57c1.44,0,2.71.76,3.41,1.91.03-.05.06-.09.09-.14.74-1.11,1.99-1.78,3.32-1.78h10.48c1.63,0,3.1.99,3.71,2.5l1.07,2.66,3.72-3.92c.76-.79,1.8-1.24,2.9-1.24h10.5c1.59,0,3.04.95,3.67,2.41.63,1.46.34,3.16-.75,4.33l-15.51,16.57-3.79,14.12c-.47,1.75-2.05,2.96-3.86,2.96h-9.25ZM152.74,66.3l3.05-11.4-5.19-12.57,2.14,23.97ZM76.73,50.89c-1,0-1.97.38-2.97,1.18-1.03.81-1.67,1.73-1.96,2.79-.28,1.03-.06,1.34.07,1.51.12.17.29.4,1.13.4,1,0,1.97-.38,2.97-1.17,1.04-.82,1.69-1.75,1.99-2.82.26-.99.02-1.32-.1-1.48-.12-.17-.29-.4-1.13-.4ZM105.51,56.31c.36-.18.73-.42,1.1-.71,1.04-.82,1.69-1.75,1.99-2.82.26-.99.02-1.32-.1-1.48-.12-.17-.29-.4-1.13-.4h-.4l-1.45,5.42Z"/>
    <path d="M264.99,115.03c-2.54,0-4.72-1.06-6.14-2.98-.54-.73-1.07-1.74-1.31-3.01-.16.13-.32.26-.49.39-4.71,3.72-9.83,5.6-15.2,5.6h-12.73c-.52,0-1.02-.1-1.49-.29-.46.19-.97.29-1.49.29h-23.14c-.76,0-1.49-.21-2.12-.61-.62.39-1.35.61-2.12.61h-9.25c-1.58,0-3.01-.93-3.65-2.37l-2.63-5.89-1.42,5.3c-.47,1.75-2.05,2.96-3.86,2.96h-9.25c-.07,0-.15,0-.22,0-.07,0-.15,0-.22,0h-11.57c-1.27,0-2.47-.61-3.23-1.64l-1.85-2.52-.32,1.19c-.47,1.75-2.05,2.97-3.86,2.97h-9.25c-.06,0-.12,0-.17,0-.06,0-.12,0-.17,0h-9.25c-2.07,0-3.8-1.58-3.98-3.64l-.09-.99h-7.01l-1.72,2.75c-.73,1.17-2.01,1.88-3.39,1.88h-32.71c-.38,0-.75-.05-1.11-.16-.35.1-.73.16-1.11.16h-18.51c-1.24,0-2.42-.58-3.17-1.56-.76-.99-1.01-2.27-.69-3.47l8.68-32.39c.47-1.75,2.05-2.96,3.86-2.96h9.25c1.24,0,2.42.58,3.17,1.57.76.99,1.01,2.27.69,3.47l-4.85,18.1h3.2l5.4-20.17c.47-1.75,2.05-2.96,3.86-2.96h23.14c1.24,0,2.42.58,3.17,1.56.76.99,1.01,2.27.69,3.47l-1.99,7.45,6.63-10.61c.73-1.17,2.01-1.88,3.39-1.88h11.57c2.07,0,3.8,1.58,3.98,3.64l.97,10.88,3.1-11.56c.47-1.75,2.05-2.96,3.86-2.96h16.2c4.58,0,8.04,1.19,10.3,3.55l.16-.58c.47-1.75,2.05-2.96,3.86-2.96h9.25c1.58,0,3.01.93,3.65,2.37l2.64,5.9,1.42-5.3c.47-1.75,2.05-2.97,3.86-2.97h9.25c.76,0,1.49.21,2.12.61.62-.39,1.35-.61,2.12-.61h23.14c.52,0,1.02.1,1.49.29.46-.19.97-.29,1.49-.29h12.72c5.72,0,10.35,2.21,13.41,6.38.08.11.16.22.23.33l1-3.74c.47-1.75,2.05-2.96,3.86-2.96h9.25c1.24,0,2.42.58,3.17,1.56.76.99,1.01,2.27.69,3.47l-5.58,20.82c-.28,1.06-.97,1.92-1.87,2.43.38,1.2.5,2.7.03,4.5-.6,2.15-1.81,3.95-3.63,5.39-1.86,1.47-3.92,2.22-6.11,2.22ZM246.2,97.31c.36-.18.73-.42,1.1-.71,1.04-.82,1.69-1.75,1.99-2.82.26-.99.02-1.32-.1-1.48-.12-.17-.29-.4-1.13-.4h-.4l-1.45,5.42ZM109.29,93.61l1.27-2.04c-.25.11-.52.19-.79.24l-.48,1.79ZM28.86,115.03c-1.24,0-2.42-.58-3.17-1.56-.76-.99-1.01-2.27-.69-3.47l8.68-32.39c.47-1.75,2.05-2.96,3.86-2.96h9.25c1.24,0,2.42.58,3.17,1.56.76.99,1.01,2.27.69,3.47l-8.68,32.39c-.47,1.75-2.05,2.96-3.86,2.96h-9.25ZM154.88,73.03c-1.24,0-2.42-.58-3.17-1.56-.09-.11-.17-.23-.24-.35-.13.22-.29.42-.46.61-.76.83-1.83,1.3-2.95,1.3h-9.25c-2.07,0-3.8-1.58-3.98-3.64l-.09-.99h-7.01l-1.72,2.75c-.73,1.17-2.01,1.88-3.39,1.88h-9.25c-1.45,0-2.79-.79-3.5-2.06-.02-.03-.03-.06-.05-.09-3.09,1.43-6.32,2.15-9.64,2.15h-12.73c-1.24,0-2.42-.58-3.17-1.56-.68-.89-.96-2.02-.77-3.11-4.37,3.1-9.06,4.67-13.96,4.67-5.72,0-10.35-2.21-13.41-6.38-1.75-2.39-2.75-5.05-3-7.96l-3.05,11.38c-.47,1.75-2.05,2.96-3.86,2.96h-9.25c-1.24,0-2.42-.58-3.17-1.57-.76-.99-1.01-2.27-.69-3.47l4.85-18.1h-2.88c-1.24,0-2.42-.58-3.17-1.56s-1.01-2.27-.69-3.47l2.48-9.25c.47-1.75,2.05-2.97,3.86-2.97h25.45c1.24,0,2.42.58,3.17,1.56.34.44.57.93.71,1.46,3.61-2.01,7.41-3.02,11.35-3.02,5.59,0,10.15,2.11,13.2,6.11l.84-3.14c.47-1.75,2.05-2.96,3.86-2.96h12.72c5.72,0,10.35,2.21,13.41,6.38,1.03,1.41,1.81,2.92,2.32,4.52l5.64-9.02c.73-1.17,2.01-1.88,3.39-1.88h11.57c1.44,0,2.71.76,3.41,1.91.03-.05.06-.09.09-.14.74-1.11,1.99-1.78,3.32-1.78h10.48c1.63,0,3.1.99,3.71,2.5l1.07,2.66,3.72-3.92c.76-.79,1.8-1.24,2.9-1.24h10.5c1.59,0,3.04.95,3.67,2.41.63,1.46.34,3.16-.75,4.33l-15.51,16.57-3.79,14.12c-.47,1.75-2.05,2.96-3.86,2.96h-9.25ZM151.74,65.3l3.05-11.4-5.19-12.57,2.14,23.97ZM75.73,49.89c-1,0-1.97.38-2.97,1.18-1.03.81-1.67,1.73-1.96,2.79-.28,1.03-.06,1.34.07,1.51.12.17.29.4,1.13.4,1,0,1.97-.38,2.97-1.17,1.04-.82,1.69-1.75,1.99-2.82.26-.99.02-1.32-.1-1.48-.12-.17-.29-.4-1.13-.4ZM104.51,55.31c.36-.18.73-.42,1.1-.71,1.04-.82,1.69-1.75,1.99-2.82.26-.99.02-1.32-.1-1.48-.12-.17-.29-.4-1.13-.4h-.4l-1.45,5.42Z"/>
    <path d="M263.99,114.03c-2.54,0-4.72-1.06-6.14-2.98-.54-.73-1.07-1.74-1.31-3.01-.16.13-.32.26-.49.39-4.71,3.72-9.83,5.6-15.2,5.6h-12.73c-.52,0-1.02-.1-1.49-.29-.46.19-.97.29-1.49.29h-23.14c-.76,0-1.49-.21-2.12-.61-.62.39-1.35.61-2.12.61h-9.25c-1.58,0-3.01-.93-3.65-2.37l-2.63-5.89-1.42,5.3c-.47,1.75-2.05,2.96-3.86,2.96h-9.25c-.07,0-.15,0-.22,0-.07,0-.15,0-.22,0h-11.57c-1.27,0-2.47-.61-3.23-1.64l-1.85-2.52-.32,1.19c-.47,1.75-2.05,2.97-3.86,2.97h-9.25c-.06,0-.12,0-.17,0-.06,0-.12,0-.17,0h-9.25c-2.07,0-3.8-1.58-3.98-3.64l-.09-.99h-7.01l-1.72,2.75c-.73,1.17-2.01,1.88-3.39,1.88h-32.71c-.38,0-.75-.05-1.11-.16-.35.1-.73.16-1.11.16h-18.51c-1.24,0-2.42-.58-3.17-1.56-.76-.99-1.01-2.27-.69-3.47l8.68-32.39c.47-1.75,2.05-2.96,3.86-2.96h9.25c1.24,0,2.42.58,3.17,1.57.76.99,1.01,2.27.69,3.47l-4.85,18.1h3.2l5.4-20.17c.47-1.75,2.05-2.96,3.86-2.96h23.14c1.24,0,2.42.58,3.17,1.56.76.99,1.01,2.27.69,3.47l-1.99,7.45,6.63-10.61c.73-1.17,2.01-1.88,3.39-1.88h11.57c2.07,0,3.8,1.58,3.98,3.64l.97,10.88,3.1-11.56c.47-1.75,2.05-2.96,3.86-2.96h16.2c4.58,0,8.04,1.19,10.3,3.55l.16-.58c.47-1.75,2.05-2.96,3.86-2.96h9.25c1.58,0,3.01.93,3.65,2.37l2.64,5.9,1.42-5.3c.47-1.75,2.05-2.97,3.86-2.97h9.25c.76,0,1.49.21,2.12.61.62-.39,1.35-.61,2.12-.61h23.14c.52,0,1.02.1,1.49.29.46-.19.97-.29,1.49-.29h12.72c5.72,0,10.35,2.21,13.41,6.38.08.11.16.22.23.33l1-3.74c.47-1.75,2.05-2.96,3.86-2.96h9.25c1.24,0,2.42.58,3.17,1.56.76.99,1.01,2.27.69,3.47l-5.58,20.82c-.28,1.06-.97,1.92-1.87,2.43.38,1.2.5,2.7.03,4.5-.6,2.15-1.81,3.95-3.63,5.39-1.86,1.47-3.92,2.22-6.11,2.22ZM245.2,96.31c.36-.18.73-.42,1.1-.71,1.04-.82,1.69-1.75,1.99-2.82.26-.99.02-1.32-.1-1.48-.12-.17-.29-.4-1.13-.4h-.4l-1.45,5.42ZM108.29,92.61l1.27-2.04c-.25.11-.52.19-.79.24l-.48,1.79ZM27.86,114.03c-1.24,0-2.42-.58-3.17-1.56-.76-.99-1.01-2.27-.69-3.47l8.68-32.39c.47-1.75,2.05-2.96,3.86-2.96h9.25c1.24,0,2.42.58,3.17,1.56.76.99,1.01,2.27.69,3.47l-8.68,32.39c-.47,1.75-2.05,2.96-3.86,2.96h-9.25ZM153.88,72.03c-1.24,0-2.42-.58-3.17-1.56-.09-.11-.17-.23-.24-.35-.13.22-.29.42-.46.61-.76.83-1.83,1.3-2.95,1.3h-9.25c-2.07,0-3.8-1.58-3.98-3.64l-.09-.99h-7.01l-1.72,2.75c-.73,1.17-2.01,1.88-3.39,1.88h-9.25c-1.45,0-2.79-.79-3.5-2.06-.02-.03-.03-.06-.05-.09-3.09,1.43-6.32,2.15-9.64,2.15h-12.73c-1.24,0-2.42-.58-3.17-1.56-.68-.89-.96-2.02-.77-3.11-4.37,3.1-9.06,4.67-13.96,4.67-5.72,0-10.35-2.21-13.41-6.38-1.75-2.39-2.75-5.05-3-7.96l-3.05,11.38c-.47,1.75-2.05,2.96-3.86,2.96h-9.25c-1.24,0-2.42-.58-3.17-1.57-.76-.99-1.01-2.27-.69-3.47l4.85-18.1h-2.88c-1.24,0-2.42-.58-3.17-1.56s-1.01-2.27-.69-3.47l2.48-9.25c.47-1.75,2.05-2.97,3.86-2.97h25.45c1.24,0,2.42.58,3.17,1.56.34.44.57.93.71,1.46,3.61-2.01,7.41-3.02,11.35-3.02,5.59,0,10.15,2.11,13.2,6.11l.84-3.14c.47-1.75,2.05-2.96,3.86-2.96h12.72c5.72,0,10.35,2.21,13.41,6.38,1.03,1.41,1.81,2.92,2.32,4.52l5.64-9.02c.73-1.17,2.01-1.88,3.39-1.88h11.57c1.44,0,2.71.76,3.41,1.91.03-.05.06-.09.09-.14.74-1.11,1.99-1.78,3.32-1.78h10.48c1.63,0,3.1.99,3.71,2.5l1.07,2.66,3.72-3.92c.76-.79,1.8-1.24,2.9-1.24h10.5c1.59,0,3.04.95,3.67,2.41.63,1.46.34,3.16-.75,4.33l-15.51,16.57-3.79,14.12c-.47,1.75-2.05,2.96-3.86,2.96h-9.25ZM150.74,64.3l3.05-11.4-5.19-12.57,2.14,23.97ZM74.73,48.89c-1,0-1.97.38-2.97,1.18-1.03.81-1.67,1.73-1.96,2.79-.28,1.03-.06,1.34.07,1.51.12.17.29.4,1.13.4,1,0,1.97-.38,2.97-1.17,1.04-.82,1.69-1.75,1.99-2.82.26-.99.02-1.32-.1-1.48-.12-.17-.29-.4-1.13-.4ZM103.51,54.31c.36-.18.73-.42,1.1-.71,1.04-.82,1.69-1.75,1.99-2.82.26-.99.02-1.32-.1-1.48-.12-.17-.29-.4-1.13-.4h-.4l-1.45,5.42Z"/>
    <path d="M262.99,113.03c-2.54,0-4.72-1.06-6.14-2.98-.54-.73-1.07-1.74-1.31-3.01-.16.13-.32.26-.49.39-4.71,3.72-9.83,5.6-15.2,5.6h-12.73c-.52,0-1.02-.1-1.49-.29-.46.19-.97.29-1.49.29h-23.14c-.76,0-1.49-.21-2.12-.61-.62.39-1.35.61-2.12.61h-9.25c-1.58,0-3.01-.93-3.65-2.37l-2.63-5.89-1.42,5.3c-.47,1.75-2.05,2.96-3.86,2.96h-9.25c-.07,0-.15,0-.22,0-.07,0-.15,0-.22,0h-11.57c-1.27,0-2.47-.61-3.23-1.64l-1.85-2.52-.32,1.19c-.47,1.75-2.05,2.97-3.86,2.97h-9.25c-.06,0-.12,0-.17,0-.06,0-.12,0-.17,0h-9.25c-2.07,0-3.8-1.58-3.98-3.64l-.09-.99h-7.01l-1.72,2.75c-.73,1.17-2.01,1.88-3.39,1.88h-32.71c-.38,0-.75-.05-1.11-.16-.35.1-.73.16-1.11.16h-18.51c-1.24,0-2.42-.58-3.17-1.56-.76-.99-1.01-2.27-.69-3.47l8.68-32.39c.47-1.75,2.05-2.96,3.86-2.96h9.25c1.24,0,2.42.58,3.17,1.57.76.99,1.01,2.27.69,3.47l-4.85,18.1h3.2l5.4-20.17c.47-1.75,2.05-2.96,3.86-2.96h23.14c1.24,0,2.42.58,3.17,1.56.76.99,1.01,2.27.69,3.47l-1.99,7.45,6.63-10.61c.73-1.17,2.01-1.88,3.39-1.88h11.57c2.07,0,3.8,1.58,3.98,3.64l.97,10.88,3.1-11.56c.47-1.75,2.05-2.96,3.86-2.96h16.2c4.58,0,8.04,1.19,10.3,3.55l.16-.58c.47-1.75,2.05-2.96,3.86-2.96h9.25c1.58,0,3.01.93,3.65,2.37l2.64,5.9,1.42-5.3c.47-1.75,2.05-2.97,3.86-2.97h9.25c.76,0,1.49.21,2.12.61.62-.39,1.35-.61,2.12-.61h23.14c.52,0,1.02.1,1.49.29.46-.19.97-.29,1.49-.29h12.72c5.72,0,10.35,2.21,13.41,6.38.08.11.16.22.23.33l1-3.74c.47-1.75,2.05-2.96,3.86-2.96h9.25c1.24,0,2.42.58,3.17,1.56.76.99,1.01,2.27.69,3.47l-5.58,20.82c-.28,1.06-.97,1.92-1.87,2.43.38,1.2.5,2.7.03,4.5-.6,2.15-1.81,3.95-3.63,5.39-1.86,1.47-3.92,2.22-6.11,2.22ZM244.2,95.31c.36-.18.73-.42,1.1-.71,1.04-.82,1.69-1.75,1.99-2.82.26-.99.02-1.32-.1-1.48-.12-.17-.29-.4-1.13-.4h-.4l-1.45,5.42ZM107.29,91.61l1.27-2.04c-.25.11-.52.19-.79.24l-.48,1.79ZM26.86,113.03c-1.24,0-2.42-.58-3.17-1.56-.76-.99-1.01-2.27-.69-3.47l8.68-32.39c.47-1.75,2.05-2.96,3.86-2.96h9.25c1.24,0,2.42.58,3.17,1.56.76.99,1.01,2.27.69,3.47l-8.68,32.39c-.47,1.75-2.05,2.96-3.86,2.96h-9.25ZM152.88,71.03c-1.24,0-2.42-.58-3.17-1.56-.09-.11-.17-.23-.24-.35-.13.22-.29.42-.46.61-.76.83-1.83,1.3-2.95,1.3h-9.25c-2.07,0-3.8-1.58-3.98-3.64l-.09-.99h-7.01l-1.72,2.75c-.73,1.17-2.01,1.88-3.39,1.88h-9.25c-1.45,0-2.79-.79-3.5-2.06-.02-.03-.03-.06-.05-.09-3.09,1.43-6.32,2.15-9.64,2.15h-12.73c-1.24,0-2.42-.58-3.17-1.56-.68-.89-.96-2.02-.77-3.11-4.37,3.1-9.06,4.67-13.96,4.67-5.72,0-10.35-2.21-13.41-6.38-1.75-2.39-2.75-5.05-3-7.96l-3.05,11.38c-.47,1.75-2.05,2.96-3.86,2.96h-9.25c-1.24,0-2.42-.58-3.17-1.57-.76-.99-1.01-2.27-.69-3.47l4.85-18.1h-2.88c-1.24,0-2.42-.58-3.17-1.56s-1.01-2.27-.69-3.47l2.48-9.25c.47-1.75,2.05-2.97,3.86-2.97h25.45c1.24,0,2.42.58,3.17,1.56.34.44.57.93.71,1.46,3.61-2.01,7.41-3.02,11.35-3.02,5.59,0,10.15,2.11,13.2,6.11l.84-3.14c.47-1.75,2.05-2.96,3.86-2.96h12.72c5.72,0,10.35,2.21,13.41,6.38,1.03,1.41,1.81,2.92,2.32,4.52l5.64-9.02c.73-1.17,2.01-1.88,3.39-1.88h11.57c1.44,0,2.71.76,3.41,1.91.03-.05.06-.09.09-.14.74-1.11,1.99-1.78,3.32-1.78h10.48c1.63,0,3.1.99,3.71,2.5l1.07,2.66,3.72-3.92c.76-.79,1.8-1.24,2.9-1.24h10.5c1.59,0,3.04.95,3.67,2.41.63,1.46.34,3.16-.75,4.33l-15.51,16.57-3.79,14.12c-.47,1.75-2.05,2.96-3.86,2.96h-9.25ZM149.74,63.3l3.05-11.4-5.19-12.57,2.14,23.97ZM73.73,47.89c-1,0-1.97.38-2.97,1.18-1.03.81-1.67,1.73-1.96,2.79-.28,1.03-.06,1.34.07,1.51.12.17.29.4,1.13.4,1,0,1.97-.38,2.97-1.17,1.04-.82,1.69-1.75,1.99-2.82.26-.99.02-1.32-.1-1.48-.12-.17-.29-.4-1.13-.4ZM102.51,53.31c.36-.18.73-.42,1.1-.71,1.04-.82,1.69-1.75,1.99-2.82.26-.99.02-1.32-.1-1.48-.12-.17-.29-.4-1.13-.4h-.4l-1.45,5.42Z"/>
    <path d="M261.99,112.03c-2.54,0-4.72-1.06-6.14-2.98-.54-.73-1.07-1.74-1.31-3.01-.16.13-.32.26-.49.39-4.71,3.72-9.83,5.6-15.2,5.6h-12.73c-.52,0-1.02-.1-1.49-.29-.46.19-.97.29-1.49.29h-23.14c-.76,0-1.49-.21-2.12-.61-.62.39-1.35.61-2.12.61h-9.25c-1.58,0-3.01-.93-3.65-2.37l-2.63-5.89-1.42,5.3c-.47,1.75-2.05,2.96-3.86,2.96h-9.25c-.07,0-.15,0-.22,0-.07,0-.15,0-.22,0h-11.57c-1.27,0-2.47-.61-3.23-1.64l-1.85-2.52-.32,1.19c-.47,1.75-2.05,2.97-3.86,2.97h-9.25c-.06,0-.12,0-.17,0-.06,0-.12,0-.17,0h-9.25c-2.07,0-3.8-1.58-3.98-3.64l-.09-.99h-7.01l-1.72,2.75c-.73,1.17-2.01,1.88-3.39,1.88h-32.71c-.38,0-.75-.05-1.11-.16-.35.1-.73.16-1.11.16h-18.51c-1.24,0-2.42-.58-3.17-1.56-.76-.99-1.01-2.27-.69-3.47l8.68-32.39c.47-1.75,2.05-2.96,3.86-2.96h9.25c1.24,0,2.42.58,3.17,1.57.76.99,1.01,2.27.69,3.47l-4.85,18.1h3.2l5.4-20.17c.47-1.75,2.05-2.96,3.86-2.96h23.14c1.24,0,2.42.58,3.17,1.56.76.99,1.01,2.27.69,3.47l-1.99,7.45,6.63-10.61c.73-1.17,2.01-1.88,3.39-1.88h11.57c2.07,0,3.8,1.58,3.98,3.64l.97,10.88,3.1-11.56c.47-1.75,2.05-2.96,3.86-2.96h16.2c4.58,0,8.04,1.19,10.3,3.55l.16-.58c.47-1.75,2.05-2.96,3.86-2.96h9.25c1.58,0,3.01.93,3.65,2.37l2.64,5.9,1.42-5.3c.47-1.75,2.05-2.97,3.86-2.97h9.25c.76,0,1.49.21,2.12.61.62-.39,1.35-.61,2.12-.61h23.14c.52,0,1.02.1,1.49.29.46-.19.97-.29,1.49-.29h12.72c5.72,0,10.35,2.21,13.41,6.38.08.11.16.22.23.33l1-3.74c.47-1.75,2.05-2.96,3.86-2.96h9.25c1.24,0,2.42.58,3.17,1.56.76.99,1.01,2.27.69,3.47l-5.58,20.82c-.28,1.06-.97,1.92-1.87,2.43.38,1.2.5,2.7.03,4.5-.6,2.15-1.81,3.95-3.63,5.39-1.86,1.47-3.92,2.22-6.11,2.22ZM243.2,94.31c.36-.18.73-.42,1.1-.71,1.04-.82,1.69-1.75,1.99-2.82.26-.99.02-1.32-.1-1.48-.12-.17-.29-.4-1.13-.4h-.4l-1.45,5.42ZM106.29,90.61l1.27-2.04c-.25.11-.52.19-.79.24l-.48,1.79ZM25.86,112.03c-1.24,0-2.42-.58-3.17-1.56-.76-.99-1.01-2.27-.69-3.47l8.68-32.39c.47-1.75,2.05-2.96,3.86-2.96h9.25c1.24,0,2.42.58,3.17,1.56.76.99,1.01,2.27.69,3.47l-8.68,32.39c-.47,1.75-2.05,2.96-3.86,2.96h-9.25ZM151.88,70.03c-1.24,0-2.42-.58-3.17-1.56-.09-.11-.17-.23-.24-.35-.13.22-.29.42-.46.61-.76.83-1.83,1.3-2.95,1.3h-9.25c-2.07,0-3.8-1.58-3.98-3.64l-.09-.99h-7.01l-1.72,2.75c-.73,1.17-2.01,1.88-3.39,1.88h-9.25c-1.45,0-2.79-.79-3.5-2.06-.02-.03-.03-.06-.05-.09-3.09,1.43-6.32,2.15-9.64,2.15h-12.73c-1.24,0-2.42-.58-3.17-1.56-.68-.89-.96-2.02-.77-3.11-4.37,3.1-9.06,4.67-13.96,4.67-5.72,0-10.35-2.21-13.41-6.38-1.75-2.39-2.75-5.05-3-7.96l-3.05,11.38c-.47,1.75-2.05,2.96-3.86,2.96h-9.25c-1.24,0-2.42-.58-3.17-1.57-.76-.99-1.01-2.27-.69-3.47l4.85-18.1h-2.88c-1.24,0-2.42-.58-3.17-1.56s-1.01-2.27-.69-3.47l2.48-9.25c.47-1.75,2.05-2.97,3.86-2.97h25.45c1.24,0,2.42.58,3.17,1.56.34.44.57.93.71,1.46,3.61-2.01,7.41-3.02,11.35-3.02,5.59,0,10.15,2.11,13.2,6.11l.84-3.14c.47-1.75,2.05-2.96,3.86-2.96h12.72c5.72,0,10.35,2.21,13.41,6.38,1.03,1.41,1.81,2.92,2.32,4.52l5.64-9.02c.73-1.17,2.01-1.88,3.39-1.88h11.57c1.44,0,2.71.76,3.41,1.91.03-.05.06-.09.09-.14.74-1.11,1.99-1.78,3.32-1.78h10.48c1.63,0,3.1.99,3.71,2.5l1.07,2.66,3.72-3.92c.76-.79,1.8-1.24,2.9-1.24h10.5c1.59,0,3.04.95,3.67,2.41.63,1.46.34,3.16-.75,4.33l-15.51,16.57-3.79,14.12c-.47,1.75-2.05,2.96-3.86,2.96h-9.25ZM148.74,62.3l3.05-11.4-5.19-12.57,2.14,23.97ZM72.73,46.89c-1,0-1.97.38-2.97,1.18-1.03.81-1.67,1.73-1.96,2.79-.28,1.03-.06,1.34.07,1.51.12.17.29.4,1.13.4,1,0,1.97-.38,2.97-1.17,1.04-.82,1.69-1.75,1.99-2.82.26-.99.02-1.32-.1-1.48-.12-.17-.29-.4-1.13-.4ZM101.51,52.31c.36-.18.73-.42,1.1-.71,1.04-.82,1.69-1.75,1.99-2.82.26-.99.02-1.32-.1-1.48-.12-.17-.29-.4-1.13-.4h-.4l-1.45,5.42Z"/>
    <path d="M260.99,111.03c-2.54,0-4.72-1.06-6.14-2.98-.54-.73-1.07-1.74-1.31-3.01-.16.13-.32.26-.49.39-4.71,3.72-9.83,5.6-15.2,5.6h-12.73c-.52,0-1.02-.1-1.49-.29-.46.19-.97.29-1.49.29h-23.14c-.76,0-1.49-.21-2.12-.61-.62.39-1.35.61-2.12.61h-9.25c-1.58,0-3.01-.93-3.65-2.37l-2.63-5.89-1.42,5.3c-.47,1.75-2.05,2.96-3.86,2.96h-9.25c-.07,0-.15,0-.22,0-.07,0-.15,0-.22,0h-11.57c-1.27,0-2.47-.61-3.23-1.64l-1.85-2.52-.32,1.19c-.47,1.75-2.05,2.97-3.86,2.97h-9.25c-.06,0-.12,0-.17,0-.06,0-.12,0-.17,0h-9.25c-2.07,0-3.8-1.58-3.98-3.64l-.09-.99h-7.01l-1.72,2.75c-.73,1.17-2.01,1.88-3.39,1.88h-32.71c-.38,0-.75-.05-1.11-.16-.35.1-.73.16-1.11.16h-18.51c-1.24,0-2.42-.58-3.17-1.56-.76-.99-1.01-2.27-.69-3.47l8.68-32.39c.47-1.75,2.05-2.96,3.86-2.96h9.25c1.24,0,2.42.58,3.17,1.57.76.99,1.01,2.27.69,3.47l-4.85,18.1h3.2l5.4-20.17c.47-1.75,2.05-2.96,3.86-2.96h23.14c1.24,0,2.42.58,3.17,1.56.76.99,1.01,2.27.69,3.47l-1.99,7.45,6.63-10.61c.73-1.17,2.01-1.88,3.39-1.88h11.57c2.07,0,3.8,1.58,3.98,3.64l.97,10.88,3.1-11.56c.47-1.75,2.05-2.96,3.86-2.96h16.2c4.58,0,8.04,1.19,10.3,3.55l.16-.58c.47-1.75,2.05-2.96,3.86-2.96h9.25c1.58,0,3.01.93,3.65,2.37l2.64,5.9,1.42-5.3c.47-1.75,2.05-2.97,3.86-2.97h9.25c.76,0,1.49.21,2.12.61.62-.39,1.35-.61,2.12-.61h23.14c.52,0,1.02.1,1.49.29.46-.19.97-.29,1.49-.29h12.72c5.72,0,10.35,2.21,13.41,6.38.08.11.16.22.23.33l1-3.74c.47-1.75,2.05-2.96,3.86-2.96h9.25c1.24,0,2.42.58,3.17,1.56.76.99,1.01,2.27.69,3.47l-5.58,20.82c-.28,1.06-.97,1.92-1.87,2.43.38,1.2.5,2.7.03,4.5-.6,2.15-1.81,3.95-3.63,5.39-1.86,1.47-3.92,2.22-6.11,2.22ZM242.2,93.31c.36-.18.73-.42,1.1-.71,1.04-.82,1.69-1.75,1.99-2.82.26-.99.02-1.32-.1-1.48-.12-.17-.29-.4-1.13-.4h-.4l-1.45,5.42ZM105.29,89.61l1.27-2.04c-.25.11-.52.19-.79.24l-.48,1.79ZM24.86,111.03c-1.24,0-2.42-.58-3.17-1.56-.76-.99-1.01-2.27-.69-3.47l8.68-32.39c.47-1.75,2.05-2.96,3.86-2.96h9.25c1.24,0,2.42.58,3.17,1.56.76.99,1.01,2.27.69,3.47l-8.68,32.39c-.47,1.75-2.05,2.96-3.86,2.96h-9.25ZM150.88,69.03c-1.24,0-2.42-.58-3.17-1.56-.09-.11-.17-.23-.24-.35-.13.22-.29.42-.46.61-.76.83-1.83,1.3-2.95,1.3h-9.25c-2.07,0-3.8-1.58-3.98-3.64l-.09-.99h-7.01l-1.72,2.75c-.73,1.17-2.01,1.88-3.39,1.88h-9.25c-1.45,0-2.79-.79-3.5-2.06-.02-.03-.03-.06-.05-.09-3.09,1.43-6.32,2.15-9.64,2.15h-12.73c-1.24,0-2.42-.58-3.17-1.56-.68-.89-.96-2.02-.77-3.11-4.37,3.1-9.06,4.67-13.96,4.67-5.72,0-10.35-2.21-13.41-6.38-1.75-2.39-2.75-5.05-3-7.96l-3.05,11.38c-.47,1.75-2.05,2.96-3.86,2.96h-9.25c-1.24,0-2.42-.58-3.17-1.57-.76-.99-1.01-2.27-.69-3.47l4.85-18.1h-2.88c-1.24,0-2.42-.58-3.17-1.56s-1.01-2.27-.69-3.47l2.48-9.25c.47-1.75,2.05-2.97,3.86-2.97h25.45c1.24,0,2.42.58,3.17,1.56.34.44.57.93.71,1.46,3.61-2.01,7.41-3.02,11.35-3.02,5.59,0,10.15,2.11,13.2,6.11l.84-3.14c.47-1.75,2.05-2.96,3.86-2.96h12.72c5.72,0,10.35,2.21,13.41,6.38,1.03,1.41,1.81,2.92,2.32,4.52l5.64-9.02c.73-1.17,2.01-1.88,3.39-1.88h11.57c1.44,0,2.71.76,3.41,1.91.03-.05.06-.09.09-.14.74-1.11,1.99-1.78,3.32-1.78h10.48c1.63,0,3.1.99,3.71,2.5l1.07,2.66,3.72-3.92c.76-.79,1.8-1.24,2.9-1.24h10.5c1.59,0,3.04.95,3.67,2.41.63,1.46.34,3.16-.75,4.33l-15.51,16.57-3.79,14.12c-.47,1.75-2.05,2.96-3.86,2.96h-9.25ZM147.74,61.3l3.05-11.4-5.19-12.57,2.14,23.97ZM71.73,45.89c-1,0-1.97.38-2.97,1.18-1.03.81-1.67,1.73-1.96,2.79-.28,1.03-.06,1.34.07,1.51.12.17.29.4,1.13.4,1,0,1.97-.38,2.97-1.17,1.04-.82,1.69-1.75,1.99-2.82.26-.99.02-1.32-.1-1.48-.12-.17-.29-.4-1.13-.4ZM100.51,51.31c.36-.18.73-.42,1.1-.71,1.04-.82,1.69-1.75,1.99-2.82.26-.99.02-1.32-.1-1.48-.12-.17-.29-.4-1.13-.4h-.4l-1.45,5.42Z"/>
    <path d="M259.99,110.03c-2.54,0-4.72-1.06-6.14-2.98-.54-.73-1.07-1.74-1.31-3.01-.16.13-.32.26-.49.39-4.71,3.72-9.83,5.6-15.2,5.6h-12.73c-.52,0-1.02-.1-1.49-.29-.46.19-.97.29-1.49.29h-23.14c-.76,0-1.49-.21-2.12-.61-.62.39-1.35.61-2.12.61h-9.25c-1.58,0-3.01-.93-3.65-2.37l-2.63-5.89-1.42,5.3c-.47,1.75-2.05,2.96-3.86,2.96h-9.25c-.07,0-.15,0-.22,0-.07,0-.15,0-.22,0h-11.57c-1.27,0-2.47-.61-3.23-1.64l-1.85-2.52-.32,1.19c-.47,1.75-2.05,2.97-3.86,2.97h-9.25c-.06,0-.12,0-.17,0-.06,0-.12,0-.17,0h-9.25c-2.07,0-3.8-1.58-3.98-3.64l-.09-.99h-7.01l-1.72,2.75c-.73,1.17-2.01,1.88-3.39,1.88h-32.71c-.38,0-.75-.05-1.11-.16-.35.1-.73.16-1.11.16h-18.51c-1.24,0-2.42-.58-3.17-1.56-.76-.99-1.01-2.27-.69-3.47l8.68-32.39c.47-1.75,2.05-2.96,3.86-2.96h9.25c1.24,0,2.42.58,3.17,1.57.76.99,1.01,2.27.69,3.47l-4.85,18.1h3.2l5.4-20.17c.47-1.75,2.05-2.96,3.86-2.96h23.14c1.24,0,2.42.58,3.17,1.56.76.99,1.01,2.27.69,3.47l-1.99,7.45,6.63-10.61c.73-1.17,2.01-1.88,3.39-1.88h11.57c2.07,0,3.8,1.58,3.98,3.64l.97,10.88,3.1-11.56c.47-1.75,2.05-2.96,3.86-2.96h16.2c4.58,0,8.04,1.19,10.3,3.55l.16-.58c.47-1.75,2.05-2.96,3.86-2.96h9.25c1.58,0,3.01.93,3.65,2.37l2.64,5.9,1.42-5.3c.47-1.75,2.05-2.97,3.86-2.97h9.25c.76,0,1.49.21,2.12.61.62-.39,1.35-.61,2.12-.61h23.14c.52,0,1.02.1,1.49.29.46-.19.97-.29,1.49-.29h12.72c5.72,0,10.35,2.21,13.41,6.38.08.11.16.22.23.33l1-3.74c.47-1.75,2.05-2.96,3.86-2.96h9.25c1.24,0,2.42.58,3.17,1.56.76.99,1.01,2.27.69,3.47l-5.58,20.82c-.28,1.06-.97,1.92-1.87,2.43.38,1.2.5,2.7.03,4.5-.6,2.15-1.81,3.95-3.63,5.39-1.86,1.47-3.92,2.22-6.11,2.22ZM241.2,92.31c.36-.18.73-.42,1.1-.71,1.04-.82,1.69-1.75,1.99-2.82.26-.99.02-1.32-.1-1.48-.12-.17-.29-.4-1.13-.4h-.4l-1.45,5.42ZM104.29,88.61l1.27-2.04c-.25.11-.52.19-.79.24l-.48,1.79ZM23.86,110.03c-1.24,0-2.42-.58-3.17-1.56-.76-.99-1.01-2.27-.69-3.47l8.68-32.39c.47-1.75,2.05-2.96,3.86-2.96h9.25c1.24,0,2.42.58,3.17,1.56.76.99,1.01,2.27.69,3.47l-8.68,32.39c-.47,1.75-2.05,2.96-3.86,2.96h-9.25ZM149.88,68.03c-1.24,0-2.42-.58-3.17-1.56-.09-.11-.17-.23-.24-.35-.13.22-.29.42-.46.61-.76.83-1.83,1.3-2.95,1.3h-9.25c-2.07,0-3.8-1.58-3.98-3.64l-.09-.99h-7.01l-1.72,2.75c-.73,1.17-2.01,1.88-3.39,1.88h-9.25c-1.45,0-2.79-.79-3.5-2.06-.02-.03-.03-.06-.05-.09-3.09,1.43-6.32,2.15-9.64,2.15h-12.73c-1.24,0-2.42-.58-3.17-1.56-.68-.89-.96-2.02-.77-3.11-4.37,3.1-9.06,4.67-13.96,4.67-5.72,0-10.35-2.21-13.41-6.38-1.75-2.39-2.75-5.05-3-7.96l-3.05,11.38c-.47,1.75-2.05,2.96-3.86,2.96h-9.25c-1.24,0-2.42-.58-3.17-1.57-.76-.99-1.01-2.27-.69-3.47l4.85-18.1h-2.88c-1.24,0-2.42-.58-3.17-1.56s-1.01-2.27-.69-3.47l2.48-9.25c.47-1.75,2.05-2.97,3.86-2.97h25.45c1.24,0,2.42.58,3.17,1.56.34.44.57.93.71,1.46,3.61-2.01,7.41-3.02,11.35-3.02,5.59,0,10.15,2.11,13.2,6.11l.84-3.14c.47-1.75,2.05-2.96,3.86-2.96h12.72c5.72,0,10.35,2.21,13.41,6.38,1.03,1.41,1.81,2.92,2.32,4.52l5.64-9.02c.73-1.17,2.01-1.88,3.39-1.88h11.57c1.44,0,2.71.76,3.41,1.91.03-.05.06-.09.09-.14.74-1.11,1.99-1.78,3.32-1.78h10.48c1.63,0,3.1.99,3.71,2.5l1.07,2.66,3.72-3.92c.76-.79,1.8-1.24,2.9-1.24h10.5c1.59,0,3.04.95,3.67,2.41.63,1.46.34,3.16-.75,4.33l-15.51,16.57-3.79,14.12c-.47,1.75-2.05,2.96-3.86,2.96h-9.25ZM146.74,60.3l3.05-11.4-5.19-12.57,2.14,23.97ZM70.73,44.89c-1,0-1.97.38-2.97,1.18-1.03.81-1.67,1.73-1.96,2.79-.28,1.03-.06,1.34.07,1.51.12.17.29.4,1.13.4,1,0,1.97-.38,2.97-1.17,1.04-.82,1.69-1.75,1.99-2.82.26-.99.02-1.32-.1-1.48-.12-.17-.29-.4-1.13-.4ZM99.51,50.31c.36-.18.73-.42,1.1-.71,1.04-.82,1.69-1.75,1.99-2.82.26-.99.02-1.32-.1-1.48-.12-.17-.29-.4-1.13-.4h-.4l-1.45,5.42Z"/>
    <path d="M258.99,109.03c-2.54,0-4.72-1.06-6.14-2.98-.54-.73-1.07-1.74-1.31-3.01-.16.13-.32.26-.49.39-4.71,3.72-9.83,5.6-15.2,5.6h-12.73c-.52,0-1.02-.1-1.49-.29-.46.19-.97.29-1.49.29h-23.14c-.76,0-1.49-.21-2.12-.61-.62.39-1.35.61-2.12.61h-9.25c-1.58,0-3.01-.93-3.65-2.37l-2.63-5.89-1.42,5.3c-.47,1.75-2.05,2.96-3.86,2.96h-9.25c-.07,0-.15,0-.22,0-.07,0-.15,0-.22,0h-11.57c-1.27,0-2.47-.61-3.23-1.64l-1.85-2.52-.32,1.19c-.47,1.75-2.05,2.97-3.86,2.97h-9.25c-.06,0-.12,0-.17,0-.06,0-.12,0-.17,0h-9.25c-2.07,0-3.8-1.58-3.98-3.64l-.09-.99h-7.01l-1.72,2.75c-.73,1.17-2.01,1.88-3.39,1.88h-32.71c-.38,0-.75-.05-1.11-.16-.35.1-.73.16-1.11.16h-18.51c-1.24,0-2.42-.58-3.17-1.56-.76-.99-1.01-2.27-.69-3.47l8.68-32.39c.47-1.75,2.05-2.96,3.86-2.96h9.25c1.24,0,2.42.58,3.17,1.57.76.99,1.01,2.27.69,3.47l-4.85,18.1h3.2l5.4-20.17c.47-1.75,2.05-2.96,3.86-2.96h23.14c1.24,0,2.42.58,3.17,1.56.76.99,1.01,2.27.69,3.47l-1.99,7.45,6.63-10.61c.73-1.17,2.01-1.88,3.39-1.88h11.57c2.07,0,3.8,1.58,3.98,3.64l.97,10.88,3.1-11.56c.47-1.75,2.05-2.96,3.86-2.96h16.2c4.58,0,8.04,1.19,10.3,3.55l.16-.58c.47-1.75,2.05-2.96,3.86-2.96h9.25c1.58,0,3.01.93,3.65,2.37l2.64,5.9,1.42-5.3c.47-1.75,2.05-2.97,3.86-2.97h9.25c.76,0,1.49.21,2.12.61.62-.39,1.35-.61,2.12-.61h23.14c.52,0,1.02.1,1.49.29.46-.19.97-.29,1.49-.29h12.72c5.72,0,10.35,2.21,13.41,6.38.08.11.16.22.23.33l1-3.74c.47-1.75,2.05-2.96,3.86-2.96h9.25c1.24,0,2.42.58,3.17,1.56.76.99,1.01,2.27.69,3.47l-5.58,20.82c-.28,1.06-.97,1.92-1.87,2.43.38,1.2.5,2.7.03,4.5-.6,2.15-1.81,3.95-3.63,5.39-1.86,1.47-3.92,2.22-6.11,2.22ZM240.2,91.31c.36-.18.73-.42,1.1-.71,1.04-.82,1.69-1.75,1.99-2.82.26-.99.02-1.32-.1-1.48-.12-.17-.29-.4-1.13-.4h-.4l-1.45,5.42ZM103.29,87.61l1.27-2.04c-.25.11-.52.19-.79.24l-.48,1.79ZM22.86,109.03c-1.24,0-2.42-.58-3.17-1.56-.76-.99-1.01-2.27-.69-3.47l8.68-32.39c.47-1.75,2.05-2.96,3.86-2.96h9.25c1.24,0,2.42.58,3.17,1.56.76.99,1.01,2.27.69,3.47l-8.68,32.39c-.47,1.75-2.05,2.96-3.86,2.96h-9.25ZM148.88,67.03c-1.24,0-2.42-.58-3.17-1.56-.09-.11-.17-.23-.24-.35-.13.22-.29.42-.46.61-.76.83-1.83,1.3-2.95,1.3h-9.25c-2.07,0-3.8-1.58-3.98-3.64l-.09-.99h-7.01l-1.72,2.75c-.73,1.17-2.01,1.88-3.39,1.88h-9.25c-1.45,0-2.79-.79-3.5-2.06-.02-.03-.03-.06-.05-.09-3.09,1.43-6.32,2.15-9.64,2.15h-12.73c-1.24,0-2.42-.58-3.17-1.56-.68-.89-.96-2.02-.77-3.11-4.37,3.1-9.06,4.67-13.96,4.67-5.72,0-10.35-2.21-13.41-6.38-1.75-2.39-2.75-5.05-3-7.96l-3.05,11.38c-.47,1.75-2.05,2.96-3.86,2.96h-9.25c-1.24,0-2.42-.58-3.17-1.57-.76-.99-1.01-2.27-.69-3.47l4.85-18.1h-2.88c-1.24,0-2.42-.58-3.17-1.56s-1.01-2.27-.69-3.47l2.48-9.25c.47-1.75,2.05-2.97,3.86-2.97h25.45c1.24,0,2.42.58,3.17,1.56.34.44.57.93.71,1.46,3.61-2.01,7.41-3.02,11.35-3.02,5.59,0,10.15,2.11,13.2,6.11l.84-3.14c.47-1.75,2.05-2.96,3.86-2.96h12.72c5.72,0,10.35,2.21,13.41,6.38,1.03,1.41,1.81,2.92,2.32,4.52l5.64-9.02c.73-1.17,2.01-1.88,3.39-1.88h11.57c1.44,0,2.71.76,3.41,1.91.03-.05.06-.09.09-.14.74-1.11,1.99-1.78,3.32-1.78h10.48c1.63,0,3.1.99,3.71,2.5l1.07,2.66,3.72-3.92c.76-.79,1.8-1.24,2.9-1.24h10.5c1.59,0,3.04.95,3.67,2.41.63,1.46.34,3.16-.75,4.33l-15.51,16.57-3.79,14.12c-.47,1.75-2.05,2.96-3.86,2.96h-9.25ZM145.74,59.3l3.05-11.4-5.19-12.57,2.14,23.97ZM69.73,43.89c-1,0-1.97.38-2.97,1.18-1.03.81-1.67,1.73-1.96,2.79-.28,1.03-.06,1.34.07,1.51.12.17.29.4,1.13.4,1,0,1.97-.38,2.97-1.17,1.04-.82,1.69-1.75,1.99-2.82.26-.99.02-1.32-.1-1.48-.12-.17-.29-.4-1.13-.4ZM98.51,49.31c.36-.18.73-.42,1.1-.71,1.04-.82,1.69-1.75,1.99-2.82.26-.99.02-1.32-.1-1.48-.12-.17-.29-.4-1.13-.4h-.4l-1.45,5.42Z"/>
    <path d="M257.99,108.03c-2.54,0-4.72-1.06-6.14-2.98-.54-.73-1.07-1.74-1.31-3.01-.16.13-.32.26-.49.39-4.71,3.72-9.83,5.6-15.2,5.6h-12.73c-.52,0-1.02-.1-1.49-.29-.46.19-.97.29-1.49.29h-23.14c-.76,0-1.49-.21-2.12-.61-.62.39-1.35.61-2.12.61h-9.25c-1.58,0-3.01-.93-3.65-2.37l-2.63-5.89-1.42,5.3c-.47,1.75-2.05,2.96-3.86,2.96h-9.25c-.07,0-.15,0-.22,0-.07,0-.15,0-.22,0h-11.57c-1.27,0-2.47-.61-3.23-1.64l-1.85-2.52-.32,1.19c-.47,1.75-2.05,2.97-3.86,2.97h-9.25c-.06,0-.12,0-.17,0-.06,0-.12,0-.17,0h-9.25c-2.07,0-3.8-1.58-3.98-3.64l-.09-.99h-7.01l-1.72,2.75c-.73,1.17-2.01,1.88-3.39,1.88h-32.71c-.38,0-.75-.05-1.11-.16-.35.1-.73.16-1.11.16h-18.51c-1.24,0-2.42-.58-3.17-1.56-.76-.99-1.01-2.27-.69-3.47l8.68-32.39c.47-1.75,2.05-2.96,3.86-2.96h9.25c1.24,0,2.42.58,3.17,1.57.76.99,1.01,2.27.69,3.47l-4.85,18.1h3.2l5.4-20.17c.47-1.75,2.05-2.96,3.86-2.96h23.14c1.24,0,2.42.58,3.17,1.56.76.99,1.01,2.27.69,3.47l-1.99,7.45,6.63-10.61c.73-1.17,2.01-1.88,3.39-1.88h11.57c2.07,0,3.8,1.58,3.98,3.64l.97,10.88,3.1-11.56c.47-1.75,2.05-2.96,3.86-2.96h16.2c4.58,0,8.04,1.19,10.3,3.55l.16-.58c.47-1.75,2.05-2.96,3.86-2.96h9.25c1.58,0,3.01.93,3.65,2.37l2.64,5.9,1.42-5.3c.47-1.75,2.05-2.97,3.86-2.97h9.25c.76,0,1.49.21,2.12.61.62-.39,1.35-.61,2.12-.61h23.14c.52,0,1.02.1,1.49.29.46-.19.97-.29,1.49-.29h12.72c5.72,0,10.35,2.21,13.41,6.38.08.11.16.22.23.33l1-3.74c.47-1.75,2.05-2.96,3.86-2.96h9.25c1.24,0,2.42.58,3.17,1.56.76.99,1.01,2.27.69,3.47l-5.58,20.82c-.28,1.06-.97,1.92-1.87,2.43.38,1.2.5,2.7.03,4.5-.6,2.15-1.81,3.95-3.63,5.39-1.86,1.47-3.92,2.22-6.11,2.22ZM239.2,90.31c.36-.18.73-.42,1.1-.71,1.04-.82,1.69-1.75,1.99-2.82.26-.99.02-1.32-.1-1.48-.12-.17-.29-.4-1.13-.4h-.4l-1.45,5.42ZM102.29,86.61l1.27-2.04c-.25.11-.52.19-.79.24l-.48,1.79ZM21.86,108.03c-1.24,0-2.42-.58-3.17-1.56-.76-.99-1.01-2.27-.69-3.47l8.68-32.39c.47-1.75,2.05-2.96,3.86-2.96h9.25c1.24,0,2.42.58,3.17,1.56.76.99,1.01,2.27.69,3.47l-8.68,32.39c-.47,1.75-2.05,2.96-3.86,2.96h-9.25ZM147.88,66.03c-1.24,0-2.42-.58-3.17-1.56-.09-.11-.17-.23-.24-.35-.13.22-.29.42-.46.61-.76.83-1.83,1.3-2.95,1.3h-9.25c-2.07,0-3.8-1.58-3.98-3.64l-.09-.99h-7.01l-1.72,2.75c-.73,1.17-2.01,1.88-3.39,1.88h-9.25c-1.45,0-2.79-.79-3.5-2.06-.02-.03-.03-.06-.05-.09-3.09,1.43-6.32,2.15-9.64,2.15h-12.73c-1.24,0-2.42-.58-3.17-1.56-.68-.89-.96-2.02-.77-3.11-4.37,3.1-9.06,4.67-13.96,4.67-5.72,0-10.35-2.21-13.41-6.38-1.75-2.39-2.75-5.05-3-7.96l-3.05,11.38c-.47,1.75-2.05,2.96-3.86,2.96h-9.25c-1.24,0-2.42-.58-3.17-1.57-.76-.99-1.01-2.27-.69-3.47l4.85-18.1h-2.88c-1.24,0-2.42-.58-3.17-1.56s-1.01-2.27-.69-3.47l2.48-9.25c.47-1.75,2.05-2.97,3.86-2.97h25.45c1.24,0,2.42.58,3.17,1.56.34.44.57.93.71,1.46,3.61-2.01,7.41-3.02,11.35-3.02,5.59,0,10.15,2.11,13.2,6.11l.84-3.14c.47-1.75,2.05-2.96,3.86-2.96h12.72c5.72,0,10.35,2.21,13.41,6.38,1.03,1.41,1.81,2.92,2.32,4.52l5.64-9.02c.73-1.17,2.01-1.88,3.39-1.88h11.57c1.44,0,2.71.76,3.41,1.91.03-.05.06-.09.09-.14.74-1.11,1.99-1.78,3.32-1.78h10.48c1.63,0,3.1.99,3.71,2.5l1.07,2.66,3.72-3.92c.76-.79,1.8-1.24,2.9-1.24h10.5c1.59,0,3.04.95,3.67,2.41.63,1.46.34,3.16-.75,4.33l-15.51,16.57-3.79,14.12c-.47,1.75-2.05,2.96-3.86,2.96h-9.25ZM144.74,58.3l3.05-11.4-5.19-12.57,2.14,23.97ZM68.73,42.89c-1,0-1.97.38-2.97,1.18-1.03.81-1.67,1.73-1.96,2.79-.28,1.03-.06,1.34.07,1.51.12.17.29.4,1.13.4,1,0,1.97-.38,2.97-1.17,1.04-.82,1.69-1.75,1.99-2.82.26-.99.02-1.32-.1-1.48-.12-.17-.29-.4-1.13-.4ZM97.51,48.31c.36-.18.73-.42,1.1-.71,1.04-.82,1.69-1.75,1.99-2.82.26-.99.02-1.32-.1-1.48-.12-.17-.29-.4-1.13-.4h-.4l-1.45,5.42Z"/>
    <path d="M256.99,107.03c-2.54,0-4.72-1.06-6.14-2.98-.54-.73-1.07-1.74-1.31-3.01-.16.13-.32.26-.49.39-4.71,3.72-9.83,5.6-15.2,5.6h-12.73c-.52,0-1.02-.1-1.49-.29-.46.19-.97.29-1.49.29h-23.14c-.76,0-1.49-.21-2.12-.61-.62.39-1.35.61-2.12.61h-9.25c-1.58,0-3.01-.93-3.65-2.37l-2.63-5.89-1.42,5.3c-.47,1.75-2.05,2.96-3.86,2.96h-9.25c-.07,0-.15,0-.22,0-.07,0-.15,0-.22,0h-11.57c-1.27,0-2.47-.61-3.23-1.64l-1.85-2.52-.32,1.19c-.47,1.75-2.05,2.97-3.86,2.97h-9.25c-.06,0-.12,0-.17,0-.06,0-.12,0-.17,0h-9.25c-2.07,0-3.8-1.58-3.98-3.64l-.09-.99h-7.01l-1.72,2.75c-.73,1.17-2.01,1.88-3.39,1.88h-32.71c-.38,0-.75-.05-1.11-.16-.35.1-.73.16-1.11.16h-18.51c-1.24,0-2.42-.58-3.17-1.56-.76-.99-1.01-2.27-.69-3.47l8.68-32.39c.47-1.75,2.05-2.96,3.86-2.96h9.25c1.24,0,2.42.58,3.17,1.57.76.99,1.01,2.27.69,3.47l-4.85,18.1h3.2l5.4-20.17c.47-1.75,2.05-2.96,3.86-2.96h23.14c1.24,0,2.42.58,3.17,1.56.76.99,1.01,2.27.69,3.47l-1.99,7.45,6.63-10.61c.73-1.17,2.01-1.88,3.39-1.88h11.57c2.07,0,3.8,1.58,3.98,3.64l.97,10.88,3.1-11.56c.47-1.75,2.05-2.96,3.86-2.96h16.2c4.58,0,8.04,1.19,10.3,3.55l.16-.58c.47-1.75,2.05-2.96,3.86-2.96h9.25c1.58,0,3.01.93,3.65,2.37l2.64,5.9,1.42-5.3c.47-1.75,2.05-2.97,3.86-2.97h9.25c.76,0,1.49.21,2.12.61.62-.39,1.35-.61,2.12-.61h23.14c.52,0,1.02.1,1.49.29.46-.19.97-.29,1.49-.29h12.72c5.72,0,10.35,2.21,13.41,6.38.08.11.16.22.23.33l1-3.74c.47-1.75,2.05-2.96,3.86-2.96h9.25c1.24,0,2.42.58,3.17,1.56.76.99,1.01,2.27.69,3.47l-5.58,20.82c-.28,1.06-.97,1.92-1.87,2.43.38,1.2.5,2.7.03,4.5-.6,2.15-1.81,3.95-3.63,5.39-1.86,1.47-3.92,2.22-6.11,2.22ZM238.2,89.31c.36-.18.73-.42,1.1-.71,1.04-.82,1.69-1.75,1.99-2.82.26-.99.02-1.32-.1-1.48-.12-.17-.29-.4-1.13-.4h-.4l-1.45,5.42ZM101.29,85.61l1.27-2.04c-.25.11-.52.19-.79.24l-.48,1.79ZM20.86,107.03c-1.24,0-2.42-.58-3.17-1.56-.76-.99-1.01-2.27-.69-3.47l8.68-32.39c.47-1.75,2.05-2.96,3.86-2.96h9.25c1.24,0,2.42.58,3.17,1.56.76.99,1.01,2.27.69,3.47l-8.68,32.39c-.47,1.75-2.05,2.96-3.86,2.96h-9.25ZM146.88,65.03c-1.24,0-2.42-.58-3.17-1.56-.09-.11-.17-.23-.24-.35-.13.22-.29.42-.46.61-.76.83-1.83,1.3-2.95,1.3h-9.25c-2.07,0-3.8-1.58-3.98-3.64l-.09-.99h-7.01l-1.72,2.75c-.73,1.17-2.01,1.88-3.39,1.88h-9.25c-1.45,0-2.79-.79-3.5-2.06-.02-.03-.03-.06-.05-.09-3.09,1.43-6.32,2.15-9.64,2.15h-12.73c-1.24,0-2.42-.58-3.17-1.56-.68-.89-.96-2.02-.77-3.11-4.37,3.1-9.06,4.67-13.96,4.67-5.72,0-10.35-2.21-13.41-6.38-1.75-2.39-2.75-5.05-3-7.96l-3.05,11.38c-.47,1.75-2.05,2.96-3.86,2.96h-9.25c-1.24,0-2.42-.58-3.17-1.57-.76-.99-1.01-2.27-.69-3.47l4.85-18.1h-2.88c-1.24,0-2.42-.58-3.17-1.56s-1.01-2.27-.69-3.47l2.48-9.25c.47-1.75,2.05-2.97,3.86-2.97h25.45c1.24,0,2.42.58,3.17,1.56.34.44.57.93.71,1.46,3.61-2.01,7.41-3.02,11.35-3.02,5.59,0,10.15,2.11,13.2,6.11l.84-3.14c.47-1.75,2.05-2.96,3.86-2.96h12.72c5.72,0,10.35,2.21,13.41,6.38,1.03,1.41,1.81,2.92,2.32,4.52l5.64-9.02c.73-1.17,2.01-1.88,3.39-1.88h11.57c1.44,0,2.71.76,3.41,1.91.03-.05.06-.09.09-.14.74-1.11,1.99-1.78,3.32-1.78h10.48c1.63,0,3.1.99,3.71,2.5l1.07,2.66,3.72-3.92c.76-.79,1.8-1.24,2.9-1.24h10.5c1.59,0,3.04.95,3.67,2.41.63,1.46.34,3.16-.75,4.33l-15.51,16.57-3.79,14.12c-.47,1.75-2.05,2.96-3.86,2.96h-9.25ZM143.74,57.3l3.05-11.4-5.19-12.57,2.14,23.97ZM67.73,41.89c-1,0-1.97.38-2.97,1.18-1.03.81-1.67,1.73-1.96,2.79-.28,1.03-.06,1.34.07,1.51.12.17.29.4,1.13.4,1,0,1.97-.38,2.97-1.17,1.04-.82,1.69-1.75,1.99-2.82.26-.99.02-1.32-.1-1.48-.12-.17-.29-.4-1.13-.4ZM96.51,47.31c.36-.18.73-.42,1.1-.71,1.04-.82,1.69-1.75,1.99-2.82.26-.99.02-1.32-.1-1.48-.12-.17-.29-.4-1.13-.4h-.4l-1.45,5.42Z"/>
    <path d="M255.99,106.03c-2.54,0-4.72-1.06-6.14-2.98-.54-.73-1.07-1.74-1.31-3.01-.16.13-.32.26-.49.39-4.71,3.72-9.83,5.6-15.2,5.6h-12.73c-.52,0-1.02-.1-1.49-.29-.46.19-.97.29-1.49.29h-23.14c-.76,0-1.49-.21-2.12-.61-.62.39-1.35.61-2.12.61h-9.25c-1.58,0-3.01-.93-3.65-2.37l-2.63-5.89-1.42,5.3c-.47,1.75-2.05,2.96-3.86,2.96h-9.25c-.07,0-.15,0-.22,0-.07,0-.15,0-.22,0h-11.57c-1.27,0-2.47-.61-3.23-1.64l-1.85-2.52-.32,1.19c-.47,1.75-2.05,2.97-3.86,2.97h-9.25c-.06,0-.12,0-.17,0-.06,0-.12,0-.17,0h-9.25c-2.07,0-3.8-1.58-3.98-3.64l-.09-.99h-7.01l-1.72,2.75c-.73,1.17-2.01,1.88-3.39,1.88h-32.71c-.38,0-.75-.05-1.11-.16-.35.1-.73.16-1.11.16h-18.51c-1.24,0-2.42-.58-3.17-1.56-.76-.99-1.01-2.27-.69-3.47l8.68-32.39c.47-1.75,2.05-2.96,3.86-2.96h9.25c1.24,0,2.42.58,3.17,1.57.76.99,1.01,2.27.69,3.47l-4.85,18.1h3.2l5.4-20.17c.47-1.75,2.05-2.96,3.86-2.96h23.14c1.24,0,2.42.58,3.17,1.56.76.99,1.01,2.27.69,3.47l-1.99,7.45,6.63-10.61c.73-1.17,2.01-1.88,3.39-1.88h11.57c2.07,0,3.8,1.58,3.98,3.64l.97,10.88,3.1-11.56c.47-1.75,2.05-2.96,3.86-2.96h16.2c4.58,0,8.04,1.19,10.3,3.55l.16-.58c.47-1.75,2.05-2.96,3.86-2.96h9.25c1.58,0,3.01.93,3.65,2.37l2.64,5.9,1.42-5.3c.47-1.75,2.05-2.97,3.86-2.97h9.25c.76,0,1.49.21,2.12.61.62-.39,1.35-.61,2.12-.61h23.14c.52,0,1.02.1,1.49.29.46-.19.97-.29,1.49-.29h12.72c5.72,0,10.35,2.21,13.41,6.38.08.11.16.22.23.33l1-3.74c.47-1.75,2.05-2.96,3.86-2.96h9.25c1.24,0,2.42.58,3.17,1.56.76.99,1.01,2.27.69,3.47l-5.58,20.82c-.28,1.06-.97,1.92-1.87,2.43.38,1.2.5,2.7.03,4.5-.6,2.15-1.81,3.95-3.63,5.39-1.86,1.47-3.92,2.22-6.11,2.22ZM237.2,88.31c.36-.18.73-.42,1.1-.71,1.04-.82,1.69-1.75,1.99-2.82.26-.99.02-1.32-.1-1.48-.12-.17-.29-.4-1.13-.4h-.4l-1.45,5.42ZM100.29,84.61l1.27-2.04c-.25.11-.52.19-.79.24l-.48,1.79ZM19.86,106.03c-1.24,0-2.42-.58-3.17-1.56-.76-.99-1.01-2.27-.69-3.47l8.68-32.39c.47-1.75,2.05-2.96,3.86-2.96h9.25c1.24,0,2.42.58,3.17,1.56.76.99,1.01,2.27.69,3.47l-8.68,32.39c-.47,1.75-2.05,2.96-3.86,2.96h-9.25ZM145.88,64.03c-1.24,0-2.42-.58-3.17-1.56-.09-.11-.17-.23-.24-.35-.13.22-.29.42-.46.61-.76.83-1.83,1.3-2.95,1.3h-9.25c-2.07,0-3.8-1.58-3.98-3.64l-.09-.99h-7.01l-1.72,2.75c-.73,1.17-2.01,1.88-3.39,1.88h-9.25c-1.45,0-2.79-.79-3.5-2.06-.02-.03-.03-.06-.05-.09-3.09,1.43-6.32,2.15-9.64,2.15h-12.73c-1.24,0-2.42-.58-3.17-1.56-.68-.89-.96-2.02-.77-3.11-4.37,3.1-9.06,4.67-13.96,4.67-5.72,0-10.35-2.21-13.41-6.38-1.75-2.39-2.75-5.05-3-7.96l-3.05,11.38c-.47,1.75-2.05,2.96-3.86,2.96h-9.25c-1.24,0-2.42-.58-3.17-1.57-.76-.99-1.01-2.27-.69-3.47l4.85-18.1h-2.88c-1.24,0-2.42-.58-3.17-1.56s-1.01-2.27-.69-3.47l2.48-9.25c.47-1.75,2.05-2.97,3.86-2.97h25.45c1.24,0,2.42.58,3.17,1.56.34.44.57.93.71,1.46,3.61-2.01,7.41-3.02,11.35-3.02,5.59,0,10.15,2.11,13.2,6.11l.84-3.14c.47-1.75,2.05-2.96,3.86-2.96h12.72c5.72,0,10.35,2.21,13.41,6.38,1.03,1.41,1.81,2.92,2.32,4.52l5.64-9.02c.73-1.17,2.01-1.88,3.39-1.88h11.57c1.44,0,2.71.76,3.41,1.91.03-.05.06-.09.09-.14.74-1.11,1.99-1.78,3.32-1.78h10.48c1.63,0,3.1.99,3.71,2.5l1.07,2.66,3.72-3.92c.76-.79,1.8-1.24,2.9-1.24h10.5c1.59,0,3.04.95,3.67,2.41.63,1.46.34,3.16-.75,4.33l-15.51,16.57-3.79,14.12c-.47,1.75-2.05,2.96-3.86,2.96h-9.25ZM142.74,56.3l3.05-11.4-5.19-12.57,2.14,23.97ZM66.73,40.89c-1,0-1.97.38-2.97,1.18-1.03.81-1.67,1.73-1.96,2.79-.28,1.03-.06,1.34.07,1.51.12.17.29.4,1.13.4,1,0,1.97-.38,2.97-1.17,1.04-.82,1.69-1.75,1.99-2.82.26-.99.02-1.32-.1-1.48-.12-.17-.29-.4-1.13-.4ZM95.51,46.31c.36-.18.73-.42,1.1-.71,1.04-.82,1.69-1.75,1.99-2.82.26-.99.02-1.32-.1-1.48-.12-.17-.29-.4-1.13-.4h-.4l-1.45,5.42Z"/>
    <path d="M254.99,105.03c-2.54,0-4.72-1.06-6.14-2.98-.54-.73-1.07-1.74-1.31-3.01-.16.13-.32.26-.49.39-4.71,3.72-9.83,5.6-15.2,5.6h-12.73c-.52,0-1.02-.1-1.49-.29-.46.19-.97.29-1.49.29h-23.14c-.76,0-1.49-.21-2.12-.61-.62.39-1.35.61-2.12.61h-9.25c-1.58,0-3.01-.93-3.65-2.37l-2.63-5.89-1.42,5.3c-.47,1.75-2.05,2.96-3.86,2.96h-9.25c-.07,0-.15,0-.22,0-.07,0-.15,0-.22,0h-11.57c-1.27,0-2.47-.61-3.23-1.64l-1.85-2.52-.32,1.19c-.47,1.75-2.05,2.97-3.86,2.97h-9.25c-.06,0-.12,0-.17,0-.06,0-.12,0-.17,0h-9.25c-2.07,0-3.8-1.58-3.98-3.64l-.09-.99h-7.01l-1.72,2.75c-.73,1.17-2.01,1.88-3.39,1.88h-32.71c-.38,0-.75-.05-1.11-.16-.35.1-.73.16-1.11.16h-18.51c-1.24,0-2.42-.58-3.17-1.56-.76-.99-1.01-2.27-.69-3.47l8.68-32.39c.47-1.75,2.05-2.96,3.86-2.96h9.25c1.24,0,2.42.58,3.17,1.57.76.99,1.01,2.27.69,3.47l-4.85,18.1h3.2l5.4-20.17c.47-1.75,2.05-2.96,3.86-2.96h23.14c1.24,0,2.42.58,3.17,1.56.76.99,1.01,2.27.69,3.47l-1.99,7.45,6.63-10.61c.73-1.17,2.01-1.88,3.39-1.88h11.57c2.07,0,3.8,1.58,3.98,3.64l.97,10.88,3.1-11.56c.47-1.75,2.05-2.96,3.86-2.96h16.2c4.58,0,8.04,1.19,10.3,3.55l.16-.58c.47-1.75,2.05-2.96,3.86-2.96h9.25c1.58,0,3.01.93,3.65,2.37l2.64,5.9,1.42-5.3c.47-1.75,2.05-2.97,3.86-2.97h9.25c.76,0,1.49.21,2.12.61.62-.39,1.35-.61,2.12-.61h23.14c.52,0,1.02.1,1.49.29.46-.19.97-.29,1.49-.29h12.72c5.72,0,10.35,2.21,13.41,6.38.08.11.16.22.23.33l1-3.74c.47-1.75,2.05-2.96,3.86-2.96h9.25c1.24,0,2.42.58,3.17,1.56.76.99,1.01,2.27.69,3.47l-5.58,20.82c-.28,1.06-.97,1.92-1.87,2.43.38,1.2.5,2.7.03,4.5-.6,2.15-1.81,3.95-3.63,5.39-1.86,1.47-3.92,2.22-6.11,2.22ZM236.2,87.31c.36-.18.73-.42,1.1-.71,1.04-.82,1.69-1.75,1.99-2.82.26-.99.02-1.32-.1-1.48-.12-.17-.29-.4-1.13-.4h-.4l-1.45,5.42ZM99.29,83.61l1.27-2.04c-.25.11-.52.19-.79.24l-.48,1.79ZM18.86,105.03c-1.24,0-2.42-.58-3.17-1.56-.76-.99-1.01-2.27-.69-3.47l8.68-32.39c.47-1.75,2.05-2.96,3.86-2.96h9.25c1.24,0,2.42.58,3.17,1.56.76.99,1.01,2.27.69,3.47l-8.68,32.39c-.47,1.75-2.05,2.96-3.86,2.96h-9.25ZM144.88,63.03c-1.24,0-2.42-.58-3.17-1.56-.09-.11-.17-.23-.24-.35-.13.22-.29.42-.46.61-.76.83-1.83,1.3-2.95,1.3h-9.25c-2.07,0-3.8-1.58-3.98-3.64l-.09-.99h-7.01l-1.72,2.75c-.73,1.17-2.01,1.88-3.39,1.88h-9.25c-1.45,0-2.79-.79-3.5-2.06-.02-.03-.03-.06-.05-.09-3.09,1.43-6.32,2.15-9.64,2.15h-12.73c-1.24,0-2.42-.58-3.17-1.56-.68-.89-.96-2.02-.77-3.11-4.37,3.1-9.06,4.67-13.96,4.67-5.72,0-10.35-2.21-13.41-6.38-1.75-2.39-2.75-5.05-3-7.96l-3.05,11.38c-.47,1.75-2.05,2.96-3.86,2.96h-9.25c-1.24,0-2.42-.58-3.17-1.57-.76-.99-1.01-2.27-.69-3.47l4.85-18.1h-2.88c-1.24,0-2.42-.58-3.17-1.56s-1.01-2.27-.69-3.47l2.48-9.25c.47-1.75,2.05-2.97,3.86-2.97h25.45c1.24,0,2.42.58,3.17,1.56.34.44.57.93.71,1.46,3.61-2.01,7.41-3.02,11.35-3.02,5.59,0,10.15,2.11,13.2,6.11l.84-3.14c.47-1.75,2.05-2.96,3.86-2.96h12.72c5.72,0,10.35,2.21,13.41,6.38,1.03,1.41,1.81,2.92,2.32,4.52l5.64-9.02c.73-1.17,2.01-1.88,3.39-1.88h11.57c1.44,0,2.71.76,3.41,1.91.03-.05.06-.09.09-.14.74-1.11,1.99-1.78,3.32-1.78h10.48c1.63,0,3.1.99,3.71,2.5l1.07,2.66,3.72-3.92c.76-.79,1.8-1.24,2.9-1.24h10.5c1.59,0,3.04.95,3.67,2.41.63,1.46.34,3.16-.75,4.33l-15.51,16.57-3.79,14.12c-.47,1.75-2.05,2.96-3.86,2.96h-9.25ZM141.74,55.3l3.05-11.4-5.19-12.57,2.14,23.97ZM65.73,39.89c-1,0-1.97.38-2.97,1.18-1.03.81-1.67,1.73-1.96,2.79-.28,1.03-.06,1.34.07,1.51.12.17.29.4,1.13.4,1,0,1.97-.38,2.97-1.17,1.04-.82,1.69-1.75,1.99-2.82.26-.99.02-1.32-.1-1.48-.12-.17-.29-.4-1.13-.4ZM94.51,45.31c.36-.18.73-.42,1.1-.71,1.04-.82,1.69-1.75,1.99-2.82.26-.99.02-1.32-.1-1.48-.12-.17-.29-.4-1.13-.4h-.4l-1.45,5.42Z"/>
    <path d="M253.99,104.03c-2.54,0-4.72-1.06-6.14-2.98-.54-.73-1.07-1.74-1.31-3.01-.16.13-.32.26-.49.39-4.71,3.72-9.83,5.6-15.2,5.6h-12.73c-.52,0-1.02-.1-1.49-.29-.46.19-.97.29-1.49.29h-23.14c-.76,0-1.49-.21-2.12-.61-.62.39-1.35.61-2.12.61h-9.25c-1.58,0-3.01-.93-3.65-2.37l-2.63-5.89-1.42,5.3c-.47,1.75-2.05,2.96-3.86,2.96h-9.25c-.07,0-.15,0-.22,0-.07,0-.15,0-.22,0h-11.57c-1.27,0-2.47-.61-3.23-1.64l-1.85-2.52-.32,1.19c-.47,1.75-2.05,2.97-3.86,2.97h-9.25c-.06,0-.12,0-.17,0-.06,0-.12,0-.17,0h-9.25c-2.07,0-3.8-1.58-3.98-3.64l-.09-.99h-7.01l-1.72,2.75c-.73,1.17-2.01,1.88-3.39,1.88h-32.71c-.38,0-.75-.05-1.11-.16-.35.1-.73.16-1.11.16h-18.51c-1.24,0-2.42-.58-3.17-1.56-.76-.99-1.01-2.27-.69-3.47l8.68-32.39c.47-1.75,2.05-2.96,3.86-2.96h9.25c1.24,0,2.42.58,3.17,1.57.76.99,1.01,2.27.69,3.47l-4.85,18.1h3.2l5.4-20.17c.47-1.75,2.05-2.96,3.86-2.96h23.14c1.24,0,2.42.58,3.17,1.56.76.99,1.01,2.27.69,3.47l-1.99,7.45,6.63-10.61c.73-1.17,2.01-1.88,3.39-1.88h11.57c2.07,0,3.8,1.58,3.98,3.64l.97,10.88,3.1-11.56c.47-1.75,2.05-2.96,3.86-2.96h16.2c4.58,0,8.04,1.19,10.3,3.55l.16-.58c.47-1.75,2.05-2.96,3.86-2.96h9.25c1.58,0,3.01.93,3.65,2.37l2.64,5.9,1.42-5.3c.47-1.75,2.05-2.97,3.86-2.97h9.25c.76,0,1.49.21,2.12.61.62-.39,1.35-.61,2.12-.61h23.14c.52,0,1.02.1,1.49.29.46-.19.97-.29,1.49-.29h12.72c5.72,0,10.35,2.21,13.41,6.38.08.11.16.22.23.33l1-3.74c.47-1.75,2.05-2.96,3.86-2.96h9.25c1.24,0,2.42.58,3.17,1.56.76.99,1.01,2.27.69,3.47l-5.58,20.82c-.28,1.06-.97,1.92-1.87,2.43.38,1.2.5,2.7.03,4.5-.6,2.15-1.81,3.95-3.63,5.39-1.86,1.47-3.92,2.22-6.11,2.22ZM235.2,86.31c.36-.18.73-.42,1.1-.71,1.04-.82,1.69-1.75,1.99-2.82.26-.99.02-1.32-.1-1.48-.12-.17-.29-.4-1.13-.4h-.4l-1.45,5.42ZM98.29,82.61l1.27-2.04c-.25.11-.52.19-.79.24l-.48,1.79ZM17.86,104.03c-1.24,0-2.42-.58-3.17-1.56-.76-.99-1.01-2.27-.69-3.47l8.68-32.39c.47-1.75,2.05-2.96,3.86-2.96h9.25c1.24,0,2.42.58,3.17,1.56.76.99,1.01,2.27.69,3.47l-8.68,32.39c-.47,1.75-2.05,2.96-3.86,2.96h-9.25ZM143.88,62.03c-1.24,0-2.42-.58-3.17-1.56-.09-.11-.17-.23-.24-.35-.13.22-.29.42-.46.61-.76.83-1.83,1.3-2.95,1.3h-9.25c-2.07,0-3.8-1.58-3.98-3.64l-.09-.99h-7.01l-1.72,2.75c-.73,1.17-2.01,1.88-3.39,1.88h-9.25c-1.45,0-2.79-.79-3.5-2.06-.02-.03-.03-.06-.05-.09-3.09,1.43-6.32,2.15-9.64,2.15h-12.73c-1.24,0-2.42-.58-3.17-1.56-.68-.89-.96-2.02-.77-3.11-4.37,3.1-9.06,4.67-13.96,4.67-5.72,0-10.35-2.21-13.41-6.38-1.75-2.39-2.75-5.05-3-7.96l-3.05,11.38c-.47,1.75-2.05,2.96-3.86,2.96h-9.25c-1.24,0-2.42-.58-3.17-1.57-.76-.99-1.01-2.27-.69-3.47l4.85-18.1h-2.88c-1.24,0-2.42-.58-3.17-1.56s-1.01-2.27-.69-3.47l2.48-9.25c.47-1.75,2.05-2.97,3.86-2.97h25.45c1.24,0,2.42.58,3.17,1.56.34.44.57.93.71,1.46,3.61-2.01,7.41-3.02,11.35-3.02,5.59,0,10.15,2.11,13.2,6.11l.84-3.14c.47-1.75,2.05-2.96,3.86-2.96h12.72c5.72,0,10.35,2.21,13.41,6.38,1.03,1.41,1.81,2.92,2.32,4.52l5.64-9.02c.73-1.17,2.01-1.88,3.39-1.88h11.57c1.44,0,2.71.76,3.41,1.91.03-.05.06-.09.09-.14.74-1.11,1.99-1.78,3.32-1.78h10.48c1.63,0,3.1.99,3.71,2.5l1.07,2.66,3.72-3.92c.76-.79,1.8-1.24,2.9-1.24h10.5c1.59,0,3.04.95,3.67,2.41.63,1.46.34,3.16-.75,4.33l-15.51,16.57-3.79,14.12c-.47,1.75-2.05,2.96-3.86,2.96h-9.25ZM140.74,54.3l3.05-11.4-5.19-12.57,2.14,23.97ZM64.73,38.89c-1,0-1.97.38-2.97,1.18-1.03.81-1.67,1.73-1.96,2.79-.28,1.03-.06,1.34.07,1.51.12.17.29.4,1.13.4,1,0,1.97-.38,2.97-1.17,1.04-.82,1.69-1.75,1.99-2.82.26-.99.02-1.32-.1-1.48-.12-.17-.29-.4-1.13-.4ZM93.51,44.31c.36-.18.73-.42,1.1-.71,1.04-.82,1.69-1.75,1.99-2.82.26-.99.02-1.32-.1-1.48-.12-.17-.29-.4-1.13-.4h-.4l-1.45,5.42Z"/>
    <path d="M252.99,103.03c-2.54,0-4.72-1.06-6.14-2.98-.54-.73-1.07-1.74-1.31-3.01-.16.13-.32.26-.49.39-4.71,3.72-9.83,5.6-15.2,5.6h-12.73c-.52,0-1.02-.1-1.49-.29-.46.19-.97.29-1.49.29h-23.14c-.76,0-1.49-.21-2.12-.61-.62.39-1.35.61-2.12.61h-9.25c-1.58,0-3.01-.93-3.65-2.37l-2.63-5.89-1.42,5.3c-.47,1.75-2.05,2.96-3.86,2.96h-9.25c-.07,0-.15,0-.22,0-.07,0-.15,0-.22,0h-11.57c-1.27,0-2.47-.61-3.23-1.64l-1.85-2.52-.32,1.19c-.47,1.75-2.05,2.97-3.86,2.97h-9.25c-.06,0-.12,0-.17,0-.06,0-.12,0-.17,0h-9.25c-2.07,0-3.8-1.58-3.98-3.64l-.09-.99h-7.01l-1.72,2.75c-.73,1.17-2.01,1.88-3.39,1.88h-32.71c-.38,0-.75-.05-1.11-.16-.35.1-.73.16-1.11.16h-18.51c-1.24,0-2.42-.58-3.17-1.56-.76-.99-1.01-2.27-.69-3.47l8.68-32.39c.47-1.75,2.05-2.96,3.86-2.96h9.25c1.24,0,2.42.58,3.17,1.57.76.99,1.01,2.27.69,3.47l-4.85,18.1h3.2l5.4-20.17c.47-1.75,2.05-2.96,3.86-2.96h23.14c1.24,0,2.42.58,3.17,1.56.76.99,1.01,2.27.69,3.47l-1.99,7.45,6.63-10.61c.73-1.17,2.01-1.88,3.39-1.88h11.57c2.07,0,3.8,1.58,3.98,3.64l.97,10.88,3.1-11.56c.47-1.75,2.05-2.96,3.86-2.96h16.2c4.58,0,8.04,1.19,10.3,3.55l.16-.58c.47-1.75,2.05-2.96,3.86-2.96h9.25c1.58,0,3.01.93,3.65,2.37l2.64,5.9,1.42-5.3c.47-1.75,2.05-2.97,3.86-2.97h9.25c.76,0,1.49.21,2.12.61.62-.39,1.35-.61,2.12-.61h23.14c.52,0,1.02.1,1.49.29.46-.19.97-.29,1.49-.29h12.72c5.72,0,10.35,2.21,13.41,6.38.08.11.16.22.23.33l1-3.74c.47-1.75,2.05-2.96,3.86-2.96h9.25c1.24,0,2.42.58,3.17,1.56.76.99,1.01,2.27.69,3.47l-5.58,20.82c-.28,1.06-.97,1.92-1.87,2.43.38,1.2.5,2.7.03,4.5-.6,2.15-1.81,3.95-3.63,5.39-1.86,1.47-3.92,2.22-6.11,2.22ZM234.2,85.31c.36-.18.73-.42,1.1-.71,1.04-.82,1.69-1.75,1.99-2.82.26-.99.02-1.32-.1-1.48-.12-.17-.29-.4-1.13-.4h-.4l-1.45,5.42ZM97.29,81.61l1.27-2.04c-.25.11-.52.19-.79.24l-.48,1.79ZM16.86,103.03c-1.24,0-2.42-.58-3.17-1.56-.76-.99-1.01-2.27-.69-3.47l8.68-32.39c.47-1.75,2.05-2.96,3.86-2.96h9.25c1.24,0,2.42.58,3.17,1.56.76.99,1.01,2.27.69,3.47l-8.68,32.39c-.47,1.75-2.05,2.96-3.86,2.96h-9.25ZM142.88,61.03c-1.24,0-2.42-.58-3.17-1.56-.09-.11-.17-.23-.24-.35-.13.22-.29.42-.46.61-.76.83-1.83,1.3-2.95,1.3h-9.25c-2.07,0-3.8-1.58-3.98-3.64l-.09-.99h-7.01l-1.72,2.75c-.73,1.17-2.01,1.88-3.39,1.88h-9.25c-1.45,0-2.79-.79-3.5-2.06-.02-.03-.03-.06-.05-.09-3.09,1.43-6.32,2.15-9.64,2.15h-12.73c-1.24,0-2.42-.58-3.17-1.56-.68-.89-.96-2.02-.77-3.11-4.37,3.1-9.06,4.67-13.96,4.67-5.72,0-10.35-2.21-13.41-6.38-1.75-2.39-2.75-5.05-3-7.96l-3.05,11.38c-.47,1.75-2.05,2.96-3.86,2.96h-9.25c-1.24,0-2.42-.58-3.17-1.57-.76-.99-1.01-2.27-.69-3.47l4.85-18.1h-2.88c-1.24,0-2.42-.58-3.17-1.56s-1.01-2.27-.69-3.47l2.48-9.25c.47-1.75,2.05-2.97,3.86-2.97h25.45c1.24,0,2.42.58,3.17,1.56.34.44.57.93.71,1.46,3.61-2.01,7.41-3.02,11.35-3.02,5.59,0,10.15,2.11,13.2,6.11l.84-3.14c.47-1.75,2.05-2.96,3.86-2.96h12.72c5.72,0,10.35,2.21,13.41,6.38,1.03,1.41,1.81,2.92,2.32,4.52l5.64-9.02c.73-1.17,2.01-1.88,3.39-1.88h11.57c1.44,0,2.71.76,3.41,1.91.03-.05.06-.09.09-.14.74-1.11,1.99-1.78,3.32-1.78h10.48c1.63,0,3.1.99,3.71,2.5l1.07,2.66,3.72-3.92c.76-.79,1.8-1.24,2.9-1.24h10.5c1.59,0,3.04.95,3.67,2.41.63,1.46.34,3.16-.75,4.33l-15.51,16.57-3.79,14.12c-.47,1.75-2.05,2.96-3.86,2.96h-9.25ZM139.74,53.3l3.05-11.4-5.19-12.57,2.14,23.97ZM63.73,37.89c-1,0-1.97.38-2.97,1.18-1.03.81-1.67,1.73-1.96,2.79-.28,1.03-.06,1.34.07,1.51.12.17.29.4,1.13.4,1,0,1.97-.38,2.97-1.17,1.04-.82,1.69-1.75,1.99-2.82.26-.99.02-1.32-.1-1.48-.12-.17-.29-.4-1.13-.4ZM92.51,43.31c.36-.18.73-.42,1.1-.71,1.04-.82,1.69-1.75,1.99-2.82.26-.99.02-1.32-.1-1.48-.12-.17-.29-.4-1.13-.4h-.4l-1.45,5.42Z"/>
    <path d="M251.99,102.03c-2.54,0-4.72-1.06-6.14-2.98-.54-.73-1.07-1.74-1.31-3.01-.16.13-.32.26-.49.39-4.71,3.72-9.83,5.6-15.2,5.6h-12.73c-.52,0-1.02-.1-1.49-.29-.46.19-.97.29-1.49.29h-23.14c-.76,0-1.49-.21-2.12-.61-.62.39-1.35.61-2.12.61h-9.25c-1.58,0-3.01-.93-3.65-2.37l-2.63-5.89-1.42,5.3c-.47,1.75-2.05,2.96-3.86,2.96h-9.25c-.07,0-.15,0-.22,0-.07,0-.15,0-.22,0h-11.57c-1.27,0-2.47-.61-3.23-1.64l-1.85-2.52-.32,1.19c-.47,1.75-2.05,2.97-3.86,2.97h-9.25c-.06,0-.12,0-.17,0-.06,0-.12,0-.17,0h-9.25c-2.07,0-3.8-1.58-3.98-3.64l-.09-.99h-7.01l-1.72,2.75c-.73,1.17-2.01,1.88-3.39,1.88h-32.71c-.38,0-.75-.05-1.11-.16-.35.1-.73.16-1.11.16h-18.51c-1.24,0-2.42-.58-3.17-1.56-.76-.99-1.01-2.27-.69-3.47l8.68-32.39c.47-1.75,2.05-2.96,3.86-2.96h9.25c1.24,0,2.42.58,3.17,1.57.76.99,1.01,2.27.69,3.47l-4.85,18.1h3.2l5.4-20.17c.47-1.75,2.05-2.96,3.86-2.96h23.14c1.24,0,2.42.58,3.17,1.56.76.99,1.01,2.27.69,3.47l-1.99,7.45,6.63-10.61c.73-1.17,2.01-1.88,3.39-1.88h11.57c2.07,0,3.8,1.58,3.98,3.64l.97,10.88,3.1-11.56c.47-1.75,2.05-2.96,3.86-2.96h16.2c4.58,0,8.04,1.19,10.3,3.55l.16-.58c.47-1.75,2.05-2.96,3.86-2.96h9.25c1.58,0,3.01.93,3.65,2.37l2.64,5.9,1.42-5.3c.47-1.75,2.05-2.97,3.86-2.97h9.25c.76,0,1.49.21,2.12.61.62-.39,1.35-.61,2.12-.61h23.14c.52,0,1.02.1,1.49.29.46-.19.97-.29,1.49-.29h12.72c5.72,0,10.35,2.21,13.41,6.38.08.11.16.22.23.33l1-3.74c.47-1.75,2.05-2.96,3.86-2.96h9.25c1.24,0,2.42.58,3.17,1.56.76.99,1.01,2.27.69,3.47l-5.58,20.82c-.28,1.06-.97,1.92-1.87,2.43.38,1.2.5,2.7.03,4.5-.6,2.15-1.81,3.95-3.63,5.39-1.86,1.47-3.92,2.22-6.11,2.22ZM233.2,84.31c.36-.18.73-.42,1.1-.71,1.04-.82,1.69-1.75,1.99-2.82.26-.99.02-1.32-.1-1.48-.12-.17-.29-.4-1.13-.4h-.4l-1.45,5.42ZM96.29,80.61l1.27-2.04c-.25.11-.52.19-.79.24l-.48,1.79ZM15.86,102.03c-1.24,0-2.42-.58-3.17-1.56-.76-.99-1.01-2.27-.69-3.47l8.68-32.39c.47-1.75,2.05-2.96,3.86-2.96h9.25c1.24,0,2.42.58,3.17,1.56.76.99,1.01,2.27.69,3.47l-8.68,32.39c-.47,1.75-2.05,2.96-3.86,2.96h-9.25ZM141.88,60.03c-1.24,0-2.42-.58-3.17-1.56-.09-.11-.17-.23-.24-.35-.13.22-.29.42-.46.61-.76.83-1.83,1.3-2.95,1.3h-9.25c-2.07,0-3.8-1.58-3.98-3.64l-.09-.99h-7.01l-1.72,2.75c-.73,1.17-2.01,1.88-3.39,1.88h-9.25c-1.45,0-2.79-.79-3.5-2.06-.02-.03-.03-.06-.05-.09-3.09,1.43-6.32,2.15-9.64,2.15h-12.73c-1.24,0-2.42-.58-3.17-1.56-.68-.89-.96-2.02-.77-3.11-4.37,3.1-9.06,4.67-13.96,4.67-5.72,0-10.35-2.21-13.41-6.38-1.75-2.39-2.75-5.05-3-7.96l-3.05,11.38c-.47,1.75-2.05,2.96-3.86,2.96h-9.25c-1.24,0-2.42-.58-3.17-1.57-.76-.99-1.01-2.27-.69-3.47l4.85-18.1h-2.88c-1.24,0-2.42-.58-3.17-1.56s-1.01-2.27-.69-3.47l2.48-9.25c.47-1.75,2.05-2.97,3.86-2.97h25.45c1.24,0,2.42.58,3.17,1.56.34.44.57.93.71,1.46,3.61-2.01,7.41-3.02,11.35-3.02,5.59,0,10.15,2.11,13.2,6.11l.84-3.14c.47-1.75,2.05-2.96,3.86-2.96h12.72c5.72,0,10.35,2.21,13.41,6.38,1.03,1.41,1.81,2.92,2.32,4.52l5.64-9.02c.73-1.17,2.01-1.88,3.39-1.88h11.57c1.44,0,2.71.76,3.41,1.91.03-.05.06-.09.09-.14.74-1.11,1.99-1.78,3.32-1.78h10.48c1.63,0,3.1.99,3.71,2.5l1.07,2.66,3.72-3.92c.76-.79,1.8-1.24,2.9-1.24h10.5c1.59,0,3.04.95,3.67,2.41.63,1.46.34,3.16-.75,4.33l-15.51,16.57-3.79,14.12c-.47,1.75-2.05,2.96-3.86,2.96h-9.25ZM138.74,52.3l3.05-11.4-5.19-12.57,2.14,23.97ZM62.73,36.89c-1,0-1.97.38-2.97,1.18-1.03.81-1.67,1.73-1.96,2.79-.28,1.03-.06,1.34.07,1.51.12.17.29.4,1.13.4,1,0,1.97-.38,2.97-1.17,1.04-.82,1.69-1.75,1.99-2.82.26-.99.02-1.32-.1-1.48-.12-.17-.29-.4-1.13-.4ZM91.51,42.31c.36-.18.73-.42,1.1-.71,1.04-.82,1.69-1.75,1.99-2.82.26-.99.02-1.32-.1-1.48-.12-.17-.29-.4-1.13-.4h-.4l-1.45,5.42Z"/>
  </g>
  <path class="cls-1" d="M49.99,23.64h-25.45l-2.48,9.25h8.1l-6.2,23.14h9.25l6.2-23.14h8.1l2.48-9.25ZM15.86,98.03h9.25l8.68-32.39h-9.25l-8.68,32.39ZM145.98,40.74l-4.09,15.29h9.25l4.05-15.08.97-1.04,15.22-16.26h-10.5l-8.01,8.42-3.4-8.42h-10.48l6.69,16.2.3.9ZM109.61,56.03l2.89-4.63h12.89l.42,4.63h9.25l-2.89-32.39h-11.57l-20.24,32.39h9.25ZM123.79,33.36l.76,8.79h-6.27l5.51-8.79ZM87.17,56.03c4.47,0,8.71-1.58,12.72-4.74,4.01-3.16,6.62-6.98,7.82-11.45,1.19-4.47.62-8.29-1.69-11.45-2.31-3.16-5.71-4.74-10.18-4.74h-12.72l-8.68,32.39h12.73ZM89.9,32.89h3.47c1.91,0,3.37.68,4.36,2.04.99,1.36,1.24,2.99.73,4.91-.52,1.91-1.65,3.55-3.37,4.91s-3.54,2.04-5.45,2.04h-3.47l3.73-13.88ZM56.53,56.03c4.47,0,8.71-1.58,12.73-4.74,4.01-3.16,6.62-6.98,7.82-11.45,1.19-4.47.62-8.29-1.69-11.45s-5.71-4.74-10.18-4.74-8.71,1.58-12.73,4.74-6.61,6.98-7.8,11.45c-1.2,4.47-.65,8.29,1.67,11.45,2.31,3.16,5.71,4.74,10.18,4.74ZM53.94,39.83c.51-1.91,1.62-3.55,3.34-4.91,1.72-1.36,3.54-2.04,5.45-2.04s3.37.68,4.36,2.04c1,1.36,1.24,2.99.73,4.91-.52,1.91-1.65,3.55-3.37,4.91-1.72,1.36-3.54,2.04-5.45,2.04s-3.37-.68-4.36-2.04c-.99-1.36-1.23-2.99-.71-4.91ZM57.67,88.77l6.2-23.14h-9.25l-8.68,32.39h18.51l2.48-9.25h-9.25ZM202.36,86.46h11.57l2.48-9.25h-11.57l.62-2.31h13.88l2.48-9.25h-23.14l-8.68,32.39h23.14l2.48-9.25h-13.88l.62-2.31ZM247.71,70.38c-2.31-3.16-5.71-4.74-10.18-4.74h-12.72l-8.68,32.39h12.73c4.47,0,8.71-1.58,12.72-4.74,4.01-3.16,6.62-6.98,7.82-11.45,1.19-4.47.62-8.29-1.69-11.45ZM240.14,81.83c-.52,1.91-1.65,3.55-3.37,4.91s-3.54,2.04-5.45,2.04h-3.47l3.73-13.88h3.47c1.91,0,3.37.68,4.36,2.04.99,1.36,1.24,2.99.73,4.91ZM254.46,88.77c-1.28,0-2.49.45-3.63,1.35-1.14.9-1.88,1.99-2.22,3.27-.35,1.28-.2,2.37.46,3.27s1.63,1.35,2.92,1.35,2.49-.45,3.63-1.35c1.14-.9,1.89-1.99,2.24-3.27.34-1.28.18-2.37-.49-3.27-.66-.9-1.64-1.35-2.92-1.35ZM78.4,88.77l.62-2.31h11.57l2.48-9.25h-11.57l.62-2.31h13.88l2.48-9.25h-23.14l-8.68,32.39h23.14l2.48-9.25h-13.88ZM256.04,65.64l-5.58,20.82h9.25l5.58-20.82h-9.25ZM185.19,65.64l-4.33,16.2-7.24-16.2h-9.25l-8.68,32.39h9.25l4.35-16.2,7.22,16.2h9.25l8.68-32.39h-9.25ZM110.37,65.64l-20.24,32.39h9.25l2.89-4.63h12.89l.42,4.63h9.25l-2.89-32.39h-11.57ZM108.06,84.15l5.51-8.79.76,8.79h-6.27ZM158.52,77.21c2.07-7.71-.76-11.57-8.47-11.57h-16.2l-8.68,32.39h9.25l2.48-9.25,6.78,9.25h11.57l-7.1-9.72c5.26-1.23,8.71-4.94,10.37-11.11ZM139.38,79.52l1.25-4.63h6.94c1.54,0,2.11.77,1.69,2.31s-1.4,2.31-2.94,2.31h-6.94Z"/>
</svg>