<?xml version="1.0" encoding="UTF-8"?>
<svg id="Layer_1" data-name="Layer 1" xmlns="http://www.w3.org/2000/svg" viewBox="0 0 359 224">
  <defs>
    <style>
      .cls-1 {
        fill: #27cecd;
      }

      .cls-2 {
        fill: #4c71e6;
      }

      .cls-3 {
        fill: #15fcc0;
      }

      .cls-4 {
        fill: #5e43f2;
      }

      .cls-5 {
        fill: #7015ff;
      }

      .cls-6 {
        fill: #39a0d9;
      }
    </style>
  </defs>
  <g>
    <path class="cls-5" d="M17.45,87.06l5.54-25.81h118.07l-5.54,25.81h-43.61l-25.41,119.94h-30.65l25.41-119.94H17.45Z"/>
    <path class="cls-5" d="M125.53,207l30.95-145.75h30.26l-30.95,145.75h-30.26Z"/>
    <path class="cls-5" d="M245.57,61.25l-25.41,119.55h72.18l-5.54,26.2h-102.64l30.95-145.75h30.45Z"/>
  </g>
  <g>
    <polygon class="cls-4" points="29.03 77.4 34.56 51.6 152.63 51.6 147.09 77.4 103.49 77.4 78.07 197.35 47.42 197.35 72.83 77.4 29.03 77.4"/>
    <polygon class="cls-4" points="137.11 197.35 168.06 51.6 198.32 51.6 167.36 197.35 137.11 197.35"/>
    <polygon class="cls-4" points="257.15 51.6 231.74 171.14 303.92 171.14 298.38 197.35 195.74 197.35 226.69 51.6 257.15 51.6"/>
  </g>
  <g>
    <polygon class="cls-2" points="40.6 67.75 46.14 41.95 164.21 41.95 158.67 67.75 115.06 67.75 89.65 187.7 59 187.7 84.41 67.75 40.6 67.75"/>
    <polygon class="cls-2" points="148.68 187.7 179.63 41.95 209.89 41.95 178.94 187.7 148.68 187.7"/>
    <polygon class="cls-2" points="268.73 41.95 243.31 161.49 315.5 161.49 309.96 187.7 207.32 187.7 238.27 41.95 268.73 41.95"/>
  </g>
  <g>
    <polygon class="cls-6" points="52.18 58.1 57.72 32.3 175.79 32.3 170.25 58.1 126.64 58.1 101.23 178.05 70.57 178.05 95.99 58.1 52.18 58.1"/>
    <polygon class="cls-6" points="160.26 178.05 191.21 32.3 221.47 32.3 190.52 178.05 160.26 178.05"/>
    <polygon class="cls-6" points="280.3 32.3 254.89 151.84 327.08 151.84 321.54 178.05 218.9 178.05 249.85 32.3 280.3 32.3"/>
  </g>
  <g>
    <polygon class="cls-1" points="63.76 48.45 69.3 22.64 187.36 22.64 181.83 48.45 138.22 48.45 112.8 168.4 82.15 168.4 107.56 48.45 63.76 48.45"/>
    <polygon class="cls-1" points="171.84 168.4 202.79 22.64 233.05 22.64 202.1 168.4 171.84 168.4"/>
    <polygon class="cls-1" points="291.88 22.64 266.47 142.19 338.65 142.19 333.11 168.4 230.47 168.4 261.43 22.64 291.88 22.64"/>
  </g>
  <g>
    <path class="cls-3" d="M75.34,38.8l5.54-25.81h118.07l-5.54,25.81h-43.61l-25.41,119.94h-30.65l25.41-119.94h-43.8Z"/>
    <path class="cls-3" d="M183.42,158.75L214.36,12.99h30.26l-30.95,145.75h-30.26Z"/>
    <path class="cls-3" d="M303.46,12.99l-25.41,119.55h72.18l-5.54,26.2h-102.64l30.95-145.75h30.45Z"/>
  </g>
</svg>