<?xml version="1.0" encoding="UTF-8"?>
<svg id="Layer_1" data-name="Layer 1" xmlns="http://www.w3.org/2000/svg" xmlns:xlink="http://www.w3.org/1999/xlink" viewBox="0 0 234 166">
  <defs>
    <style>
      .cls-1 {
        fill: none;
      }

      .cls-2 {
        isolation: isolate;
      }

      .cls-3 {
        fill: #fff;
      }

      .cls-4 {
        clip-path: url(#clippath);
      }
    </style>
    <clipPath id="clippath">
      <polygon class="cls-1" points="-4.17 61.98 97.6 2.84 272.28 103.69 170.52 162.83 -4.17 61.98"/>
    </clipPath>
  </defs>
  <g class="cls-2">
    <g class="cls-4">
      <g>
        <path d="M90.01,111.86l-1.38.46c-1.57.53-3.55.38-4.83-.36l-6.57-3.79c-.58-.34-.97-.77-1.11-1.22-.01.03-.02.07-.03.1-.16.72.26,1.43,1.14,1.94l6.57,3.79c1.28.74,3.26.89,4.83.37l1.39-.47s0-.02,0-.04c0-.04.02-.07.03-.11-.07-.22-.09-.45-.05-.68M76.07,103.77l-1.41.47c-1.57.53-3.56.37-4.84-.37l-6.56-3.79c-.58-.34-.97-.76-1.11-1.22,0,.03-.02.07-.03.1-.16.72.26,1.43,1.14,1.94l6.56,3.79c1.29.74,3.27.9,4.83.37l1.42-.48s0,0,0-.01c0-.04.02-.07.03-.11-.07-.23-.09-.46-.04-.7M123.91,130.69l-2.19.73c-1.56.52-3.54.37-4.83-.37l-6.56-3.79c-.54-.31-.91-.7-1.08-1.11-.71-.1-1.38-.31-1.93-.62l-6.56-3.79c-.54-.31-.9-.7-1.08-1.11-.71-.1-1.38-.31-1.93-.62l-6.57-3.79c-.58-.34-.97-.77-1.11-1.22-.01.03-.02.07-.03.1-.16.72.26,1.43,1.14,1.94l6.57,3.79c.54.31,1.21.52,1.93.62.17.42.54.8,1.08,1.11l6.56,3.79c.55.32,1.22.53,1.93.62.17.41.54.8,1.08,1.11l6.56,3.79c1.28.74,3.26.89,4.83.37l2.2-.73c0-.07.03-.15.05-.22-.06-.2-.08-.4-.06-.59M26.38,74.38l-2.19.73c-1.56.52-3.54.37-4.83-.37l-6.56-3.79c-.59-.34-.97-.77-1.12-1.23-.01.03-.02.07-.03.11-.16.72.27,1.43,1.15,1.94l6.56,3.79c1.28.74,3.26.89,4.83.37l2.2-.73c0-.07.03-.15.05-.22-.06-.2-.08-.4-.06-.59M62.07,94.58c-.16,0-.32-.02-.49-.03-5.97-.41-10.92-1.73-14.73-3.93-3.22-1.86-4.98-4.01-5.18-6.3-.19,2.6,1.58,5.04,5.18,7.12,3.81,2.2,8.76,3.52,14.73,3.93.16.01.32.02.48.03-.03-.18-.03-.35,0-.53,0-.04.02-.08.03-.11-.02-.06-.03-.11-.04-.17M139.19,139.04l-2.7.9c-1.57.53-3.55.38-4.83-.36l-6.57-3.79c-.59-.34-.97-.77-1.11-1.23-.23.74.18,1.5,1.12,2.05l6.56,3.79c1.28.74,3.26.89,4.83.37l2.7-.91s0-.03,0-.04c-.02-.26-.03-.51,0-.77M41.67,82.74l-2.7.9c-1.57.53-3.55.38-4.83-.36l-6.57-3.79c-.59-.34-.97-.77-1.11-1.23-.23.74.18,1.5,1.12,2.05l6.56,3.79c1.28.74,3.26.89,4.83.37l2.7-.91s0-.03,0-.04c-.02-.26-.03-.51,0-.77M197.36,145.93c-.2.67-.91,1.25-1.93,1.59l-18.63,6.25c-.94.32-2.04.39-3.05.23-.58.65-1.55,1.31-3.15,1.85-1.94.63-4.07.87-6.38.72-2.35-.16-4.34-.7-5.9-1.6-1.1-.63-1.82-1.37-2.14-2.16-1.02,0-2.02-.24-2.78-.68l-9.03-5.21c-3.22-1.86-4.98-4.01-5.18-6.3-.19,2.6,1.58,5.04,5.18,7.12l9.03,5.21c.76.44,1.76.67,2.78.68.32.79,1.05,1.53,2.14,2.16,1.56.9,3.55,1.44,5.9,1.6,2.3.15,4.43-.08,6.38-.72,1.6-.54,2.57-1.21,3.15-1.85,1.01.15,2.1.09,3.05-.23l18.63-6.24c1.07-.36,1.8-.99,1.96-1.71.05-.24.04-.48-.03-.71M211.96,122.82c-.03.32-.08.64-.16.96-.78,2.96-3.74,5.33-8.81,7.03-1.8.6-3.69,1.06-5.67,1.38.03.17.03.35-.01.52,0,.04-.02.07-.03.11.02.06.03.12.05.19,1.98-.32,3.87-.78,5.67-1.38,5.07-1.7,8.03-4.07,8.8-7.03.16-.6.21-1.2.17-1.78M171.18,62.24c-.21.67-.91,1.25-1.93,1.59l-14.48,4.86c-.87.29-1.72.55-2.56.79.61.02,1.2.12,1.74.3.27-.09.55-.18.83-.27l14.48-4.86c1.07-.36,1.8-.99,1.95-1.7.05-.24.04-.48-.03-.71"/>
        <path d="M90.01,111.04l-1.38.46c-1.57.53-3.55.38-4.84-.37l-6.56-3.79c-.58-.34-.97-.76-1.11-1.22-.01.03-.02.07-.03.1-.05.24-.04.48.03.72.14.46.53.89,1.11,1.22l6.57,3.79c1.28.74,3.26.89,4.83.36l1.38-.46s0-.03,0-.04c0-.04.02-.08.03-.11-.07-.22-.08-.44-.04-.67M76.06,102.95l-1.41.47c-1.58.52-3.56.37-4.84-.37l-6.56-3.79c-.58-.34-.97-.77-1.12-1.23-.01.03-.02.07-.03.1-.05.24-.04.49.04.72.15.46.53.89,1.11,1.22l6.56,3.79c1.28.74,3.27.9,4.84.37l1.41-.47s0,0,0,0c0-.04.02-.08.03-.11-.07-.23-.09-.46-.04-.7M123.91,129.87l-2.19.74c-1.56.52-3.54.37-4.83-.37l-6.56-3.79c-.54-.31-.91-.7-1.08-1.12-.71-.09-1.38-.3-1.93-.62l-6.56-3.79c-.54-.31-.91-.7-1.08-1.11-.71-.1-1.38-.31-1.93-.62l-6.57-3.79c-.58-.34-.97-.76-1.11-1.22-.01.03-.02.07-.03.1-.05.24-.04.48.03.72.14.46.53.89,1.11,1.22l6.57,3.79c.54.31,1.21.52,1.93.62.17.42.54.8,1.08,1.11l6.56,3.79c.55.32,1.22.53,1.93.62.17.41.54.8,1.08,1.11l6.56,3.79c1.28.74,3.26.89,4.83.37l2.19-.73c0-.07.03-.15.05-.22-.06-.2-.08-.4-.05-.6M26.38,73.56l-2.19.74c-1.56.52-3.54.37-4.83-.37l-6.56-3.79c-.59-.34-.97-.77-1.12-1.23-.01.03-.02.07-.03.1-.05.24-.04.48.03.71.15.46.53.89,1.12,1.23l6.56,3.79c1.28.74,3.26.89,4.83.37l2.19-.73c0-.07.03-.15.05-.22-.06-.2-.08-.4-.05-.6M62.07,93.76c-.16,0-.32-.02-.48-.03-5.97-.41-10.92-1.73-14.74-3.93-3.21-1.86-4.97-4-5.18-6.29,0,.01,0,.03,0,.04-.02.26-.01.51,0,.76.2,2.29,1.95,4.44,5.18,6.3,3.81,2.2,8.76,3.52,14.73,3.93.16.01.33.02.49.03-.03-.18-.03-.36.01-.54,0-.03.02-.07.03-.1-.02-.06-.03-.12-.05-.18M139.19,138.23l-2.7.9c-1.57.53-3.55.38-4.83-.36l-6.57-3.79c-.59-.34-.97-.77-1.11-1.23-.08.27-.08.55,0,.82.14.46.52.89,1.11,1.23l6.57,3.79c1.28.74,3.26.89,4.83.36l2.7-.9s0-.04,0-.07c-.02-.25-.02-.5,0-.75M41.66,81.92l-2.7.9c-1.57.53-3.55.38-4.83-.36l-6.57-3.79c-.59-.34-.97-.77-1.11-1.23-.08.27-.08.55,0,.82.14.46.52.89,1.11,1.23l6.57,3.79c1.28.74,3.26.89,4.83.36l2.7-.9s0-.04,0-.06c-.02-.25-.02-.5,0-.75M197.36,145.11c-.2.67-.91,1.25-1.93,1.59l-18.63,6.25c-.95.31-2.04.39-3.05.23-.58.64-1.55,1.31-3.15,1.85-1.94.64-4.07.88-6.37.72-2.36-.16-4.34-.7-5.9-1.6-1.1-.63-1.82-1.37-2.14-2.16-1.02,0-2.02-.24-2.78-.68l-9.03-5.21c-3.21-1.86-4.97-4-5.18-6.29,0,.01,0,.03,0,.04-.02.26-.01.51,0,.76.2,2.29,1.95,4.44,5.18,6.3l9.03,5.21c.76.44,1.76.67,2.78.68.32.79,1.05,1.53,2.14,2.16,1.56.9,3.55,1.44,5.9,1.6,2.3.15,4.44-.08,6.38-.72,1.59-.54,2.57-1.21,3.15-1.85,1.01.15,2.11.08,3.05-.23l18.63-6.25c1.02-.34,1.73-.93,1.93-1.59.01-.03.02-.07.03-.11.05-.24.04-.48-.03-.71M211.96,121.99c-.02.32-.08.65-.17.97-.78,2.96-3.74,5.33-8.81,7.03-1.8.6-3.69,1.06-5.66,1.38.03.17.03.35-.01.52,0,.04-.02.07-.03.11.02.06.03.12.05.19,1.98-.32,3.87-.78,5.67-1.38,5.06-1.71,8.03-4.07,8.81-7.03.08-.32.14-.64.16-.96.02-.28.02-.56,0-.83M171.18,61.42c-.21.67-.91,1.25-1.93,1.6l-14.48,4.86c-1.87.62-3.65,1.12-5.36,1.5.03.2.04.39.04.59l.52-.17c.7-.23,1.48-.33,2.24-.31.84-.24,1.69-.5,2.56-.79l14.48-4.86c1.02-.35,1.72-.93,1.93-1.59.01-.04.02-.08.03-.11.05-.24.04-.48-.03-.71"/>
        <path d="M90.01,110.22l-1.38.46c-1.57.53-3.56.37-4.84-.37l-6.56-3.79c-.58-.34-.96-.77-1.11-1.23-.01.04-.02.07-.03.11-.05.24-.04.48.03.72.15.46.53.89,1.11,1.22l6.56,3.79c1.29.74,3.27.9,4.84.37l1.38-.46s0-.03,0-.04c0-.04.02-.08.03-.12-.07-.22-.08-.44-.04-.66M76.06,102.13l-1.42.48c-1.57.53-3.55.38-4.83-.36l-6.56-3.79c-.59-.34-.97-.77-1.12-1.23-.01.04-.02.07-.03.11-.05.24-.04.48.03.71.15.46.53.89,1.12,1.23l6.56,3.79c1.28.74,3.26.89,4.84.37l1.41-.47s0,0,0,0c0-.04.02-.08.03-.11-.07-.23-.09-.47-.04-.7M26.38,72.74l-2.19.73c-1.57.53-3.55.38-4.83-.36l-6.56-3.79c-.59-.34-.97-.77-1.12-1.23-.01.04-.02.07-.03.11-.05.24-.04.48.03.72.15.46.53.89,1.12,1.23l6.56,3.79c1.28.74,3.26.89,4.83.37l2.19-.74c.01-.07.03-.15.05-.22-.06-.2-.08-.4-.05-.6M123.9,129.05l-2.19.73c-1.57.53-3.55.38-4.83-.36l-6.56-3.79c-.54-.31-.91-.7-1.08-1.12-.71-.1-1.38-.3-1.93-.62l-6.56-3.79c-.54-.31-.91-.7-1.07-1.12-.71-.1-1.39-.3-1.94-.62l-6.56-3.79c-.59-.34-.97-.77-1.11-1.23-.01.04-.02.07-.03.11-.05.24-.04.48.03.72.15.46.53.89,1.11,1.22l6.57,3.79c.54.31,1.22.52,1.93.62.17.41.54.8,1.08,1.11l6.56,3.79c.55.32,1.22.52,1.93.62.17.42.53.81,1.08,1.12l6.56,3.79c1.28.74,3.26.89,4.83.37l2.19-.74c.01-.07.03-.15.05-.22-.06-.2-.08-.4-.05-.6M62.06,92.94c-.16,0-.32-.02-.48-.03-5.97-.41-10.92-1.73-14.74-3.93-3.23-1.86-4.98-4.02-5.18-6.31,0,.02,0,.04,0,.06-.02.26-.01.52,0,.77.2,2.29,1.96,4.43,5.18,6.29,3.81,2.2,8.77,3.52,14.74,3.93.16.01.32.02.48.03-.03-.18-.03-.35.01-.53,0-.03.02-.07.03-.1-.02-.06-.03-.12-.05-.18M139.18,137.41l-2.7.9c-1.57.53-3.55.38-4.84-.37l-6.56-3.79c-.59-.34-.97-.77-1.11-1.23-.08.27-.08.55,0,.82.14.46.52.89,1.11,1.23l6.57,3.79c1.28.74,3.26.89,4.83.36l2.7-.9s0-.04,0-.06c-.02-.25-.02-.51,0-.76M41.66,81.1l-2.7.9c-1.57.53-3.55.38-4.84-.37l-6.56-3.79c-.59-.34-.97-.77-1.11-1.23-.08.27-.08.55,0,.82.14.46.52.89,1.11,1.23l6.57,3.79c1.28.74,3.26.89,4.83.36l2.7-.9s0-.04,0-.06c-.02-.25-.02-.51,0-.76M197.35,144.3c-.2.67-.91,1.25-1.93,1.59l-18.63,6.25c-.95.31-2.04.39-3.04.23-.59.65-1.56,1.31-3.16,1.85-1.94.64-4.07.88-6.37.72-2.36-.16-4.34-.7-5.9-1.6-1.1-.63-1.82-1.37-2.14-2.16-1.02,0-2.02-.24-2.78-.68l-9.03-5.21c-3.23-1.86-4.98-4.02-5.18-6.31,0,.02,0,.04,0,.07-.02.26-.01.52,0,.77.2,2.29,1.96,4.43,5.18,6.29l9.03,5.21c.76.44,1.76.67,2.78.68.32.79,1.05,1.53,2.14,2.16,1.56.9,3.54,1.43,5.9,1.6,2.3.15,4.44-.08,6.37-.72,1.6-.54,2.57-1.21,3.15-1.85,1.01.15,2.1.08,3.05-.23l18.63-6.25c1.02-.34,1.73-.93,1.93-1.59.01-.03.02-.07.03-.11.05-.24.04-.48-.03-.71M211.96,121.16c-.02.33-.08.66-.17.99-.78,2.96-3.74,5.32-8.81,7.03-1.8.6-3.69,1.06-5.66,1.38.03.17.03.35-.01.52,0,.04-.02.07-.03.11.02.06.04.13.05.19,1.98-.32,3.87-.78,5.66-1.38,5.06-1.71,8.03-4.07,8.81-7.03.09-.33.14-.65.17-.97.02-.28.02-.56,0-.83M171.17,60.6c-.21.67-.91,1.25-1.93,1.59l-14.48,4.86c-1.94.65-3.8,1.16-5.57,1.54.1.26.17.52.21.77,1.71-.38,3.49-.87,5.36-1.5l14.48-4.86c1.02-.35,1.72-.93,1.93-1.6.01-.04.02-.07.03-.11.05-.24.04-.47-.04-.71"/>
        <path d="M90.01,109.4l-1.38.46c-1.58.52-3.56.37-4.84-.37l-6.56-3.79c-.59-.34-.97-.77-1.12-1.23-.01.04-.02.07-.03.11,0,0,0,0,0,.01-.05.24-.03.47.04.71.15.46.53.89,1.11,1.23l6.56,3.79c1.28.74,3.27.9,4.84.37l1.38-.46s0-.03,0-.04c0-.04.02-.07.03-.11-.07-.22-.08-.45-.04-.67M76.06,101.31l-1.43.48c-1.57.53-3.55.38-4.83-.36l-6.56-3.79c-.59-.34-.97-.77-1.12-1.23-.01.04-.02.07-.03.11-.05.24-.04.48.03.71.15.46.53.9,1.12,1.23l6.56,3.79c1.28.74,3.26.89,4.83.36l1.42-.48s0,0,0,0c0-.04.02-.08.03-.11-.07-.23-.08-.47-.03-.7M26.37,71.92l-2.19.73c-1.57.53-3.55.38-4.83-.36l-6.57-3.79c-.59-.34-.97-.77-1.11-1.23-.01.04-.02.07-.03.11-.05.24-.04.48.03.71.14.46.53.89,1.12,1.23l6.56,3.79c1.28.74,3.26.89,4.83.36l2.19-.73c.01-.07.03-.15.05-.22-.06-.2-.08-.4-.05-.6M123.9,128.23l-2.19.73c-1.57.53-3.55.38-4.83-.36l-6.57-3.79c-.54-.31-.9-.7-1.07-1.12-.71-.1-1.39-.3-1.93-.62l-6.56-3.79c-.54-.31-.91-.7-1.08-1.12-.71-.09-1.38-.3-1.93-.62l-6.56-3.79c-.58-.34-.96-.77-1.11-1.23-.01.04-.02.07-.03.11,0,.01,0,.02,0,.04-.04.23-.03.45.04.68.14.46.52.89,1.11,1.23l6.56,3.79c.55.32,1.22.52,1.94.62.16.42.53.81,1.07,1.12l6.56,3.79c.55.32,1.22.52,1.93.62.17.42.53.81,1.08,1.12l6.56,3.79c1.28.74,3.26.89,4.83.36l2.19-.73c.01-.07.03-.15.05-.22-.06-.2-.08-.4-.05-.6M62.06,92.12c-.16,0-.32-.02-.48-.03-5.97-.41-10.93-1.73-14.74-3.93-3.23-1.86-4.98-4.01-5.18-6.3,0,.02,0,.04,0,.06-.02.25-.01.5,0,.75.19,2.29,1.95,4.45,5.18,6.31,3.81,2.2,8.77,3.52,14.74,3.93.16.01.32.02.48.03-.03-.18-.03-.35.01-.53,0-.03.02-.07.03-.1-.02-.06-.03-.12-.05-.18M139.18,136.59l-2.7.9c-1.57.53-3.55.38-4.84-.37l-6.56-3.79c-.59-.34-.97-.77-1.11-1.23-.08.27-.08.55,0,.82.14.46.52.89,1.11,1.23l6.56,3.79c1.29.74,3.27.9,4.84.37l2.7-.9s0-.04,0-.06c-.02-.25-.02-.5,0-.76M41.65,80.28l-2.7.9c-1.57.53-3.55.38-4.84-.37l-6.56-3.79c-.59-.34-.97-.77-1.11-1.23-.08.27-.08.55,0,.82.14.46.52.89,1.11,1.23l6.56,3.79c1.29.74,3.27.9,4.84.37l2.7-.9s0-.04,0-.06c-.02-.25-.02-.5,0-.76M197.34,143.47c-.19.67-.9,1.26-1.92,1.6l-18.63,6.25c-.95.31-2.04.39-3.05.22-.58.65-1.55,1.31-3.15,1.85-1.94.64-4.07.88-6.37.72-2.36-.16-4.34-.69-5.9-1.59-1.1-.63-1.82-1.37-2.14-2.16-1.01-.01-2.03-.24-2.78-.68l-9.02-5.21c-3.23-1.86-4.98-4.01-5.18-6.3,0,.02,0,.04,0,.06-.02.25-.01.5,0,.75.19,2.29,1.95,4.45,5.18,6.31l9.03,5.21c.76.44,1.76.67,2.78.68.32.79,1.05,1.53,2.14,2.16,1.56.9,3.54,1.43,5.9,1.6,2.3.15,4.44-.08,6.37-.72,1.6-.54,2.57-1.21,3.16-1.85,1,.16,2.09.08,3.04-.23l18.63-6.25c1.02-.34,1.73-.93,1.93-1.59.01-.03.02-.07.03-.11.05-.24.04-.49-.04-.72M211.95,120.34c-.02.33-.08.66-.17.99-.77,2.96-3.74,5.32-8.81,7.03-1.8.6-3.69,1.06-5.66,1.38.03.17.03.35-.01.52,0,.04-.02.07-.03.11.02.06.04.13.05.19,1.98-.32,3.87-.78,5.66-1.38,5.07-1.71,8.03-4.07,8.81-7.03.09-.33.14-.66.17-.99.02-.28.02-.55,0-.82M171.17,59.78c-.21.67-.91,1.25-1.93,1.59l-14.48,4.86c-2.08.69-4.06,1.23-5.94,1.62.15.25.28.49.37.74,1.77-.39,3.62-.89,5.57-1.54l14.48-4.86c1.02-.35,1.72-.93,1.93-1.59.01-.04.02-.07.03-.11.05-.24.04-.47-.04-.71"/>
        <path d="M90,108.57l-1.39.46c-1.56.52-3.54.37-4.83-.37l-6.56-3.79c-.59-.34-.97-.77-1.12-1.23-.01.04-.02.08-.03.11,0,0,0,0,0,0-.05.23-.04.47.04.7.15.46.53.9,1.12,1.23l6.56,3.79c1.28.74,3.26.89,4.84.37l1.38-.46s0-.03,0-.04c0-.03.02-.07.03-.1-.07-.22-.08-.45-.04-.68M76.06,100.49l-1.43.48c-1.56.52-3.54.37-4.83-.37l-6.56-3.79c-.59-.34-.98-.77-1.12-1.23-.01.04-.02.07-.03.11-.05.24-.04.48.03.71.15.46.53.9,1.12,1.23l6.56,3.79c1.28.74,3.26.89,4.83.36l1.43-.48s0,0,0,0c0-.03.02-.07.03-.1-.07-.23-.09-.47-.03-.71M26.37,71.11l-2.19.73c-1.56.52-3.54.37-4.83-.37l-6.57-3.79c-.59-.34-.97-.77-1.12-1.23-.01.04-.02.07-.03.11-.05.24-.04.48.03.71.14.46.52.89,1.11,1.23l6.57,3.79c1.28.74,3.26.89,4.83.36l2.19-.73c0-.07.03-.15.05-.22-.06-.2-.08-.4-.05-.6M123.89,127.41l-2.19.73c-1.56.52-3.54.37-4.83-.37l-6.57-3.79c-.54-.31-.91-.69-1.08-1.11-.71-.1-1.38-.31-1.93-.62l-6.56-3.79c-.54-.31-.91-.7-1.08-1.12-.71-.09-1.38-.3-1.93-.62l-6.56-3.79c-.59-.34-.97-.77-1.12-1.23-.01.04-.02.08-.03.11,0,.01,0,.03,0,.04-.04.23-.02.45.05.68.15.46.53.89,1.11,1.23l6.56,3.79c.55.32,1.22.52,1.93.62.17.42.53.81,1.08,1.12l6.56,3.79c.54.31,1.22.52,1.93.62.17.42.53.81,1.07,1.12l6.57,3.79c1.28.74,3.26.89,4.83.36l2.19-.73c0-.07.03-.15.05-.22-.06-.2-.08-.4-.05-.6M62.05,91.31c-.16,0-.32-.02-.48-.03-5.97-.41-10.92-1.74-14.74-3.94-3.22-1.86-4.98-4.01-5.18-6.3,0,.02,0,.04,0,.06-.02.25-.01.51,0,.76.2,2.29,1.95,4.44,5.18,6.3,3.81,2.2,8.77,3.52,14.74,3.93.16.01.32.02.48.03-.03-.18-.03-.35.01-.53,0-.03.02-.07.03-.1-.02-.06-.04-.12-.05-.18M139.18,135.77l-2.7.91c-1.56.52-3.55.37-4.83-.37l-6.56-3.79c-.59-.34-.97-.77-1.12-1.23-.02.07-.04.15-.05.22-.03.2,0,.4.05.59.14.46.52.89,1.11,1.23l6.56,3.79c1.29.74,3.27.9,4.84.37l2.7-.9s0-.05,0-.08c-.02-.24-.02-.49,0-.74M41.65,79.46l-2.7.91c-1.56.52-3.55.37-4.83-.37l-6.56-3.79c-.59-.34-.97-.77-1.12-1.23-.02.07-.04.15-.05.22-.03.2,0,.4.05.59.14.46.52.89,1.11,1.23l6.56,3.79c1.29.74,3.27.9,4.84.37l2.7-.9s0-.05,0-.08c-.02-.24-.02-.49,0-.74M197.34,142.66c-.21.67-.91,1.25-1.93,1.59l-18.63,6.25c-.95.31-2.05.38-3.05.22-.58.65-1.55,1.31-3.15,1.85-1.94.64-4.07.88-6.37.72-2.36-.16-4.34-.7-5.9-1.6-1.1-.63-1.83-1.37-2.16-2.16-1.01-.01-2.01-.24-2.77-.68l-9.03-5.21c-3.22-1.86-4.98-4.01-5.18-6.3,0,.02,0,.04,0,.06-.02.25-.01.51,0,.76.2,2.29,1.95,4.44,5.18,6.3l9.02,5.21c.76.44,1.77.67,2.78.68.32.79,1.05,1.53,2.14,2.16,1.56.9,3.54,1.43,5.9,1.59,2.3.16,4.43-.08,6.37-.72,1.61-.54,2.57-1.21,3.15-1.85,1.01.16,2.1.09,3.05-.22l18.63-6.25c1.02-.34,1.73-.93,1.92-1.6,0-.03.02-.07.03-.1.05-.24.04-.48-.03-.71M211.95,119.52c-.02.33-.08.66-.17.99-.77,2.96-3.74,5.32-8.81,7.03-1.91.64-3.92,1.12-6.03,1.43.2.24.32.5.37.76,1.98-.32,3.87-.78,5.66-1.38,5.07-1.71,8.03-4.08,8.81-7.03.09-.33.14-.66.17-.99.02-.27.02-.54,0-.81M171.16,58.95c-.2.68-.9,1.26-1.92,1.6l-14.48,4.87c-2.27.76-4.42,1.33-6.45,1.73.2.24.37.48.52.71,1.88-.39,3.86-.93,5.94-1.62l14.48-4.86c1.02-.34,1.72-.92,1.93-1.59.01-.04.02-.07.03-.11.05-.24.04-.48-.04-.72"/>
        <path d="M90,107.76l-1.39.47c-1.56.52-3.54.37-4.83-.37l-6.56-3.79c-.59-.34-.97-.77-1.12-1.23-.01.04-.02.07-.03.11,0,0,0,0,0,0-.05.23-.04.47.04.7.15.46.53.89,1.12,1.23l6.56,3.79c1.28.74,3.26.89,4.83.37l1.39-.46s0-.02,0-.04c0-.03.02-.07.03-.1-.07-.22-.08-.45-.04-.68M76.05,99.67l-1.43.48c-1.56.52-3.54.37-4.83-.37l-6.57-3.79c-.59-.34-.97-.77-1.11-1.23-.01.04-.02.08-.03.11-.04.18-.04.36,0,.53.01.06.03.12.04.18.15.46.53.89,1.12,1.23l6.56,3.79c1.28.74,3.26.89,4.83.37l1.43-.48s0,0,0,0c0-.03.02-.07.03-.1-.07-.23-.09-.47-.03-.71M26.36,70.29l-2.19.73c-1.56.52-3.54.37-4.83-.37l-6.56-3.79c-.59-.34-.97-.77-1.12-1.23-.01.04-.02.07-.03.11-.05.24-.04.48.03.71.15.46.53.89,1.12,1.23l6.57,3.79c1.28.74,3.26.89,4.83.37l2.19-.73c0-.07.03-.15.05-.22-.06-.2-.08-.4-.05-.6M123.89,126.59l-2.19.73c-1.56.52-3.54.37-4.83-.37l-6.56-3.79c-.54-.31-.9-.7-1.08-1.11-.71-.1-1.38-.31-1.93-.62l-6.57-3.79c-.54-.31-.9-.7-1.08-1.11-.71-.1-1.38-.3-1.93-.62l-6.56-3.79c-.59-.34-.98-.77-1.12-1.24-.01.04-.02.08-.03.12,0,.01,0,.03,0,.04-.04.22-.03.45.04.67.15.46.53.89,1.12,1.23l6.56,3.79c.55.32,1.22.53,1.93.62.17.42.54.8,1.08,1.12l6.56,3.79c.54.31,1.21.52,1.93.62.17.42.54.8,1.08,1.11l6.57,3.79c1.28.74,3.26.89,4.83.37l2.19-.73c0-.07.03-.15.05-.22-.06-.2-.08-.4-.05-.6M62.04,90.48c-.16,0-.32-.02-.48-.03-5.96-.41-10.92-1.73-14.73-3.93-3.23-1.86-4.99-4.02-5.17-6.32,0,.03,0,.05,0,.08-.02.25-.01.51,0,.76.2,2.29,1.95,4.44,5.18,6.3,3.81,2.2,8.77,3.53,14.74,3.94.16.01.32.02.48.03-.03-.18-.03-.36,0-.54,0-.04.02-.07.03-.1-.02-.06-.03-.12-.05-.18M139.17,134.95l-2.7.9c-1.56.52-3.54.37-4.83-.37l-6.56-3.79c-.59-.34-.97-.77-1.12-1.23-.02.07-.04.15-.05.22-.03.2,0,.4.06.59.15.46.53.89,1.12,1.23l6.56,3.79c1.28.74,3.27.9,4.83.37l2.7-.91s0-.02,0-.03c-.02-.26-.03-.52-.01-.78M41.64,78.64l-2.7.9c-1.56.52-3.54.37-4.83-.37l-6.56-3.79c-.59-.34-.97-.77-1.12-1.23-.02.07-.04.15-.05.22-.03.2,0,.4.06.59.15.46.53.89,1.12,1.23l6.56,3.79c1.28.74,3.27.9,4.83.37l2.7-.91s0-.02,0-.03c-.02-.26-.03-.52-.01-.78M197.33,141.84c-.21.67-.91,1.26-1.93,1.6l-18.63,6.24c-.95.32-2.05.39-3.05.23-.58.65-1.55,1.31-3.15,1.85-1.94.64-4.07.88-6.37.72-2.36-.16-4.34-.7-5.9-1.6-1.1-.63-1.83-1.37-2.14-2.16-1.02,0-2.02-.24-2.78-.68l-9.03-5.21c-3.23-1.86-4.99-4.02-5.17-6.32,0,.03,0,.05,0,.08-.02.25-.01.51,0,.76.2,2.29,1.95,4.44,5.18,6.3l9.03,5.21c.76.44,1.76.67,2.77.68.32.79,1.06,1.53,2.16,2.16,1.56.9,3.53,1.44,5.9,1.6,2.3.16,4.43-.08,6.37-.72,1.61-.54,2.57-1.21,3.15-1.85,1,.16,2.1.09,3.05-.22l18.63-6.25c1.02-.34,1.72-.92,1.93-1.59.01-.04.02-.08.03-.11.05-.24.04-.48-.03-.71M211.94,118.69c-.02.33-.08.66-.17,1-.77,2.96-3.74,5.32-8.81,7.03-2.16.73-4.47,1.24-6.89,1.56l.08.04c.33.19.6.41.8.65,2.11-.32,4.12-.79,6.03-1.43,5.07-1.71,8.03-4.08,8.81-7.03.09-.33.14-.66.17-.99.02-.28.02-.55,0-.83M171.15,58.14c-.2.67-.9,1.25-1.92,1.59l-14.48,4.87c-2.51.84-4.88,1.44-7.1,1.85.24.23.46.46.66.69,2.03-.4,4.18-.97,6.45-1.73l14.48-4.87c1.02-.34,1.73-.92,1.92-1.6.01-.03.02-.07.03-.1.05-.24.04-.48-.03-.71"/>
        <path d="M89.99,106.94l-1.39.47c-1.56.52-3.54.37-4.83-.37l-6.56-3.79c-.59-.34-.98-.77-1.12-1.24-.01.04-.02.08-.03.11,0,0,0,0,0,0-.05.24-.04.47.04.7.15.46.53.89,1.12,1.23l6.56,3.79c1.28.74,3.26.89,4.83.37l1.39-.47s0-.02,0-.04c0-.03.02-.07.03-.1-.07-.22-.08-.45-.04-.68M76.05,98.85l-1.43.48c-1.56.52-3.54.37-4.83-.37l-6.57-3.79c-.58-.34-.97-.77-1.11-1.22-.01.03-.02.07-.03.1-.04.18-.04.36-.01.54.01.06.02.12.04.17.14.46.53.89,1.11,1.23l6.57,3.79c1.28.74,3.26.89,4.83.37l1.43-.48s0,0,0,0c0-.03.02-.07.03-.1-.07-.23-.09-.47-.03-.71M26.36,69.47l-2.19.73c-1.57.52-3.55.37-4.83-.37l-6.56-3.79c-.59-.34-.97-.77-1.11-1.23-.01.04-.02.08-.03.11-.05.24-.04.48.03.71.15.46.53.89,1.12,1.23l6.56,3.79c1.29.74,3.27.9,4.83.37l2.19-.73c0-.07.03-.15.05-.22-.06-.2-.08-.4-.05-.6M123.88,125.78l-2.19.73c-1.57.52-3.55.37-4.83-.37l-6.56-3.79c-.54-.31-.9-.7-1.08-1.11-.71-.1-1.38-.31-1.93-.62l-6.57-3.79c-.54-.31-.9-.7-1.08-1.11-.71-.1-1.38-.31-1.93-.62l-6.56-3.79c-.59-.34-.97-.77-1.12-1.23-.01.03-.02.07-.03.11,0,.01,0,.03,0,.04-.04.22-.03.45.04.66.14.46.53.9,1.12,1.24l6.56,3.79c.55.32,1.21.52,1.93.62.17.42.54.8,1.08,1.11l6.57,3.79c.54.31,1.21.52,1.93.62.17.42.54.8,1.08,1.11l6.56,3.79c1.29.74,3.27.9,4.83.37l2.19-.73c0-.07.03-.15.05-.22-.06-.2-.08-.4-.05-.6M62.04,89.67c-.16,0-.32-.02-.48-.03-5.97-.41-10.92-1.73-14.73-3.93-3.21-1.85-4.96-3.99-5.17-6.27,0,.01,0,.02,0,.03-.02.25-.01.49,0,.74.19,2.3,1.94,4.45,5.17,6.32,3.81,2.2,8.77,3.53,14.73,3.93.16.01.32.02.48.03-.03-.18-.03-.35.01-.53,0-.04.02-.07.03-.11-.02-.06-.03-.12-.04-.18M139.17,134.13l-2.7.91c-1.56.52-3.54.37-4.83-.37l-6.56-3.79c-.59-.34-.97-.77-1.12-1.23-.02.07-.04.15-.05.22-.03.2,0,.4.05.6.14.46.53.89,1.12,1.23l6.56,3.79c1.28.74,3.26.89,4.83.37l2.7-.9s0-.04,0-.06c-.02-.25-.02-.51,0-.76M41.64,77.82l-2.7.91c-1.56.52-3.54.37-4.83-.37l-6.56-3.79c-.59-.34-.97-.77-1.12-1.23-.02.07-.04.15-.05.22-.03.2,0,.4.05.6.14.46.53.89,1.12,1.23l6.56,3.79c1.28.74,3.26.89,4.83.37l2.7-.9s0-.04,0-.06c-.02-.25-.02-.51,0-.76M197.33,141.02c-.21.67-.9,1.25-1.93,1.6l-18.63,6.24c-.95.32-2.05.39-3.05.23-.58.65-1.55,1.31-3.15,1.85-1.94.64-4.08.88-6.37.72-2.36-.16-4.34-.7-5.9-1.6-1.1-.63-1.83-1.37-2.14-2.16-1.02,0-2.02-.24-2.78-.68l-9.03-5.21c-3.21-1.85-4.96-3.99-5.17-6.27,0,.01,0,.02,0,.03-.02.25-.01.49,0,.74.19,2.3,1.94,4.45,5.17,6.32l9.03,5.21c.76.44,1.76.67,2.78.68.32.79,1.05,1.53,2.14,2.16,1.56.9,3.54,1.44,5.9,1.6,2.3.16,4.43-.08,6.37-.72,1.61-.54,2.57-1.21,3.15-1.85,1,.16,2.1.09,3.05-.23l18.63-6.24c1.02-.34,1.72-.93,1.93-1.6.01-.04.02-.07.03-.11.05-.24.04-.48-.03-.71M211.94,117.89c-.02.33-.08.65-.16.98-.77,2.96-3.74,5.32-8.81,7.03-2.52.84-5.21,1.4-8.07,1.69l1.19.69c2.42-.31,4.73-.83,6.89-1.56,5.08-1.71,8.04-4.07,8.81-7.03.09-.34.14-.67.17-1,.02-.27.02-.54,0-.8M171.15,57.31c-.2.67-.9,1.26-1.92,1.6l-14.49,4.86c-2.81.94-5.44,1.59-7.88,1.99.29.23.55.46.79.68,2.22-.41,4.59-1.01,7.1-1.85l14.48-4.87c1.02-.34,1.72-.92,1.92-1.59.01-.04.02-.07.03-.11.05-.24.04-.48-.03-.72"/>
        <path d="M89.99,106.12l-1.39.47c-1.56.52-3.54.37-4.83-.37l-6.57-3.79c-.58-.34-.97-.77-1.11-1.22-.01.03-.02.07-.03.1,0,0,0,0,0,0-.05.24-.04.47.03.7.14.46.53.89,1.12,1.24l6.56,3.79c1.28.74,3.26.89,4.83.37l1.39-.47s0-.02,0-.04c0-.03.02-.07.03-.1-.07-.22-.08-.45-.04-.68M76.04,98.03l-1.43.48c-1.56.52-3.54.37-4.83-.37l-6.57-3.79c-.58-.34-.97-.77-1.11-1.22-.01.03-.02.07-.03.1-.04.18-.04.36-.01.53.01.06.03.12.05.18.14.46.53.89,1.11,1.22l6.57,3.79c1.28.74,3.26.89,4.83.37l1.43-.48s0,0,0,0c0-.03.02-.07.03-.1-.07-.23-.09-.47-.03-.71M26.35,68.65l-2.19.73c-1.57.52-3.55.37-4.83-.37l-6.56-3.79c-.58-.34-.97-.76-1.11-1.22,0,.03-.02.07-.02.1-.05.24-.04.48.03.71.14.46.53.89,1.11,1.23l6.56,3.79c1.28.74,3.26.89,4.83.37l2.19-.73c0-.07.03-.15.05-.22-.06-.2-.08-.4-.05-.6M123.88,124.96l-2.19.73c-1.57.52-3.55.37-4.83-.37l-6.56-3.79c-.54-.31-.91-.7-1.08-1.11-.71-.1-1.38-.31-1.93-.62l-6.57-3.79c-.54-.31-.9-.7-1.08-1.11-.71-.1-1.38-.31-1.93-.62l-6.56-3.79c-.59-.34-.97-.77-1.12-1.23-.01.03-.02.07-.03.1,0,.01,0,.03,0,.04-.04.23-.03.45.04.67.15.46.53.89,1.12,1.23l6.56,3.79c.54.31,1.21.52,1.93.62.17.42.54.8,1.08,1.11l6.57,3.79c.54.31,1.21.52,1.93.62.17.42.54.8,1.08,1.11l6.56,3.79c1.28.74,3.26.89,4.83.37l2.19-.73c0-.07.03-.15.05-.22-.06-.2-.08-.4-.05-.6M62.04,88.85c-.16,0-.32-.02-.48-.03-5.97-.41-10.92-1.73-14.73-3.93-3.22-1.86-4.98-4.01-5.18-6.3,0,.02,0,.04,0,.06-.02.26-.01.53.01.78.21,2.28,1.97,4.42,5.17,6.27,3.81,2.2,8.76,3.52,14.73,3.93.16.01.32.02.48.03-.03-.18-.03-.35,0-.53,0-.04.02-.07.03-.11-.02-.06-.03-.12-.04-.18M139.16,133.31l-2.7.91c-1.56.52-3.54.37-4.83-.37l-6.56-3.79c-.59-.34-.97-.77-1.12-1.23-.02.07-.04.15-.05.22-.03.2,0,.4.05.6.14.46.53.89,1.12,1.23l6.56,3.79c1.28.74,3.26.89,4.83.37l2.7-.91s0-.04,0-.06c-.02-.25-.02-.51,0-.76M41.64,77l-2.7.91c-1.56.52-3.54.37-4.83-.37l-6.56-3.79c-.59-.34-.97-.77-1.12-1.23-.02.07-.04.15-.05.22-.03.2,0,.4.05.6.14.46.53.89,1.12,1.23l6.56,3.79c1.28.74,3.26.89,4.83.37l2.7-.91s0-.04,0-.06c-.02-.25-.02-.51,0-.76M197.33,140.2c-.21.67-.91,1.25-1.93,1.6l-18.63,6.24c-.95.32-2.04.39-3.05.23-.58.65-1.55,1.31-3.15,1.85-1.94.64-4.07.87-6.37.72-2.36-.16-4.34-.7-5.9-1.6-1.1-.63-1.83-1.37-2.14-2.16-1.02,0-2.02-.24-2.78-.68l-9.03-5.21c-3.22-1.86-4.98-4.01-5.18-6.3,0,.02,0,.04,0,.06-.02.26-.01.52.01.78.21,2.28,1.97,4.42,5.17,6.27l9.03,5.21c.76.44,1.76.67,2.78.68.32.79,1.05,1.53,2.14,2.16,1.56.9,3.55,1.44,5.9,1.6,2.29.15,4.43-.08,6.37-.72,1.6-.54,2.56-1.2,3.15-1.85,1,.16,2.1.09,3.05-.23l18.63-6.24c1.02-.34,1.72-.93,1.93-1.6.01-.04.02-.07.03-.11.05-.24.04-.48-.03-.71M211.93,117.07c-.02.33-.08.65-.16.98-.77,2.96-3.74,5.32-8.81,7.03-2.87.96-5.99,1.56-9.3,1.79l1.24.71c2.86-.29,5.56-.85,8.07-1.69,5.08-1.71,8.04-4.07,8.81-7.03.09-.33.14-.66.16-.98.02-.27.02-.55,0-.82M171.15,56.5c-.2.67-.9,1.26-1.92,1.6l-14.49,4.86c-3.17,1.06-6.1,1.74-8.81,2.13.33.23.64.45.93.68,2.45-.4,5.07-1.05,7.88-1.99l14.49-4.86c1.02-.34,1.72-.93,1.92-1.6.01-.03.02-.07.03-.1.05-.24.04-.48-.03-.72"/>
        <path d="M89.98,105.3l-1.39.47c-1.56.52-3.54.37-4.83-.37l-6.57-3.79c-.58-.34-.97-.77-1.11-1.22-.01.03-.02.07-.03.1,0,0,0,0,0,0-.05.24-.04.48.03.71.14.46.53.89,1.11,1.22l6.57,3.79c1.28.74,3.26.89,4.83.37l1.39-.47s0-.02,0-.04c0-.04.02-.07.03-.11-.07-.22-.08-.45-.04-.68M76.03,97.22l-1.42.48c-1.56.52-3.54.37-4.83-.37l-6.56-3.79c-.58-.34-.97-.77-1.11-1.22-.01.03-.02.07-.03.1-.04.18-.04.36-.01.53.01.06.03.12.05.18.14.46.53.89,1.11,1.22l6.57,3.79c1.28.74,3.26.89,4.83.37l1.43-.48s0,0,0,0c0-.04.02-.07.03-.11-.07-.23-.09-.47-.04-.71M26.35,67.83l-2.2.73c-1.56.52-3.54.37-4.83-.37l-6.56-3.79c-.59-.34-.97-.77-1.12-1.23-.01.03-.02.07-.03.11-.05.24-.04.49.04.72.15.46.53.88,1.11,1.22l6.56,3.79c1.28.74,3.26.89,4.83.37l2.19-.73c.01-.08.03-.15.05-.23-.06-.2-.08-.4-.05-.59M123.88,124.14l-2.2.73c-1.56.52-3.54.37-4.83-.37l-6.56-3.79c-.54-.31-.91-.7-1.08-1.11-.71-.1-1.38-.31-1.93-.62l-6.56-3.79c-.54-.31-.9-.7-1.08-1.11-.71-.1-1.38-.31-1.93-.62l-6.57-3.79c-.58-.34-.97-.77-1.11-1.22-.01.03-.02.07-.03.1,0,.01,0,.02,0,.04-.05.23-.03.46.04.68.15.46.53.89,1.12,1.23l6.56,3.79c.54.31,1.21.52,1.93.62.17.42.54.8,1.08,1.11l6.57,3.79c.54.31,1.21.52,1.93.62.17.41.54.8,1.08,1.11l6.56,3.79c1.28.74,3.26.89,4.83.37l2.19-.73c.01-.08.03-.15.05-.23-.06-.2-.08-.4-.05-.59M62.03,88.03c-.16,0-.32-.02-.48-.03-5.97-.41-10.92-1.73-14.73-3.93-3.22-1.86-4.98-4.01-5.18-6.3,0,.02,0,.04,0,.06-.02.26-.01.51,0,.76.2,2.29,1.95,4.44,5.18,6.3,3.81,2.2,8.76,3.52,14.73,3.93.16.01.32.02.48.03-.03-.18-.03-.35,0-.53,0-.04.02-.07.03-.11-.02-.06-.03-.12-.04-.18M139.16,132.49l-2.7.91c-1.56.52-3.54.37-4.83-.37l-6.56-3.79c-.59-.34-.97-.77-1.12-1.23-.02.07-.04.15-.05.22-.03.2,0,.4.05.6.14.46.53.89,1.12,1.23l6.56,3.79c1.28.74,3.26.89,4.83.37l2.7-.91s0-.04,0-.06c-.02-.25-.02-.51,0-.76M41.63,76.18l-2.7.91c-1.56.52-3.54.37-4.83-.37l-6.56-3.79c-.59-.34-.97-.77-1.12-1.23-.02.07-.04.15-.05.22-.03.2,0,.4.05.6.14.46.53.89,1.12,1.23l6.56,3.79c1.28.74,3.26.89,4.83.37l2.7-.91s0-.04,0-.06c-.02-.25-.02-.51,0-.76M197.32,139.38c-.21.67-.91,1.25-1.93,1.6l-18.63,6.24c-.95.32-2.04.39-3.05.23-.58.65-1.55,1.31-3.15,1.85-1.95.64-4.07.87-6.38.72-2.35-.16-4.34-.7-5.9-1.6-1.1-.63-1.82-1.37-2.14-2.16-1.02,0-2.02-.24-2.78-.68l-9.03-5.21c-3.22-1.86-4.98-4.01-5.18-6.3,0,.02,0,.04,0,.06-.02.26-.01.51,0,.76.2,2.29,1.95,4.44,5.18,6.3l9.03,5.21c.76.44,1.76.67,2.78.68.32.79,1.05,1.53,2.14,2.16,1.56.9,3.55,1.44,5.9,1.6,2.3.15,4.43-.08,6.37-.72,1.6-.54,2.57-1.21,3.15-1.85,1.01.15,2.1.09,3.05-.23l18.63-6.24c1.02-.35,1.72-.93,1.93-1.6.01-.04.02-.07.03-.11.05-.24.04-.48-.03-.71M211.92,116.22c-.02.33-.08.67-.17,1.01-.77,2.96-3.73,5.33-8.8,7.03-3.25,1.09-6.79,1.71-10.6,1.87l1.29.75c3.32-.23,6.43-.83,9.3-1.79,5.08-1.71,8.04-4.07,8.81-7.03.09-.33.14-.66.16-.98.02-.28.02-.57,0-.85M97.86,36.79l-.54.18.53.31c0-.16,0-.32,0-.49M171.14,55.68c-.2.67-.9,1.26-1.92,1.6l-14.48,4.86c-3.59,1.2-6.89,1.92-9.89,2.27.38.23.74.45,1.08.68,2.71-.39,5.64-1.07,8.81-2.13l14.49-4.86c1.02-.34,1.72-.93,1.92-1.6.01-.03.02-.07.03-.1.05-.24.04-.48-.03-.72"/>
        <path d="M89.97,104.48l-1.38.46c-1.57.53-3.55.38-4.83-.36l-6.57-3.79c-.58-.34-.97-.77-1.11-1.22-.01.03-.02.07-.03.1,0,0,0,0,0,0-.05.24-.04.48.03.71.14.46.53.89,1.11,1.22l6.57,3.79c1.28.74,3.26.89,4.83.37l1.39-.47s0-.02,0-.04c0-.04.02-.07.03-.11-.07-.22-.09-.45-.05-.68M76.03,96.4l-1.41.47c-1.57.53-3.56.37-4.84-.37l-6.56-3.79c-.58-.34-.97-.76-1.11-1.22,0,.03-.02.07-.03.1-.04.18-.04.36-.01.53.01.06.03.12.05.18.14.46.53.89,1.11,1.22l6.56,3.79c1.29.74,3.27.9,4.83.37l1.42-.48s0,0,0-.01c0-.04.02-.07.03-.11-.07-.23-.09-.46-.04-.7M26.34,67.01l-2.19.73c-1.56.52-3.54.37-4.83-.37l-6.56-3.79c-.59-.34-.97-.77-1.12-1.23-.01.03-.02.07-.03.11-.05.24-.04.48.03.71.15.46.53.89,1.12,1.23l6.56,3.79c1.28.74,3.26.89,4.83.37l2.2-.73c0-.07.03-.15.05-.22-.06-.2-.08-.4-.06-.59M123.87,123.32l-2.19.73c-1.56.52-3.54.37-4.83-.37l-6.56-3.79c-.54-.31-.91-.7-1.08-1.11-.71-.1-1.38-.31-1.93-.62l-6.56-3.79c-.54-.31-.9-.7-1.08-1.11-.71-.1-1.38-.31-1.93-.62l-6.57-3.79c-.58-.34-.97-.77-1.11-1.22-.01.03-.02.07-.03.1,0,.01,0,.02,0,.04-.05.23-.03.46.04.68.15.46.53.89,1.11,1.22l6.57,3.79c.54.31,1.21.52,1.93.62.17.42.54.8,1.08,1.11l6.56,3.79c.55.32,1.22.53,1.93.62.17.41.54.8,1.08,1.11l6.56,3.79c1.28.74,3.26.89,4.83.37l2.2-.73c0-.07.03-.15.05-.22-.06-.2-.08-.4-.06-.59M62.03,87.21c-.16,0-.32-.02-.49-.03-5.97-.41-10.92-1.73-14.73-3.93-3.22-1.86-4.98-4.01-5.18-6.3,0,.02,0,.04,0,.06-.02.26-.01.51,0,.76.2,2.29,1.95,4.44,5.18,6.3,3.81,2.2,8.76,3.52,14.73,3.93.16.01.32.02.48.03-.03-.18-.03-.35,0-.53,0-.04.02-.08.03-.11-.02-.06-.03-.11-.04-.17M139.15,131.67l-2.7.9c-1.57.53-3.55.38-4.83-.36l-6.57-3.79c-.59-.34-.97-.77-1.11-1.23-.02.07-.04.15-.05.22-.03.2,0,.4.05.6.14.46.53.89,1.12,1.23l6.56,3.79c1.28.74,3.26.89,4.83.37l2.7-.91s0-.03,0-.04c-.02-.26-.03-.51,0-.77M41.62,75.37l-2.7.9c-1.57.53-3.55.38-4.83-.36l-6.57-3.79c-.59-.34-.97-.77-1.11-1.23-.02.07-.04.15-.05.22-.03.2,0,.4.05.6.14.46.53.89,1.12,1.23l6.56,3.79c1.28.74,3.26.89,4.83.37l2.7-.91s0-.03,0-.04c-.02-.26-.03-.51,0-.77M197.32,138.56c-.2.67-.91,1.25-1.93,1.59l-18.63,6.25c-.94.32-2.04.39-3.05.23-.58.65-1.55,1.31-3.15,1.85-1.94.63-4.07.87-6.38.72-2.35-.16-4.34-.7-5.9-1.6-1.1-.63-1.82-1.37-2.14-2.16-1.02,0-2.02-.24-2.78-.68l-9.03-5.21c-3.22-1.86-4.98-4.01-5.18-6.3,0,.02,0,.04,0,.06-.02.26-.01.51,0,.76.2,2.29,1.95,4.44,5.18,6.3l9.03,5.21c.76.44,1.76.67,2.78.68.32.79,1.05,1.53,2.14,2.16,1.56.9,3.55,1.44,5.9,1.6,2.3.15,4.43-.08,6.38-.72,1.6-.54,2.57-1.21,3.15-1.85,1.01.15,2.1.09,3.05-.23l18.63-6.24c1.02-.35,1.72-.93,1.93-1.6.01-.04.02-.07.03-.11.05-.24.04-.48-.03-.71M211.92,115.45c-.03.32-.08.64-.16.96-.78,2.96-3.74,5.33-8.81,7.03-3.63,1.21-7.63,1.85-11.95,1.91l1.35.78c3.8-.16,7.35-.78,10.6-1.87,5.07-1.7,8.03-4.07,8.8-7.03.09-.34.14-.67.17-1.01.02-.26.02-.52,0-.77M97.86,35.97l-1.43.48.9.52.54-.18s0-.03,0-.05c-.02-.26-.02-.51,0-.77M171.14,54.87c-.21.67-.91,1.25-1.93,1.59l-14.48,4.86c-4.08,1.36-7.77,2.11-11.09,2.4l1,.58c.07.04.14.08.21.12,3-.35,6.3-1.07,9.89-2.27l14.48-4.86c1.02-.34,1.72-.93,1.92-1.6.01-.03.02-.07.03-.1.05-.24.04-.48-.03-.71"/>
        <path d="M89.97,103.66l-1.38.46c-1.57.53-3.55.38-4.84-.37l-6.56-3.79c-.58-.34-.97-.76-1.11-1.22-.01.03-.02.07-.03.1,0,0,0,0,0,0-.05.24-.04.48.03.71.14.46.53.89,1.11,1.22l6.57,3.79c1.28.74,3.26.89,4.83.36l1.38-.46s0-.03,0-.04c0-.04.02-.08.03-.11-.07-.22-.08-.44-.04-.67M76.02,95.58l-1.41.47c-1.58.52-3.56.37-4.84-.37l-6.56-3.79c-.58-.34-.97-.77-1.12-1.23-.01.03-.02.07-.03.1-.04.18-.04.36,0,.54.01.06.03.12.05.18.15.46.53.89,1.11,1.22l6.56,3.79c1.28.74,3.27.9,4.84.37l1.41-.47s0,0,0,0c0-.04.02-.08.03-.11-.07-.23-.09-.46-.04-.7M26.34,66.19l-2.19.74c-1.56.52-3.54.37-4.83-.37l-6.56-3.79c-.59-.34-.97-.77-1.12-1.23-.01.03-.02.07-.03.1-.05.24-.04.48.03.71.15.46.53.89,1.12,1.23l6.56,3.79c1.28.74,3.26.89,4.83.37l2.19-.73c0-.07.03-.15.05-.22-.06-.2-.08-.4-.05-.6M123.86,122.5l-2.19.74c-1.56.52-3.54.37-4.83-.37l-6.56-3.79c-.54-.31-.91-.7-1.08-1.12-.71-.09-1.38-.3-1.93-.62l-6.56-3.79c-.54-.31-.91-.7-1.08-1.11-.71-.1-1.38-.31-1.93-.62l-6.57-3.79c-.58-.34-.97-.76-1.11-1.22-.01.03-.02.07-.03.1,0,.01,0,.02,0,.04-.05.23-.03.46.04.68.14.46.53.89,1.11,1.22l6.57,3.79c.54.31,1.21.52,1.93.62.17.42.54.8,1.08,1.11l6.56,3.79c.55.32,1.22.53,1.93.62.17.41.54.8,1.08,1.11l6.56,3.79c1.28.74,3.26.89,4.83.37l2.19-.73c0-.07.03-.15.05-.22-.06-.2-.08-.4-.05-.6M62.03,86.39c-.16,0-.32-.02-.48-.03-5.97-.41-10.92-1.73-14.74-3.93-3.21-1.86-4.97-4-5.18-6.29,0,.01,0,.03,0,.04-.02.26-.01.51,0,.76.2,2.29,1.95,4.44,5.18,6.3,3.81,2.2,8.76,3.52,14.73,3.93.16.01.33.02.49.03-.03-.18-.03-.36.01-.54,0-.03.02-.07.03-.1-.02-.06-.03-.12-.05-.18M139.15,130.85l-2.7.9c-1.57.53-3.55.38-4.83-.36l-6.57-3.79c-.59-.34-.97-.77-1.11-1.23-.02.07-.04.15-.05.22-.03.2,0,.4.05.6.14.46.52.89,1.11,1.23l6.57,3.79c1.28.74,3.26.89,4.83.36l2.7-.9s0-.04,0-.07c-.02-.25-.02-.5,0-.75M41.62,74.55l-2.7.9c-1.57.53-3.55.38-4.83-.36l-6.57-3.79c-.59-.34-.97-.77-1.11-1.23-.02.07-.04.15-.05.22-.03.2,0,.4.05.6.14.46.52.89,1.11,1.23l6.57,3.79c1.28.74,3.26.89,4.83.36l2.7-.9s0-.04,0-.06c-.02-.25-.02-.5,0-.75M197.31,137.74c-.2.67-.91,1.25-1.93,1.59l-18.63,6.25c-.95.31-2.04.39-3.05.23-.58.64-1.55,1.31-3.15,1.85-1.94.64-4.07.88-6.37.72-2.36-.16-4.34-.7-5.9-1.6-1.1-.63-1.82-1.37-2.14-2.16-1.02,0-2.02-.24-2.78-.68l-9.03-5.21c-3.21-1.86-4.97-4-5.18-6.29,0,.01,0,.03,0,.04-.02.26-.01.51,0,.76.2,2.29,1.95,4.44,5.18,6.3l9.03,5.21c.76.44,1.76.67,2.78.68.32.79,1.05,1.53,2.14,2.16,1.56.9,3.55,1.44,5.9,1.6,2.3.15,4.44-.08,6.38-.72,1.59-.54,2.57-1.21,3.15-1.85,1.01.15,2.11.08,3.05-.23l18.63-6.25c1.02-.34,1.73-.93,1.93-1.59.01-.03.02-.07.03-.11.05-.24.04-.48-.03-.71M87.4,67.79l-.24-.14-.69.09c.02.11.04.22.06.33l.68-.22c.06-.02.13-.04.19-.06M211.92,114.62c-.02.32-.08.65-.17.97-.78,2.96-3.74,5.33-8.81,7.03-4.02,1.34-8.5,1.98-13.37,1.9,0,0,0,0,0,0l1.42.82c4.32-.06,8.32-.69,11.95-1.91,5.06-1.71,8.03-4.07,8.81-7.03.08-.32.14-.64.16-.96.02-.28.02-.56,0-.83M97.85,35.15l-2.33.78.9.52,1.43-.48s0-.03,0-.05c-.02-.26-.02-.51,0-.77M171.14,54.04c-.21.67-.91,1.25-1.93,1.6l-14.48,4.86c-4.6,1.54-8.71,2.29-12.34,2.48l1.26.73c3.32-.29,7.01-1.03,11.09-2.4l14.48-4.86c1.02-.35,1.72-.93,1.93-1.59.01-.04.02-.08.03-.11.05-.24.04-.48-.03-.71"/>
        <path d="M89.97,102.84l-1.38.46c-1.57.53-3.56.37-4.84-.37l-6.56-3.79c-.58-.34-.96-.77-1.11-1.23-.01.04-.02.07-.03.11,0,0,0,0,0,0-.05.24-.04.48.03.71.15.46.53.89,1.11,1.22l6.56,3.79c1.29.74,3.27.9,4.84.37l1.38-.46s0-.03,0-.04c0-.04.02-.08.03-.12-.07-.22-.08-.44-.04-.66M76.02,94.75l-1.42.48c-1.57.53-3.55.38-4.83-.36l-6.56-3.79c-.59-.34-.97-.77-1.12-1.23-.01.04-.02.07-.03.11-.04.18-.04.36-.01.53.01.06.03.12.05.18.15.46.53.89,1.12,1.23l6.56,3.79c1.28.74,3.26.89,4.84.37l1.41-.47s0,0,0,0c0-.04.02-.08.03-.11-.07-.23-.09-.47-.04-.7M26.33,65.37l-2.19.73c-1.57.53-3.55.38-4.83-.36l-6.56-3.79c-.59-.34-.97-.77-1.12-1.23-.01.04-.02.07-.03.11-.05.24-.04.48.03.72.15.46.53.89,1.12,1.23l6.56,3.79c1.28.74,3.26.89,4.83.37l2.19-.74c.01-.07.03-.15.05-.22-.06-.2-.08-.4-.05-.6M123.86,121.68l-2.19.73c-1.57.53-3.55.38-4.83-.36l-6.56-3.79c-.54-.31-.91-.7-1.08-1.12-.71-.1-1.38-.3-1.93-.62l-6.56-3.79c-.54-.31-.91-.7-1.07-1.12-.71-.1-1.39-.3-1.94-.62l-6.56-3.79c-.59-.34-.97-.77-1.11-1.23-.01.04-.02.07-.03.11,0,.01,0,.02,0,.04-.05.23-.03.46.04.68.15.46.53.89,1.11,1.22l6.57,3.79c.54.31,1.22.52,1.93.62.17.41.54.8,1.08,1.11l6.56,3.79c.55.32,1.22.52,1.93.62.17.42.53.81,1.08,1.12l6.56,3.79c1.28.74,3.26.89,4.83.37l2.19-.74c.01-.07.03-.15.05-.22-.06-.2-.08-.4-.05-.6M62.02,85.57c-.16,0-.32-.02-.48-.03-5.97-.41-10.92-1.73-14.74-3.93-3.23-1.86-4.98-4.02-5.18-6.31,0,.02,0,.04,0,.06-.02.26-.01.52,0,.77.2,2.29,1.96,4.43,5.18,6.29,3.81,2.2,8.77,3.52,14.74,3.93.16.01.32.02.48.03-.03-.18-.03-.35.01-.53,0-.03.02-.07.03-.1-.02-.06-.03-.12-.05-.18M139.14,130.04l-2.7.9c-1.57.53-3.55.38-4.84-.37l-6.56-3.79c-.59-.34-.97-.77-1.11-1.23-.02.07-.04.15-.05.22-.03.2,0,.4.05.6.14.46.52.89,1.11,1.23l6.57,3.79c1.28.74,3.26.89,4.83.36l2.7-.9s0-.04,0-.06c-.02-.25-.02-.51,0-.76M41.62,73.73l-2.7.9c-1.57.53-3.55.38-4.84-.37l-6.56-3.79c-.59-.34-.97-.77-1.11-1.23-.02.07-.04.15-.05.22-.03.2,0,.4.05.6.14.46.52.89,1.11,1.23l6.57,3.79c1.28.74,3.26.89,4.83.36l2.7-.9s0-.04,0-.06c-.02-.25-.02-.51,0-.76M197.31,136.92c-.2.67-.91,1.25-1.93,1.59l-18.63,6.25c-.95.31-2.04.39-3.04.23-.59.65-1.56,1.31-3.16,1.85-1.94.64-4.07.88-6.37.72-2.36-.16-4.34-.7-5.9-1.6-1.1-.63-1.82-1.37-2.14-2.16-1.02,0-2.02-.24-2.78-.68l-9.03-5.21c-3.23-1.86-4.98-4.02-5.18-6.31,0,.02,0,.04,0,.07-.02.26-.01.52,0,.77.2,2.29,1.96,4.43,5.18,6.29l9.03,5.21c.76.44,1.76.67,2.78.68.32.79,1.05,1.53,2.14,2.16,1.56.9,3.54,1.43,5.9,1.6,2.3.15,4.44-.08,6.37-.72,1.6-.54,2.57-1.21,3.15-1.85,1.01.15,2.1.08,3.05-.23l18.63-6.25c1.02-.34,1.73-.93,1.93-1.59.01-.03.02-.07.03-.11.05-.24.04-.48-.03-.71M88.45,67.58l-1.3-.75-.91.12c.1.26.18.53.23.79l.69-.09.24.14c.34-.1.69-.17,1.05-.21M211.92,113.78c-.02.33-.08.66-.17.99-.78,2.96-3.74,5.32-8.81,7.03-4.64,1.55-9.88,2.16-15.62,1.81.04.09.08.17.11.26.79.08,1.55.29,2.15.64,4.86.08,9.35-.56,13.37-1.9,5.06-1.71,8.03-4.07,8.81-7.03.09-.33.14-.65.17-.97.02-.28.02-.56,0-.83M120.38,49.54c-.45,0-.9-.02-1.35-.04l1.35.78c-.02-.25-.02-.49,0-.74M97.85,34.33l-3.23,1.08.9.52,2.33-.78s0-.03,0-.04c-.02-.26-.02-.52,0-.78M171.13,53.23c-.21.67-.91,1.25-1.93,1.59l-14.48,4.86c-5.17,1.73-9.71,2.46-13.67,2.53l1.33.77c3.64-.2,7.75-.95,12.34-2.48l14.48-4.86c1.02-.35,1.72-.93,1.93-1.6.01-.04.02-.07.03-.11.05-.24.04-.47-.04-.71"/>
        <path d="M89.96,102.03l-1.38.46c-1.58.52-3.56.37-4.84-.37l-6.56-3.79c-.59-.34-.97-.77-1.12-1.23-.01.04-.02.07-.03.11,0,0,0,0,0,.01-.05.24-.03.47.04.71.15.46.53.89,1.11,1.23l6.56,3.79c1.28.74,3.27.9,4.84.37l1.38-.46s0-.03,0-.04c0-.04.02-.07.03-.11-.07-.22-.08-.45-.04-.67M76.02,93.93l-1.43.48c-1.57.53-3.55.38-4.83-.36l-6.56-3.79c-.59-.34-.97-.77-1.12-1.23-.01.04-.02.07-.03.11-.04.18-.04.36,0,.53.01.06.03.12.04.18.15.46.53.9,1.12,1.23l6.56,3.79c1.28.74,3.26.89,4.83.36l1.42-.48s0,0,0,0c0-.04.02-.08.03-.11-.07-.23-.08-.47-.03-.7M26.33,64.55l-2.19.73c-1.57.53-3.55.38-4.83-.36l-6.57-3.79c-.59-.34-.97-.77-1.11-1.23-.01.04-.02.07-.03.11-.05.24-.04.48.03.71.14.46.53.89,1.12,1.23l6.56,3.79c1.28.74,3.26.89,4.83.36l2.19-.73c.01-.07.03-.15.05-.22-.06-.2-.08-.4-.05-.6M123.85,120.86l-2.19.73c-1.57.53-3.55.38-4.83-.36l-6.57-3.79c-.54-.31-.9-.7-1.07-1.12-.71-.1-1.39-.3-1.93-.62l-6.56-3.79c-.54-.31-.91-.7-1.08-1.12-.71-.09-1.38-.3-1.93-.62l-6.56-3.79c-.58-.34-.96-.77-1.11-1.23-.01.04-.02.07-.03.11,0,.01,0,.02,0,.04-.04.23-.03.45.04.68.14.46.52.89,1.11,1.23l6.56,3.79c.55.32,1.22.52,1.94.62.16.42.53.81,1.07,1.12l6.56,3.79c.55.32,1.22.52,1.93.62.17.42.53.81,1.08,1.12l6.56,3.79c1.28.74,3.26.89,4.83.36l2.19-.73c.01-.07.03-.15.05-.22-.06-.2-.08-.4-.05-.6M62.02,84.75c-.16,0-.32-.02-.48-.03-5.97-.41-10.93-1.73-14.74-3.93-3.23-1.86-4.98-4.01-5.18-6.3,0,.02,0,.04,0,.06-.02.25-.01.5,0,.75.19,2.29,1.95,4.45,5.18,6.31,3.81,2.2,8.77,3.52,14.74,3.93.16.01.32.02.48.03-.03-.18-.03-.35.01-.53,0-.03.02-.07.03-.1-.02-.06-.03-.12-.05-.18M139.14,129.22l-2.7.9c-1.57.53-3.55.38-4.84-.37l-6.56-3.79c-.59-.34-.97-.77-1.11-1.23-.02.08-.04.15-.05.23-.03.2,0,.4.05.6.14.46.52.89,1.11,1.23l6.56,3.79c1.29.74,3.27.9,4.84.37l2.7-.9s0-.04,0-.06c-.02-.25-.02-.5,0-.76M41.61,72.91l-2.7.9c-1.57.53-3.55.38-4.84-.37l-6.56-3.79c-.59-.34-.97-.77-1.11-1.23-.02.08-.04.15-.05.23-.03.2,0,.4.05.6.14.46.52.89,1.11,1.23l6.56,3.79c1.29.74,3.27.9,4.84.37l2.7-.9s0-.04,0-.06c-.02-.25-.02-.5,0-.76M197.3,136.1c-.19.67-.9,1.26-1.92,1.6l-18.63,6.25c-.95.31-2.04.39-3.05.22-.58.65-1.55,1.31-3.15,1.85-1.94.64-4.07.88-6.37.72-2.36-.16-4.34-.69-5.9-1.59-1.1-.63-1.82-1.37-2.14-2.16-1.01-.01-2.03-.24-2.78-.68l-9.02-5.21c-3.23-1.86-4.98-4.01-5.18-6.3,0,.02,0,.04,0,.06-.02.25-.01.5,0,.75.19,2.29,1.95,4.45,5.18,6.31l9.03,5.21c.76.44,1.76.67,2.78.68.32.79,1.05,1.53,2.14,2.16,1.56.9,3.54,1.43,5.9,1.6,2.3.15,4.44-.08,6.37-.72,1.6-.54,2.57-1.21,3.16-1.85,1,.16,2.09.08,3.04-.23l18.63-6.25c1.02-.34,1.73-.93,1.93-1.59.01-.03.02-.07.03-.11.05-.24.04-.49-.04-.72M55.11,51.29h-.01s0,0,0,0h.02M152.63,107.6h-.01s0,0,0,0h.02M89.84,67.57l-2.69-1.56-1.26.17c.14.25.26.51.36.77l.91-.12,1.3.75c.46-.05.93-.06,1.39-.01M133.79,92.31l-.47.16s.03.07.05.1c.14.02.29.04.42.07-.01-.11-.01-.22,0-.33M211.91,112.97c-.02.33-.08.66-.17.99-.77,2.96-3.74,5.32-8.81,7.03-4.76,1.59-10.17,2.19-16.1,1.78-.12,0-.23-.02-.35-.03.39.25.67.55.83.87,5.75.34,10.99-.27,15.62-1.81,5.07-1.71,8.03-4.07,8.81-7.03.09-.33.14-.66.17-.99.02-.28.02-.55,0-.82M126.16,58.01c-.09-.05-.19-.1-.28-.15,0,.08-.03.17-.05.25,0,0,0,0,0,.01l.32-.11M110.99,47.65c-.59-.13-1.17-.28-1.74-.44,0,.11,0,.23-.03.35,0,.04-.02.08-.03.12.02.07.04.14.05.21l1.75-.23M120.37,48.72c-.85-.02-1.72-.05-2.59-.11-.11,0-.22-.02-.33-.02l1.58.91c.45.02.91.03,1.35.04,0,0,0,0,0,0-.03-.27-.03-.54,0-.82M97.85,33.51l-4.12,1.38.9.52,3.23-1.08s0-.04,0-.06c-.02-.25-.02-.51,0-.76M171.13,52.41c-.21.67-.91,1.25-1.93,1.59l-14.48,4.86c-5.79,1.94-10.81,2.62-15.08,2.53l1.42.82c3.96-.08,8.5-.81,13.67-2.53l14.48-4.86c1.02-.35,1.72-.93,1.93-1.59.01-.04.02-.07.03-.11.05-.24.04-.47-.04-.71"/>
        <path d="M89.96,101.2l-1.39.46c-1.56.52-3.54.37-4.83-.37l-6.56-3.79c-.59-.34-.97-.77-1.12-1.23-.01.04-.02.08-.03.11,0,0,0,0,0,0-.05.23-.04.47.04.7.15.46.53.9,1.12,1.23l6.56,3.79c1.28.74,3.26.89,4.84.37l1.38-.46s0-.03,0-.04c0-.03.02-.07.03-.1-.07-.22-.08-.45-.04-.68M76.02,93.12l-1.43.48c-1.56.52-3.54.37-4.83-.37l-6.56-3.79c-.59-.34-.98-.77-1.12-1.23-.01.04-.02.07-.03.11-.04.18-.04.36,0,.53.01.06.03.12.04.18.15.46.53.9,1.12,1.23l6.56,3.79c1.28.74,3.26.89,4.83.36l1.43-.48s0,0,0,0c0-.03.02-.07.03-.1-.07-.23-.09-.47-.03-.71M26.32,63.73l-2.19.73c-1.56.52-3.54.37-4.83-.37l-6.57-3.79c-.59-.34-.97-.77-1.12-1.23-.01.04-.02.07-.03.11-.05.24-.04.48.03.71.14.46.52.89,1.11,1.23l6.57,3.79c1.28.74,3.26.89,4.83.36l2.19-.73c0-.07.03-.15.05-.22-.06-.2-.08-.4-.05-.6M123.85,120.04l-2.19.73c-1.56.52-3.54.37-4.83-.37l-6.57-3.79c-.54-.31-.91-.69-1.08-1.11-.71-.1-1.38-.31-1.93-.62l-6.56-3.79c-.54-.31-.91-.7-1.08-1.12-.71-.09-1.38-.3-1.93-.62l-6.56-3.79c-.59-.34-.97-.77-1.12-1.23-.01.04-.02.08-.03.11,0,.01,0,.03,0,.04-.04.23-.02.45.05.68.15.46.53.89,1.11,1.23l6.56,3.79c.55.32,1.22.52,1.93.62.17.42.53.81,1.08,1.12l6.56,3.79c.54.31,1.22.52,1.93.62.17.42.53.81,1.07,1.12l6.57,3.79c1.28.74,3.26.89,4.83.36l2.19-.73c0-.07.03-.15.05-.22-.06-.2-.08-.4-.05-.6M62.01,83.93c-.16,0-.32-.02-.48-.03-5.97-.41-10.92-1.74-14.74-3.94-3.22-1.86-4.98-4.01-5.18-6.3,0,.02,0,.04,0,.06-.02.25-.01.51,0,.76.2,2.29,1.95,4.44,5.18,6.3,3.81,2.2,8.77,3.52,14.74,3.93.16.01.32.02.48.03-.03-.18-.03-.35.01-.53,0-.03.02-.07.03-.1-.02-.06-.04-.12-.05-.18M139.14,128.4l-2.7.91c-1.56.52-3.55.37-4.83-.37l-6.56-3.79c-.59-.34-.97-.77-1.12-1.23-.02.07-.04.15-.05.22-.03.2,0,.4.05.59.14.46.52.89,1.11,1.23l6.56,3.79c1.29.74,3.27.9,4.84.37l2.7-.9s0-.05,0-.08c-.02-.24-.02-.49,0-.74M41.61,72.09l-2.7.91c-1.56.52-3.55.37-4.83-.37l-6.56-3.79c-.59-.34-.97-.77-1.12-1.23-.02.07-.04.15-.05.22-.03.2,0,.4.05.59.14.46.52.89,1.11,1.23l6.56,3.79c1.29.74,3.27.9,4.84.37l2.7-.9s0-.05,0-.08c-.02-.24-.02-.49,0-.74M197.3,135.29c-.21.67-.91,1.25-1.93,1.59l-18.63,6.25c-.95.31-2.05.38-3.05.22-.58.65-1.55,1.31-3.15,1.85-1.94.64-4.07.88-6.37.72-2.36-.16-4.34-.7-5.9-1.6-1.1-.63-1.83-1.37-2.16-2.16-1.01-.01-2.01-.24-2.77-.68l-9.03-5.21c-3.22-1.86-4.98-4.01-5.18-6.3,0,.02,0,.04,0,.06-.02.25-.01.51,0,.76.2,2.29,1.95,4.44,5.18,6.3l9.02,5.21c.76.44,1.77.67,2.78.68.32.79,1.05,1.53,2.14,2.16,1.56.9,3.54,1.43,5.9,1.59,2.3.16,4.43-.08,6.37-.72,1.61-.54,2.57-1.21,3.15-1.85,1.01.16,2.1.09,3.05-.22l18.63-6.25c1.02-.34,1.73-.93,1.92-1.6,0-.03.02-.07.03-.1.05-.24.04-.48-.03-.71M119.61,87.72l-.1-.06s0,.06-.01.09l.11-.04M153.53,107.3l-.92-.53c0,.08-.03.15-.05.23.06.19.08.39.06.59h.01s.89-.29.89-.29M56.07,50.97c-.21-.08-.41-.18-.6-.28l-.39-.22c0,.08-.03.15-.05.23.06.19.08.39.06.59h.01s.96-.31.96-.31M41.23,41.88s-.02.07-.03.1c-.04.16-.04.33-.02.49l.3-.1c-.12-.16-.2-.32-.26-.49M90.59,67.19l-3.46-2-1.74.23c.18.25.34.5.48.76l1.26-.17,2.69,1.56c.25.02.49.06.73.11-.02-.16,0-.32.03-.48M133.79,91.48l-.99.33c.23.2.4.42.52.65l.47-.16c0-.08.03-.15.05-.23-.06-.2-.08-.4-.05-.6M211.91,112.15c-.02.33-.08.66-.17.99-.77,2.96-3.74,5.32-8.81,7.03-4.76,1.59-10.18,2.19-16.1,1.78-.69-.05-1.37-.11-2.03-.18l1.5.86c.06.04.12.07.18.11.12,0,.23.02.35.03,5.93.41,11.34-.19,16.1-1.78,5.07-1.71,8.03-4.08,8.81-7.03.09-.33.14-.66.17-.99.02-.27.02-.54,0-.81M85.54,33.75l-.85-.49s-.01.09-.02.13c0,.03-.02.07-.03.1.06.18.08.36.06.54l.85-.28M127.13,57.69c-.43-.21-.85-.43-1.24-.65,0,.08-.03.16-.05.24.06.19.08.39.06.58.09.05.18.1.28.15l.96-.32M113.77,47.36c-1.6-.24-3.11-.56-4.53-.96,0,.11,0,.23-.03.34,0,.04-.02.07-.03.11.04.12.06.24.07.37.56.16,1.14.3,1.74.44l1.77-.24c.34-.05.68-.06,1.01-.06M120.37,47.91c-.85-.02-1.72-.05-2.59-.11-.84-.06-1.66-.13-2.46-.23.43.11.83.27,1.18.47l.95.55c.11,0,.22.02.33.02.88.06,1.74.1,2.59.11,0,0,0,0,0,0-.03-.27-.03-.54,0-.81M97.84,32.69l-5.01,1.68.9.52,4.12-1.38s0-.02,0-.03c-.02-.26-.03-.53-.01-.79M171.12,51.58c-.2.68-.9,1.26-1.92,1.6l-14.48,4.87c-6.5,2.17-12.01,2.77-16.61,2.47l1.53.88c4.28.09,9.29-.6,15.08-2.53l14.48-4.86c1.02-.34,1.72-.92,1.93-1.59.01-.04.02-.07.03-.11.05-.24.04-.48-.04-.72"/>
        <path d="M89.96,100.38l-1.39.47c-1.56.52-3.54.37-4.83-.37l-6.56-3.79c-.59-.34-.97-.77-1.12-1.23-.01.04-.02.07-.03.11,0,0,0,0,0,0-.05.23-.04.47.04.7.15.46.53.89,1.12,1.23l6.56,3.79c1.28.74,3.26.89,4.83.37l1.39-.46s0-.02,0-.04c0-.03.02-.07.03-.1-.07-.22-.08-.45-.04-.68M76.01,92.3l-1.43.48c-1.56.52-3.54.37-4.83-.37l-6.57-3.79c-.59-.34-.97-.77-1.11-1.23-.01.04-.02.08-.03.11-.04.18-.04.36,0,.53.01.06.03.12.04.18.15.46.53.89,1.12,1.23l6.56,3.79c1.28.74,3.26.89,4.83.37l1.43-.48s0,0,0,0c0-.03.02-.07.03-.1-.07-.23-.09-.47-.03-.71M26.32,62.92l-2.19.73c-1.56.52-3.54.37-4.83-.37l-6.56-3.79c-.59-.34-.97-.77-1.12-1.23-.01.04-.02.07-.03.11-.05.24-.04.48.03.71.15.46.53.89,1.12,1.23l6.57,3.79c1.28.74,3.26.89,4.83.37l2.19-.73c0-.07.03-.15.05-.22-.06-.2-.08-.4-.05-.6M123.84,119.22l-2.19.73c-1.56.52-3.54.37-4.83-.37l-6.56-3.79c-.54-.31-.9-.7-1.08-1.11-.71-.1-1.38-.31-1.93-.62l-6.57-3.79c-.54-.31-.9-.7-1.08-1.11-.71-.1-1.38-.3-1.93-.62l-6.56-3.79c-.59-.34-.98-.77-1.12-1.24-.01.04-.02.08-.03.12,0,.01,0,.03,0,.04-.04.22-.03.45.04.67.15.46.53.89,1.12,1.23l6.56,3.79c.55.32,1.22.53,1.93.62.17.42.54.8,1.08,1.12l6.56,3.79c.54.31,1.21.52,1.93.62.17.42.54.8,1.08,1.11l6.57,3.79c1.28.74,3.26.89,4.83.37l2.19-.73c0-.07.03-.15.05-.22-.06-.2-.08-.4-.05-.6M62,83.11c-.16,0-.32-.02-.48-.03-5.96-.41-10.92-1.73-14.73-3.93-3.23-1.86-4.99-4.02-5.17-6.32,0,.03,0,.05,0,.08-.02.25-.01.51,0,.76.2,2.29,1.95,4.44,5.18,6.3,3.81,2.2,8.77,3.53,14.74,3.94.16.01.32.02.48.03-.03-.18-.03-.36,0-.54,0-.04.02-.07.03-.1-.02-.06-.03-.12-.05-.18M139.13,127.58l-2.7.9c-1.56.52-3.54.37-4.83-.37l-6.56-3.79c-.59-.34-.97-.77-1.12-1.23-.02.07-.04.15-.05.22-.03.2,0,.4.06.59.15.46.53.89,1.12,1.23l6.56,3.79c1.28.74,3.27.9,4.83.37l2.7-.91s0-.02,0-.03c-.02-.26-.03-.52-.01-.78M41.6,71.27l-2.7.9c-1.56.52-3.54.37-4.83-.37l-6.56-3.79c-.59-.34-.97-.77-1.12-1.23-.02.07-.04.15-.05.22-.03.2,0,.4.06.59.15.46.53.89,1.12,1.23l6.56,3.79c1.28.74,3.27.9,4.83.37l2.7-.91s0-.02,0-.03c-.02-.26-.03-.52-.01-.78M197.29,134.47c-.21.67-.91,1.26-1.93,1.6l-18.63,6.24c-.95.32-2.05.39-3.05.23-.58.65-1.55,1.31-3.15,1.85-1.94.64-4.07.88-6.37.72-2.36-.16-4.34-.7-5.9-1.6-1.1-.63-1.83-1.37-2.14-2.16-1.02,0-2.02-.24-2.78-.68l-9.03-5.21c-3.23-1.86-4.99-4.02-5.17-6.32,0,.03,0,.05,0,.08-.02.25-.01.51,0,.76.2,2.29,1.95,4.44,5.18,6.3l9.03,5.21c.76.44,1.76.67,2.77.68.32.79,1.06,1.53,2.16,2.16,1.56.9,3.53,1.44,5.9,1.6,2.3.16,4.43-.08,6.37-.72,1.61-.54,2.57-1.21,3.15-1.85,1,.16,2.1.09,3.05-.22l18.63-6.25c1.02-.34,1.72-.92,1.93-1.59.01-.04.02-.08.03-.11.05-.24.04-.48-.03-.71M70.49,58.54l-.64-.37s-.01.08-.02.13c0,.04-.02.07-.03.11,0,.01,0,.03.01.04.23.03.45.06.68.09M154.42,107l-1.81-1.05c0,.08-.03.15-.05.23.06.19.08.39.05.59l.92.53.89-.3M168.02,114.85l-.64-.37s-.01.08-.02.13c0,.04-.02.07-.03.11,0,.01,0,.03.01.04.23.03.45.06.68.09M120.05,87.15l-.16-.08-.37-.22s-.01.08-.02.13c0,.04-.02.07-.03.11.06.19.08.39.06.58l.1.06.89-.3-.31-.18-.15-.1M56.37,50.26c-.33-.1-.63-.23-.9-.39l-.39-.22c0,.08-.03.15-.05.23.06.19.08.39.05.59l.39.22c.18.11.38.2.6.28l.83-.28c-.21-.13-.39-.28-.53-.43M41.22,41.06s-.02.07-.03.11c-.05.24-.04.48.03.72.05.17.14.33.26.49l.65-.22c-.47-.32-.78-.7-.9-1.1M110.53,78.7l-.22.07c.06.04.13.09.18.13,0-.07.02-.14.04-.21M90.59,66.37l-3.46-2-2.34.31c.22.24.42.49.61.74l1.74-.23,3.46,2s.01-.05.02-.07c-.08-.25-.09-.5-.02-.75M133.78,90.66l-1.81.61.32.18c.19.11.36.23.51.36l.99-.33c.01-.07.03-.15.05-.22-.06-.2-.08-.4-.05-.6M211.9,111.32c-.02.33-.08.66-.17,1-.77,2.96-3.74,5.32-8.81,7.03-4.75,1.59-10.17,2.19-16.09,1.78-1.33-.09-2.61-.23-3.84-.41l1.82,1.05c.66.07,1.34.13,2.03.18,5.92.41,11.33-.19,16.1-1.78,5.07-1.71,8.03-4.08,8.81-7.03.09-.33.14-.66.17-.99.02-.28.02-.55,0-.83M86.43,33.45l-1.75-1.01s-.01.08-.02.13c0,.04-.02.08-.03.12.06.19.08.38.05.57l.85.49.89-.3M128.15,57.34c-.82-.36-1.58-.74-2.27-1.12,0,.08-.03.16-.05.24.06.19.08.38.05.57.39.22.81.44,1.24.65l1.02-.34M97.86,36.74s0,.03,0,.05c-.01.16-.01.32,0,.49l.1.06c-.04-.19-.07-.39-.09-.59M120.37,47.09c-.85-.02-1.72-.05-2.59-.11-3.13-.21-5.98-.68-8.53-1.39,0,.11,0,.23-.03.34,0,.04-.02.08-.03.11.04.12.06.24.06.36,1.42.4,2.93.72,4.53.96.53,0,1.06.08,1.55.21.8.09,1.62.17,2.46.23.88.06,1.74.1,2.59.11,0,0,0,0,0,0-.03-.27-.03-.54,0-.81M97.84,31.87l-5.91,1.98.9.52,5.01-1.68s0-.05,0-.08c-.02-.25-.02-.49,0-.74M171.11,50.77c-.2.67-.9,1.25-1.92,1.59l-14.48,4.87c-7.3,2.44-13.37,2.89-18.28,2.32l1.68.97c4.6.3,10.11-.3,16.61-2.47l14.48-4.87c1.02-.34,1.73-.92,1.92-1.6.01-.03.02-.07.03-.1.05-.24.04-.48-.03-.71"/>
        <path d="M89.95,99.56l-1.39.47c-1.56.52-3.54.37-4.83-.37l-6.56-3.79c-.59-.34-.98-.77-1.12-1.24-.01.04-.02.08-.03.11,0,0,0,0,0,0-.05.24-.04.47.04.7.15.46.53.89,1.12,1.23l6.56,3.79c1.28.74,3.26.89,4.83.37l1.39-.47s0-.02,0-.04c0-.03.02-.07.03-.1-.07-.22-.08-.45-.04-.68M76.01,91.48l-1.43.48c-1.56.52-3.54.37-4.83-.37l-6.57-3.79c-.58-.34-.97-.77-1.11-1.22-.01.03-.02.07-.03.1-.04.18-.04.36-.01.54.01.06.02.12.04.17.14.46.53.89,1.11,1.23l6.57,3.79c1.28.74,3.26.89,4.83.37l1.43-.48s0,0,0,0c0-.03.02-.07.03-.1-.07-.23-.09-.47-.03-.71M26.31,62.1l-2.19.73c-1.57.52-3.55.37-4.83-.37l-6.56-3.79c-.59-.34-.97-.77-1.11-1.23-.01.04-.02.08-.03.11-.05.24-.04.48.03.71.15.46.53.89,1.12,1.23l6.56,3.79c1.29.74,3.27.9,4.83.37l2.19-.73c0-.07.03-.15.05-.22-.06-.2-.08-.4-.05-.6M123.84,118.4l-2.19.73c-1.57.52-3.55.37-4.83-.37l-6.56-3.79c-.54-.31-.9-.7-1.08-1.11-.71-.1-1.38-.31-1.93-.62l-6.57-3.79c-.54-.31-.9-.7-1.08-1.11-.71-.1-1.38-.31-1.93-.62l-6.56-3.79c-.59-.34-.97-.77-1.12-1.23-.01.03-.02.07-.03.11,0,.01,0,.03,0,.04-.04.22-.03.45.04.66.14.46.53.9,1.12,1.24l6.56,3.79c.55.32,1.21.52,1.93.62.17.42.54.8,1.08,1.11l6.57,3.79c.54.31,1.21.52,1.93.62.17.42.54.8,1.08,1.11l6.56,3.79c1.29.74,3.27.9,4.83.37l2.19-.73c0-.07.03-.15.05-.22-.06-.2-.08-.4-.05-.6M62.11,82.3c-.2-.01-.39-.02-.59-.04-5.97-.41-10.92-1.73-14.73-3.93-3.21-1.85-4.96-3.99-5.17-6.27,0,.01,0,.02,0,.03-.02.25-.01.49,0,.74.19,2.3,1.94,4.45,5.17,6.32,3.81,2.2,8.77,3.53,14.73,3.93.16.01.32.02.48.03-.03-.18-.03-.35.01-.53.02-.09.05-.19.09-.28M139.12,126.75l-2.7.91c-1.56.52-3.54.37-4.83-.37l-6.56-3.79c-.59-.34-.97-.77-1.12-1.23-.02.07-.04.15-.05.22-.03.2,0,.4.05.6.14.46.53.89,1.12,1.23l6.56,3.79c1.28.74,3.26.89,4.83.37l2.7-.9s0-.04,0-.06c-.02-.25-.02-.51,0-.76M41.6,70.45l-2.7.91c-1.56.52-3.54.37-4.83-.37l-6.56-3.79c-.59-.34-.97-.77-1.12-1.23-.02.07-.04.15-.05.22-.03.2,0,.4.05.6.14.46.53.89,1.12,1.23l6.56,3.79c1.28.74,3.26.89,4.83.37l2.7-.9s0-.04,0-.06c-.02-.25-.02-.51,0-.76M197.29,133.65c-.21.67-.9,1.25-1.93,1.6l-18.63,6.24c-.95.32-2.05.39-3.05.23-.58.65-1.55,1.31-3.15,1.85-1.94.64-4.08.88-6.37.72-2.36-.16-4.34-.7-5.9-1.6-1.1-.63-1.83-1.37-2.14-2.16-1.02,0-2.02-.24-2.78-.68l-9.03-5.21c-3.21-1.85-4.96-3.99-5.17-6.27,0,.01,0,.02,0,.03-.02.25-.01.49,0,.74.19,2.3,1.94,4.45,5.17,6.32l9.03,5.21c.76.44,1.76.67,2.78.68.32.79,1.05,1.53,2.14,2.16,1.56.9,3.54,1.44,5.9,1.6,2.3.16,4.43-.08,6.37-.72,1.61-.54,2.57-1.21,3.15-1.85,1,.16,2.1.09,3.05-.23l18.63-6.24c1.02-.34,1.72-.93,1.93-1.6.01-.04.02-.07.03-.11.05-.24.04-.48-.03-.71M72.5,58.89l-2.66-1.53s-.01.08-.02.13c0,.03-.02.07-.03.1.06.19.08.39.05.59l.64.37c.69.1,1.36.22,2.01.35M155.35,106.72l-2.75-1.59c0,.08-.03.16-.05.23.06.19.08.39.05.58l1.81,1.05.38-.13c.18-.06.36-.11.55-.15M170.03,115.19l-2.66-1.53s-.01.08-.02.13c0,.03-.02.07-.03.1.06.19.08.39.05.59l.64.37c.69.1,1.36.22,2.01.35M120.04,86.33l-.16-.08-.37-.22s-.01.08-.02.13c0,.03-.02.07-.03.1.06.19.08.39.05.59l.37.22.16.08.15.1.31.18.39-.13c.18-.06.36-.11.54-.15l-1.25-.72-.15-.09M56.36,49.44c-.33-.1-.63-.23-.9-.39l-.39-.22c0,.08-.03.16-.05.23.06.19.08.39.05.58l.39.22c.27.15.57.29.9.39.15.16.32.3.53.43l.37-.13c.18-.06.36-.11.55-.15l-.79-.46c-.27-.15-.49-.33-.67-.52M41.22,40.24s-.02.07-.03.11c-.05.24-.04.48.03.71.13.4.44.78.9,1.1l.38-.13c.18-.06.36-.11.54-.15l-.72-.41c-.59-.34-.97-.77-1.11-1.23M110.52,77.89l-.58.19c-.18.06-.36.11-.55.15l.71.41c.08.04.15.09.22.14l.22-.07s0,0,0,0v-.06c-.06-.25-.08-.5-.01-.75M90.58,65.54l-3.45-1.99-3.07.41c.26.24.51.48.73.72l2.34-.31,3.46,2s.01-.04.02-.06c-.08-.25-.09-.51-.02-.77M133.78,89.85l-2.19.73c-.18.06-.36.11-.55.15l.93.54,1.81-.61c.01-.07.03-.15.05-.22-.06-.2-.08-.4-.05-.6M211.89,110.52c-.02.33-.08.65-.16.98-.77,2.96-3.74,5.32-8.81,7.03-4.76,1.59-10.17,2.19-16.09,1.78-2.08-.14-4.03-.4-5.85-.76l2.02,1.17c1.23.18,2.51.32,3.84.41,5.92.41,11.34-.19,16.09-1.78,5.08-1.71,8.04-4.07,8.81-7.03.09-.34.14-.67.17-1,.02-.27.02-.54,0-.8M125.84,58.11s0,.01,0,.02h0s0-.01,0-.02M87.49,33.14c-.28-.1-.54-.21-.78-.35l-2.03-1.17s-.01.08-.02.13c0,.04-.02.08-.03.11.06.19.08.38.06.58l1.75,1.01.38-.13c.22-.07.44-.13.67-.18M129.4,57.04c-1.31-.5-2.49-1.06-3.53-1.63,0,.08-.03.16-.05.24.06.19.08.38.06.57.7.39,1.45.77,2.27,1.12l.17-.06c.35-.12.71-.2,1.08-.25M120.38,49.54s0,0,0,0c-.02.25-.03.49,0,.74l.2.12c-.1-.29-.17-.57-.2-.86M97.86,35.92s0,.03,0,.05c-.02.26-.01.52,0,.77.02.2.05.39.09.59l.3.18c-.22-.52-.35-1.05-.39-1.58M120.36,46.27c-.85-.02-1.72-.05-2.59-.11-3.13-.21-5.98-.68-8.53-1.39,0,.11,0,.23-.03.34,0,.04-.02.07-.03.11.04.12.06.24.06.37,2.55.71,5.4,1.18,8.53,1.39.87.06,1.74.09,2.59.11,0,0,0,0,0,0-.03-.27-.03-.54,0-.81M97.96,31.01l-6.43,2.15c-.21.07-.44.13-.67.18.28.1.54.21.78.35l.28.16,5.91-1.98c.02-.29.06-.57.13-.86M171.11,49.94c-.2.67-.9,1.26-1.92,1.6l-14.49,4.86c-8.27,2.77-14.96,2.98-20.18,2.04l1.91,1.1c4.92.57,10.98.13,18.28-2.32l14.48-4.87c1.02-.34,1.72-.92,1.92-1.59.01-.04.02-.07.03-.11.05-.24.04-.48-.03-.72"/>
        <path d="M89.95,98.75l-1.39.47c-1.56.52-3.54.37-4.83-.37l-6.57-3.79c-.58-.34-.97-.77-1.11-1.22-.01.03-.02.07-.03.1,0,0,0,0,0,0-.05.24-.04.47.03.7.14.46.53.89,1.12,1.24l6.56,3.79c1.28.74,3.26.89,4.83.37l1.39-.47s0-.02,0-.04c0-.03.02-.07.03-.1-.07-.22-.08-.45-.04-.68M76,90.66l-1.43.48c-1.56.52-3.54.37-4.83-.37l-6.57-3.79c-.58-.34-.97-.77-1.11-1.22-.01.03-.02.07-.03.1-.04.18-.04.36-.01.53.01.06.03.12.05.18.14.46.53.89,1.11,1.22l6.57,3.79c1.28.74,3.26.89,4.83.37l1.43-.48s0,0,0,0c0-.03.02-.07.03-.1-.07-.23-.09-.47-.03-.71M26.78,61.12l-2.66.89c-1.57.52-3.55.37-4.83-.37l-6.56-3.79c-.58-.34-.97-.76-1.11-1.22,0,.03-.02.07-.02.1-.05.24-.04.48.03.71.14.46.53.89,1.11,1.23l6.56,3.79c1.28.74,3.26.89,4.83.37l2.19-.73c.03-.22.11-.44.25-.65l.22-.33M124.31,117.43l-2.66.89c-1.57.52-3.55.37-4.83-.37l-6.56-3.79c-.54-.31-.91-.7-1.08-1.11-.71-.1-1.38-.31-1.93-.62l-6.57-3.79c-.54-.31-.9-.7-1.08-1.11-.71-.1-1.38-.31-1.93-.62l-6.56-3.79c-.59-.34-.97-.77-1.12-1.23-.01.03-.02.07-.03.1,0,.01,0,.03,0,.04-.04.23-.03.45.04.67.15.46.53.89,1.12,1.23l6.56,3.79c.54.31,1.21.52,1.93.62.17.42.54.8,1.08,1.11l6.57,3.79c.54.31,1.21.52,1.93.62.17.42.54.8,1.08,1.11l6.56,3.79c1.28.74,3.26.89,4.83.37l2.19-.73c.03-.22.11-.44.25-.65l.22-.33M139.12,125.94l-2.7.91c-1.56.52-3.54.37-4.83-.37l-6.56-3.79c-.59-.34-.97-.77-1.12-1.23-.02.07-.04.15-.05.22-.03.2,0,.4.05.6.14.46.53.89,1.12,1.23l6.56,3.79c1.28.74,3.26.89,4.83.37l2.7-.91s0-.04,0-.06c-.02-.25-.02-.51,0-.76M41.59,69.63l-2.7.91c-1.56.52-3.54.37-4.83-.37l-6.56-3.79c-.59-.34-.97-.77-1.12-1.23-.02.07-.04.15-.05.22-.03.2,0,.4.05.6.14.46.53.89,1.12,1.23l6.56,3.79c1.28.74,3.26.89,4.83.37l2.7-.91s0-.04,0-.06c-.02-.25-.02-.51,0-.76M62.75,81.51c-.41-.02-.82-.04-1.24-.07-5.97-.41-10.92-1.73-14.73-3.93-3.22-1.86-4.98-4.01-5.18-6.3,0,.02,0,.04,0,.06-.02.26-.01.53.01.78.21,2.28,1.97,4.42,5.17,6.27,3.81,2.2,8.76,3.52,14.73,3.93.2.01.4.03.59.04.13-.29.35-.55.64-.79M197.28,132.83c-.21.67-.91,1.25-1.93,1.6l-18.63,6.24c-.95.32-2.04.39-3.05.23-.58.65-1.55,1.31-3.15,1.85-1.94.64-4.07.87-6.37.72-2.36-.16-4.34-.7-5.9-1.6-1.1-.63-1.83-1.37-2.14-2.16-1.02,0-2.02-.24-2.78-.68l-9.03-5.21c-3.22-1.86-4.98-4.01-5.18-6.3,0,.02,0,.04,0,.06-.02.26-.01.52.01.78.21,2.28,1.97,4.42,5.17,6.27l9.03,5.21c.76.44,1.76.67,2.78.68.32.79,1.05,1.53,2.14,2.16,1.56.9,3.55,1.44,5.9,1.6,2.29.15,4.43-.08,6.37-.72,1.6-.54,2.56-1.2,3.15-1.85,1,.16,2.1.09,3.05-.23l18.63-6.24c1.02-.34,1.72-.93,1.93-1.6.01-.04.02-.07.03-.11.04-.18.04-.35.01-.52-.01-.06-.03-.13-.05-.19M55.04,50.69c-.04.14-.11.28-.2.42l-.22.34.48-.16s0,0,0-.01c.03-.2,0-.4-.06-.59M152.56,107c-.04.14-.11.28-.2.42l-.22.34.48-.16s0,0,0-.01c.03-.2,0-.4-.06-.59M74.89,59.44l-5.05-2.91s-.01.09-.02.13c0,.03-.02.07-.03.1.06.19.08.39.05.59l2.66,1.53c.82.16,1.62.35,2.38.55M122.6,86.99l-2.4-1.39-.15-.09-.16-.09-.37-.21s-.01.09-.02.13c0,.03-.02.07-.03.1.06.19.08.39.05.59l.37.22.16.08.15.09,1.25.72c.38-.09.77-.14,1.16-.15M156.51,106.57l-3.91-2.26c0,.08-.03.16-.05.24.06.19.08.39.05.58l2.75,1.59c.38-.09.77-.14,1.16-.15M172.43,115.75c-.11-.06-.22-.12-.33-.19l-4.73-2.73s-.01.09-.02.13c0,.03-.02.07-.03.1.06.19.08.39.05.59l2.66,1.53c.83.16,1.62.35,2.4.56M56.36,48.62c-.32-.1-.63-.24-.89-.39l-.39-.23c0,.08-.03.16-.05.24.06.19.08.39.05.58l.39.22c.27.15.57.29.9.39.18.19.4.36.67.52l.79.46c.38-.09.77-.14,1.16-.15l-1.95-1.12c-.27-.15-.5-.32-.68-.52M41.21,39.42s-.02.07-.03.11c-.05.24-.04.48.03.71.14.46.52.89,1.11,1.23l.72.41c.38-.09.77-.14,1.16-.15l-1.88-1.08c-.58-.34-.97-.77-1.12-1.22M110.52,77.07l-.59.19c-.53.18-1.12.28-1.7.3l1.16.67c.19-.04.37-.09.55-.15l.58-.19s0,0,0-.01l.02-.07c-.07-.24-.08-.49-.02-.74M90.58,64.72l-3.45-1.99-3.16.42c-.27.04-.55.06-.82.06.33.25.63.49.91.75l3.07-.41,3.45,1.99s.01-.04.02-.06c-.08-.25-.09-.51-.02-.76M134.25,88.87l-2.66.89c-.53.18-1.12.28-1.7.3l1.16.67c.19-.04.37-.09.55-.15l2.19-.73c.03-.22.11-.43.25-.64l.22-.34M211.89,109.7c-.02.33-.08.65-.16.98-.77,2.96-3.74,5.32-8.81,7.03-4.76,1.59-10.17,2.19-16.09,1.78-3.01-.21-5.76-.65-8.24-1.31.11.06.22.12.33.19l2.05,1.19c1.83.36,3.78.61,5.85.76,5.92.41,11.33-.2,16.09-1.78,5.08-1.71,8.04-4.07,8.81-7.03.09-.33.14-.66.16-.98.02-.27.02-.55,0-.82M109.19,47.68c-.02.08-.06.15-.09.23l.14-.02c-.01-.07-.03-.14-.05-.21M162.5,78.45c-.04.14-.11.28-.2.42l-.22.34.48-.16c.03-.2,0-.4-.05-.6M125.83,57.28c-.12.39-.4.76-.87,1.08l-.15.11,1.02-.34s0-.01,0-.02c.03-.08.04-.16.05-.25.02-.19,0-.39-.06-.58M84.63,33.49c-.07.25-.22.48-.42.7l.48-.16c.02-.18,0-.36-.06-.54M120.38,48.72s0,0,0,0c-.03.27-.03.54,0,.82.03.29.1.57.2.86l.58.34c-.45-.67-.71-1.34-.79-2.02M97.86,35.11s0,.03,0,.04c-.02.26-.01.52,0,.77.05.54.18,1.06.39,1.58l.65.38c-.62-.89-.97-1.82-1.05-2.78M120.36,45.45c-.85-.02-1.72-.05-2.6-.12-3.28-.22-6.25-.72-8.9-1.49.23.29.36.6.37.92,2.55.71,5.41,1.18,8.53,1.39.88.06,1.74.09,2.59.11,0,0,0-.01,0-.02-.03-.26-.03-.53,0-.8M98.25,30.09l-6.72,2.25c-1.56.52-3.54.37-4.83-.37l-2.03-1.17s-.01.09-.02.13c0,.04-.02.07-.03.11.06.19.08.39.06.58l2.03,1.17c.24.14.5.25.78.35,1.12-.23,2.37-.16,3.38.2.23-.05.45-.11.67-.18l6.43-2.15c.01-.06.03-.11.04-.17.07-.25.15-.5.25-.74M171.11,49.12c-.2.67-.9,1.26-1.92,1.6l-14.49,4.86c-13.87,4.65-23.29,2.08-28.82-1,0,.08-.03.16-.05.24.06.19.08.39.05.58,1.04.58,2.21,1.14,3.53,1.63,1.32-.18,2.75.04,3.75.62l1.37.79c5.22.94,11.91.73,20.18-2.04l14.49-4.86c1.02-.34,1.72-.93,1.92-1.6.01-.03.02-.07.03-.1.05-.24.04-.48-.03-.72"/>
        <path d="M90.61,97.7l-2.06.69c-1.56.52-3.54.37-4.83-.37l-6.57-3.79c-.58-.34-.97-.77-1.11-1.22-.01.03-.02.07-.03.1,0,0,0,0,0,0-.05.24-.04.48.03.71.14.46.53.89,1.11,1.22l6.57,3.79c1.28.74,3.26.89,4.83.37l1.39-.47s0-.02,0-.04c.08-.37.31-.71.66-1.01M76.72,89.6l-2.15.72c-1.56.52-3.54.37-4.83-.37l-6.56-3.79c-.58-.34-.97-.77-1.11-1.22-.01.03-.02.07-.03.1-.04.18-.04.36-.01.53.01.06.03.12.05.18.14.46.53.89,1.11,1.22l6.57,3.79c1.28.74,3.26.89,4.83.37l1.43-.48s0,0,0,0c.08-.39.33-.75.71-1.06M139.11,125.12l-2.7.91c-1.56.52-3.54.37-4.83-.37l-6.56-3.79c-.59-.34-.97-.77-1.12-1.23-.02.07-.04.15-.05.22-.03.2,0,.4.05.6.14.46.53.89,1.12,1.23l6.56,3.79c1.28.74,3.26.89,4.83.37l2.7-.91s0-.04,0-.06c-.02-.25-.02-.51,0-.76M41.59,68.81l-2.7.91c-1.56.52-3.54.37-4.83-.37l-6.56-3.79c-.59-.34-.97-.77-1.12-1.23-.02.07-.04.15-.05.22-.03.2,0,.4.05.6.14.46.53.89,1.12,1.23l6.56,3.79c1.28.74,3.26.89,4.83.37l2.7-.91s0-.04,0-.06c-.02-.25-.02-.51,0-.76M27.47,60.07l-3.36,1.12c-1.56.52-3.54.37-4.83-.37l-6.56-3.79c-.59-.34-.97-.77-1.12-1.23-.01.03-.02.07-.03.11-.05.24-.04.49.04.72.15.46.53.88,1.11,1.22l6.56,3.79c1.28.74,3.26.89,4.83.37l2.66-.89.69-1.05M125,116.37l-3.36,1.12c-1.56.52-3.54.37-4.83-.37l-6.56-3.79c-.54-.31-.91-.7-1.08-1.11-.71-.1-1.38-.31-1.93-.62l-6.56-3.79c-.54-.31-.9-.7-1.08-1.11-.71-.1-1.38-.31-1.93-.62l-6.57-3.79c-.58-.34-.97-.77-1.11-1.22-.01.03-.02.07-.03.1,0,.01,0,.02,0,.04-.05.23-.03.46.04.68.15.46.53.89,1.12,1.23l6.56,3.79c.54.31,1.21.52,1.93.62.17.42.54.8,1.08,1.11l6.57,3.79c.54.31,1.21.52,1.93.62.17.41.54.8,1.08,1.11l6.56,3.79c1.28.74,3.26.89,4.83.37l2.66-.89.69-1.05M64.38,80.74c-.94-.01-1.9-.05-2.87-.12-5.97-.41-10.92-1.73-14.73-3.93-3.22-1.86-4.98-4.01-5.18-6.3,0,.02,0,.04,0,.06-.02.26-.01.51,0,.76.2,2.29,1.95,4.44,5.18,6.3,3.81,2.2,8.76,3.52,14.73,3.93.42.03.83.05,1.24.07.32-.26.74-.47,1.23-.64l.4-.13M66.84,69.45c-.62-.23-1.37-.37-2.29-.43-1.23-.09-2.28.01-3.19.29.61.22,1.36.36,2.27.42,1.23.09,2.29,0,3.21-.28M167.32,114.72s0,.02-.01.04c0,0,.02,0,.02,0,0-.01,0-.03-.01-.04M69.8,58.41s0,.02-.01.04c0,0,.02,0,.02,0,0-.01,0-.03-.01-.04M197.28,132.01c-.21.67-.91,1.25-1.93,1.6l-18.63,6.24c-.95.32-2.04.39-3.05.23-.58.65-1.55,1.31-3.15,1.85-1.95.64-4.07.87-6.38.72-2.35-.16-4.34-.7-5.9-1.6-1.1-.63-1.82-1.37-2.14-2.16-1.02,0-2.02-.24-2.78-.68l-9.03-5.21c-3.22-1.86-4.98-4.01-5.18-6.3,0,.02,0,.04,0,.06-.02.26-.01.51,0,.76.2,2.29,1.95,4.44,5.18,6.3l9.03,5.21c.76.44,1.76.67,2.78.68.32.79,1.05,1.53,2.14,2.16,1.56.9,3.55,1.44,5.9,1.6,2.3.15,4.43-.08,6.37-.72,1.6-.54,2.57-1.21,3.15-1.85,1.01.15,2.1.09,3.05-.23l18.63-6.24c1.02-.35,1.72-.93,1.93-1.6.01-.04.02-.07.03-.11.04-.17.04-.35.01-.52-.01-.06-.03-.13-.05-.19M119.46,87.08c-.1.33-.32.63-.63.9l.67-.23s.01-.06.01-.09c.02-.2,0-.39-.06-.58M55.03,49.88c-.04.14-.11.28-.2.42l-.91,1.39.69-.23.22-.34c.09-.14.16-.28.2-.42.02-.08.04-.15.05-.23.02-.2,0-.39-.05-.59M152.56,106.18c-.04.14-.11.28-.2.42l-.91,1.39.69-.23.22-.34c.09-.14.16-.28.2-.42.02-.08.04-.15.05-.23.02-.2,0-.39-.05-.59M78.16,60.52l-8.55-4.93c.19.3.26.62.22.94l5.05,2.91c1.15.31,2.24.67,3.28,1.08M124.23,87.12l-4.04-2.33-.15-.09-.16-.09-.59-.34c.19.3.26.62.22.95l.37.21.16.09.15.09,2.4,1.39c.55-.02,1.11.02,1.63.13M158.14,106.69l-5.77-3.33c.19.3.27.62.23.95l3.91,2.26c.55-.02,1.11.02,1.63.13M56.35,47.8c-.33-.11-.63-.24-.9-.39l-.61-.35c.19.3.27.62.23.95l.39.23c.27.15.57.29.89.39.18.19.41.36.68.52l1.95,1.12c.55-.02,1.11.02,1.63.13l-3.59-2.07c-.27-.15-.49-.33-.68-.52M143.45,97.72c-.3-.04-.6-.1-.88-.18.16.18.28.36.36.55.3.04.6.1.88.18-.16-.18-.28-.36-.36-.55M110.55,78.64v.06s-.02,0-.02,0c-.02.07-.03.14-.04.21.12.09.22.19.31.29.02,0,.05.02.07.02-.15-.18-.26-.38-.33-.58M133.84,92.08c-.02.07-.04.15-.05.23-.01.11-.02.22,0,.33.15.03.31.07.45.11-.19-.21-.33-.44-.4-.67M90.61,67.12s-.01.05-.02.07c-.04.16-.05.32-.03.48.15.03.3.07.45.11-.19-.21-.32-.43-.39-.66M41.2,38.59s-.02.07-.03.11c-.05.24-.04.48.04.72.15.46.53.89,1.12,1.22l1.88,1.08c.55-.02,1.11.02,1.64.13l-3.52-2.03c-.59-.34-.97-.77-1.12-1.23M110.52,76.24l-.59.2c-1.04.35-2.26.4-3.34.18l1.64.95c.59-.02,1.17-.12,1.7-.3l.59-.19s0-.01,0-.02v-.06c-.06-.24-.07-.5,0-.75M90.9,64.1l-3.78-2.18-3.15.42c-.76.1-1.54.07-2.25-.08.52.31.99.63,1.43.96.27,0,.55-.02.82-.06l3.16-.42,3.45,1.99c.06-.22.16-.43.33-.63M134.94,87.82l-3.36,1.12c-1.04.35-2.26.4-3.34.17l1.64.95c.59-.02,1.17-.12,1.7-.3l2.66-.89.69-1.05M211.88,108.85c-.02.33-.08.67-.17,1.01-.77,2.96-3.73,5.33-8.8,7.03-4.76,1.59-10.18,2.19-16.1,1.79-5.97-.41-10.92-1.73-14.73-3.93l-4.95-2.86c.19.3.26.62.22.94l4.73,2.73c.11.06.22.13.33.19,2.29.62,4.35,1.43,6.16,2.43,2.48.67,5.23,1.11,8.24,1.31,5.92.41,11.33-.2,16.09-1.78,5.08-1.71,8.04-4.07,8.81-7.03.09-.33.14-.66.16-.98.02-.28.02-.57,0-.85M84.63,32.69c-.21.67-.92,1.25-1.93,1.59l-14.41,4.83.47.27,15.45-5.18c.2-.22.35-.45.42-.7.01-.03.02-.07.03-.1.01-.04.02-.09.02-.13.02-.19,0-.38-.05-.57M162.49,77.63c-.04.14-.11.28-.2.42l-.91,1.39.69-.23.22-.34c.09-.14.16-.28.2-.42.08-.27.08-.55,0-.82M125.83,56.46c-.12.38-.4.75-.86,1.07l-2.43,1.69,2.28-.76.15-.11c.46-.32.75-.69.87-1.08.02-.08.04-.16.05-.24.02-.19,0-.39-.05-.57M109.18,46.85c-.13.45-.49.86-1.02,1.18l.94-.13c.04-.07.07-.15.09-.23.01-.04.02-.08.03-.12.02-.12.03-.23.03-.35,0-.12-.03-.25-.07-.37M79.02,26.14s-.02.07-.03.11c0,.04-.02.08-.02.13l.22.12c-.07-.12-.13-.24-.16-.36M120.37,47.9s0,0,0,0c-.03.27-.03.54,0,.81.08.68.34,1.35.79,2.02l1.57.9c-1.43-1.23-2.21-2.48-2.36-3.74M97.85,34.27s0,.04,0,.06c-.02.26-.01.52,0,.78.08.95.44,1.88,1.05,2.78l1.55.9c-1.6-1.4-2.48-2.92-2.61-4.51M120.53,44.63c-.91-.01-1.83-.05-2.78-.12-4.39-.3-8.23-1.09-11.47-2.37l1.77,1.02c.34.2.61.42.81.67,2.65.77,5.62,1.27,8.9,1.49.88.06,1.74.1,2.6.12.02-.15.04-.29.07-.44.03-.13.06-.25.1-.37M98.75,29.1l-7.22,2.42c-1.57.53-3.55.38-4.83-.36l-2.25-1.3c.18.3.26.62.22.95l2.03,1.17c1.28.74,3.26.89,4.83.37l6.72-2.25c.14-.34.3-.67.5-.99M123.08,33.34c-.61-.23-1.37-.37-2.29-.43-1.23-.09-2.28,0-3.18.29.61.22,1.36.37,2.26.43,1.24.08,2.29,0,3.21-.28M115.1,15.98c-.04.12-.09.25-.17.37h.23c0-.13-.03-.25-.06-.37M171.1,48.3c-.2.67-.9,1.26-1.92,1.6l-14.48,4.86c-14.06,4.7-23.54,2.02-29.04-1.12.18.3.26.62.22.94,5.54,3.08,14.95,5.65,28.82,1l14.49-4.86c1.02-.34,1.72-.93,1.92-1.6.01-.03.02-.07.03-.1.05-.24.04-.48-.03-.72"/>
        <path d="M139.11,124.3l-2.7.9c-1.57.53-3.55.38-4.83-.36l-6.57-3.79c-.59-.34-.97-.77-1.11-1.23-.02.07-.04.15-.05.22-.03.2,0,.4.05.6.14.46.53.89,1.12,1.23l6.56,3.79c1.28.74,3.26.89,4.83.37l2.7-.91s0-.03,0-.04c-.02-.26-.03-.51,0-.77M41.58,67.99l-2.7.9c-1.57.53-3.55.38-4.83-.36l-6.57-3.79c-.59-.34-.97-.77-1.11-1.23-.02.07-.04.15-.05.22-.03.2,0,.4.05.6.14.46.53.89,1.12,1.23l6.56,3.79c1.28.74,3.26.89,4.83.37l2.7-.91s0-.03,0-.04c-.02-.26-.03-.51,0-.77M28.16,59.02l-4.05,1.35c-1.56.52-3.54.37-4.83-.37l-6.56-3.79c-.59-.34-.97-.77-1.12-1.23-.01.03-.02.07-.03.11-.05.24-.04.48.03.71.15.46.53.89,1.12,1.23l6.56,3.79c1.28.74,3.26.89,4.83.37l3.36-1.12.69-1.05M125.68,115.33l-4.05,1.35c-1.56.52-3.54.37-4.83-.37l-6.56-3.79c-.54-.31-.91-.7-1.08-1.11-.71-.1-1.38-.31-1.93-.62l-6.56-3.79c-.54-.31-.9-.7-1.08-1.11-.71-.1-1.38-.31-1.93-.62l-6.57-3.79c-.58-.34-.97-.77-1.11-1.22-.01.03-.02.07-.03.1,0,.01,0,.02,0,.04-.05.23-.03.46.04.68.15.46.53.89,1.11,1.22l6.57,3.79c.54.31,1.21.52,1.93.62.17.42.54.8,1.08,1.11l6.56,3.79c.55.32,1.22.53,1.93.62.17.41.54.8,1.08,1.11l6.56,3.79c1.28.74,3.26.89,4.83.37l3.36-1.12.69-1.05M66.92,79.89c-1.75.07-3.56.04-5.42-.08-5.97-.41-10.92-1.73-14.73-3.93-3.22-1.86-4.98-4.01-5.18-6.3,0,.02,0,.04,0,.06-.02.26-.01.51,0,.76.2,2.29,1.95,4.44,5.18,6.3,3.81,2.2,8.76,3.52,14.73,3.93.97.07,1.93.1,2.87.12l2.54-.85M96.86,95.35l-.61-.35-7.69,2.58c-1.57.53-3.55.38-4.83-.36l-6.57-3.79c-.58-.34-.97-.77-1.11-1.22-.01.03-.02.07-.03.1,0,0,0,0,0,0-.05.24-.04.48.03.71.14.46.53.89,1.11,1.22l6.57,3.79c1.28.74,3.26.89,4.83.37l2.06-.69c.33-.28.77-.52,1.3-.7l4.95-1.66M161.44,124.48c-1.04-.02-1.94.1-2.73.37-.35.12-.58.22-.73.32.06.04.14.09.23.15l.28.16,2.95-.99M67.48,68.94c-.71-.41-1.67-.65-2.94-.73-1.31-.09-2.41.02-3.36.34-.35.12-.58.22-.73.32.06.04.14.09.23.15.2.12.43.22.67.31.91-.28,1.96-.38,3.19-.29.92.06,1.67.2,2.29.43.06-.02.13-.04.19-.06.33-.11.55-.22.69-.31-.06-.05-.14-.1-.24-.15M93.26,83.82l-.65-.37-18.05,6.05c-1.57.53-3.56.37-4.84-.37l-6.56-3.79c-.58-.34-.97-.76-1.11-1.22,0,.03-.02.07-.03.1-.04.18-.04.36-.01.53.01.06.03.12.05.18.14.46.53.89,1.11,1.22l6.56,3.79c1.29.74,3.27.9,4.83.37l2.15-.72c.33-.26.75-.49,1.24-.65l15.3-5.13M55.02,49.06c-.04.14-.11.28-.2.42l-1.6,2.44.69-.23.91-1.39c.09-.14.15-.28.2-.42.02-.08.04-.15.05-.23.02-.2,0-.39-.05-.58M152.55,105.37c-.04.14-.11.28-.2.42l-1.6,2.44.69-.23.91-1.39c.09-.14.15-.28.2-.42.02-.08.04-.15.05-.23.02-.2,0-.39-.05-.58M197.28,131.19c-.2.67-.91,1.25-1.93,1.59l-18.63,6.25c-.94.32-2.04.39-3.05.23-.58.65-1.55,1.31-3.15,1.85-1.94.63-4.07.87-6.38.72-2.35-.16-4.34-.7-5.9-1.6-1.1-.63-1.82-1.37-2.14-2.16-1.02,0-2.02-.24-2.78-.68l-9.03-5.21c-3.22-1.86-4.98-4.01-5.18-6.3,0,.02,0,.04,0,.06-.02.26-.01.51,0,.76.2,2.29,1.95,4.44,5.18,6.3l9.03,5.21c.76.44,1.76.67,2.78.68.32.79,1.05,1.53,2.14,2.16,1.56.9,3.55,1.44,5.9,1.6,2.3.15,4.43-.08,6.38-.72,1.6-.54,2.57-1.21,3.15-1.85,1.01.15,2.1.09,3.05-.23l18.63-6.24c1.02-.35,1.72-.93,1.93-1.6.01-.04.02-.07.03-.11.04-.18.04-.35.01-.52-.01-.06-.03-.13-.05-.19M167.32,113.89c-.09.28-.26.55-.51.8.17.02.34.04.51.06,0-.01,0-.02.01-.04.01-.04.02-.07.03-.11,0-.04.02-.08.02-.13.03-.2,0-.4-.05-.59M69.79,57.58c-.09.28-.26.55-.51.8.17.02.34.04.51.06,0-.01,0-.02.01-.04.01-.04.02-.07.03-.11,0-.04.02-.08.02-.13.03-.2,0-.4-.05-.59M119.46,86.26c-.2.67-.9,1.26-1.93,1.6l-4.95,1.65.61.35,5.64-1.89c.31-.27.53-.57.63-.9.01-.04.02-.07.03-.11,0-.04.02-.08.02-.13.03-.2,0-.4-.05-.59M110.75,75.34l-.83.28c-1.56.52-3.54.37-4.83-.37l-6.57-3.79-.12-.07-.12-.07-6.56-3.79c-.6-.35-.97-.78-1.12-1.23,0,.02-.01.04-.02.06-.06.25-.05.5.02.75.07.23.2.45.39.66.37.11.73.25,1.03.43l14.55,8.4c1.08.22,2.3.17,3.34-.18l.59-.2s0,0,0-.01l.23-.89M91.45,63.6l-4.33-2.5-3.15.42c-1.34.18-2.76-.06-3.73-.62l-23.21-13.4c-.27-.15-.5-.33-.68-.52-.33-.11-.63-.24-.9-.39l-13.13-7.58c-.59-.34-.98-.77-1.12-1.24-.01.04-.02.08-.03.12-.05.24-.04.47.04.71.15.46.53.89,1.12,1.23l3.52,2.03c.55.11,1.06.3,1.49.54l6.56,3.79c.43.25.75.54.94.86l.61.35c.27.16.57.29.9.39.19.19.41.36.68.52l3.59,2.07c.55.11,1.06.29,1.49.54l6.57,3.79c.43.25.75.54.94.86l8.55,4.93c1.15.46,2.23.97,3.23,1.55.11.06.22.13.32.19.71.15,1.5.18,2.25.08l3.15-.42,3.78,2.18c.14-.18.32-.34.55-.5M135.63,86.77l-4.05,1.36c-1.57.52-3.55.37-4.83-.37l-6.56-3.79-.15-.09-.16-.09-8.2-4.74c-.59-.34-.98-.78-1.12-1.24l-.02.07s0,0,0,.01c-.06.25-.05.51.03.75.06.2.18.4.33.58.32.1.62.23.89.39l6.56,3.79c.43.25.75.54.95.86l.59.34.16.09.15.09,4.04,2.33c.55.11,1.06.29,1.49.54l2.52,1.46c1.08.22,2.3.17,3.34-.17l3.36-1.12.69-1.05M192.78,106.99l-.29-.17-2.96.99c1.05.02,1.98-.1,2.78-.37.34-.11.55-.21.7-.31-.06-.05-.14-.09-.23-.15M211.88,108.08c-.03.32-.08.64-.16.96-.78,2.96-3.74,5.33-8.81,7.03-4.76,1.59-10.18,2.19-16.1,1.79-5.97-.41-10.92-1.73-14.73-3.93l-9.03-5.21c-.37-.21-.66-.46-.86-.73-.47-.11-.89-.28-1.26-.49l-16.41-9.48c-.54-.31-.9-.7-1.08-1.11-.71-.1-1.38-.31-1.93-.62l-6.56-3.79c-.59-.34-.97-.77-1.12-1.23-.02.07-.04.15-.05.22-.03.2,0,.4.05.6.07.23.21.46.4.67.38.11.73.25,1.05.44l6.56,3.79c.29.17.53.36.72.56.28.08.57.14.88.18.08.19.2.38.36.55.38.11.73.26,1.05.44l6.56,3.79c.43.25.75.54.94.86l5.77,3.33c.55.11,1.06.29,1.49.54l6.57,3.79c.43.25.75.54.94.86l4.95,2.86c3.81,2.2,8.76,3.52,14.73,3.93,5.92.41,11.33-.2,16.1-1.79,5.07-1.7,8.03-4.07,8.8-7.03.09-.34.14-.67.17-1.01.02-.26.02-.52,0-.77M84.63,31.86c-.21.67-.91,1.25-1.93,1.59l-15.3,5.13.9.52,14.41-4.83c1.01-.34,1.72-.92,1.93-1.59.01-.04.02-.08.03-.12,0-.04.02-.08.02-.13.02-.19,0-.39-.06-.58M125.82,55.65c-.12.38-.4.75-.86,1.07l-4.71,3.27,2.28-.76,2.43-1.69c.46-.32.74-.69.86-1.07.02-.08.04-.16.05-.24.02-.19,0-.38-.06-.57M162.49,76.82c-.04.14-.11.28-.2.41l-1.6,2.45.69-.23.91-1.39c.09-.14.16-.28.2-.42.08-.27.08-.55,0-.82M109.18,46.04c-.2.67-.9,1.25-1.93,1.59l-2.6.87,3.52-.47c.53-.32.89-.73,1.02-1.18.01-.04.02-.07.03-.11.02-.11.03-.23.03-.34,0-.12-.03-.24-.06-.36M120.89,43.82c-1.03,0-2.07-.05-3.13-.12-5.97-.41-10.92-1.73-14.74-3.93-3.21-1.85-4.96-4-5.17-6.28,0,0,0,.02,0,.03-.02.26-.01.51,0,.76.13,1.59,1.01,3.11,2.61,4.51l5.82,3.36c3.24,1.27,7.08,2.07,11.47,2.37.94.07,1.87.11,2.78.12.09-.28.2-.55.35-.81M99.57,28.01l-8.04,2.69c-1.57.53-3.56.37-4.84-.37l-6.56-3.79c-.59-.34-.97-.77-1.11-1.23-.01.04-.02.07-.03.11-.05.24-.04.48.03.71.04.12.09.24.16.36l4.32,2.49c.43.25.75.55.95.87l2.25,1.3c1.28.74,3.26.89,4.83.36l7.22-2.42c.23-.38.5-.74.82-1.09M123.73,32.83c-.71-.41-1.67-.65-2.94-.73-1.31-.09-2.41.02-3.35.34-.35.12-.58.22-.73.31.06.04.14.09.23.14.2.12.43.22.67.31.91-.28,1.96-.38,3.18-.29.92.06,1.67.21,2.29.43.06-.02.13-.04.19-.06.33-.11.55-.22.69-.31-.06-.05-.14-.1-.24-.15M171.1,47.49c-.21.67-.91,1.25-1.93,1.59l-14.48,4.86c-14.18,4.74-23.7,1.97-29.19-1.2-3.2-1.84-4.92-3.75-5.14-5.67,0,0,0,0,0,0-.03.27-.03.54,0,.81.15,1.26.93,2.51,2.36,3.74l1.97,1.14c.44.25.76.55.95.87,5.51,3.13,14.98,5.82,29.04,1.12l14.48-4.86c1.02-.34,1.72-.93,1.92-1.6.01-.03.02-.07.03-.1.05-.24.04-.48-.03-.71M157.97,39.91c-.11.38-.39.73-.79,1.02l.82-.27s0-.03,0-.04c.05-.24.04-.48-.03-.71M115.1,15.15c-.05.17-.14.34-.26.5l-.51.7h.6c.07-.13.13-.25.17-.38.08-.27.08-.55,0-.82"/>
        <path d="M41.71,67.13l-2.83.95c-1.57.53-3.55.38-4.83-.36l-6.57-3.79c-.59-.34-.97-.77-1.11-1.23-.02.07-.04.15-.05.22-.03.2,0,.4.05.6.14.46.52.89,1.11,1.23l6.57,3.79c1.28.74,3.26.89,4.83.36l2.7-.9c.02-.29.06-.57.13-.86M139.24,123.44l-2.83.95c-1.57.53-3.55.38-4.83-.36l-6.57-3.79c-.59-.34-.97-.77-1.11-1.23-.02.07-.04.15-.05.22-.03.2,0,.4.05.6.14.46.52.89,1.11,1.23l6.57,3.79c1.28.74,3.26.89,4.83.36l2.7-.9c.02-.29.06-.57.13-.86M28.85,57.96l-4.75,1.59c-1.56.52-3.54.37-4.83-.37l-6.56-3.79c-.59-.34-.97-.77-1.12-1.23-.01.03-.02.07-.03.1-.05.24-.04.48.03.71.15.46.53.89,1.12,1.23l6.56,3.79c1.28.74,3.26.89,4.83.37l4.05-1.35.69-1.06M126.38,114.27l-4.75,1.59c-1.56.52-3.54.37-4.83-.37l-6.56-3.79c-.54-.31-.91-.7-1.08-1.12-.71-.09-1.38-.3-1.93-.62l-6.56-3.79c-.54-.31-.91-.7-1.08-1.11-.71-.1-1.38-.31-1.93-.62l-6.57-3.79c-.58-.34-.97-.76-1.11-1.22-.01.03-.02.07-.03.1,0,.01,0,.02,0,.04-.05.23-.03.46.04.68.14.46.53.89,1.11,1.22l6.57,3.79c.54.31,1.21.52,1.93.62.17.42.54.8,1.08,1.11l6.56,3.79c.55.32,1.22.53,1.93.62.17.41.54.8,1.08,1.11l6.56,3.79c1.28.74,3.26.89,4.83.37l4.05-1.35.69-1.06M97.76,95.05l-1.51-.87-7.7,2.58c-1.57.53-3.55.38-4.84-.37l-6.56-3.79c-.58-.34-.97-.76-1.11-1.22-.01.03-.02.07-.03.1,0,0,0,0,0,0-.05.24-.04.48.03.71.14.46.53.89,1.11,1.22l6.57,3.79c1.28.74,3.26.89,4.83.36l7.69-2.58.61.35.9-.3M70.08,78.83c-2.72.31-5.58.36-8.57.15-5.97-.41-10.92-1.73-14.74-3.93-3.21-1.86-4.97-4-5.18-6.29,0,.01,0,.03,0,.04-.02.26-.01.51,0,.76.2,2.29,1.95,4.44,5.18,6.3,3.81,2.2,8.76,3.52,14.73,3.93,1.86.13,3.67.15,5.42.08l3.16-1.06M163.34,123.85c-.38-.07-.82-.13-1.27-.15-1.31-.09-2.41.02-3.36.34-.93.31-.99.53-1.01.65-.03.1-.07.23.29.49.15-.09.38-.2.73-.32.8-.27,1.7-.39,2.73-.37l1.89-.63M67.48,68.12c-.71-.41-1.67-.65-2.94-.73-1.31-.09-2.41.02-3.36.34-.93.31-.99.53-1.01.65-.03.1-.07.23.29.49.15-.09.38-.2.73-.32.95-.32,2.05-.43,3.36-.34,1.27.08,2.23.32,2.94.73.09.05.17.1.24.15.23-.15.26-.27.28-.34.03-.12.07-.29-.52-.63M94.16,83.52l-1.55-.89-18.05,6.05c-1.58.52-3.56.37-4.84-.37l-6.56-3.79c-.58-.34-.97-.77-1.12-1.23-.01.03-.02.07-.03.1-.04.18-.04.36,0,.54.01.06.03.12.05.18.15.46.53.89,1.11,1.22l6.56,3.79c1.28.74,3.27.9,4.84.37l18.05-6.05.65.37.89-.3M55.02,48.24c-.04.14-.11.28-.2.42l-2.28,3.49.69-.23,1.6-2.44c.09-.14.15-.28.2-.42.02-.08.04-.16.05-.23.02-.2,0-.39-.05-.58M152.55,104.55c-.04.14-.11.28-.2.42l-2.28,3.49.69-.23,1.6-2.44c.09-.14.15-.28.2-.42.02-.08.04-.16.05-.23.02-.2,0-.39-.05-.58M197.27,130.37c-.2.67-.91,1.25-1.93,1.59l-18.63,6.25c-.95.31-2.04.39-3.05.23-.58.64-1.55,1.31-3.15,1.85-1.94.64-4.07.88-6.37.72-2.36-.16-4.34-.7-5.9-1.6-1.1-.63-1.82-1.37-2.14-2.16-1.02,0-2.02-.24-2.78-.68l-9.03-5.21c-3.21-1.86-4.97-4-5.18-6.29,0,.01,0,.03,0,.04-.02.26-.01.51,0,.76.2,2.29,1.95,4.44,5.18,6.3l9.03,5.21c.76.44,1.76.67,2.78.68.32.79,1.05,1.53,2.14,2.16,1.56.9,3.55,1.44,5.9,1.6,2.3.15,4.44-.08,6.38-.72,1.59-.54,2.57-1.21,3.15-1.85,1.01.15,2.11.08,3.05-.23l18.63-6.25c1.02-.34,1.73-.93,1.93-1.59.01-.03.02-.07.03-.11.04-.18.04-.35.01-.52-.01-.06-.03-.13-.05-.19M119.46,85.44c-.2.67-.9,1.26-1.92,1.6l-5.85,1.96.9.52,4.95-1.65c1.03-.34,1.73-.93,1.93-1.6.01-.03.02-.07.03-.1,0-.04.02-.08.02-.13.03-.2,0-.4-.05-.59M167.32,113.07c-.18.6-.77,1.14-1.64,1.49.38.04.76.08,1.13.12.25-.24.43-.51.51-.8.01-.03.02-.07.03-.1,0-.04.02-.08.02-.13.03-.2,0-.4-.05-.59M69.79,56.76c-.18.6-.77,1.14-1.64,1.49.38.04.76.08,1.13.12.25-.24.43-.51.51-.8.01-.03.02-.07.03-.1,0-.04.02-.08.02-.13.03-.2,0-.4-.05-.59M110.99,74.44l-1.07.36c-1.56.52-3.54.37-4.83-.37l-6.56-3.79-.12-.07-.12-.07-6.57-3.79c-.6-.35-.97-.78-1.12-1.23,0,.02-.01.04-.02.06-.07.25-.06.51.02.77.14.45.52.88,1.12,1.23l6.56,3.79.12.07.12.07,6.57,3.79c1.28.74,3.26.89,4.83.37l.83-.28.24-.9M92.09,63.15l-4.97-2.87-3.15.42c-1.34.18-2.76-.06-3.73-.62l-23.21-13.4c-.27-.15-.5-.33-.68-.52-.33-.11-.62-.24-.9-.39l-13.13-7.58c-.59-.34-.97-.77-1.12-1.23-.01.03-.02.07-.03.1-.05.24-.04.48.03.71.14.46.53.9,1.12,1.24l13.13,7.58c.27.16.57.29.9.39.18.18.41.36.68.52l23.21,13.4c.98.56,2.39.8,3.73.62l3.15-.42,4.33,2.5s0,0,0,0l.63-.44M136.32,85.72l-4.75,1.59c-1.56.52-3.54.37-4.83-.37l-6.56-3.79-.15-.09-.17-.09-8.2-4.74c-.59-.34-.97-.77-1.12-1.23v.06s-.02.01-.02.02c-.06.25-.05.5.02.74.14.46.53.9,1.12,1.24l8.2,4.74.16.09.15.09,6.56,3.79c1.28.74,3.26.89,4.83.37l4.05-1.36.69-1.05M192.77,106.17l-.28-.16-4.85,1.62c.39.08.81.13,1.29.16.21.01.41.02.61.03l2.96-.99.29.17c.09.05.17.1.23.15.23-.15.26-.27.28-.34.04-.12.07-.28-.53-.63M95.48,49.73c-.26-.06-.5-.14-.74-.23l-1.61.54,2.35-.31M211.88,107.25c-.02.32-.08.65-.17.97-.78,2.96-3.74,5.33-8.81,7.03-4.76,1.59-10.18,2.19-16.1,1.78-5.96-.41-10.92-1.73-14.73-3.93l-9.02-5.21c-.37-.21-.66-.46-.86-.73-.47-.11-.89-.28-1.26-.49l-16.41-9.48c-.54-.31-.9-.7-1.08-1.11-.71-.1-1.38-.31-1.93-.62l-6.56-3.79c-.59-.34-.97-.77-1.12-1.23-.02.07-.04.15-.05.22-.03.2,0,.4.05.6.14.46.53.89,1.12,1.23l6.56,3.79c.54.31,1.21.52,1.93.62.17.42.54.8,1.08,1.11l16.41,9.48c.37.21.8.38,1.26.49.2.27.49.52.86.73l9.03,5.21c3.81,2.2,8.76,3.52,14.73,3.93,5.92.41,11.33-.2,16.1-1.79,5.06-1.71,8.03-4.07,8.81-7.03.08-.32.14-.64.16-.96.02-.28.02-.56,0-.83M84.62,31.04c-.21.67-.91,1.25-1.93,1.59l-16.2,5.43.9.52,15.3-5.13c1.02-.34,1.72-.92,1.93-1.59.01-.04.02-.07.03-.11,0-.04.02-.08.02-.13.02-.2,0-.39-.06-.58M109.17,45.21c-.21.67-.9,1.26-1.93,1.6l-6.66,2.24,4.06-.55,2.6-.87c1.02-.34,1.72-.92,1.93-1.59.01-.04.02-.07.03-.11.02-.11.03-.23.03-.34,0-.12-.03-.25-.06-.37M125.82,54.82c-.12.39-.4.76-.86,1.08l-6.98,4.85,2.28-.76,4.71-3.27c.46-.32.74-.69.86-1.07.02-.08.04-.16.05-.24.02-.19,0-.39-.05-.58M162.49,75.99c-.04.14-.11.28-.2.42l-2.29,3.5.69-.23,1.6-2.45c.09-.13.15-.27.2-.41.09-.28.08-.56,0-.83M121.44,43c-1.2,0-2.44-.04-3.69-.13-5.97-.41-10.92-1.73-14.73-3.93-3.24-1.87-4.99-4.03-5.18-6.33,0,.03,0,.05,0,.08-.02.27-.01.53.01.79.21,2.28,1.96,4.43,5.17,6.28,3.81,2.2,8.77,3.52,14.74,3.93,1.06.07,2.11.11,3.13.12.15-.28.34-.55.56-.82M100.98,26.72l-9.46,3.17c-1.57.52-3.55.37-4.83-.37l-6.56-3.79c-.59-.34-.97-.77-1.12-1.23-.01.04-.02.07-.03.11-.05.24-.04.48.03.71.14.46.52.89,1.11,1.23l6.56,3.79c1.28.74,3.27.9,4.84.37l8.04-2.69c.4-.45.87-.88,1.41-1.29M123.72,32.01c-.71-.41-1.67-.65-2.93-.74-1.31-.09-2.41.03-3.36.35-.93.31-.99.52-1.02.65-.03.1-.06.24.3.48.15-.09.37-.19.73-.31.95-.32,2.05-.43,3.35-.34,1.27.08,2.23.32,2.94.73.09.05.17.1.24.15.23-.15.27-.27.29-.34.02-.12.07-.28-.53-.63M142.82,33.11c-.02.23-.05.46-.1.69l.11-.04c.01-.22,0-.44-.01-.65M171.09,46.67c-.21.67-.91,1.25-1.93,1.6l-14.48,4.86c-14.18,4.74-23.69,1.96-29.18-1.2-3.2-1.85-4.93-3.75-5.14-5.68,0,0,0,.01,0,.02-.03.27-.03.54,0,.81.22,1.92,1.94,3.82,5.14,5.67,5.48,3.17,15,5.94,29.19,1.2l14.48-4.86c1.02-.35,1.72-.93,1.93-1.59.01-.04.02-.08.03-.11.05-.24.04-.48-.03-.71M157.96,39.09c-.21.67-.9,1.25-1.93,1.6l-14.48,4.86c-.62.21-1.07.39-1.4.53,1.06.1,2.66-.32,3.94-.75l13.08-4.39c.4-.29.68-.64.79-1.02.01-.04.02-.08.03-.11.05-.24.04-.48-.03-.71M115.09,14.34c-.05.17-.13.34-.25.5l-1.11,1.53h.6s.51-.71.51-.71c.12-.16.2-.33.26-.5.08-.27.08-.55,0-.82"/>
        <path d="M60.45,68.86c-.36-.25-.32-.38-.29-.49.02-.12.09-.34,1.01-.65.95-.32,2.05-.43,3.36-.34,1.27.08,2.23.32,2.94.73.59.34.55.51.52.63-.02.07-.05.19-.28.34-.14.09-.36.2-.69.31-.06.02-.13.04-.19.06-.93.28-1.98.37-3.21.28-.9-.06-1.65-.2-2.27-.42-.25-.09-.47-.19-.67-.31-.09-.05-.17-.1-.23-.15M70.29,66.48c-1.36-.79-3.13-1.25-5.3-1.4s-4.12.06-5.83.64c-1.72.57-2.7,1.33-2.96,2.3-.25.97.3,1.84,1.66,2.62s3.12,1.25,5.3,1.4,4.13-.06,5.84-.63c1.72-.58,2.69-1.34,2.94-2.31.26-.96-.3-1.84-1.66-2.62M161.07,137.78c-.91-.52-1.28-1.11-1.12-1.75.16-.64.82-1.15,1.98-1.53,1.14-.39,2.43-.53,3.88-.43,1.45.1,2.62.41,3.53.94s1.28,1.11,1.12,1.75c-.17.65-.82,1.16-1.96,1.54-1.16.38-2.46.52-3.9.42-1.45-.1-2.62-.41-3.53-.94M157.98,125.16c-.36-.25-.32-.38-.29-.49.02-.12.09-.34,1.01-.65.95-.32,2.05-.43,3.36-.34.46.03.89.08,1.27.15l-1.89.63-2.95.99-.28-.16c-.09-.05-.17-.1-.23-.15M65.86,56.36l-28.98,9.71-6.57-3.79,6.29-9.59-14.5,4.85-6.56-3.79,28.98-9.71,6.56,3.79-6.28,9.6,14.48-4.87,6.57,3.79M49.59,73.42c-3.17-1.83-4.47-3.87-3.88-6.11.59-2.24,2.88-4.03,6.89-5.37,4-1.35,8.52-1.85,13.6-1.5,5.07.35,9.2,1.44,12.37,3.27s4.46,3.87,3.88,6.11c-.59,2.24-2.88,4.04-6.87,5.39-4.01,1.34-8.55,1.83-13.62,1.49-5.08-.35-9.2-1.44-12.37-3.27M107.28,80.28l-8.28,2.78-5.75-3.32-20.7,6.93-6.56-3.79,20.7-6.93-5.75-3.32,8.28-2.78,18.06,10.42M129.47,93.09l-28.98,9.71-6.57-3.79,10.35-3.47-7.39-4.26-10.35,3.47-6.56-3.79,28.98-9.71,6.56,3.79-10.35,3.47,7.39,4.26,10.35-3.47,6.57,3.79M139.04,98.61l-28.98,9.71-6.56-3.79,28.98-9.71,6.56,3.79M163.38,112.67l-28.98,9.71-6.57-3.79,6.29-9.59-14.5,4.85-6.56-3.79,28.98-9.71,6.56,3.79-6.28,9.6,14.48-4.87,6.57,3.79M147.12,129.72c-3.17-1.83-4.47-3.87-3.88-6.11.59-2.24,2.88-4.03,6.89-5.37,4-1.35,8.52-1.85,13.6-1.5,5.07.35,9.2,1.44,12.37,3.27l7.39,4.26-8.28,2.78-7.39-4.26c-1.36-.79-3.13-1.25-5.3-1.4s-4.12.06-5.83.64c-1.72.57-2.7,1.33-2.96,2.3-.25.97.3,1.84,1.66,2.62l2.46,1.42,8.28-2.78,6.56,3.79-16.55,5.55-9.03-5.21M193.33,129.96l-18.63,6.25-6.57-3.79,18.64-6.24,6.56,3.79M196.15,128.32l-.08-.04-1.19-.69-1.24-.71-1.29-.75-1.35-.78-1.42-.82s0,0,0,0c-.61-.35-1.36-.56-2.15-.64-.03-.09-.06-.18-.11-.26-.16-.32-.45-.62-.83-.87-.06-.04-.12-.08-.18-.11l-1.5-.86-1.82-1.05-2.02-1.17-2.05-1.19c-.11-.06-.22-.13-.33-.19-1.81-1-3.87-1.82-6.16-2.43-.77-.21-1.57-.39-2.4-.56-.65-.13-1.33-.25-2.01-.35-.23-.03-.45-.06-.68-.09,0,0-.02,0-.02,0-.17-.02-.34-.04-.51-.06-.37-.04-.75-.09-1.13-.12.87-.35,1.46-.89,1.64-1.49.01-.03.02-.07.03-.1.01-.04.02-.09.02-.13.04-.32-.04-.65-.22-.94-.2-.32-.52-.61-.94-.86l-6.57-3.79c-.43-.25-.94-.43-1.49-.54-.52-.11-1.08-.15-1.63-.13-.39.02-.78.07-1.16.15-.19.04-.37.09-.55.15l-.38.13-.89.3-.89.3h-.02s-.48.17-.48.17l-.69.23-.69.23-.69.23,2.28-3.49c.09-.14.15-.28.2-.42.02-.08.04-.16.05-.24.04-.32-.04-.65-.23-.95-.2-.32-.51-.61-.94-.86l-6.56-3.79c-.32-.18-.67-.33-1.05-.44-.28-.08-.58-.14-.88-.18-.08-.19-.2-.38-.36-.55-.19-.2-.43-.4-.72-.56l-6.56-3.79c-.32-.18-.67-.33-1.05-.44-.15-.04-.3-.08-.45-.11-.14-.03-.28-.05-.42-.07-.01-.03-.03-.07-.05-.1-.11-.23-.29-.45-.52-.65-.15-.13-.32-.25-.51-.36l-.32-.18-.93-.54-1.16-.67-1.64-.95-2.52-1.46c-.43-.25-.94-.43-1.49-.54-.52-.11-1.08-.15-1.63-.13-.39.02-.78.07-1.16.15-.18.04-.37.09-.54.15l-.39.13-.89.3-.11.04-.67.23-5.64,1.89-.61-.35-.9-.52,5.85-1.96c1.02-.34,1.72-.93,1.92-1.6.01-.03.02-.07.03-.1.01-.04.02-.09.02-.13.04-.32-.04-.65-.22-.95-.2-.32-.52-.62-.95-.86l-6.56-3.79c-.27-.15-.57-.28-.89-.39-.02,0-.05-.02-.07-.02-.09-.1-.19-.19-.31-.29-.06-.05-.12-.09-.18-.13-.07-.05-.14-.09-.22-.14l-.71-.41-1.16-.67-1.64-.95-14.55-8.4c-.31-.18-.66-.32-1.03-.43-.15-.04-.29-.08-.45-.11-.24-.05-.48-.08-.73-.11-.46-.04-.93-.04-1.39.01-.36.04-.71.11-1.05.21-.06.02-.13.04-.19.06l-.68.22c-.02-.11-.04-.22-.06-.33-.06-.27-.13-.53-.23-.79-.1-.26-.22-.52-.36-.77-.14-.25-.3-.51-.48-.76-.18-.25-.38-.5-.61-.74-.22-.24-.47-.48-.73-.72-.28-.25-.59-.5-.91-.75-.44-.33-.91-.65-1.43-.96-.11-.06-.21-.13-.32-.19-1-.58-2.08-1.09-3.23-1.55-1.03-.41-2.12-.77-3.28-1.08-.77-.21-1.56-.39-2.38-.55-.65-.13-1.33-.24-2.01-.35-.23-.03-.45-.06-.68-.09,0,0-.02,0-.02,0-.17-.02-.34-.04-.51-.06-.37-.04-.75-.09-1.13-.12.87-.35,1.46-.89,1.64-1.49.01-.03.02-.07.03-.1.01-.04.02-.09.02-.13.04-.32-.04-.65-.22-.94-.2-.32-.52-.61-.94-.86l-6.57-3.79c-.43-.25-.94-.43-1.49-.54-.52-.11-1.08-.15-1.63-.13-.39.02-.78.07-1.16.15-.19.04-.37.09-.55.15l-.37.13-.83.28-.96.32h-.02s-.48.17-.48.17l-.69.23-.69.23-.69.23,2.28-3.49c.09-.14.15-.28.2-.42.02-.08.04-.16.05-.24.04-.32-.04-.65-.23-.95-.2-.32-.51-.61-.94-.86l-6.56-3.79c-.43-.25-.94-.43-1.49-.54-.52-.11-1.08-.15-1.64-.13-.39.02-.79.07-1.16.15-.18.04-.37.09-.54.15l-.38.13-.65.22-.3.1-27.66,9.27c-1.07.36-1.8.99-1.96,1.71-.05.24-.04.48.03.72.15.46.53.89,1.12,1.23l6.56,3.79c1.28.74,3.26.89,4.83.37l4.75-1.59-.69,1.06-.69,1.05-.69,1.05-.22.33c-.14.21-.22.43-.25.65-.03.2,0,.4.05.6.14.46.52.89,1.11,1.23l6.57,3.79c1.28.74,3.26.89,4.83.36l2.83-.95c-.07.29-.11.58-.13.86-.02.26-.01.52,0,.77.2,2.29,1.96,4.43,5.18,6.29,3.81,2.2,8.77,3.52,14.74,3.93,2.99.21,5.86.15,8.57-.15l-3.16,1.06-2.54.85-.4.13c-.49.16-.9.38-1.23.64-.3.23-.52.5-.64.79-.04.09-.07.18-.09.28-.04.18-.04.36-.01.53.01.06.03.12.05.18.15.46.53.89,1.12,1.23l6.56,3.79c1.28.74,3.26.89,4.84.37l18.05-6.05,1.55.89-.89.3-15.3,5.13c-.5.17-.92.39-1.24.65-.38.31-.63.67-.71,1.06,0,0,0,0,0,0-.05.24-.04.48.03.71.15.46.53.89,1.11,1.22l6.56,3.79c1.29.74,3.27.9,4.84.37l7.7-2.58,1.51.87-.9.3-4.95,1.66c-.53.18-.97.42-1.3.7-.35.3-.58.64-.66,1.01,0,.01,0,.02,0,.04-.05.23-.03.46.04.68.15.46.53.89,1.11,1.22l6.57,3.79c.54.31,1.22.52,1.93.62.17.41.54.8,1.08,1.11l6.56,3.79c.55.32,1.22.52,1.93.62.17.42.53.81,1.08,1.12l6.56,3.79c1.28.74,3.26.89,4.83.37l4.75-1.59-.69,1.06-.69,1.05-.69,1.05-.22.33c-.14.21-.22.43-.25.65-.03.2,0,.4.05.6.14.46.52.89,1.11,1.23l6.57,3.79c1.28.74,3.26.89,4.83.36l2.83-.95c-.07.29-.11.58-.13.86-.02.26-.01.52,0,.77.2,2.29,1.96,4.43,5.18,6.29l9.03,5.21c.76.44,1.76.67,2.78.68.32.79,1.05,1.53,2.14,2.16,1.56.9,3.54,1.43,5.9,1.6,2.3.15,4.44-.08,6.37-.72,1.6-.54,2.57-1.21,3.15-1.85,1.01.15,2.1.08,3.05-.23l18.63-6.25c1.02-.34,1.73-.93,1.93-1.59.01-.03.02-.07.03-.11.04-.18.04-.35.01-.52-.05-.27-.17-.52-.37-.76-.2-.24-.46-.46-.8-.65M109.09,54.96l-10.1,1.35,4.45,2.57,5.65-3.91M133.54,68.7l-4.93-2.85-4.14,1.39,4.92,2.84c1.09.63,2.33.72,3.71.25,1.38-.46,1.53-1.01.44-1.64M187.65,107.63l4.85-1.62.28.16c.6.35.56.51.53.63-.02.07-.05.19-.28.34-.14.09-.36.19-.7.31-.81.27-1.73.39-2.78.37-.2,0-.4-.01-.61-.03-.48-.03-.9-.08-1.29-.16M195.6,104.53l-2.46-1.42-12.42,4.16,2.46,1.42c1.35.78,3.12,1.25,5.3,1.4,2.18.15,4.12-.06,5.84-.63,1.71-.57,2.69-1.34,2.94-2.31.25-.97-.3-1.84-1.66-2.62M93.13,50.05l1.61-.54c.24.09.48.17.74.23l-2.35.31M45.13,36.55l28.98-9.71,6.56,3.79-20.7,6.93,6.56,3.79-8.28,2.78-13.13-7.58M105.24,44.81l-8.28,2.78-9.85-5.69-2.07.69,8.2,4.74-8.28,2.78-8.2-4.74-2.08.69,9.85,5.69-8.28,2.78-16.41-9.48,28.98-9.71,16.41,9.48M76.48,54.65l37.19-4.98,8.2,4.74-20.77,14.45-6.57-3.79,2.97-2.06-9.14-5.28-5.31.71-6.56-3.79M101.34,69.01l28.98-9.71,11.49,6.64c5.47,3.16,4.76,5.89-2.14,8.21-5.53,1.85-10.58,1.95-15.18.3l-1.81,6.89-8.2-4.74,1.72-6.57-8.29,2.78-6.56-3.79M152.27,85.18l14.48-4.86,6.56,3.79-28.98,9.71-6.56-3.79,6.3-9.59-14.51,4.85-6.56-3.79,28.98-9.71,6.56,3.79-6.27,9.6M147.33,95.56l28.98-9.71,16.41,9.48-8.28,2.78-9.85-5.68-2.08.69,8.2,4.74-8.28,2.78-8.2-4.74-2.07.69,9.85,5.68-8.28,2.78-16.41-9.48M165.87,106.26l28.98-9.71,9.02,5.21c3.17,1.83,4.47,3.87,3.88,6.12-.59,2.24-2.88,4.03-6.87,5.38-4,1.34-8.54,1.84-13.62,1.49-5.07-.35-9.2-1.44-12.37-3.27l-9.02-5.21M206.7,100.11l-9.02-5.21c-.38-.22-.81-.38-1.26-.49-.2-.27-.49-.52-.86-.73l-16.41-9.48c-.54-.31-1.22-.52-1.93-.62-.17-.42-.53-.81-1.07-1.12l-6.56-3.79c-1.29-.74-3.28-.89-4.84-.37l-2.19.74-.48.16-.69.23-.69.23-.69.23,2.29-3.5c.09-.14.16-.28.2-.42.22-.74-.18-1.5-1.12-2.04l-6.56-3.79c-.26-.15-.55-.27-.85-.37-.54-.18-1.13-.28-1.74-.3-.76-.03-1.55.07-2.24.31l-.52.17c0-.2,0-.39-.04-.59-.04-.26-.11-.52-.21-.77-.1-.25-.22-.49-.37-.74-.15-.24-.32-.48-.52-.71-.19-.23-.41-.46-.66-.69-.24-.23-.5-.46-.79-.68-.29-.23-.59-.45-.93-.68-.34-.23-.7-.46-1.08-.68-.07-.04-.14-.08-.21-.12l-1-.58-1.26-.73-1.33-.77-1.42-.82-1.53-.88-1.68-.97-1.91-1.1-1.37-.79c-1-.58-2.43-.8-3.75-.62-.37.05-.74.13-1.08.25l-.17.06-1.02.34-.96.32-.32.11h0s-1.02.34-1.02.34l-2.28.76-2.28.76-2.28.76,6.98-4.85c.46-.32.75-.69.86-1.08.02-.08.04-.16.05-.24.04-.32-.03-.64-.22-.94-.2-.32-.51-.62-.95-.87l-1.97-1.14-1.57-.9-.58-.34-.2-.12-1.35-.78-1.58-.91-.95-.55c-.34-.2-.74-.36-1.18-.47-.49-.13-1.01-.2-1.55-.21-.34,0-.68.01-1.01.06l-1.77.24-1.75.23-.14.02-.94.13-3.52.47-4.06.55,6.66-2.24c1.03-.34,1.72-.93,1.93-1.6.01-.04.02-.07.03-.11.03-.11.03-.23.03-.34-.01-.32-.14-.64-.37-.92-.2-.25-.47-.47-.81-.67l-1.77-1.02-5.82-3.36-1.55-.9-.65-.38-.3-.18-.1-.06-.53-.31-.9-.52-.9-.52-.9-.52-.9-.52-.9-.52-.9-.52-.28-.16c-.24-.14-.5-.25-.78-.35-1.02-.35-2.26-.43-3.38-.2-.23.05-.46.11-.67.18l-.38.13-.89.3-.85.28-.48.16-15.45,5.18-.47-.27-.9-.52-.9-.52,16.2-5.43c1.02-.34,1.73-.92,1.93-1.59.01-.04.02-.07.03-.11,0-.04.02-.09.02-.13.04-.32-.04-.65-.22-.95-.2-.32-.52-.62-.95-.87l-4.32-2.49-.22-.12-2.03-1.17c-1.28-.74-3.27-.9-4.84-.37l-28.98,9.71c-1.07.36-1.8.99-1.95,1.7-.05.24-.04.48.03.71.15.46.53.89,1.12,1.23l13.13,7.58c.27.16.57.29.9.39.18.18.41.36.68.52l23.21,13.4c.98.56,2.39.8,3.73.62l3.15-.42,4.97,2.87-.63.44s0,0,0,0c-.22.16-.41.32-.55.5-.16.2-.27.41-.33.63-.06.25-.06.51.02.76.14.45.52.88,1.12,1.23l6.57,3.79.12.07.12.07,6.56,3.79c1.29.74,3.27.9,4.83.37l1.07-.36-.24.9-.23.89s0,0,0,.01c-.06.25-.06.51.02.75.14.46.53.89,1.12,1.23l8.2,4.74.17.09.15.09,6.56,3.79c1.28.74,3.26.89,4.83.37l4.75-1.59-.69,1.05-.69,1.05-.69,1.05-.22.34c-.14.21-.22.42-.25.64-.03.2,0,.4.05.6.14.46.53.89,1.12,1.23l6.56,3.79c.54.31,1.21.52,1.93.62.17.42.54.8,1.08,1.11l16.41,9.48c.37.21.8.38,1.26.49.2.27.49.52.86.73l9.02,5.21c3.81,2.2,8.77,3.53,14.73,3.93,5.93.41,11.34-.19,16.1-1.78,5.06-1.71,8.03-4.07,8.81-7.03.09-.33.14-.65.17-.97.2-2.6-1.57-5.05-5.18-7.13M116.71,32.75c-.35-.25-.32-.38-.3-.48.03-.12.09-.34,1.02-.65.95-.32,2.05-.43,3.36-.35,1.26.09,2.22.33,2.93.74.6.35.55.51.53.63-.02.07-.05.19-.29.34-.14.09-.36.2-.69.31-.06.02-.13.04-.19.06-.93.27-1.97.37-3.21.28-.9-.06-1.65-.2-2.26-.43-.25-.09-.47-.19-.67-.31-.09-.05-.16-.1-.23-.14M126.54,30.37c-1.36-.79-3.13-1.25-5.3-1.39-2.18-.15-4.12.06-5.83.64-1.72.57-2.7,1.33-2.95,2.3-.25.96.3,1.84,1.66,2.62s3.13,1.25,5.3,1.4c2.18.15,4.12-.07,5.84-.63,1.71-.58,2.69-1.35,2.94-2.31.25-.97-.3-1.84-1.66-2.62M107.63,18.77l11.62-.17,7.45,4.3-22.26.42-1.43.03-13.5,4.52-6.56-3.79,13.68-4.59.42-.49,6.67-9.37,7.43,4.29-3.52,4.84M105.84,37.31c-3.17-1.83-4.46-3.87-3.88-6.11.59-2.24,2.88-4.03,6.89-5.37,4-1.35,8.54-1.85,13.6-1.5,5.07.35,9.2,1.44,12.37,3.27s4.46,3.87,3.88,6.11c-.59,2.24-2.88,4.04-6.87,5.39-4.01,1.34-8.55,1.83-13.62,1.49-5.07-.35-9.2-1.44-12.37-3.27M136.6,47.51c2.19,1.26,5.36,1.21,9.5-.18l14.49-4.86,6.56,3.79-14.48,4.87c-9.67,3.23-17.78,2.95-24.35-.84-6.56-3.79-5.01-7.3,4.65-10.54l14.49-4.86,6.56,3.79-14.49,4.86c-4.15,1.38-5.13,2.71-2.94,3.97M169.97,44.62l-6.56-3.79c-1.28-.74-3.26-.89-4.83-.37l-.59.2-.82.27-13.08,4.39c-1.28.43-2.88.85-3.94.75.32-.14.78-.32,1.4-.53l14.48-4.86c1.02-.34,1.72-.93,1.93-1.6.01-.04.02-.07.03-.11.16-.71-.27-1.43-1.15-1.94l-6.56-3.79c-1.29-.74-3.27-.9-4.83-.37l-2.62.88-.11.04c.05-.23.08-.46.1-.69.21-2.61-1.56-5.06-5.18-7.15-2.01-1.16-4.34-2.08-6.97-2.75.16-.7-.26-1.43-1.15-1.94l-7.45-4.3c-.78-.45-1.84-.7-2.94-.68l-3.96.06h-.23s-.6.01-.6.01h-.6s1.11-1.52,1.11-1.52c.12-.16.2-.33.25-.5.22-.74-.18-1.5-1.12-2.05l-7.43-4.29c-.95-.55-2.3-.79-3.61-.64-1.3.15-2.4.67-2.91,1.39l-6.48,9.11-12.6,4.22c-1.08.36-1.8.99-1.96,1.7-.05.24-.03.48.04.71.15.46.53.89,1.12,1.23l6.56,3.79c1.28.74,3.26.89,4.83.37l9.46-3.17c-.54.41-1.01.84-1.41,1.29-.32.35-.59.72-.82,1.09-.2.32-.36.65-.5.99-.1.24-.18.49-.25.74-.01.06-.03.11-.04.17-.07.29-.11.58-.13.86-.02.25-.01.49,0,.74.19,2.3,1.94,4.46,5.18,6.33,3.81,2.2,8.76,3.52,14.73,3.93,1.25.08,2.49.13,3.69.13-.22.27-.4.54-.56.82-.15.27-.27.54-.35.81-.04.12-.07.25-.1.37-.03.15-.06.29-.07.44-.03.27-.03.53,0,.8.21,1.93,1.94,3.83,5.14,5.68,5.48,3.17,15,5.95,29.18,1.2l14.48-4.86c1.02-.35,1.72-.93,1.93-1.6.01-.04.02-.07.03-.11.16-.71-.28-1.43-1.16-1.94"/>
        <path class="cls-3" d="M169.34,135c-.91-.52-2.09-.84-3.53-.94-1.45-.09-2.74.05-3.88.43-1.16.38-1.82.89-1.98,1.53-.16.64.21,1.22,1.12,1.75s2.09.84,3.53.94c1.44.1,2.74-.04,3.9-.42,1.14-.38,1.8-.9,1.96-1.54.16-.64-.21-1.22-1.12-1.75M65.86,56.36l-6.57-3.79-14.48,4.87,6.28-9.6-6.56-3.79-28.98,9.71,6.56,3.79,14.5-4.85-6.29,9.59,6.57,3.79,28.98-9.71M57.87,70.64c-1.36-.79-1.91-1.66-1.66-2.62.26-.96,1.24-1.73,2.96-2.3,1.71-.58,3.65-.79,5.83-.64s3.94.62,5.3,1.4,1.91,1.66,1.66,2.62c-.25.97-1.22,1.73-2.94,2.31-1.72.57-3.67.78-5.84.63s-3.94-.62-5.3-1.4M78.58,63.7c-3.17-1.83-7.3-2.92-12.37-3.27-5.08-.35-9.61.15-13.6,1.5-4.01,1.34-6.3,3.13-6.89,5.37-.59,2.24.7,4.28,3.88,6.11s7.29,2.92,12.37,3.27c5.07.35,9.61-.15,13.62-1.49,4-1.35,6.28-3.14,6.87-5.39.59-2.24-.7-4.28-3.88-6.11M107.28,80.28l-18.06-10.42-8.28,2.78,5.75,3.32-20.7,6.93,6.56,3.79,20.7-6.93,5.75,3.32,8.28-2.78M129.47,93.09l-6.57-3.79-10.35,3.47-7.39-4.26,10.35-3.47-6.56-3.79-28.98,9.71,6.56,3.79,10.35-3.47,7.39,4.26-10.35,3.47,6.57,3.79,28.98-9.71M139.04,98.61l-6.56-3.79-28.98,9.71,6.56,3.79,28.98-9.71M163.38,112.67l-6.57-3.79-14.48,4.87,6.28-9.6-6.56-3.79-28.98,9.71,6.56,3.79,14.5-4.85-6.29,9.59,6.57,3.79,28.98-9.71M183.49,124.27l-7.39-4.26c-3.17-1.83-7.3-2.92-12.37-3.27-5.08-.35-9.61.15-13.6,1.5-4.01,1.34-6.3,3.13-6.89,5.37-.59,2.24.7,4.28,3.88,6.11l9.03,5.21,16.55-5.55-6.56-3.79-8.28,2.78-2.46-1.42c-1.36-.79-1.91-1.66-1.66-2.62.26-.96,1.24-1.73,2.96-2.3,1.71-.58,3.65-.79,5.83-.64s3.94.62,5.3,1.4l7.39,4.26,8.28-2.78M193.33,129.96l-6.56-3.79-18.64,6.24,6.57,3.79,18.63-6.25M80.68,30.63l-6.56-3.79-28.98,9.71,13.13,7.58,8.28-2.78-6.56-3.79,20.7-6.93M105.24,44.81l-16.41-9.48-28.98,9.71,16.41,9.48,8.28-2.78-9.85-5.69,2.08-.69,8.2,4.74,8.28-2.78-8.2-4.74,2.07-.69,9.85,5.69,8.28-2.78M98.99,56.31l10.1-1.35-5.65,3.91-4.45-2.57M121.87,54.41l-8.2-4.74-37.19,4.98,6.56,3.79,5.31-.71,9.14,5.28-2.97,2.06,6.57,3.79,20.77-14.45M124.47,67.24l4.14-1.39,4.93,2.85c1.09.63.95,1.18-.44,1.64-1.38.46-2.62.38-3.71-.25l-4.92-2.84M141.82,65.93l-11.49-6.64-28.98,9.71,6.56,3.79,8.29-2.78-1.72,6.57,8.2,4.74,1.81-6.89c4.6,1.65,9.66,1.55,15.18-.3,6.9-2.31,7.61-5.05,2.14-8.21M173.32,84.11l-6.56-3.79-14.48,4.86,6.27-9.6-6.56-3.79-28.98,9.71,6.56,3.79,14.51-4.85-6.3,9.59,6.56,3.79,28.98-9.71M192.73,95.32l-16.41-9.48-28.98,9.71,16.41,9.48,8.28-2.78-9.85-5.68,2.07-.69,8.2,4.74,8.28-2.78-8.2-4.74,2.08-.69,9.85,5.68,8.28-2.78M180.71,107.27l12.42-4.16,2.46,1.42c1.36.79,1.91,1.66,1.66,2.62-.25.97-1.23,1.74-2.94,2.31-1.72.57-3.67.78-5.84.63-2.18-.15-3.94-.62-5.3-1.4l-2.46-1.42M203.87,101.75l-9.02-5.21-28.98,9.71,9.02,5.21c3.17,1.83,7.3,2.92,12.37,3.27,5.08.35,9.62-.15,13.62-1.49,4-1.35,6.29-3.14,6.87-5.38.59-2.25-.71-4.28-3.88-6.12M126.7,22.9l-7.45-4.3-11.62.17,3.52-4.84-7.43-4.29-6.67,9.37-.42.49-13.68,4.59,6.56,3.79,13.5-4.52,1.43-.03,22.26-.42M114.11,34.53c-1.35-.78-1.91-1.66-1.66-2.62.25-.97,1.24-1.73,2.95-2.3,1.72-.58,3.65-.79,5.83-.64,2.18.15,3.94.61,5.3,1.39s1.91,1.66,1.66,2.62c-.25.96-1.23,1.73-2.94,2.31-1.72.56-3.67.78-5.84.63-2.18-.15-3.94-.62-5.3-1.4M134.82,27.59c-3.17-1.83-7.3-2.92-12.37-3.27-5.07-.35-9.61.15-13.6,1.5-4.01,1.34-6.3,3.13-6.89,5.37-.59,2.24.7,4.28,3.88,6.11s7.3,2.92,12.37,3.27c5.07.35,9.61-.15,13.62-1.49,4-1.35,6.29-3.14,6.87-5.39.59-2.24-.71-4.28-3.88-6.11M167.15,46.26l-6.56-3.79-14.49,4.86c-4.14,1.39-7.31,1.45-9.5.18s-1.21-2.59,2.94-3.97l14.49-4.86-6.56-3.79-14.49,4.86c-9.66,3.23-11.21,6.75-4.65,10.54,6.56,3.79,14.68,4.07,24.35.84l14.48-4.87"/>
      </g>
    </g>
  </g>
</svg>